<?xml version="1.0" standalone="no"?>
<!DOCTYPE svg PUBLIC "-//W3C//DTD SVG 20010904//EN"
 "http://www.w3.org/TR/2001/REC-SVG-20010904/DTD/svg10.dtd">
<svg version="1.0" xmlns="http://www.w3.org/2000/svg"
 width="700.000000pt" height="700.000000pt" viewBox="0 0 700.000000 700.000000"
 preserveAspectRatio="xMidYMid meet">
<metadata>
Created by potrace 1.11, written by Peter Selinger 2001-2013
</metadata>
<g transform="translate(0.000000,700.000000) scale(0.100000,-0.100000)"
fill="#000000" stroke="none">
<path d="M2 3533 l3 -3468 3465 0 3465 0 0 3465 0 3465 -3468 3 -3467 2 2
-3467z m3180 1786 c163 -33 331 -163 401 -309 98 -207 91 -462 -28 -990 -62
-273 -109 -487 -119 -540 -5 -24 21 13 87 125 384 660 638 960 928 1095 97 45
172 61 284 61 225 0 396 -90 471 -248 43 -93 57 -196 51 -383 -6 -180 -20
-281 -96 -675 -67 -350 -81 -446 -88 -605 -9 -210 22 -344 101 -437 42 -50
124 -85 199 -86 158 -2 288 124 362 353 22 67 59 106 109 116 108 20 204 -74
236 -230 41 -197 -94 -478 -311 -650 -229 -181 -489 -227 -764 -135 -210 70
-351 190 -441 375 -178 364 -147 953 96 1832 27 97 47 178 44 181 -7 7 -184
-171 -286 -288 -173 -199 -363 -470 -543 -771 -134 -225 -233 -410 -451 -844
-110 -217 -200 -384 -221 -407 -95 -105 -256 -104 -376 2 -87 76 -87 75 -87
340 0 611 93 1555 225 2288 19 107 33 196 31 198 -5 5 -89 -89 -161 -182 -352
-449 -658 -1029 -1112 -2100 -195 -461 -235 -547 -269 -592 -78 -102 -237 -97
-370 13 -82 66 -81 61 -87 399 -10 460 -33 696 -109 1072 l-42 213 20 27 c56
74 207 105 314 64 130 -50 209 -178 228 -371 l7 -74 44 119 c274 746 701 1458
1069 1781 246 216 461 303 654 263z"/>
</g>
</svg>
