<?xml version="1.0" encoding="UTF-8" standalone="no"?><!-- Generator: Gravit.io --><svg xmlns="http://www.w3.org/2000/svg" xmlns:xlink="http://www.w3.org/1999/xlink" style="isolation:isolate" viewBox="48.981 30.707 110.348 201.293" width="110.348pt" height="201.293pt"><defs><clipPath id="_clipPath_sforZaSia0cK6P5DxU5q2OkzUYoC0UAz"><rect x="48.981" y="30.707" width="110.348" height="201.293"/></clipPath></defs><g clip-path="url(#_clipPath_sforZaSia0cK6P5DxU5q2OkzUYoC0UAz)"><rect x="48.981" y="30.707" width="110.348" height="201.293" style="fill:rgb(255,0,0)" fill-opacity="0"/><g><path d=" M 59.68 55.907 C 61.485 54.174 63.417 52.533 65.478 51.002 C 91.558 31.619 128.43 37.005 147.765 63.021 C 167.1 89.038 161.624 125.896 135.544 145.279 C 109.463 164.662 72.592 159.276 53.256 133.26 C 51.843 131.358 50.562 129.398 49.416 127.39 C 65.059 143.392 90.539 145.775 108.995 132.059 C 129.13 117.095 133.328 88.599 118.364 68.465 C 104.581 49.919 79.317 44.894 59.68 55.907 Z " fill-rule="evenodd" fill="rgb(255,255,255)"/><path d=" M 60.142 55.662 C 60.341 55.509 60.542 55.357 60.744 55.207 C 83.861 38.027 116.576 42.847 133.756 65.963 C 150.936 89.079 146.117 121.795 123 138.975 C 99.884 156.155 67.168 151.335 49.988 128.219 C 49.755 127.905 49.526 127.589 49.298 127.273 C 64.933 143.38 90.494 145.809 108.995 132.059 C 129.13 117.095 133.328 88.599 118.364 68.465 C 104.688 50.063 79.709 44.973 60.142 55.662 Z " fill-rule="evenodd" fill="rgb(240,240,240)"/></g><path d=" M 92.432 125.23 L 93.438 124.461 L 93.097 124.014 L 92.089 124.784 L 92.432 125.23 Z " fill="rgb(79,87,103)"/><path d=" M 85.149 114.739 L 86.156 113.97 L 85.816 113.523 L 84.809 114.291 L 85.149 114.739 Z " fill="rgb(79,87,103)"/><path d=" M 76.134 104.702 L 76.974 103.752 L 76.552 103.381 L 75.714 104.329 L 76.134 104.702 Z " fill="rgb(79,87,103)"/><path d=" M 64.891 95.696 L 65.73 94.747 L 65.308 94.373 L 64.469 95.323 L 64.891 95.696 Z " fill="rgb(79,87,103)"/><path d=" M 52.972 89.148 L 53.522 88.008 L 53.017 87.763 L 52.464 88.903 L 52.972 89.148 Z " fill="rgb(79,87,103)"/><path d=" M 100.978 135.956 C 100.978 135.956 100.412 134.955 99.423 133.203 C 98.429 131.454 97.037 128.931 95.234 125.975 C 94.358 124.483 93.319 122.918 92.256 121.243 C 91.124 119.612 89.981 117.858 88.657 116.142 C 87.396 114.379 85.952 112.666 84.518 110.9 C 82.992 109.216 81.517 107.432 79.844 105.836 C 79.019 105.027 78.229 104.183 77.38 103.407 C 76.521 102.641 75.665 101.879 74.815 101.122 C 73.986 100.344 73.084 99.667 72.209 98.976 C 71.331 98.29 70.465 97.613 69.612 96.946 C 67.814 95.742 66.135 94.487 64.437 93.462 C 62.719 92.473 61.14 91.456 59.602 90.662 C 58.057 89.886 56.639 89.177 55.382 88.546 C 54.118 87.937 52.963 87.517 52.039 87.115 C 50.177 86.341 49.113 85.898 49.113 85.898 L 48.981 86.243 C 48.981 86.243 50.035 86.696 51.88 87.489 C 52.796 87.902 53.938 88.333 55.19 88.954 C 56.432 89.596 57.833 90.319 59.361 91.108 C 60.88 91.915 62.436 92.944 64.129 93.948 C 65.803 94.985 67.456 96.251 69.226 97.466 C 70.063 98.138 70.914 98.82 71.777 99.512 C 72.636 100.206 73.524 100.888 74.339 101.67 C 75.169 102.431 76.01 103.197 76.85 103.965 C 77.683 104.744 78.459 105.59 79.265 106.401 C 80.902 108.003 82.343 109.789 83.835 111.475 C 85.235 113.243 86.645 114.954 87.874 116.716 C 89.164 118.431 90.276 120.187 91.379 121.816 C 92.415 123.49 93.426 125.053 94.278 126.547 C 96.033 129.502 97.39 132.033 98.364 133.794 C 99.331 135.558 99.886 136.566 99.886 136.566 L 100.978 135.956 Z " fill="rgb(152,117,94)"/><path d=" M 49.51 228.514 L 49.599 228.513 L 49.21 86.441 C 50.089 86.797 62.476 91.926 74.698 102.574 C 84.373 111.002 92.467 124.013 94.718 127.8 C 94.818 127.967 94.911 128.33 95.001 128.679 C 95.092 129.033 95.179 129.367 95.276 129.533 C 95.493 129.902 95.7 130.26 95.899 130.606 C 97.869 134.019 99.042 136.305 99.054 136.327 L 99.165 136.27 C 99.154 136.247 97.979 133.96 96.007 130.544 C 95.808 130.198 95.6 129.839 95.384 129.471 C 95.295 129.318 95.206 128.978 95.122 128.647 C 95.03 128.29 94.935 127.918 94.826 127.737 C 92.572 123.945 84.47 110.92 74.78 102.479 C 62.147 91.473 49.333 86.356 49.207 86.306 L 49.111 86.283 L 49.51 228.514 Z " fill="rgb(79,87,103)"/><path d=" M 80.117 140.996 L 79.695 141.075 C 79.695 141.075 78.755 139.849 78.1 138.254 C 77.444 136.658 77.592 135.327 77.592 135.327 L 77.918 135.418 L 80.117 140.996 Z " fill="rgb(12,155,134)"/><path d=" M 109.263 121.391 C 110.112 123.072 111.249 125.024 111.743 125.866 C 111.9 126.132 111.994 126.287 111.994 126.287 L 113.811 124.203 L 113.832 123.693 L 114.004 119.271 L 114.073 117.563 C 114.073 117.563 108.444 117.639 108.234 118.66 C 108.158 119.031 108.629 120.134 109.263 121.391 Z " fill="rgb(170,219,205)"/><path d=" M 110.05 117.733 C 109.834 117.559 107.895 117.622 107.768 118.605 C 107.641 119.587 108.442 121.122 108.794 121.274 C 109.147 121.425 111.501 122.315 111.501 122.315 L 111.307 121.571 L 111.78 121.274 L 111.54 119.302 C 111.54 119.302 110.383 118.003 110.05 117.733 Z " fill="rgb(3,104,99)"/><path d=" M 85.87 141.641 L 86.192 142.822 C 86.192 142.822 90.862 142.383 94.186 141.841 L 94.188 141.841 C 95.245 141.669 96.166 141.483 96.756 141.301 C 97.127 141.187 97.543 141.007 97.999 140.784 C 98.047 140.758 98.098 140.736 98.148 140.708 C 100.707 139.427 104.413 136.829 107.722 136.02 C 111.697 135.049 113.064 135.077 116.116 133.246 C 116.403 133.074 116.676 132.871 116.94 132.64 C 119.486 130.422 120.936 125.868 120.936 125.868 L 120.903 125.858 L 113.857 123.668 L 113.832 123.693 C 113.675 123.843 112.782 124.702 111.743 125.866 C 111.542 126.089 111.337 126.325 111.132 126.568 C 110.906 126.837 110.675 127.116 110.452 127.4 C 108.857 129.428 104.971 131.836 103.282 133.071 C 102.704 133.497 101.832 133.961 100.907 134.4 C 99.14 135.229 97.177 135.951 96.675 136.063 C 96.161 136.177 91.422 138.677 88.392 140.289 C 86.932 141.068 85.87 141.641 85.87 141.641 Z " fill="rgb(170,219,205)"/><path d=" M 102.075 135.582 C 102.783 136.619 103.468 136.962 103.468 136.962 L 104.228 137.085 C 104.228 137.085 103.751 136.551 103.449 135.171 C 103.148 133.79 103.385 132.99 103.385 132.99 C 103.306 132.944 103.149 132.975 102.959 133.053 C 102.315 133.308 101.257 134.066 101.257 134.066 C 101.257 134.066 101.366 134.55 102.075 135.582 Z " fill="rgb(3,104,99)"/><path d=" M 104.002 137.045 L 104.228 137.085 C 104.228 137.085 103.751 136.551 103.449 135.171 C 103.148 133.79 103.385 132.99 103.385 132.99 C 103.306 132.944 103.149 132.975 102.959 133.053 C 102.956 133.303 102.978 133.793 103.109 134.635 C 103.319 135.99 104.002 137.045 104.002 137.045 Z " fill="rgb(42,187,169)"/><path d=" M 83.581 138.342 L 83.581 140.233 C 83.581 140.233 84.749 140.244 86.392 140.261 C 86.582 140.266 86.78 140.269 86.983 140.272 L 87.209 140.274 C 87.589 140.279 87.987 140.284 88.392 140.289 C 88.786 140.294 89.186 140.302 89.592 140.307 L 90.416 140.32 C 92.979 140.363 95.481 140.419 96.354 140.487 C 96.711 140.515 97.281 140.627 97.999 140.784 C 101.333 141.519 107.846 143.279 110.995 142.548 C 113.893 141.877 117.772 136.702 119.808 133.487 C 120.462 132.46 120.923 131.631 121.106 131.218 C 121.22 130.957 121.326 130.635 121.425 130.277 C 121.973 128.287 122.264 125.184 122.264 125.184 L 121.686 125.471 L 120.903 125.858 L 120.736 125.942 C 120.736 125.942 118.654 129.507 115.792 132.133 C 114.336 133.467 112.681 134.56 110.995 134.816 C 108.502 135.196 106.211 135.046 104.132 134.806 C 102.991 134.674 101.916 134.514 100.907 134.4 C 100.065 134.303 99.272 134.238 98.524 134.245 C 96.574 134.263 91.671 135.703 88.01 136.872 L 87.999 136.875 C 85.5 137.673 83.581 138.342 83.581 138.342 Z " fill="rgb(208,235,228)"/><path d=" M 121.402 130.359 C 121.402 130.359 122.703 130.315 124.399 130.179 C 127.515 129.933 132.168 129.372 133.461 128.203 C 135.456 126.396 126.283 121.089 126.283 121.089 L 125.512 121.84 L 124.848 122.486 C 124.848 122.486 126.752 124.674 126.709 124.722 C 126.668 124.768 121.851 125.022 121.851 125.022 C 121.851 125.022 120.414 128.373 121.402 130.359 Z " fill="rgb(208,235,228)"/><path d=" M 121.402 130.359 C 121.402 130.359 121.557 130.356 121.73 130.349 C 122.181 130.328 123.17 130.277 124.399 130.179 C 124.409 130.077 124.688 127.065 125.905 126.069 C 127.142 125.055 131.232 125.42 131.232 125.42 C 131.232 125.42 128.914 123.5 127.814 122.851 C 126.714 122.203 125.512 121.84 125.512 121.84 L 124.848 122.486 C 124.848 122.486 126.752 124.674 126.709 124.722 C 126.691 124.74 125.862 124.796 124.894 124.854 C 123.514 124.933 121.851 125.022 121.851 125.022 C 121.851 125.022 121.783 125.189 121.686 125.471 C 121.359 126.434 121.045 129.213 121.402 130.359 Z " fill="rgb(170,219,205)"/><path d=" M 87.889 136.796 L 86.393 140.265 C 86.393 140.265 82.497 140.626 81.453 140.71 C 80.408 140.795 80.117 140.996 80.117 140.996 C 80.117 140.996 79.029 139.41 78.382 137.952 C 77.734 136.495 77.918 135.418 77.918 135.418 C 77.918 135.418 78.746 135.608 79.108 135.893 C 79.469 136.178 81.287 138.819 81.573 138.851 C 81.859 138.883 87.889 136.796 87.889 136.796 Z " fill="rgb(3,76,80)"/><path d=" M 89.694 140.309 L 88.731 142.56 C 88.731 142.56 83.943 143.879 83.582 143.784 C 83.22 143.689 82.429 140.361 82.429 139.189 C 82.429 138.016 83.813 136.495 84.204 136.654 C 84.596 136.812 84.967 141.28 85.389 141.28 C 85.658 141.28 88.392 140.29 88.392 140.29 L 89.694 140.309 Z " fill="rgb(3,104,99)"/><path d=" M 83.582 143.784 C 84.16 143.84 84.711 142.2 84.365 139.68 C 84.018 137.161 84.475 136.844 84.204 136.654 C 83.933 136.464 82.843 137.018 82.527 138.365 C 82.211 139.712 82.602 143.689 83.582 143.784 Z " fill="rgb(12,155,134)"/><path d=" M 87.216 140.707 L 87.759 142.823 L 88.731 142.56 L 89.694 140.309 L 88.392 140.29 L 87.216 140.707 Z " fill="rgb(3,76,80)"/><path d=" M 103.577 134.74 L 103.602 134.747 L 103.645 134.762 L 103.676 134.773 C 103.866 134.831 104.314 134.978 104.905 135.193 C 105.001 135.229 105.093 135.259 105.174 135.29 C 105.301 135.336 105.427 135.384 105.572 135.442 C 106.956 135.972 108.766 136.757 110.027 137.648 C 111.794 138.897 113.442 141.161 113.579 141.352 L 113.586 141.364 C 113.868 141.387 115.746 139.446 115.827 139.276 C 115.908 139.106 114.374 137.445 111.839 136.083 C 111.406 135.85 110.929 135.657 110.429 135.497 C 107.593 134.585 104.01 134.719 103.612 134.737 L 103.577 134.74 Z " fill="rgb(86,194,177)"/><path d=" M 103.577 134.74 L 103.602 134.747 L 103.645 134.762 L 103.676 134.773 C 103.896 134.849 104.454 135.036 104.905 135.193 C 105.001 135.229 105.093 135.259 105.174 135.29 C 105.301 135.336 105.427 135.384 105.572 135.442 C 106.069 135.645 106.746 135.967 108.221 136.765 C 110.12 137.79 113.157 141.425 113.157 141.425 L 113.586 141.364 L 113.579 141.352 C 113.497 141.215 112.818 140.084 111.472 138.745 C 110.034 137.318 108.635 136.507 108.581 136.337 C 108.546 136.225 109.656 135.787 110.429 135.497 C 107.593 134.585 104.01 134.719 103.612 134.737 L 103.577 134.74 Z " fill="rgb(42,187,169)"/><path d=" M 118.758 135.183 C 118.935 135.219 119.988 133.642 119.988 133.642 C 119.988 133.642 120.312 131.598 120.867 129.598 C 121.496 127.324 123.002 124.961 123.002 124.961 C 123.002 124.961 122.984 124.743 122.853 124.641 C 122.723 124.543 120.345 124.532 120.345 124.532 C 120.345 124.532 119.64 125.394 119.052 126.819 C 118.715 127.638 118.416 128.642 118.312 129.773 C 118.286 130.054 118.269 130.343 118.264 130.635 C 118.2 132.838 118.603 135.155 118.758 135.183 Z " fill="rgb(86,194,177)"/><path d=" M 118.264 130.635 L 120.211 130.27 C 120.211 130.27 120.317 129.775 120.629 128.817 C 120.954 127.818 121.463 126.601 121.463 126.601 L 119.052 126.819 C 118.715 127.638 118.416 128.642 118.312 129.773 C 118.286 130.054 118.269 130.343 118.264 130.635 Z " fill="rgb(42,128,115)"/><path d=" M 111.743 125.866 C 111.973 125.608 112.195 125.366 112.405 125.143 C 112.226 124.923 112.144 124.782 112.144 124.782 L 111.501 122.314 C 111.488 122.309 110.107 121.788 109.307 121.478 C 110.151 123.139 111.257 125.039 111.743 125.866 Z  M 111.385 121.678 L 111.308 121.57 L 111.307 121.571 C 111.315 121.582 111.34 121.619 111.385 121.678 Z  M 111.788 121.284 C 111.785 121.279 111.782 121.273 111.779 121.267 L 111.78 121.274 C 111.78 121.274 111.783 121.277 111.788 121.284 Z  M 111.074 118.786 C 111.044 118.51 111.029 118.231 111.029 117.952 C 110.932 118.031 110.794 118.149 110.628 118.306 C 110.778 118.465 110.934 118.634 111.074 118.786 Z " fill="rgb(130,205,186)"/><path d=" M 111.501 122.314 L 111.307 121.571 L 111.308 121.57 L 111.306 121.566 L 111.78 121.274 L 111.779 121.267 C 111.407 120.488 111.167 119.648 111.074 118.786 C 110.934 118.634 110.778 118.465 110.628 118.306 C 110.422 118.503 110.173 118.761 109.907 119.081 C 109.481 119.594 109.324 120.648 109.263 121.391 C 109.278 121.42 109.292 121.449 109.307 121.478 C 110.107 121.788 111.488 122.309 111.501 122.314 Z " fill="rgb(23,132,118)"/><path d=" M 115.792 132.133 C 116.753 131.251 117.626 130.264 118.362 129.341 C 118.45 128.704 118.597 128.113 118.772 127.578 C 118.61 127.588 118.445 127.593 118.276 127.593 C 118.072 127.593 117.864 127.586 117.65 127.57 C 114.553 127.349 112.978 125.846 112.405 125.143 C 112.195 125.366 111.973 125.608 111.743 125.866 C 111.542 126.089 111.337 126.325 111.132 126.568 C 111.097 127.453 111.337 129.431 113.857 131.048 C 114.529 131.479 115.181 131.836 115.792 132.133 Z " fill="rgb(130,205,186)"/><path d=" M 118.362 133.139 C 118.286 132.383 118.239 131.501 118.264 130.635 C 118.269 130.343 118.286 130.054 118.312 129.773 C 118.325 129.627 118.342 129.483 118.362 129.341 C 117.626 130.264 116.753 131.251 115.792 132.133 C 116.195 132.328 116.58 132.499 116.94 132.64 C 117.467 132.852 117.946 133.014 118.362 133.139 Z " fill="rgb(152,213,201)"/><path d=" M 120.093 133.031 C 120.596 132.217 120.951 131.568 121.106 131.218 C 121.106 131.217 121.106 131.217 121.106 131.216 C 121.218 130.959 121.383 130.358 121.401 130.358 C 121.402 130.358 121.402 130.358 121.402 130.359 C 121.193 129.939 121.093 129.459 121.064 128.962 C 120.992 129.173 120.926 129.386 120.867 129.598 C 120.498 130.928 120.231 132.276 120.093 133.031 Z " fill="rgb(152,213,201)"/><path d=" M 121.402 130.359 C 121.261 129.905 121.225 129.194 121.253 128.441 C 121.187 128.613 121.124 128.787 121.064 128.962 C 121.093 129.459 121.193 129.939 121.402 130.359 Z " fill="rgb(152,213,201)"/><path d=" M 121.402 130.359 C 121.404 130.359 121.558 130.356 121.73 130.349 C 121.73 130.349 121.808 128.589 122.875 127.113 C 123.907 125.686 124.835 124.902 124.894 124.854 C 124.582 124.872 124.256 124.89 123.939 124.908 L 123.813 125.443 C 123.813 125.443 123.19 126.092 122.036 126.689 C 121.773 127.211 121.494 127.813 121.253 128.441 C 121.225 129.194 121.261 129.905 121.402 130.359 Z " fill="rgb(130,205,186)"/><path d=" M 119.808 133.487 C 119.908 133.33 120.003 133.178 120.093 133.031 C 120.231 132.276 120.498 130.928 120.867 129.598 C 120.926 129.386 120.992 129.173 121.064 128.962 C 121.124 128.787 121.187 128.613 121.253 128.441 C 121.494 127.813 121.773 127.211 122.036 126.689 C 121.971 126.723 121.905 126.756 121.837 126.789 L 121.837 126.782 C 121.787 126.806 121.735 126.83 121.683 126.854 C 121.558 126.911 121.428 126.967 121.292 127.021 C 121.114 127.464 120.835 128.184 120.629 128.817 C 120.317 129.775 120.211 130.27 120.211 130.27 L 118.264 130.635 C 118.269 130.343 118.286 130.054 118.312 129.773 C 118.386 128.971 118.558 128.232 118.772 127.578 C 118.597 128.113 118.45 128.704 118.362 129.341 C 118.342 129.483 118.325 129.627 118.312 129.773 C 118.286 130.054 118.269 130.343 118.264 130.635 C 118.239 131.501 118.286 132.383 118.362 133.139 C 119.032 133.339 119.537 133.44 119.808 133.487 Z " fill="rgb(74,191,169)"/><path d=" M 118.264 130.635 L 120.211 130.27 C 120.211 130.27 120.317 129.775 120.629 128.817 C 120.835 128.184 121.114 127.464 121.292 127.021 C 120.588 127.301 119.744 127.521 118.772 127.578 C 118.558 128.232 118.386 128.971 118.312 129.773 C 118.286 130.054 118.269 130.343 118.264 130.635 Z " fill="rgb(40,149,130)"/><path d=" M 108.794 129.055 C 108.858 128.997 109.877 128.059 110.574 127.593 C 111.292 127.111 113.18 125.914 113.18 125.914 L 112.909 125.617 L 112.144 124.783 C 112.144 124.783 111.578 125.186 110.683 126.163 C 110.275 126.609 109.829 127.286 109.469 127.874 C 109.088 128.5 108.809 129.025 108.794 129.055 Z " fill="rgb(12,155,134)"/><path d=" M 109.469 127.874 C 109.798 127.582 110.33 127.149 110.987 126.743 C 112.108 126.049 112.909 125.617 112.909 125.617 L 112.144 124.783 C 112.144 124.783 111.578 125.186 110.683 126.163 C 110.275 126.609 109.829 127.286 109.469 127.874 Z " fill="rgb(42,128,115)"/><path d=" M 140.657 30.989 C 140.773 30.902 140.888 30.813 141 30.72 C 140.888 30.812 140.774 30.902 140.658 30.989 C 140.658 30.989 140.657 30.989 140.657 30.989 Z " fill-rule="evenodd" fill="none"/><linearGradient id="_lgradient_371" x1="29.52198067632839" y1="-19.904829545454334" x2="11.436231884057925" y2="-45.23393582564747" gradientTransform="matrix(-0.264,0,0,0.224,125.536,122.753)" gradientUnits="userSpaceOnUse"><stop offset="0%" stop-opacity="1" style="stop-color:rgb(204,233,224)"/><stop offset="100%" stop-opacity="1" style="stop-color:rgb(204,233,224)"/></linearGradient><path d=" M 125.272 122.977 C 125.361 122.904 125.449 122.829 125.536 122.753 C 125.449 122.829 125.361 122.904 125.272 122.977 Z " fill-rule="evenodd" fill="url(#_lgradient_371)"/><path d=" M 140.682 31.038 C 140.774 30.962 140.866 30.884 140.956 30.805 C 140.927 30.778 140.901 30.745 140.877 30.707 C 140.799 30.802 140.72 30.896 140.638 30.988 C 140.653 31.004 140.667 31.021 140.682 31.038 Z " fill-rule="evenodd" fill="none"/><path d=" M 112.72 113.203 L 116.905 112.846 L 123.022 114.211 L 125.842 115.894 L 125.89 120.238 L 124.185 123.659 L 119.09 124.957 L 112.19 122.914 L 112.72 113.203 Z " fill-rule="evenodd" fill="rgb(0,0,0)"/><path d=" M 121.661 124.273 L 118.914 124.64 L 115.82 124.444 L 112.032 122.388 L 115.219 120.163 L 118.468 118.749 C 118.468 118.749 122.355 118.767 122.335 118.977 C 122.327 119.058 123.291 121.303 121.661 124.273 Z " fill-rule="evenodd" fill="rgb(20,18,16)"/><linearGradient id="_lgradient_372" x1="296.81132075473306" y1="1.2602230483271342" x2="88.38962835457895" y2="252.97036393827597" gradientTransform="matrix(-0.034,0,-0.001,0.086,124.517,124.267)" gradientUnits="userSpaceOnUse"><stop offset="0%" stop-opacity="1" style="stop-color:rgb(212,71,133)"/><stop offset="100%" stop-opacity="1" style="stop-color:rgb(36,32,89)"/></linearGradient><path d=" M 124.482 124.353 C 124.488 124.348 124.494 124.343 124.499 124.338 L 124.517 124.267 C 124.511 124.271 124.506 124.275 124.501 124.279 L 124.482 124.353 Z " fill-rule="evenodd" fill="url(#_lgradient_372)"/><path d=" M 123.917 123.539 L 124.706 123.478 L 124.706 123.478 C 124.808 123.308 124.912 123.12 125.017 122.912 C 124.912 123.119 124.807 123.307 124.705 123.478 L 123.917 123.539 Z  M 125.72 121.194 C 125.749 121.107 125.777 121.019 125.805 120.928 C 125.857 120.758 125.904 120.591 125.946 120.427 C 125.904 120.591 125.857 120.758 125.804 120.929 C 125.777 121.019 125.749 121.107 125.72 121.194 Z  M 126.264 117.43 C 126.207 116.454 125.998 115.9 125.998 115.9 C 125.998 115.9 125.632 115.661 125.007 115.311 C 125.007 115.312 125.007 115.312 125.007 115.312 C 125.631 115.661 125.997 115.9 125.997 115.9 C 125.997 115.9 126.207 116.454 126.264 117.43 Z " fill="rgb(63,180,172)"/><path d=" M 117.256 119.541 C 114.77 120.265 112.917 122.45 112.901 122.437 C 112.263 121.939 111.852 121.487 111.804 121.419 C 110.826 119.347 110.771 116.87 111.866 114.657 C 112.014 114.356 112.182 114.067 112.364 113.794 L 112.367 113.794 C 112.477 113.629 112.605 113.467 112.725 113.312 L 112.742 113.327 L 113.354 113.418 C 113.971 113.527 120.448 114.48 122.022 118.1 C 122.149 118.393 122.252 118.695 122.334 118.977 L 121.571 118.93 L 121.522 118.93 C 120.244 118.919 118.821 119.085 117.256 119.541 Z " fill-rule="evenodd" fill="rgb(16,16,16)"/><path d=" M 113.354 113.418 C 112.961 113.354 112.742 113.327 112.742 113.327 L 112.725 113.312 C 112.605 113.467 112.477 113.629 112.367 113.794 L 112.364 113.794 C 112.182 114.067 112.014 114.356 111.866 114.657 C 110.771 116.87 110.826 119.347 111.804 121.419 C 111.842 121.5 112.256 121.935 112.928 122.451 C 113.046 122.408 112.998 122.296 113 122.293 L 112.746 122.257 C 111.44 120.065 111.239 117.285 112.454 114.829 C 112.603 114.528 112.77 114.239 112.952 113.967 L 112.956 113.965 L 113.354 113.418 Z " fill-rule="evenodd" fill="rgb(16,16,16)"/><path d=" M 112.956 113.965 L 112.952 113.967 C 112.77 114.239 112.603 114.528 112.454 114.829 C 111.239 117.285 111.44 120.065 112.746 122.257 L 112.888 122.411 C 113.546 121.533 114.77 120.265 117.256 119.541 C 118.816 119.087 120.234 118.92 121.522 118.93 L 121.571 118.93 L 122.334 118.977 C 122.252 118.695 122.149 118.393 122.022 118.1 C 120.448 114.48 113.971 113.527 113.354 113.418 L 112.956 113.965 Z " fill-rule="evenodd" fill="rgb(16,16,16)"/><path d=" M 112.611 113.355 L 112.169 112.974 C 112.169 112.974 113.973 111.944 118.838 112.728 C 123.564 113.491 125.903 115.309 125.903 115.309 C 125.903 115.309 126.479 117.692 125.814 120.646 C 125.149 123.601 123.243 124.558 123.243 124.558 L 122.032 124.427 C 122.032 124.427 123.883 123.665 124.832 121.097 C 125.853 118.337 125.199 115.73 125.199 115.73 C 125.199 115.73 119.307 111.984 112.611 113.355 Z " fill="rgb(68,191,179)"/><path d=" M 126.503 121.014 C 125.942 122.183 125.138 123.162 124.183 123.917 C 124.116 123.969 124.049 124.021 123.98 124.072 C 123.91 124.123 123.841 124.171 123.773 124.22 L 123.746 124.239 C 123.583 124.351 123.414 124.46 123.243 124.559 C 123.325 124.495 123.802 124.098 124.355 123.156 L 124.36 123.147 C 124.708 122.552 125.087 121.737 125.409 120.652 C 126.297 117.664 125.555 115.749 125.555 115.749 C 125.555 115.749 125.195 115.519 124.583 115.183 C 123.211 114.435 120.564 113.162 117.791 112.756 C 113.898 112.186 112.267 112.927 112.169 112.973 C 112.749 112.078 113.481 111.324 114.315 110.734 L 114.319 110.732 C 115.496 109.897 116.878 109.389 118.313 109.253 L 118.321 109.254 C 118.369 109.249 118.413 109.244 118.459 109.242 C 119.851 109.133 121.291 109.381 122.64 110.028 C 122.737 110.075 122.834 110.124 122.93 110.176 C 124.196 110.844 125.218 111.8 125.955 112.925 L 125.972 112.951 C 127.492 115.281 127.793 118.324 126.503 121.014 Z " fill="rgb(208,235,228)"/><path d=" M 123.954 124.072 C 123.584 124.751 122.941 125.624 121.955 126.051 C 121.665 126.179 121.344 126.267 120.993 126.299 C 118.527 126.526 113.328 124.399 113.328 124.399 L 111.306 121.566 L 111.78 121.274 C 111.78 121.274 113.128 123.234 116.618 123.862 C 118.221 124.149 119.532 124.166 120.567 124.063 C 122.576 123.865 123.592 123.213 123.592 123.213 L 124.36 123.147 L 124.364 123.145 C 124.364 123.145 124.24 123.55 123.954 124.072 Z " fill="rgb(68,191,179)"/><path d=" M 124.365 123.145 L 124.171 123.916 L 123.79 125.438 C 123.79 125.438 123.05 126.231 121.683 126.854 C 120.67 127.319 119.311 127.69 117.65 127.57 C 113.586 127.28 112.144 124.782 112.144 124.782 L 111.307 121.571 C 111.383 121.682 113.198 124.309 118.049 124.757 C 119.487 124.89 120.68 124.784 121.641 124.581 L 121.644 124.582 L 121.646 124.585 C 123.599 124.164 124.172 123.34 124.356 123.157 L 124.365 123.145 Z " fill="rgb(208,235,228)"/><path d=" M 124.168 123.929 C 124.168 123.929 124.168 123.928 124.168 123.928 L 124.17 123.921 C 124.639 123.551 125.071 123.127 125.456 122.652 C 125.367 122.5 125.323 122.257 125.323 121.949 C 125.322 121.386 125.469 120.608 125.757 119.783 C 125.88 119.433 126.013 119.111 126.149 118.827 C 126.181 118.536 126.197 118.243 126.196 117.954 L 126.196 117.926 C 126.086 116.618 125.726 114.808 124.659 113.197 C 124.549 113.039 124.432 112.887 124.306 112.742 C 123.584 111.868 122.667 111.139 121.58 110.618 C 121.049 110.363 120.504 110.171 119.954 110.039 C 120.483 110.352 121.035 110.718 121.572 111.139 C 123.689 112.802 124.493 114.97 124.565 115.174 C 124.571 115.177 124.577 115.18 124.583 115.183 C 125.195 115.519 125.555 115.749 125.555 115.749 C 125.555 115.749 126.297 117.664 125.409 120.652 C 125.087 121.737 124.708 122.552 124.36 123.146 L 124.364 123.145 C 124.364 123.145 124.363 123.146 124.363 123.147 L 124.365 123.145 L 124.171 123.916 L 124.168 123.929 Z " fill="rgb(169,220,213)"/><path d=" M 121.742 124.564 C 123.618 124.137 124.175 123.337 124.356 123.157 L 124.363 123.147 C 124.363 123.146 124.364 123.145 124.364 123.145 L 124.36 123.146 L 124.36 123.147 L 124.348 123.148 C 124.348 123.149 124.347 123.15 124.346 123.151 L 123.584 123.217 C 123.577 123.222 123.566 123.229 123.549 123.238 C 123.377 123.351 122.476 123.892 120.792 124.069 C 120.958 124.209 121.264 124.371 121.742 124.564 Z " fill="rgb(63,180,172)"/><path d=" M 121.837 126.782 C 121.907 126.748 121.974 126.715 122.041 126.681 C 123.179 126.094 123.79 125.438 123.79 125.438 L 123.923 124.909 L 123.943 124.827 L 124.15 124.001 L 124.168 123.929 L 124.171 123.916 L 124.365 123.145 L 124.363 123.147 L 124.356 123.157 C 124.175 123.337 123.618 124.137 121.742 124.564 C 121.761 124.572 121.78 124.579 121.799 124.587 L 121.801 124.587 L 121.803 124.59 C 121.844 124.608 121.822 125.745 121.837 126.782 Z " fill="rgb(169,220,213)"/><path d=" M 127.662 117.53 L 127.642 117.56 L 126.204 119.748 C 126.204 119.748 126.209 119.714 126.211 119.646 L 126.212 119.643 L 126.213 119.635 C 126.227 119.467 126.246 119.121 126.237 118.656 C 126.23 118.439 126.219 118.192 126.196 117.926 C 126.086 116.618 125.726 114.808 124.659 113.197 C 124.559 113.038 124.446 112.881 124.329 112.732 C 123.814 112.06 123.163 111.441 122.343 110.924 C 119.145 108.911 116.273 109.793 115.048 110.325 C 114.709 110.473 114.396 110.688 114.349 110.717 C 114.5 110.56 117.875 107.122 122.602 109.116 C 123.975 109.696 124.987 110.444 125.73 111.254 L 125.787 111.318 C 128.142 113.95 127.711 117.208 127.667 117.508 L 127.662 117.53 Z " fill="rgb(86,194,177)"/><path d=" M 125.812 120.646 C 125.766 120.742 125.573 121.1 125.524 121.191 C 125.857 120.421 126.065 119.624 126.149 118.827 C 126.182 118.527 126.197 118.224 126.196 117.926 C 126.191 116.229 125.651 114.57 124.659 113.197 C 124.549 113.039 124.432 112.887 124.306 112.742 C 123.584 111.868 122.667 111.139 121.58 110.618 C 119.184 109.469 116.507 109.597 114.319 110.732 C 114.532 110.582 114.751 110.44 114.978 110.311 C 115.997 109.725 117.137 109.363 118.313 109.253 L 118.321 109.254 C 119.505 109.253 120.708 109.511 121.849 110.058 C 123.129 110.672 124.191 111.551 124.982 112.594 C 126.188 114.183 126.767 116.152 126.536 118.146 C 126.481 118.643 126.375 119.14 126.213 119.635 L 126.192 119.697 L 126.191 119.7 C 126.157 119.815 126.117 119.929 126.07 120.041 C 125.996 120.244 125.909 120.446 125.812 120.646 Z " fill="rgb(42,187,169)"/><path d=" M 126.536 118.146 C 126.841 117.692 127.145 117.431 127.388 117.431 C 127.423 117.431 127.456 117.436 127.488 117.447 C 127.535 117.463 127.579 117.49 127.614 117.531 L 127.667 117.508 C 127.68 117.421 127.726 117.081 127.726 116.578 C 127.725 115.359 127.455 113.181 125.787 111.318 L 125.73 111.254 L 124.982 112.594 C 126.188 114.183 126.767 116.152 126.536 118.146 Z  M 126.196 117.926 C 126.191 116.229 125.651 114.57 124.659 113.197 C 125.726 114.808 126.086 116.618 126.196 117.926 Z " fill="rgb(42,178,153)"/><path d=" M 126.149 118.827 C 126.177 118.769 126.208 118.711 126.237 118.656 C 126.335 118.465 126.434 118.296 126.536 118.146 C 126.767 116.152 126.188 114.183 124.982 112.594 L 124.329 112.732 L 124.306 112.736 L 124.306 112.742 C 124.432 112.887 124.549 113.039 124.659 113.197 C 125.651 114.57 126.191 116.229 126.196 117.926 L 126.196 117.954 C 126.197 118.243 126.181 118.536 126.149 118.827 Z " fill="rgb(29,160,142)"/><path d=" M 125.726 122.829 C 125.752 122.829 125.778 122.825 125.805 122.819 C 125.557 122.402 125.652 121.283 126.07 120.041 C 126.081 120.011 126.09 119.979 126.102 119.948 C 126.131 119.863 126.161 119.781 126.191 119.7 L 126.192 119.697 L 126.211 119.646 L 126.212 119.643 C 126.636 118.552 127.188 117.727 127.614 117.531 C 127.579 117.49 127.535 117.463 127.488 117.447 C 127.456 117.436 127.423 117.431 127.388 117.431 C 127.145 117.431 126.841 117.692 126.536 118.146 C 126.434 118.296 126.335 118.465 126.237 118.656 C 126.208 118.711 126.177 118.769 126.149 118.827 C 126.013 119.111 125.88 119.433 125.757 119.783 C 125.469 120.608 125.322 121.386 125.323 121.949 C 125.323 122.257 125.367 122.5 125.456 122.652 C 125.458 122.654 125.459 122.656 125.46 122.659 C 125.483 122.696 125.508 122.727 125.536 122.753 C 125.566 122.78 125.6 122.801 125.636 122.814 C 125.665 122.824 125.695 122.829 125.726 122.829 Z " fill="rgb(29,160,142)"/><path d=" M 126.074 122.994 C 126.543 122.994 127.275 121.944 127.768 120.528 C 128.054 119.704 128.2 118.925 128.2 118.362 C 128.2 117.892 128.097 117.571 127.887 117.5 C 127.858 117.49 127.827 117.485 127.795 117.485 C 127.754 117.485 127.711 117.493 127.667 117.508 L 127.614 117.531 C 127.188 117.727 126.636 118.552 126.212 119.643 L 126.211 119.646 L 126.192 119.697 L 126.191 119.7 C 126.161 119.781 126.131 119.863 126.102 119.948 C 126.09 119.979 126.081 120.011 126.07 120.041 C 125.652 121.283 125.557 122.402 125.805 122.819 C 125.851 122.901 125.909 122.954 125.982 122.979 C 126.011 122.989 126.042 122.994 126.074 122.994 Z " fill="rgb(42,178,153)"/><linearGradient id="_lgradient_373" x1="0.554996646545959" y1="0.001793951819578865" x2="0.5536246455709003" y2="0.8867350086538319" gradientTransform="matrix(0.089,0,0,3.487,49.51,228.513)" gradientUnits="userSpaceOnUse"><stop offset="0%" stop-opacity="1" style="stop-color:rgb(79,87,103)"/><stop offset="100%" stop-opacity="0" style="stop-color:rgb(77,77,77)"/></linearGradient><path d=" M 49.51 228.514 L 49.599 228.513 L 49.599 231.999 L 49.51 232 L 49.51 228.514 Z " fill-rule="evenodd" fill="url(#_lgradient_373)"/></g></svg>