<?xml version="1.0" encoding="UTF-8" standalone="no"?>
<!DOCTYPE svg PUBLIC "-//W3C//DTD SVG 1.1//EN" "http://www.w3.org/Graphics/SVG/1.1/DTD/svg11.dtd">
<svg width="100%" height="100%" viewBox="0 0 541 642" version="1.1" xmlns="http://www.w3.org/2000/svg" xmlns:xlink="http://www.w3.org/1999/xlink" xml:space="preserve" xmlns:serif="http://www.serif.com/" style="fill-rule:evenodd;clip-rule:evenodd;stroke-linejoin:round;stroke-miterlimit:2;">
    <g transform="matrix(-1,0,0,1,556.486,-9.45882)">
        <g transform="matrix(0.836331,-0.548224,0.548224,0.836331,-439.385,248.54)">
            <path d="M335.284,482.852C312.954,465.92 293.662,438.062 294.604,400.389C295.623,359.626 319.272,353.083 346.656,345.505C375.78,337.447 412.025,327.418 435.132,270.633C453.139,226.379 473.538,202.208 495.762,198.791C516.82,195.554 530.97,212.314 531.562,213.028L525.933,217.701C525.812,217.558 513.737,203.386 496.803,206.033C477.6,209.035 458.617,232.327 441.908,273.39C417.445,333.509 379.276,344.07 348.607,352.556C322.014,359.914 302.8,365.23 301.917,400.571C300.758,446.905 332.721,477.27 360.443,489.192C387.629,500.884 414.56,498.144 430.726,482.04L435.889,487.222C417.56,505.481 387.543,508.811 357.554,495.913C350.208,492.753 342.582,488.385 335.284,482.852Z" style="fill:rgb(179,180,181);fill-rule:nonzero;"/>
        </g>
        <g transform="matrix(0.836331,-0.548224,0.548224,0.836331,-439.385,248.54)">
            <path d="M451.739,720.034C450.976,719.429 450.227,718.835 449.488,718.252C460.796,709.609 475.644,697.07 491.795,682.894C545.674,635.599 614.071,570.062 614.071,570.062L503.986,490.791L492.236,475.954C467.956,517.178 441.276,586.249 423.384,636.254C415.02,659.632 408.573,678.849 405.195,689.095L405.14,689.261L379.551,730.021L466.016,786.891C466.016,786.891 498.556,757.222 451.739,720.034Z" style="fill:rgb(222,222,223);fill-rule:nonzero;"/>
        </g>
        <g transform="matrix(0.836331,-0.548224,0.548224,0.836331,-439.385,248.54)">
            <path d="M437.889,608.427C437.889,608.427 471.894,630.074 515.034,663.123L526.8,651.98C526.8,651.98 492.283,624.878 443.868,592.369L437.889,608.427Z" style="fill:rgb(121,38,46);fill-rule:nonzero;"/>
        </g>
        <g transform="matrix(0.836331,-0.548224,0.548224,0.836331,-439.385,248.54)">
            <path d="M581.892,508.293L455.528,412.474L434.132,452.73C418.645,499.16 390.683,523.519 364.177,536.245L373.717,617.367C506.634,627.108 581.892,508.293 581.892,508.293Z" style="fill:white;fill-rule:nonzero;"/>
        </g>
        <g transform="matrix(0.836331,-0.548224,0.548224,0.836331,-439.385,248.54)">
            <path d="M317.904,549.201C317.695,549.196 317.571,549.236 317.571,549.236L274.402,548.32L270.016,651.718C270.016,651.718 311.389,664.149 319.81,606.771C338.703,612.765 356.682,616.118 373.717,617.367L364.177,536.245C346.825,544.575 330.097,547.923 317.904,549.201Z" style="fill:rgb(109,110,110);fill-rule:nonzero;"/>
        </g>
        <g transform="matrix(0.836331,-0.548224,0.548224,0.836331,-439.385,248.54)">
            <path d="M491.704,496.024L408.258,432.749C392.705,420.955 389.657,398.785 401.451,383.231L534.896,207.249C546.934,191.373 569.561,188.263 585.437,200.3L657.401,277.506L491.704,496.024Z" style="fill:rgb(222,222,223);fill-rule:nonzero;"/>
        </g>
        <g transform="matrix(0.836331,-0.548224,0.548224,0.836331,-439.385,248.54)">
            <path d="M567.364,319.646L492.636,262.98L498.53,255.206L573.259,311.872L567.364,319.646Z" style="fill:rgb(179,180,181);fill-rule:nonzero;"/>
        </g>
        <g transform="matrix(0.836331,-0.548224,0.548224,0.836331,-439.385,248.54)">
            <path d="M500.23,408.18L425.501,351.515L431.396,343.741L506.125,400.406L500.23,408.18Z" style="fill:rgb(179,180,181);fill-rule:nonzero;"/>
        </g>
        <g transform="matrix(0.836331,-0.548224,0.548224,0.836331,-439.385,248.54)">
            <path d="M394.775,515.724C394.775,515.724 427.631,567.004 429.254,613.983L446.715,609.685C446.715,609.685 440.073,546.246 404.756,505.662L394.775,515.724Z" style="fill:rgb(145,43,49);fill-rule:nonzero;"/>
        </g>
        <g transform="matrix(0.836331,-0.548224,0.548224,0.836331,-439.385,248.54)">
            <path d="M755.519,209.85C688.143,158.759 632.039,203.436 632.039,203.436L626.664,199.361C624.2,197.492 620.687,197.975 618.819,200.439L580.763,250.626L572.327,261.752C569.24,265.823 567.911,270.961 568.639,276.019L569.59,309.73C570.325,314.849 572.921,319.517 576.881,322.843L608.652,349.529C683.044,413.972 711.327,406.862 711.327,406.862C777.493,393.764 834.145,269.471 755.519,209.85Z" style="fill:white;fill-rule:nonzero;"/>
        </g>
        <g transform="matrix(0.836331,-0.548224,0.548224,0.836331,-439.385,248.54)">
            <path d="M776.117,299.77C771.068,312.24 762.376,325.84 750.531,341.46C731.975,365.932 652.551,363.073 605.767,271.573L603.188,274.972C596.938,283.214 595.793,294.285 600.313,303.589C646.778,399.243 728.356,402.566 747.195,377.721C771.368,345.844 782.432,322.373 776.117,299.77Z" style="fill:rgb(47,46,46);fill-rule:nonzero;"/>
        </g>
        <g transform="matrix(0.836331,-0.548224,0.548224,0.836331,-439.385,248.54)">
            <path d="M750.531,341.461C762.376,325.84 771.068,312.24 776.117,299.77C771.628,283.7 758.358,268.067 734.749,250.165C677.934,207.083 625.249,245.879 625.249,245.879L605.767,271.573C652.551,363.073 731.975,365.932 750.531,341.461Z" style="fill:rgb(70,70,72);fill-rule:nonzero;"/>
        </g>
        <g transform="matrix(0.836331,-0.548224,0.548224,0.836331,-439.385,248.54)">
            <path d="M695.678,268.144C692.835,268.144 689.994,267.72 687.282,266.864C685.128,266.185 683.053,265.243 680.845,264.767C678.06,264.166 675.176,264.328 672.327,264.256C666.024,264.097 649.652,263.08 650.794,253.562C651.72,245.836 662.121,244.789 669.62,244.789C671.386,244.789 672.989,244.847 674.272,244.89C678.026,245.014 681.781,245.138 685.536,245.262C693.906,245.538 703.095,246.142 709.145,251.934C711.802,254.478 713.628,258.565 711.929,261.829C710.944,263.72 708.996,264.904 707.047,265.768C703.479,267.346 699.578,268.144 695.678,268.144Z" style="fill:rgb(199,199,200);fill-rule:nonzero;"/>
        </g>
        <g transform="matrix(0.836331,-0.548224,0.548224,0.836331,-439.385,248.54)">
            <path d="M646.419,235.332C646.419,235.332 711.916,203.249 771.203,282.983C782.564,299.215 776.78,322.977 776.78,322.977C776.78,322.977 792.219,275.97 742.096,238.116C688.218,202.426 653.618,230.031 646.419,235.332Z" style="fill:rgb(138,140,142);fill-rule:nonzero;"/>
        </g>
        <g transform="matrix(0.836331,-0.548224,0.548224,0.836331,-439.385,248.54)">
            <path d="M645.311,235.879C645.311,235.879 708.601,207.621 767.888,287.355C779.249,303.587 777.106,321.411 777.106,321.411C777.106,321.411 788.903,280.342 738.78,242.488C684.903,206.798 652.51,230.578 645.311,235.879Z" style="fill:rgb(89,89,91);fill-rule:nonzero;"/>
        </g>
        <g transform="matrix(0.836331,-0.548224,0.548224,0.836331,-439.385,248.54)">
            <path d="M646.419,235.332C646.419,235.332 710.258,205.435 769.546,285.169C780.907,301.401 777.271,320.19 777.271,320.19C777.271,320.19 790.561,278.156 740.438,240.302C686.561,204.612 653.618,230.031 646.419,235.332Z" style="fill:rgb(222,222,223);fill-rule:nonzero;"/>
        </g>
        <g transform="matrix(0.836331,-0.548224,0.548224,0.836331,-439.385,248.54)">
            <path d="M643.827,250.129C638.348,257.354 628.048,258.771 620.822,253.291C613.596,247.812 612.18,237.512 617.659,230.286C623.139,223.06 633.438,221.645 640.664,227.123C647.891,232.603 649.307,242.903 643.827,250.129Z" style="fill:rgb(109,110,110);fill-rule:nonzero;"/>
        </g>
        <g transform="matrix(0.836331,-0.548224,0.548224,0.836331,-439.385,248.54)">
            <path d="M643.749,236.232C642.943,233.587 641.34,231.159 638.968,229.36C632.978,224.818 624.439,225.992 619.896,231.982C618.098,234.354 617.209,237.124 617.147,239.889C617.052,244.107 618.898,248.311 622.518,251.055C628.509,255.597 637.048,254.423 641.59,248.433C644.334,244.814 644.979,240.269 643.749,236.232Z" style="fill:white;fill-rule:nonzero;"/>
        </g>
        <g transform="matrix(0.836331,-0.548224,0.548224,0.836331,-439.385,248.54)">
            <path d="M630.733,253.821C627.867,253.821 624.977,252.92 622.518,251.055C618.983,248.375 617.139,244.304 617.143,240.186C617.143,240.087 617.144,239.988 617.147,239.889C617.952,242.535 619.556,244.962 621.928,246.761C624.388,248.626 627.277,249.528 630.143,249.528C634.257,249.527 638.323,247.67 641,244.139C642.798,241.767 643.686,238.997 643.749,236.232C644.143,237.525 644.344,238.87 644.346,240.22C644.35,243.085 643.455,245.973 641.59,248.433C638.913,251.964 634.847,253.821 630.733,253.821Z" style="fill:rgb(213,213,213);fill-rule:nonzero;"/>
        </g>
        <g transform="matrix(0.836331,-0.548224,0.548224,0.836331,-439.385,248.54)">
            <path d="M711.327,406.862C711.327,406.862 749.264,489.381 841.365,419.378L871.863,447.263C871.863,447.263 792.564,576.306 671.287,477.827L608.907,566.146L614.071,570.061L596.668,593.014L435.36,470.697L577.623,312.401L660.142,382.94L711.327,406.862Z" style="fill:white;fill-rule:nonzero;"/>
        </g>
        <g transform="matrix(0.836331,-0.548224,0.548224,0.836331,-439.385,248.54)">
            <path d="M574.745,295.808C574.745,295.808 452.952,292.965 402.684,461.41L446.786,494.852C446.786,494.852 488.518,396.731 545.978,373.75C551.695,371.463 556.77,367.818 560.9,363.251L594.128,326.51L574.745,295.808Z" style="fill:rgb(200,201,203);fill-rule:nonzero;"/>
        </g>
        <g transform="matrix(0.836331,-0.548224,0.548224,0.836331,-439.385,248.54)">
            <path d="M574.745,295.808C574.745,295.808 446.394,287.992 396.126,456.437L440.229,489.879C440.229,489.879 483.184,388.881 541.939,367.822C545.657,366.489 549.125,364.546 552.141,361.997L594.128,326.51L574.745,295.808Z" style="fill:white;fill-rule:nonzero;"/>
        </g>
        <g transform="matrix(0.836331,-0.548224,0.548224,0.836331,-439.385,248.54)">
            <path d="M711.327,406.862C711.327,406.862 648.369,400.794 602.714,333.85L597.761,340.381C597.761,340.381 634.463,408.359 716.259,414.746L711.327,406.862Z" style="fill:rgb(200,201,203);fill-rule:nonzero;"/>
        </g>
        <g transform="matrix(0.836331,-0.548224,0.548224,0.836331,-439.385,248.54)">
            <path d="M542.369,351.043C535.947,359.512 523.874,361.172 515.405,354.75C506.935,348.327 505.275,336.255 511.698,327.785C518.12,319.316 530.192,317.656 538.662,324.079C547.132,330.501 548.792,342.573 542.369,351.043Z" style="fill:rgb(222,222,223);fill-rule:nonzero;"/>
        </g>
        <g transform="matrix(0.836331,-0.548224,0.548224,0.836331,-439.385,248.54)">
            <path d="M540.104,349.325C534.63,356.544 524.341,357.958 517.122,352.485C509.903,347.011 508.489,336.722 513.961,329.503C519.437,322.284 529.726,320.87 536.945,326.343C544.164,331.817 545.578,342.106 540.104,349.325Z" style="fill:rgb(118,163,154);fill-rule:nonzero;"/>
        </g>
        <g transform="matrix(0.836331,-0.548224,0.548224,0.836331,-439.385,248.54)">
            <path d="M764.191,446.948L758.361,514.826C758.361,514.826 741.919,515.544 725.435,508.853C725.435,508.853 729.323,495.909 739.294,479.782C747.389,466.69 757.104,451.865 761.725,446.561C762.624,446.948 764.191,446.948 764.191,446.948Z" style="fill:rgb(200,201,203);fill-rule:nonzero;"/>
        </g>
        <g transform="matrix(0.836331,-0.548224,0.548224,0.836331,-439.385,248.54)">
            <path d="M858.198,465.18L828.604,428.347L836.592,422.903L866.874,454.463L858.198,465.18Z" style="fill:rgb(200,201,203);fill-rule:nonzero;"/>
        </g>
        <g transform="matrix(0.836331,-0.548224,0.548224,0.836331,-439.385,248.54)">
            <path d="M761.541,515.334C735.199,515.334 704.858,505.375 671.287,477.827C690.466,493.4 708.582,503.281 725.513,508.885C739.061,514.364 752.561,514.849 756.913,514.849C757.848,514.849 758.361,514.826 758.361,514.826C759.373,514.855 760.381,514.869 761.381,514.869C807.034,514.862 840.686,485.206 858.198,465.179L858.198,465.18L858.213,465.163C861.715,461.156 864.575,457.532 866.753,454.613L866.874,454.463L866.868,454.458C870.157,450.037 871.863,447.263 871.863,447.263C871.863,447.263 830.389,515.334 761.541,515.334ZM871.863,447.263L866.692,442.535L871.863,447.263Z" style="fill:rgb(32,32,40);fill-rule:nonzero;"/>
        </g>
        <g transform="matrix(0.836331,-0.548224,0.548224,0.836331,-439.385,248.54)">
            <path d="M761.381,514.869C760.381,514.869 759.373,514.855 758.361,514.826L759.447,502.192C760.211,502.209 760.986,502.218 761.758,502.218C788.87,502.218 820.365,491.555 852.691,458.326L858.198,465.18C840.686,485.206 807.034,514.862 761.381,514.869ZM725.513,508.885C708.582,503.281 690.466,493.4 671.287,477.827L678.719,468.027C678.719,468.027 698.825,487.95 729.928,497.38C726.783,504.364 725.435,508.853 725.435,508.853C725.461,508.864 725.487,508.874 725.513,508.885ZM858.213,465.163L866.753,454.613C864.575,457.532 861.715,461.156 858.213,465.163ZM866.868,454.458L861.436,448.796C863.186,446.78 864.941,444.691 866.692,442.535L871.863,447.263C871.863,447.263 870.157,450.037 866.868,454.458Z" style="fill:rgb(213,213,213);fill-rule:nonzero;"/>
        </g>
        <g transform="matrix(0.836331,-0.548224,0.548224,0.836331,-439.385,248.54)">
            <path d="M756.913,514.849C752.561,514.849 739.061,514.364 725.513,508.885C725.487,508.874 725.461,508.864 725.435,508.853C725.435,508.853 726.783,504.364 729.928,497.38C738.923,500.108 748.829,501.955 759.447,502.192L758.361,514.826C758.361,514.826 757.848,514.849 756.913,514.849Z" style="fill:rgb(169,170,172);fill-rule:nonzero;"/>
        </g>
        <g transform="matrix(0.836331,-0.548224,0.548224,0.836331,-439.385,248.54)">
            <path d="M858.198,465.18L852.691,458.326C855.604,455.332 858.513,452.165 861.436,448.796L866.868,454.458L866.874,454.463L866.753,454.613L858.213,465.163L858.198,465.18Z" style="fill:rgb(169,170,172);fill-rule:nonzero;"/>
        </g>
        <g transform="matrix(0.836331,-0.548224,0.548224,0.836331,-439.385,248.54)">
            <path d="M488.99,409.387L438.729,368.518C438.729,368.518 448.555,353.874 457.831,345.964L493.229,404.377L488.99,409.387Z" style="fill:rgb(200,201,203);fill-rule:nonzero;"/>
        </g>
        <g transform="matrix(0.836331,-0.548224,0.548224,0.836331,-439.385,248.54)">
            <path d="M400.657,442.086L446.37,476.75L452.898,464.303L405.612,428.447L400.657,442.086Z" style="fill:rgb(200,201,203);fill-rule:nonzero;"/>
        </g>
        <g transform="matrix(0.836331,-0.548224,0.548224,0.836331,-439.385,248.54)">
            <path d="M466.229,446.749L614.303,559.03L608.907,566.146L460.834,453.864L466.229,446.749Z" style="fill:rgb(200,201,203);fill-rule:nonzero;"/>
        </g>
        <g transform="matrix(0.836331,-0.548224,0.548224,0.836331,-439.385,248.54)">
            <path d="M910.973,423.142L909.509,419.584C908.673,417.553 906.503,416.41 904.355,416.871L893.743,419.029L906.131,405.852C908.151,404.083 908.206,400.958 906.248,399.12L904.029,397.038C903.449,396.493 902.755,396.127 902.021,395.944C900.817,395.645 899.507,395.839 898.416,396.561L881.468,407.766L897.168,387.06C898.685,385.061 898.293,382.211 896.294,380.695L893.338,378.454C891.536,377.087 889.004,377.254 887.397,378.845L871.71,396.923L875.547,377.694C876.337,375.786 875.74,373.584 874.095,372.336C871.916,370.685 868.783,371.317 867.416,373.684L855.887,400.227L854.548,390.625C854.238,388.404 852.354,386.741 850.111,386.71L846.559,386.662C844.063,386.627 842.007,388.613 841.955,391.109L841.365,419.378L866.692,442.535L871.863,447.263L908.649,429.006C910.876,427.996 911.902,425.404 910.973,423.142Z" style="fill:rgb(109,110,110);fill-rule:nonzero;"/>
        </g>
        <g transform="matrix(0.836331,-0.548224,0.548224,0.836331,-439.385,248.54)">
            <path d="M396.126,456.437C396.126,456.437 369.893,477.109 376.267,488.883C382.641,500.657 394.721,521.825 414.836,524.955C423.264,526.267 432.492,503.796 432.492,503.796C432.492,503.796 435.351,512.607 441.473,516.987C447.594,521.368 460.241,515.109 446.786,494.852L396.126,456.437Z" style="fill:rgb(109,110,110);fill-rule:nonzero;"/>
        </g>
        <g transform="matrix(0.836331,-0.548224,0.548224,0.836331,-439.385,248.54)">
            <path d="M499.14,475.801L493.977,471.886L561.308,383.093L566.471,387.008L499.14,475.801Z" style="fill:rgb(200,201,203);fill-rule:nonzero;"/>
        </g>
        <g transform="matrix(0.836331,-0.548224,0.548224,0.836331,-439.385,248.54)">
            <path d="M641.039,520.393L526.894,433.838L530.209,429.466L644.354,516.021L641.039,520.393Z" style="fill:rgb(200,201,203);fill-rule:nonzero;"/>
        </g>
        <g transform="matrix(0.836331,-0.548224,0.548224,0.836331,-439.385,248.54)">
            <path d="M543.752,511.136L539.643,508.021L574.019,462.687L578.128,465.802L543.752,511.136Z" style="fill:rgb(200,201,203);fill-rule:nonzero;"/>
        </g>
        <g transform="matrix(0.836331,-0.548224,0.548224,0.836331,-439.385,248.54)">
            <path d="M627.775,455.682L613.688,445L624.37,430.913L638.458,441.595L627.775,455.682Z" style="fill:rgb(200,201,203);fill-rule:nonzero;"/>
        </g>
        <g transform="matrix(0.836331,-0.548224,0.548224,0.836331,-439.385,248.54)">
            <path d="M638.4,493.98L624.313,483.298L649.556,450.01L663.643,460.692L638.4,493.98Z" style="fill:rgb(200,201,203);fill-rule:nonzero;"/>
        </g>
        <g transform="matrix(0.836331,-0.548224,0.548224,0.836331,-439.385,248.54)">
            <path d="M613.216,474.883L599.128,464.201L609.811,450.114L623.897,460.796L613.216,474.883Z" style="fill:rgb(200,201,203);fill-rule:nonzero;"/>
        </g>
        <g transform="matrix(0.836331,-0.548224,0.548224,0.836331,-439.385,248.54)">
            <path d="M591.95,443.533L569.476,426.491C567.592,425.062 567.223,422.377 568.651,420.494L581.371,403.719C582.799,401.835 585.484,401.466 587.368,402.895L609.843,419.937C611.727,421.365 612.096,424.05 610.668,425.934L597.947,442.708C596.519,444.592 593.834,444.961 591.95,443.533Z" style="fill:rgb(200,201,203);fill-rule:nonzero;"/>
        </g>
        <g transform="matrix(0.836331,-0.548224,0.548224,0.836331,-439.385,248.54)">
            <path d="M405.14,689.261L379.551,730.021L466.016,786.891C466.016,786.891 498.556,757.222 451.739,720.034C450.976,719.429 450.227,718.835 449.488,718.252C460.796,709.609 468.359,703.43 484.51,689.252L420.57,644.164C412.206,667.542 408.573,678.849 405.195,689.095L405.14,689.261Z" style="fill:rgb(109,110,110);fill-rule:nonzero;"/>
        </g>
    </g>
</svg>
