<?xml version="1.0" encoding="UTF-8" standalone="no"?>
<!DOCTYPE svg PUBLIC "-//W3C//DTD SVG 1.1//EN" "http://www.w3.org/Graphics/SVG/1.1/DTD/svg11.dtd">
<svg width="100%" height="100%" viewBox="0 0 245 213" version="1.1" xmlns="http://www.w3.org/2000/svg" xmlns:xlink="http://www.w3.org/1999/xlink" xml:space="preserve" xmlns:serif="http://www.serif.com/" style="fill-rule:evenodd;clip-rule:evenodd;stroke-linejoin:round;stroke-miterlimit:2;">
    <g transform="matrix(1,0,0,1,-127.591,-387.402)">
        <g transform="matrix(0.467047,0,0,0.549519,131.408,354.874)">
            <g transform="matrix(-0.0241519,-0.999708,-0.999708,0.0241519,238.905,251.608)">
                <path d="M-188.465,250.001C-130.737,197.434 -92.564,104.706 -92.564,-1.854C-92.564,-115.974 -136.347,-216.505 -201.043,-269.918" style="fill:rgb(243,243,243);fill-rule:nonzero;"/>
            </g>
            <g transform="matrix(-0.950297,0.311346,0.311346,0.950297,126.18,396.385)">
                <path d="M2.356,-8.421C11.902,-9.748 19.718,-8.371 20.917,-5.335C17.206,-3.061 10.27,-0.911 2.356,0.19C-5.879,1.335 -12.975,1.037 -16.446,-0.357C-14.795,-3.683 -6.975,-7.123 2.356,-8.421" style="fill:rgb(220,221,223);fill-rule:nonzero;"/>
            </g>
            <g transform="matrix(-0.895367,-0.44533,-0.44533,0.895367,362.246,388.946)">
                <path d="M-2.445,-7.478C-10.224,-9.098 -16.595,-8.297 -17.572,-5.736C-14.547,-3.588 -8.895,-1.386 -2.445,-0.044C4.266,1.353 10.05,1.449 12.878,0.418C11.532,-2.536 5.16,-5.895 -2.445,-7.478" style="fill:rgb(220,221,223);fill-rule:nonzero;"/>
            </g>
            <g transform="matrix(-0.917429,-0.397899,-0.397899,0.917429,399.592,384.483)">
                <path d="M-0.895,-2.781C-4.353,-3.41 -7.185,-3.153 -7.618,-2.229C-6.274,-1.434 -3.761,-0.606 -0.895,-0.084C2.088,0.459 4.659,0.525 5.916,0.166C5.318,-0.912 2.486,-2.166 -0.895,-2.781" style="fill:rgb(220,221,223);fill-rule:nonzero;"/>
            </g>
            <g transform="matrix(-0.641646,-0.767001,-0.767001,0.641646,422.462,417.043)">
                <path d="M-6.145,-13.525C2.084,-10.444 8.822,-3.382 9.855,2.906C6.656,4.948 0.677,4.896 -6.145,2.342C-13.243,-0.316 -19.361,-4.971 -22.352,-9.549C-20.929,-14.723 -14.188,-16.536 -6.145,-13.525" style="fill:rgb(220,221,223);fill-rule:nonzero;"/>
            </g>
            <g transform="matrix(-0.765182,0.643814,0.643814,0.765182,69.6252,401.939)">
                <path d="M1.156,-2.356C5.772,-3.622 9.552,-4.002 10.132,-3.306C8.337,-2.345 4.983,-1.108 1.156,-0.057C-2.826,1.035 -6.258,1.635 -7.937,1.594C-7.138,0.548 -3.357,-1.118 1.156,-2.356" style="fill:rgb(220,221,223);fill-rule:nonzero;"/>
            </g>
            <g transform="matrix(-0.996485,0.0837676,0.0837676,0.996485,227.801,386.3)">
                <path d="M0.683,-6.803C9.578,-7.017 16.862,-5.224 17.978,-2.693C14.52,-1.206 8.058,-0.103 0.683,0.074C-6.991,0.258 -13.603,-0.608 -16.837,-2.029C-15.299,-4.539 -8.011,-6.594 0.683,-6.803" style="fill:rgb(220,221,223);fill-rule:nonzero;"/>
            </g>
            <g transform="matrix(-0.999222,-0.0394301,-0.0394301,0.999222,276.006,413.975)">
                <path d="M-0.092,-7.116C5.119,-6.96 9.385,-4.794 10.039,-2.124C8.014,-0.729 4.229,0.139 -0.092,0.011C-4.586,-0.124 -8.459,-1.301 -10.353,-2.911C-9.453,-5.447 -5.185,-7.268 -0.092,-7.116" style="fill:rgb(220,221,223);fill-rule:nonzero;"/>
            </g>
            <g transform="matrix(-0.977384,-0.211473,-0.211473,0.977384,337.957,413.33)">
                <path d="M-1.315,-8.668C5.214,-7.907 10.559,-4.76 11.379,-1.386C8.841,0.117 4.098,0.779 -1.315,0.147C-6.947,-0.51 -11.8,-2.39 -14.174,-4.588C-13.045,-7.626 -7.696,-9.412 -1.315,-8.668" style="fill:rgb(220,221,223);fill-rule:nonzero;"/>
            </g>
            <g transform="matrix(-0.792332,0.610091,0.610091,0.792332,61.7695,411.661)">
                <path d="M0.776,-1.914C2.743,-2.476 4.354,-2.353 4.601,-1.666C3.837,-1.032 2.408,-0.345 0.776,0.121C-0.92,0.605 -2.382,0.719 -3.098,0.479C-2.758,-0.349 -1.146,-1.365 0.776,-1.914" style="fill:rgb(220,221,223);fill-rule:nonzero;"/>
            </g>
            <g transform="matrix(-0.999465,0.0327192,0.0327192,0.999465,180.626,390.269)">
                <path d="M0.214,-4.231C4.305,-4.244 7.655,-3.039 8.168,-1.461C6.577,-0.589 3.605,0.006 0.214,0.017C-3.316,0.027 -6.356,-0.597 -7.844,-1.517C-7.136,-3.047 -3.785,-4.219 0.214,-4.231" style="fill:rgb(220,221,223);fill-rule:nonzero;"/>
            </g>
            <g transform="matrix(-0.996075,0.0885168,0.0885168,0.996075,184.768,360.154)">
                <path d="M0.226,-1.885C3.86,-1.951 6.835,-1.455 7.292,-0.749C5.879,-0.331 3.239,-0.019 0.226,0.035C-2.908,0.093 -5.608,-0.145 -6.93,-0.539C-6.301,-1.242 -3.325,-1.82 0.226,-1.885" style="fill:rgb(220,221,223);fill-rule:nonzero;"/>
            </g>
            <g transform="matrix(-0.117447,0.993079,0.993079,0.117447,372.439,334.915)">
                <path d="M23.229,-35.158C23.229,-35.158 19.363,-27.264 17.44,-24.095C17.44,-24.095 17.863,-2.69 23.229,13.809C23.229,13.809 28.922,16.719 30.347,20.538C30.347,20.538 40.122,-16.528 23.229,-35.158" style="fill:rgb(243,243,243);fill-rule:nonzero;"/>
            </g>
            <g transform="matrix(0.244372,0.969681,0.969681,-0.244372,198.622,325.463)">
                <path d="M21.323,-25.726C21.323,-25.726 17.536,-19.689 15.652,-17.392C15.652,-17.392 16.066,2.682 21.323,19.869C21.323,19.869 26.898,24.512 28.294,28.552C28.294,28.552 37.868,-2.638 21.323,-25.726" style="fill:rgb(243,243,243);fill-rule:nonzero;"/>
            </g>
        </g>
        <g id="bg_astronaut_flag" transform="matrix(0.5,0,0,0.5,250,486.362)">
            <g transform="matrix(1,0,0,1,-165,-200.5)">
                <clipPath id="_clip1">
                    <rect x="0" y="0" width="330" height="401"/>
                </clipPath>
                <g clip-path="url(#_clip1)">
                    <g transform="matrix(1,0,0,1,42.6413,0.234599)">
                        <g transform="matrix(0.948522,0.316712,-0.316712,0.948522,-42.4361,-114.813)">
                            <g transform="matrix(1,0,0,1,123.572,199.889)">
                                <path d="M0,-35.676C5.095,-17.889 7.335,0 7.335,0L-21.456,-11.624L0,-35.676Z" style="fill:rgb(45,100,128);fill-rule:nonzero;"/>
                            </g>
                            <g transform="matrix(1,0,0,1,54.2937,170.432)">
                                <path d="M0,-9.649C20.641,-27.236 31.569,-32.095 31.569,-32.095C31.569,-32.095 43.448,-52.001 57.21,-33.819C62.304,-27.089 66.284,-16.672 69.279,-6.219L47.822,17.832L76.613,29.457C63.807,30.812 40.423,42.352 40.423,42.352C32.291,20.649 0,-9.649 0,-9.649" style="fill:rgb(72,160,176);fill-rule:nonzero;"/>
                            </g>
                            <g>
                                <clipPath id="_clip2">
                                    <path d="M85.863,138.337C85.863,138.337 74.935,143.196 54.293,160.784C54.293,160.784 86.585,191.081 94.717,212.784C94.717,212.784 118.101,201.244 130.907,199.889L102.116,188.264L123.573,164.213C120.577,153.76 116.598,143.344 111.504,136.613C107.189,130.913 103.06,128.956 99.423,128.956C91.461,128.957 85.863,138.337 85.863,138.337Z"/>
                                </clipPath>
                                <g clip-path="url(#_clip2)">
                                    <g transform="matrix(1,0,0,1,132.241,114.302)">
                                        <path d="M0,83.332C-6.031,81.352 -12.061,79.373 -18.092,77.393C-21.107,76.403 -24.122,75.413 -27.138,74.423C-30.038,73.471 -31.469,73.081 -32.899,70.374C-38.054,60.616 -42.414,50.828 -48.692,41.654C-60.478,24.431 -75.332,9.552 -92.437,-2.389C-94.023,-3.496 -95.524,-0.897 -93.951,0.202C-75.746,12.911 -60.124,29.109 -48.192,47.844C-45.325,52.346 -42.67,56.985 -40.244,61.739C-39.031,64.116 -37.874,66.522 -36.778,68.955C-35.973,70.744 -35.433,73.57 -34.142,74.997C-32.987,76.273 -30.446,76.492 -28.84,77.019C-25.824,78.009 -22.809,78.999 -19.794,79.989C-13.462,82.067 -7.13,84.146 -0.798,86.225C1.041,86.828 1.829,83.932 0,83.332" style="fill:rgb(56,147,160);fill-rule:nonzero;"/>
                                    </g>
                                    <g transform="matrix(1,0,0,1,104.395,127.781)">
                                        <path d="M0,58.665C-5.751,46.556 -9.936,33.796 -15.451,21.586C-18.18,15.541 -21.261,9.628 -25.022,4.155C-27.469,0.593 -30.047,-3.257 -34.825,-2.375C-36.721,-2.026 -35.918,0.866 -34.028,0.517C-29.098,-0.392 -23.505,12.115 -21.664,15.626C-19.016,20.676 -16.74,25.911 -14.595,31.19C-10.657,40.884 -7.083,50.72 -2.59,60.179C-1.763,61.922 0.825,60.402 0,58.665" style="fill:rgb(56,147,160);fill-rule:nonzero;"/>
                                    </g>
                                    <g transform="matrix(1,0,0,1,83.7635,158.921)">
                                        <path d="M0,-10.729C-0.911,-11.299 -1.821,-11.87 -2.732,-12.44C-4.095,-13.294 -5.391,-11.656 -4.784,-10.388C-1.268,-3.038 3.06,3.724 8.203,10.037C9.307,11.392 11.36,9.66 10.559,8.219C5.083,-1.636 -0.709,-11.299 -6.819,-20.773C-7.689,-22.121 -10.215,-21.277 -9.561,-19.617C-6.875,-12.808 -3.102,-6.653 0.841,-0.512C1.878,1.105 4.43,-0.359 3.431,-2.026C0.074,-7.625 -3.282,-13.225 -6.639,-18.824C-7.478,-20.224 -10.021,-19.304 -9.38,-17.668C-6.85,-11.21 -3.382,-5.45 1.162,-0.209C2.075,0.844 3.649,-0.07 3.723,-1.269C3.812,-2.724 3.757,-2.883 2.992,-4.12C1.978,-5.759 -0.619,-4.254 0.401,-2.606C0.508,-2.16 0.616,-1.715 0.723,-1.269C1.576,-1.623 2.43,-1.976 3.284,-2.33C-0.911,-7.169 -4.151,-12.503 -6.488,-18.466C-7.402,-18.081 -8.315,-17.695 -9.229,-17.31C-5.873,-11.711 -2.516,-6.111 0.841,-0.512C1.704,-1.016 2.568,-1.521 3.431,-2.026C-0.364,-7.937 -4.081,-13.856 -6.668,-20.415C-7.582,-20.03 -8.496,-19.644 -9.41,-19.259C-3.3,-9.785 2.493,-0.121 7.969,9.733C8.754,9.127 9.539,8.521 10.324,7.915C5.347,1.806 1.205,-4.796 -2.194,-11.902C-2.878,-11.218 -3.562,-10.533 -4.246,-9.849C-3.335,-9.279 -2.425,-8.709 -1.514,-8.139C0.127,-7.111 1.634,-9.705 0,-10.729" style="fill:rgb(56,147,160);fill-rule:nonzero;"/>
                                    </g>
                                    <g transform="matrix(1,0,0,1,80.3451,184.052)">
                                        <path d="M0,-41.755C1.191,-38.4 2.382,-35.045 3.572,-31.69C4.223,-29.856 6.8,-30.589 6.465,-32.487C5.839,-36.031 4.674,-39.093 2.831,-42.164C1.901,-43.712 -0.159,-42.616 0.089,-41.008C0.651,-37.362 1.489,-33.849 2.635,-30.34C3.134,-28.81 5.7,-28.97 5.581,-30.739C5.082,-38.157 -1.014,-43.794 -8.512,-43.381C-9.863,-43.306 -10.725,-41.253 -9.269,-40.585C2.025,-35.407 9.64,-25.085 11.301,-12.781C12.137,-13.267 12.972,-13.754 13.808,-14.24C10.62,-17.055 8.838,-20.271 8.108,-24.459C7.194,-24.073 6.281,-23.688 5.367,-23.303C8.684,-18.877 11.725,-14.291 14.511,-9.513C15.075,-10.248 15.64,-10.982 16.204,-11.717C15.328,-12.079 14.451,-12.441 13.574,-12.803C12.528,-13.235 11.377,-11.963 11.729,-10.958C12.917,-7.565 14.378,-4.425 16.241,-1.343C16.978,-0.122 19.116,-0.565 19.036,-2.1C18.915,-4.399 18.424,-6.354 17.489,-8.459C16.806,-9.997 14.149,-8.896 14.747,-7.303C15.764,-4.598 16.782,-1.892 17.799,0.813C18.472,2.604 21.373,1.828 20.691,0.016C19.674,-2.69 18.657,-5.395 17.64,-8.1C16.726,-7.715 15.812,-7.33 14.899,-6.945C15.667,-5.421 16.046,-3.806 16.036,-2.1C16.968,-2.352 17.899,-2.604 18.831,-2.857C17.109,-5.705 15.723,-8.61 14.622,-11.755C14.007,-11.14 13.392,-10.525 12.777,-9.91C13.653,-9.548 14.53,-9.186 15.407,-8.824C16.671,-8.302 17.705,-9.992 17.101,-11.027C14.315,-15.806 11.274,-20.391 7.957,-24.817C6.935,-26.181 4.914,-25.391 5.216,-23.661C6.022,-19.032 8.167,-15.227 11.687,-12.119C12.889,-11.058 14.39,-12.125 14.194,-13.579C12.443,-26.554 4.14,-37.722 -7.755,-43.176C-8.007,-42.244 -8.26,-41.312 -8.512,-40.381C-2.704,-40.701 2.186,-36.622 2.581,-30.739C3.563,-30.872 4.545,-31.005 5.527,-31.138C4.382,-34.645 3.544,-38.158 2.982,-41.806C2.068,-41.421 1.154,-41.035 0.24,-40.65C1.965,-37.777 2.996,-34.955 3.572,-31.69L6.465,-32.487C5.274,-35.842 4.084,-39.197 2.893,-42.553C2.252,-44.359 -0.648,-43.581 0,-41.755" style="fill:rgb(56,147,160);fill-rule:nonzero;"/>
                                    </g>
                                    <g transform="matrix(1,0,0,1,99.5057,186.621)">
                                        <path d="M0,-2.21C0.079,-1.891 0.042,-2.312 0.04,-2.009C0.043,-1.908 0.041,-1.806 0.034,-1.705C0.053,-1.827 0.052,-1.834 0.031,-1.728C0.016,-1.661 -0.096,-1.323 -0.06,-1.402C0.017,-1.574 -0.335,-1.003 -0.146,-1.24C0.208,-1.386 0.562,-1.533 0.915,-1.679C1.061,-1.673 1.047,-1.638 0.907,-1.683C1.158,-1.601 0.789,-1.724 0.931,-1.664C1.055,-1.611 0.837,-1.798 0.906,-1.68C0.989,-1.538 0.81,-1.887 0.813,-1.881C0.478,-2.618 -0.592,-2.798 -1.24,-2.419C-1.998,-1.975 -2.114,-1.107 -1.778,-0.366C-1.216,0.871 0.902,2.056 2.023,0.822C2.956,-0.204 3.221,-1.688 2.893,-3.008C2.697,-3.794 1.815,-4.266 1.048,-4.055C0.248,-3.836 -0.196,-2.999 0,-2.21" style="fill:rgb(56,147,160);fill-rule:nonzero;"/>
                                    </g>
                                    <g transform="matrix(-0.286707,-0.958018,-0.958018,0.286707,77.2712,138.524)">
                                        <path d="M-4.885,-6.007C-2.988,-3.421 -1.982,-0.395 -1.884,2.805C-1.826,4.733 -4.825,4.805 -4.885,2.87C-4.967,0.167 -5.831,-2.237 -7.427,-4.413C-8.572,-5.973 -6.02,-7.555 -4.885,-6.007" style="fill:rgb(56,147,160);fill-rule:nonzero;"/>
                                    </g>
                                </g>
                            </g>
                            <g transform="matrix(1,0,0,1,181.474,176.414)">
                                <path d="M0,-73.822C0,-73.822 -43.549,-85.672 -102.752,-45.415C-103.286,-45.052 -103.449,-44.335 -103.117,-43.781C-99.385,-37.547 -79.252,-3.214 -79.358,11.85C-79.358,11.85 -26.193,-8.646 19.032,-2.829L0,-73.822Z" style="fill:rgb(80,174,190);fill-rule:nonzero;"/>
                            </g>
                            <g transform="matrix(1,0,0,1,180.39,371.545)">
                                <path d="M0,-272.724C-0.03,-272.722 -0.061,-272.72 -0.091,-272.718C-2.09,-272.579 -3.487,-270.678 -3.023,-268.728L60.973,0.11L65.611,0.11L3.388,-270.214C3.03,-271.771 1.593,-272.834 0,-272.724" style="fill:rgb(253,248,230);fill-rule:nonzero;"/>
                            </g>
                            <g transform="matrix(1,0,0,1,126.869,149.563)">
                                <path d="M0,-23.203C0.005,-23.208 0.011,-23.213 0.016,-23.218C0.006,-23.208 -0.005,-23.199 -0.016,-23.189C-0.01,-23.193 -0.005,-23.198 0,-23.203M13.805,-12.526C13.773,-12.496 13.742,-12.464 13.71,-12.435C13.71,-12.436 13.71,-12.437 13.709,-12.438C13.712,-12.44 13.714,-12.442 13.716,-12.444C13.746,-12.471 13.776,-12.498 13.805,-12.526M22.003,-0.153C20.962,-0.554 19.58,-1.551 17.779,-3.165C16.585,-4.236 16.231,-5.051 16.279,-5.66C17.441,-5.406 18.167,-5.289 18.206,-5.283C18.791,-3.493 21.555,-0.67 31.204,2.827C31.204,2.827 26.065,-7.39 21.289,-8.173C21.335,-8.241 21.382,-8.309 21.424,-8.38C21.424,-8.38 21.278,-8.883 20.98,-9.716C21.633,-9.894 22.6,-9.776 24.034,-9.006C24.727,-8.634 25.342,-8.284 25.881,-7.953C27.045,-7.24 27.855,-6.617 28.323,-6.067C28.678,-5.649 29.247,-5.745 29.186,-6.266C29.077,-7.198 28.597,-8.568 27.19,-10.441C24.892,-13.501 22.875,-14.406 22.025,-14.666C21.863,-14.715 21.716,-14.565 21.791,-14.428C22.123,-13.822 22.738,-12.557 22.473,-11.919C22.455,-11.877 22.434,-11.837 22.408,-11.801C22.049,-11.294 20.989,-11.369 20.301,-11.48C20.061,-12.061 19.784,-12.698 19.465,-13.375C19.02,-14.319 18.496,-15.335 17.891,-16.369C17.73,-16.644 17.563,-16.92 17.39,-17.197L17.355,-17.166C17.367,-17.19 17.381,-17.212 17.393,-17.236C16.106,-19.276 14.501,-21.323 12.555,-22.948C9.381,-25.599 2.095,-26.022 2.095,-26.022C1.38,-26.018 0.713,-26.03 0.114,-25.976C0.076,-25.999 -2.85,-25.556 -2.85,-25.556C-2.85,-25.556 -3.342,-23.61 -3.169,-21.029C-3.169,-21.029 -2.29,-21.432 -3.183,-20.994C-2.982,-18.185 -1.989,-14.624 1.281,-12.002C3.135,-10.515 5.379,-9.324 7.618,-8.383C7.61,-8.379 7.602,-8.375 7.594,-8.371C7.913,-8.235 8.233,-8.105 8.551,-7.98C9.554,-7.585 10.544,-7.24 11.488,-6.941C11.713,-6.869 11.937,-6.799 12.157,-6.732C12.792,-6.54 13.399,-6.37 13.967,-6.219C14.123,-5.962 14.555,-5.198 14.577,-4.567C14.586,-4.308 14.525,-4.073 14.346,-3.907C13.808,-3.41 12.124,-3.663 11.336,-3.815C11.169,-3.848 11.041,-3.684 11.133,-3.556C11.619,-2.882 13.085,-1.352 16.967,-0.091C17.288,0.013 17.594,0.104 17.887,0.185C19.766,0.7 21.09,0.752 21.991,0.642C22.574,0.57 22.543,0.055 22.003,-0.153" style="fill:rgb(45,100,128);fill-rule:nonzero;"/>
                            </g>
                            <g transform="matrix(1,0,0,1,157.58,161.611)">
                                <path d="M0,-27.457C0,-27.457 0.37,-27.284 1.065,-26.958C1.742,-26.598 2.769,-26.11 3.947,-25.272C5.131,-24.451 6.502,-23.314 7.763,-21.694C8.975,-20.069 10.086,-17.837 9.946,-15.16C9.909,-14.549 9.896,-13.935 9.685,-13.238C9.597,-12.901 9.528,-12.545 9.415,-12.214C9.279,-11.897 9.142,-11.578 9.003,-11.255C8.447,-9.96 7.557,-8.81 6.593,-7.7C4.575,-5.555 1.965,-3.849 -0.897,-2.547C-3.764,-1.247 -6.885,-0.286 -10.121,0.293C-13.36,0.861 -16.696,1.091 -20.031,1.017C-21.64,0.996 -23.362,0.829 -25.007,0.63C-25.828,0.502 -26.652,0.404 -27.465,0.25C-28.275,0.079 -29.083,-0.091 -29.888,-0.261C-33.089,-1.026 -36.15,-2.208 -38.905,-3.764C-41.649,-5.322 -44.076,-7.384 -45.662,-9.915C-46.498,-11.151 -46.962,-12.573 -47.257,-13.951C-47.292,-14.665 -47.402,-15.342 -47.349,-16.046C-47.32,-16.652 -47.198,-17.375 -47.029,-18.003C-46.35,-20.542 -44.779,-22.407 -43.298,-23.77C-41.793,-25.146 -40.286,-26.076 -39.018,-26.758C-37.75,-27.444 -36.697,-27.86 -35.984,-28.141C-35.263,-28.406 -34.879,-28.548 -34.879,-28.548C-34.879,-28.548 -35.248,-28.372 -35.94,-28.041C-36.627,-27.704 -37.616,-27.17 -38.822,-26.422C-40.021,-25.668 -41.431,-24.652 -42.776,-23.238C-43.461,-22.545 -44.092,-21.72 -44.652,-20.805C-45.213,-19.891 -45.676,-18.856 -45.914,-17.728C-46.03,-17.166 -46.106,-16.646 -46.109,-15.977C-46.126,-15.408 -45.99,-14.792 -45.941,-14.191C-45.615,-13.01 -45.199,-11.796 -44.407,-10.724C-42.924,-8.534 -40.641,-6.718 -38.046,-5.302C-35.437,-3.885 -32.494,-2.868 -29.439,-2.139C-28.668,-1.983 -27.894,-1.825 -27.118,-1.668C-26.339,-1.525 -25.546,-1.438 -24.759,-1.32C-23.173,-1.142 -21.634,-0.997 -19.974,-0.981C-16.776,-0.887 -13.559,-1.086 -10.453,-1.607C-7.354,-2.154 -4.347,-2.967 -1.611,-4.152C1.115,-5.339 3.613,-6.839 5.522,-8.732C5.949,-9.24 6.436,-9.7 6.805,-10.227C7.146,-10.769 7.573,-11.261 7.804,-11.836C7.942,-12.114 8.078,-12.39 8.212,-12.664C8.323,-12.94 8.384,-13.219 8.476,-13.493C8.545,-13.78 8.682,-14.016 8.701,-14.339C8.737,-14.65 8.772,-14.958 8.808,-15.262C9.032,-17.524 8.197,-19.663 7.158,-21.267C6.074,-22.876 4.82,-24.08 3.715,-24.962C2.608,-25.852 1.659,-26.45 1.015,-26.863C0.353,-27.25 0,-27.457 0,-27.457" style="fill:rgb(45,100,128);fill-rule:nonzero;"/>
                            </g>
                        </g>
                        <g transform="matrix(-1,0,0,1,622.331,-181.128)">
                            <g transform="matrix(0.575758,0,0,0.796078,61.7593,-59.7484)">
                                <path d="M683.876,364.985L638.46,361.89L571.897,372.188L541.111,385.208L540.18,419.322L558.361,446.311L613.573,456.857L688.695,441.294L683.876,364.985Z"/>
                            </g>
                            <g transform="matrix(1,0,0,1,-181.786,-152.975)">
                                <path d="M580.774,452.505L597.93,454.948L617.286,453.894L641.087,441.252L621.282,427.163L601.045,418.142C601.045,418.142 576.74,418.04 576.856,419.353C576.9,419.858 570.748,433.844 580.774,452.505" style="fill:rgb(20,18,16);"/>
                            </g>
                            <g transform="matrix(1,0,0,1,-181.872,-153.318)">
                                <g transform="matrix(2,0,0,2,0,0)">
                                    <path d="M264.862,285.687C264.862,285.687 261.148,289.737 259.592,291.354C257.487,293.543 258.738,296.776 259.019,297.123C259.435,297.632 260.706,292.198 260.706,292.198C260.706,292.198 259.226,296.591 259.38,297.15C259.532,297.711 259.781,295.6 260.631,294.887C261.626,294.052 261.486,293.201 261.486,293.201C261.486,293.201 260.588,293.902 259.653,295.303C259.078,296.168 259.153,298.729 259.385,298.872C259.801,299.129 260.034,296.835 260.694,296.016C261.265,295.308 263.222,293.537 263.222,293.537C263.222,293.537 262.317,294.564 261.427,295.779C260.82,296.607 260.209,299.55 260.443,299.787C260.676,300.023 262.934,295.999 263.276,295.736C263.618,295.474 267.119,291.833 267.119,291.833C267.119,291.833 267.842,292.585 265.979,295.062C265.323,295.935 265.513,298.736 266.029,298.559C266.544,298.381 267.817,295.454 268.652,293.285C269.929,289.968 267.921,286.151 267.921,286.151L264.862,285.687Z" style="fill:rgb(42,187,169);fill-rule:nonzero;"/>
                                </g>
                                <g transform="matrix(2,0,0,2,0,0)">
                                    <path d="M290.95,287.278C290.95,287.278 281.496,289.76 277.885,284.902C276.394,282.899 275.48,274.236 275.345,264.388C275.164,250.444 276.551,234.128 280.117,230.999C281.267,229.982 282.892,229.438 284.496,229.152C285.868,228.906 287.238,228.855 288.275,228.865C289.432,228.875 290.201,228.967 290.201,228.967L290.224,230.624L290.95,287.278Z" style="fill:rgb(12,155,134);fill-rule:nonzero;"/>
                                </g>
                                <g transform="matrix(2,0,0,2,0,0)">
                                    <path d="M290.95,287.278C290.95,287.278 281.496,289.76 277.885,284.902C276.394,282.899 275.48,274.236 275.345,264.388C277.254,261.076 280.025,255.577 282.303,248.41C286.19,236.176 284.496,229.152 284.496,229.152C285.868,228.906 287.238,228.855 288.275,228.865L290.224,230.624L290.95,287.278Z" style="fill:rgb(3,104,99);fill-rule:nonzero;"/>
                                </g>
                                <g transform="matrix(2,0,0,2,0,0)">
                                    <path d="M332.722,348.214L329.494,348.69C329.494,348.69 321.19,330.394 316.908,318.808C312.633,307.214 310.38,299.214 308.281,298.797C306.174,298.379 298.053,313.055 292.831,322.682C287.773,332.004 280.871,346.732 280.444,347.646L280.427,347.689L275.593,347.53C275.593,347.53 278.448,324.582 281.549,305.142C284.077,289.306 288.409,261.977 287.973,250.965C287.539,239.963 286.389,230.684 286.389,230.684L313.347,228.882C313.347,228.882 313.434,229.038 313.6,229.369C314.688,231.493 319.101,240.877 325.072,263.334C333.054,293.365 332.722,348.214 332.722,348.214Z" style="fill:rgb(208,235,228);fill-rule:nonzero;"/>
                                </g>
                                <g transform="matrix(2,0,0,2,0,0)">
                                    <path d="M292.099,251.818C292.099,251.818 290.794,253.071 287.904,256.929C286.311,259.043 284.118,262.586 281.524,266.503C275.196,276.061 269.346,284.817 268.301,286.375C268.232,286.48 268.179,286.558 268.154,286.593L268.136,286.619L267.805,286.558L264.437,285.931C264.437,285.931 267.492,262.264 271.453,252.07C273.255,247.448 275.604,243.088 277.85,239.354C279.2,237.116 280.514,235.105 281.645,233.399C281.845,233.095 282.046,232.799 282.229,232.512C282.681,231.85 283.108,231.232 283.508,230.666C285.388,228.003 286.651,226.488 286.651,226.488C286.981,226.871 287.434,228.351 287.939,230.414L287.973,230.579C288.574,233.043 289.245,236.289 289.872,239.51C289.932,239.814 289.984,240.11 290.046,240.415C291.169,246.309 292.099,251.818 292.099,251.818Z" style="fill:rgb(208,235,228);fill-rule:nonzero;"/>
                                </g>
                                <g transform="matrix(2,0,0,2,0,0)">
                                    <path d="M292.099,251.818C292.099,251.818 290.794,253.071 287.904,256.929C286.311,259.043 284.118,262.586 281.524,266.503C275.196,276.061 269.346,284.817 268.301,286.375C268.232,286.48 268.179,286.558 268.154,286.593L268.136,286.619L267.805,286.558C268.675,285.034 285.223,255.64 284.231,249.772C283.273,244.054 278.338,239.763 277.85,239.354C279.2,237.116 280.514,235.105 281.645,233.399C281.845,233.095 282.046,232.799 282.229,232.512L289.872,239.51C289.932,239.814 289.984,240.11 290.046,240.415C291.169,246.309 292.099,251.818 292.099,251.818Z" style="fill:rgb(170,219,205);fill-rule:nonzero;"/>
                                </g>
                                <g transform="matrix(1.93205,0.51688,-0.51688,1.93205,155.329,-154.417)">
                                    <path d="M345.777,226.064C345.777,226.064 336.676,254.83 330.007,256.546C327.083,257.293 324.698,256.615 322.94,255.605C320.694,254.325 319.475,252.506 319.475,252.506L318.239,248.075L310.358,235.92L310.324,235.807L310.088,234.953L310.811,234.875C310.811,234.875 311.159,235.241 311.743,235.841L311.752,235.841C314.432,238.61 324.742,239.492 327.249,239.788C327.883,239.867 328.902,239.223 330.103,238.17L330.103,238.161C334.638,234.165 341.863,224.19 341.863,224.19L345.777,226.064Z" style="fill:rgb(170,219,205);fill-rule:nonzero;"/>
                                </g>
                                <g transform="matrix(2,0,0,2,0,0)">
                                    <path d="M332.96,348.18L327.312,349.013C327.312,349.013 321.19,330.394 316.908,318.808C312.633,307.214 310.38,299.214 308.281,298.797C306.174,298.379 298.85,311.466 293.518,323.253C288.88,333.51 282.638,346.066 279.265,353.52C280.022,351.456 305.239,273.863 302.589,258.261C299.154,238.039 288.278,231.484 288.278,231.484L313.6,229.369C314.688,231.493 319.101,240.877 325.072,263.334C333.054,293.365 332.96,348.18 332.96,348.18Z" style="fill:rgb(170,219,205);fill-rule:nonzero;"/>
                                </g>
                                <g transform="matrix(2,0,0,2,0,0)">
                                    <path d="M280.575,364.08C280.506,364.741 269.807,365.003 269.842,364.08C269.885,362.827 273.29,357.291 274.595,353.226C275.666,349.883 275.466,344.008 275.361,342.006C275.335,341.57 275.317,341.317 275.317,341.317L285.833,342.11C285.833,342.11 280.597,352.464 279.963,354.187C279.327,355.902 280.749,362.409 280.575,364.08Z" style="fill:rgb(3,104,99);fill-rule:nonzero;"/>
                                </g>
                                <g transform="matrix(2,0,0,2,0,0)">
                                    <path d="M347.121,361.033L329.494,361.033C329.494,361.033 328.537,355.768 327.736,351.92C326.753,347.158 324.967,342.841 324.967,342.841L326.666,342.545L333.742,341.317C333.742,341.317 332.289,353.791 333.742,354.453C335.196,355.114 342.412,357.63 344.44,358.292C346.468,358.953 347.121,361.033 347.121,361.033Z" style="fill:rgb(3,104,99);fill-rule:nonzero;"/>
                                </g>
                                <g transform="matrix(2,0,0,2,0,0)">
                                    <path d="M320.422,247.293C318.386,240.902 316.698,236.447 315.481,233.522C316.2,233.017 316.825,232.511 317.363,232.03C320.775,235.361 325.416,239.572 327.249,239.788C327.284,239.792 327.32,239.795 327.358,239.795C327.997,239.795 328.968,239.164 330.103,238.17C329.973,238.439 327.162,244.385 320.424,247.292C320.424,247.292 320.423,247.293 320.422,247.293Z" style="fill:rgb(130,205,186);fill-rule:nonzero;"/>
                                </g>
                                <g transform="matrix(2,0,0,2,0,0)">
                                    <path d="M312.505,248.88C311.54,248.88 310.531,248.818 309.474,248.685C305.766,248.22 302.189,247.05 298.906,245.551C298.306,244.171 297.678,242.908 297.04,241.757C296.71,240.182 296.298,238.757 295.898,237.561C297.299,237.801 298.802,237.942 300.403,237.942C301.056,237.942 301.726,237.919 302.411,237.869C308.444,237.439 312.676,235.49 315.481,233.522C316.698,236.447 318.386,240.902 320.422,247.293C319.734,247.597 319.013,247.858 318.239,248.075C316.538,248.578 314.632,248.88 312.505,248.88Z" style="fill:rgb(130,205,186);fill-rule:nonzero;"/>
                                </g>
                                <g transform="matrix(2,0,0,2,0,0)">
                                    <path d="M308.281,298.797C308.281,298.797 308.185,301.242 307.838,302.025L307.838,302.034L307.829,302.052C307.759,302.2 307.68,302.278 307.593,302.261C307.593,302.261 303.921,298.23 299.377,295.141C299.125,294.967 298.863,294.792 298.593,294.618C297.714,294 296.774,293.391 295.791,292.808C289.688,289.204 284.379,289.805 283.439,289.509L283.422,289.5L283.291,289.378C283.291,288.777 284.596,278.715 285.032,278.176C285.893,277.096 295.529,281.222 300.969,287.149C306.018,292.651 308.281,298.797 308.281,298.797Z" style="fill:rgb(86,194,177);fill-rule:nonzero;"/>
                                </g>
                                <g transform="matrix(2,0,0,2,0,0)">
                                    <path d="M330.295,286.619C330.295,287.959 328.388,292.207 321.66,295.906C316.403,298.797 308.081,302.365 307.593,302.261C307.48,302.234 307.455,302.043 307.48,301.773C307.568,300.808 308.281,298.797 308.281,298.797C308.281,298.797 313.826,294.94 319.998,288.786C326.161,282.632 327.927,277.009 327.927,277.009C327.927,277.009 328.659,276.879 329.12,277.436L329.189,277.514C329.642,278.176 330.295,285.27 330.295,286.619Z" style="fill:rgb(12,155,134);fill-rule:nonzero;"/>
                                </g>
                                <g transform="matrix(2,0,0,2,0,0)">
                                    <path d="M307.838,302.025L307.838,302.034L307.829,302.052L307.593,302.261C307.593,302.261 303.921,298.23 299.377,295.141C299.125,294.967 298.863,294.792 298.593,294.618C297.557,293.957 296.487,293.348 295.407,292.86C289.236,290.065 284.091,290.127 284.091,290.127L283.439,289.509L283.422,289.5L283.291,289.378C283.291,289.378 288.618,288.072 296.165,291.92C297.584,292.643 298.881,293.452 300.055,294.287C305.026,297.83 307.742,301.878 307.838,302.025Z" style="fill:rgb(42,187,169);fill-rule:nonzero;"/>
                                </g>
                                <g transform="matrix(2,0,0,2,0,0)">
                                    <path d="M330.295,286.619C330.295,287.959 328.388,292.207 321.66,295.906C316.403,298.797 308.081,302.365 307.593,302.261C307.48,302.234 307.445,301.777 307.471,301.508L308.068,299.309C308.068,299.309 316.873,294.096 322.531,287.82C326.726,283.163 328.493,279.186 329.12,277.436L329.189,277.514C329.642,278.176 330.295,285.27 330.295,286.619Z" style="fill:rgb(3,104,99);fill-rule:nonzero;"/>
                                </g>
                                <g transform="matrix(2,0,0,2,0,0)">
                                    <path d="M307.471,301.508C306.57,300.285 304.036,297.124 300.055,294.287L300.969,287.149C306.018,292.651 308.281,298.797 308.281,298.797C308.281,298.797 308.213,298.987 308.117,299.279C308.085,299.299 308.068,299.309 308.068,299.309L307.471,301.508Z" style="fill:rgb(22,185,163);fill-rule:nonzero;"/>
                                </g>
                                <g transform="matrix(2,0,0,2,0,0)">
                                    <path d="M307.534,302.196C307.358,302.007 306.805,301.419 305.975,300.61C304.478,299.153 302.082,296.98 299.377,295.141L300.055,294.287C304.036,297.124 306.57,300.285 307.471,301.508C307.45,301.722 307.468,302.055 307.534,302.196Z" style="fill:rgb(23,167,150);fill-rule:nonzero;"/>
                                </g>
                                <g transform="matrix(2,0,0,2,0,0)">
                                    <path d="M297.026,253.455C294.546,262.916 286.685,270.95 285.971,270.776C285.266,270.594 286.703,264.101 286.703,263.447C286.703,262.795 290.689,256.336 288.583,246.978C286.485,237.621 280.871,234.618 280.871,234.618C280.871,234.618 280.497,233.844 280.697,233.277C280.731,233.182 280.793,233.086 280.871,232.999L282.926,230.231L294.389,233.782C294.389,233.782 297.253,239.476 297.662,246.309C297.801,248.624 297.653,251.061 297.026,253.455Z" style="fill:rgb(42,187,169);fill-rule:nonzero;"/>
                                </g>
                                <g transform="matrix(2,0,0,2,0,0)">
                                    <path d="M324.08,259.688C324.08,259.688 321.66,251.287 318.883,244.402C316.107,237.517 313.408,233.452 313.408,233.452L313.704,231.876L313.704,231.867L314.479,227.725C314.479,227.725 320.137,232.581 320.329,233.017C320.52,233.452 321.634,236.002 322.609,243.026C322.661,243.409 322.714,243.793 322.757,244.185C323.628,251.061 324.08,259.688 324.08,259.688Z" style="fill:rgb(42,187,169);fill-rule:nonzero;"/>
                                </g>
                                <g transform="matrix(2,0,0,2,0,0)">
                                    <path d="M322.757,244.185L320.972,246.691C320.972,246.691 319.954,244.045 318.292,240.085C316.62,236.133 313.704,231.876 313.704,231.876L313.704,231.867L314.479,227.725C314.479,227.725 320.137,232.581 320.329,233.017C320.52,233.452 321.634,236.002 322.609,243.026C322.661,243.409 322.714,243.793 322.757,244.185Z" style="fill:rgb(12,155,134);fill-rule:nonzero;"/>
                                </g>
                                <g transform="matrix(2,0,0,2,0,0)">
                                    <path d="M318.573,192.277L319.99,191.057C319.99,191.057 314.203,187.754 298.601,190.27C283.442,192.714 275.942,198.546 275.942,198.546C275.942,198.546 274.096,206.188 276.228,215.664C278.36,225.14 284.473,228.209 284.473,228.209L288.357,227.79C288.357,227.79 282.421,225.345 279.377,217.11C276.103,208.258 278.199,199.895 278.199,199.895C278.199,199.895 297.095,187.884 318.573,192.277Z" style="fill:rgb(68,191,179);fill-rule:nonzero;"/>
                                </g>
                                <g transform="matrix(2,0,0,2,0,0)">
                                    <path d="M274.018,216.842C275.818,220.594 278.394,223.73 281.458,226.152C281.673,226.319 281.888,226.486 282.111,226.649C282.335,226.812 282.553,226.969 282.773,227.124L282.862,227.188C283.382,227.547 283.924,227.894 284.472,228.211C284.211,228.008 282.682,226.733 280.906,223.714L280.89,223.683C279.773,221.775 278.558,219.163 277.526,215.681C274.677,206.1 277.059,199.956 277.059,199.956C277.059,199.956 278.213,199.22 280.176,198.142C284.577,195.742 293.064,191.661 301.959,190.359C314.443,188.531 319.675,190.906 319.989,191.055C318.129,188.183 315.781,185.766 313.106,183.872L313.094,183.868C309.319,181.19 304.888,179.56 300.286,179.123L300.259,179.126C300.107,179.112 299.964,179.094 299.815,179.087C295.351,178.738 290.733,179.534 286.408,181.608C286.094,181.759 285.784,181.917 285.478,182.084C281.417,184.225 278.139,187.293 275.775,190.898L275.719,190.983C270.847,198.457 269.882,208.217 274.018,216.842Z" style="fill:rgb(208,235,228);fill-rule:nonzero;"/>
                                </g>
                                <g transform="matrix(2,0,0,2,0,0)">
                                    <path d="M282.194,226.649C283.381,228.828 285.442,231.628 288.603,232.997C289.535,233.408 290.564,233.688 291.687,233.792C299.599,234.52 316.271,227.7 316.271,227.7L322.757,218.614L321.237,217.676C321.237,217.676 316.916,223.964 305.72,225.976C300.58,226.897 296.376,226.953 293.054,226.622C286.612,225.985 283.354,223.895 283.354,223.895L280.891,223.683L280.88,223.679C280.88,223.679 281.276,224.977 282.194,226.649Z" style="fill:rgb(68,191,179);fill-rule:nonzero;"/>
                                </g>
                                <g transform="matrix(2,0,0,2,0,0)">
                                    <path d="M280.875,223.676L281.498,226.149L282.718,231.031C282.718,231.031 285.092,233.575 289.476,235.573C292.726,237.064 297.085,238.253 302.411,237.869C315.443,236.939 320.069,228.928 320.069,228.928L322.755,218.627C322.508,218.983 316.689,227.412 301.132,228.848C296.521,229.275 292.694,228.935 289.611,228.284L289.602,228.286L289.595,228.297C283.331,226.944 281.495,224.302 280.903,223.714L280.875,223.676Z" style="fill:rgb(208,235,228);fill-rule:nonzero;"/>
                                </g>
                                <g transform="matrix(2,0,0,2,0,0)">
                                    <path d="M281.508,226.192C281.492,226.179 281.476,226.166 281.46,226.154L281.459,226.149C279.968,224.973 278.592,223.625 277.364,222.118C277.835,221.341 277.924,219.788 277.649,217.834C277.532,217.003 277.349,216.1 277.101,215.153C276.909,214.421 276.679,213.662 276.411,212.89C276.156,212.158 275.884,211.464 275.603,210.818C275.455,210.475 275.305,210.144 275.153,209.829C275.152,209.827 275.151,209.825 275.15,209.823C275.05,208.866 275.001,207.898 275.001,206.94C275.02,201.5 276.751,196.17 279.93,191.77C280.281,191.26 280.661,190.78 281.06,190.31C283.381,187.51 286.321,185.17 289.81,183.5C291.474,182.703 293.179,182.098 294.902,181.676C293.23,182.668 291.487,183.826 289.793,185.157C282.744,190.69 280.232,197.976 280.175,198.143C278.212,199.22 277.059,199.956 277.059,199.956C277.059,199.956 276.39,201.682 276.185,204.73C276.024,207.113 276.147,210.303 277.097,214.109C277.224,214.622 277.367,215.146 277.526,215.681C277.61,215.964 277.695,216.242 277.782,216.514C278.456,218.644 279.197,220.428 279.932,221.905C280.255,222.556 280.576,223.147 280.89,223.682L280.88,223.679C280.88,223.679 280.88,223.681 280.881,223.685L280.875,223.676L281.498,226.149L281.508,226.192Z" style="fill:rgb(169,220,213);fill-rule:nonzero;"/>
                                </g>
                                <g transform="matrix(2,0,0,2,0,0)">
                                    <path d="M289.234,228.216C283.26,226.842 281.483,224.29 280.903,223.714L280.881,223.685C280.88,223.681 280.88,223.679 280.88,223.679L280.89,223.682L280.891,223.683L283.354,223.895C283.354,223.895 286.254,225.989 292.293,226.625C291.757,227.075 290.773,227.595 289.234,228.216Z" style="fill:rgb(63,180,172);fill-rule:nonzero;"/>
                                </g>
                                <g transform="matrix(2,0,0,2,0,0)">
                                    <path d="M312.881,183.72L312.81,183.68C312.701,183.6 312.581,183.52 312.461,183.45C312.191,183.26 311.921,183.08 311.651,182.93C311.43,182.78 311.211,182.65 310.98,182.52C310.751,182.38 310.491,182.24 310.211,182.1L310.151,182.07C305.991,180.04 296.921,178.47 287.361,184.48C284.73,186.14 282.64,188.13 280.991,190.28C280.611,190.76 280.251,191.26 279.93,191.77C276.751,196.17 275.02,201.5 275.001,206.94C274.93,207.79 274.89,208.58 274.871,209.28C274.84,210.77 274.901,211.88 274.951,212.42L274.951,212.45C274.961,212.67 274.98,212.78 274.98,212.78L270.361,205.76L270.3,205.67L270.291,205.6C270.14,204.64 268.76,194.19 276.31,185.75L276.501,185.54C278.881,182.94 282.121,180.55 286.531,178.68C301.691,172.29 312.401,183.22 312.881,183.72Z" style="fill:rgb(86,194,177);fill-rule:nonzero;"/>
                                </g>
                                <g transform="matrix(2,0,0,2,0,0)">
                                    <path d="M313.091,183.87C306.081,180.23 297.491,179.82 289.81,183.5C286.321,185.17 283.381,187.51 281.06,190.31C280.661,190.78 280.281,191.26 279.93,191.77C276.751,196.17 275.02,201.5 275.001,206.94C275.001,207.9 275.05,208.87 275.151,209.83C275.421,212.38 276.09,214.94 277.161,217.41C277.001,217.12 276.381,215.97 276.23,215.66C275.921,215.02 275.64,214.37 275.411,213.72C275.251,213.36 275.131,213 275.02,212.63L275.01,212.62L274.951,212.43L274.951,212.42C274.43,210.83 274.091,209.24 273.911,207.64C273.171,201.25 275.031,194.94 278.89,189.84C281.43,186.49 284.841,183.67 288.941,181.7C292.6,179.95 296.461,179.12 300.26,179.13L300.291,179.12C303.741,179.45 307.1,180.45 310.151,182.07L310.211,182.1C310.47,182.23 310.73,182.37 310.98,182.52C311.211,182.65 311.43,182.78 311.651,182.93C311.97,183.13 312.251,183.31 312.461,183.45C312.581,183.52 312.701,183.6 312.81,183.68C312.911,183.74 313.001,183.81 313.091,183.87Z" style="fill:rgb(42,187,169);fill-rule:nonzero;"/>
                                </g>
                                <g transform="matrix(2,0,0,2,0,0)">
                                    <path d="M273.911,207.644C272.934,206.187 271.959,205.35 271.179,205.35C271.068,205.35 270.961,205.368 270.858,205.402C270.709,205.454 270.567,205.542 270.456,205.672L270.291,205.602L270.291,205.6C270.25,205.343 270.122,204.406 270.1,203.011C270.098,202.878 270.097,202.742 270.097,202.602C270.098,198.689 270.972,191.717 276.31,185.75L276.501,185.54L278.89,189.84C275.031,194.94 273.171,201.25 273.911,207.64L273.911,207.644Z" style="fill:rgb(42,178,153);fill-rule:nonzero;"/>
                                </g>
                                <g transform="matrix(2,0,0,2,0,0)">
                                    <path d="M275.15,209.823C275.061,209.637 274.964,209.454 274.871,209.279C274.557,208.667 274.239,208.125 273.912,207.644L273.911,207.644L273.911,207.64C273.171,201.25 275.031,194.94 278.89,189.84L280.991,190.28L281.06,190.29L281.06,190.31C280.661,190.78 280.281,191.26 279.93,191.77C276.751,196.17 275.02,201.5 275.001,206.94C275.001,207.898 275.05,208.866 275.15,209.823Z" style="fill:rgb(29,160,142);fill-rule:nonzero;"/>
                                </g>
                                <g transform="matrix(2,0,0,2,0,0)">
                                    <path d="M276.5,222.662C276.448,222.661 276.394,222.657 276.339,222.648C276.312,222.644 276.284,222.638 276.256,222.631C277.052,221.292 276.748,217.703 275.409,213.723C275.372,213.625 275.341,213.523 275.304,213.426C275.212,213.151 275.115,212.889 275.018,212.626L275.014,212.618L274.955,212.454L274.951,212.446C273.591,208.947 271.82,206.302 270.456,205.672C270.567,205.542 270.709,205.454 270.858,205.402C270.961,205.368 271.068,205.35 271.179,205.35C271.959,205.35 272.934,206.187 273.911,207.644L273.912,207.644C274.239,208.125 274.557,208.667 274.871,209.279C274.964,209.454 275.061,209.637 275.15,209.823C275.151,209.826 275.151,209.828 275.151,209.83C275.303,210.145 275.454,210.475 275.603,210.818C275.882,211.465 276.154,212.16 276.411,212.894C276.679,213.665 276.909,214.422 277.101,215.153C277.349,216.1 277.531,217.003 277.649,217.834C277.923,219.785 277.833,221.336 277.363,222.116L277.362,222.117C277.353,222.132 277.344,222.146 277.335,222.16C277.335,222.161 277.334,222.163 277.333,222.164C277.268,222.263 277.197,222.348 277.12,222.419C277.099,222.438 277.077,222.456 277.055,222.473C276.977,222.533 276.892,222.579 276.8,222.61C276.704,222.644 276.605,222.662 276.5,222.662Z" style="fill:rgb(29,160,142);fill-rule:nonzero;"/>
                                </g>
                                <g transform="matrix(2,0,0,2,0,0)">
                                    <path d="M275.393,223.194C274.335,223.194 272.861,221.529 271.529,218.961C270.967,217.876 270.43,216.63 269.961,215.28C268.344,210.612 268.116,206.408 269.421,205.644C269.471,205.615 269.523,205.591 269.578,205.572C269.631,205.554 269.686,205.541 269.742,205.533C269.785,205.527 269.829,205.524 269.874,205.524C269.941,205.524 270.011,205.531 270.082,205.544C270.149,205.557 270.217,205.575 270.286,205.6L270.291,205.602L270.456,205.672C271.82,206.302 273.591,208.947 274.951,212.446L274.955,212.454L275.014,212.618L275.018,212.626C275.115,212.889 275.212,213.151 275.304,213.426C275.341,213.523 275.372,213.625 275.409,213.723C276.748,217.703 277.052,221.292 276.256,222.631C276.255,222.631 276.253,222.63 276.251,222.63C276.173,222.78 276.08,222.895 275.974,222.984C275.888,223.055 275.793,223.109 275.69,223.146C275.595,223.178 275.496,223.194 275.393,223.194Z" style="fill:rgb(42,178,153);fill-rule:nonzero;"/>
                                </g>
                                <g transform="matrix(2,0,0,2,0,0)">
                                    <path d="M326.976,270.473C326.758,270.752 323.845,273.031 311.119,274.771C306.628,275.39 302.188,275.765 298.298,275.981C293.667,276.252 289.828,276.313 287.634,276.304C286.46,276.295 285.762,276.278 285.658,276.261L285.597,276.208C285.223,275.686 285.528,271.125 286.093,270.968C286.093,270.968 295.486,271.212 309.161,269.479C321.947,267.86 325.752,265.571 326.221,265.432L326.257,265.423L326.308,265.458L326.317,265.467C326.378,265.545 326.466,265.72 326.561,265.954C327.057,267.146 327.15,270.264 326.976,270.473Z" style="fill:rgb(3,104,99);fill-rule:nonzero;"/>
                                </g>
                                <g transform="matrix(2,0,0,2,0,0)">
                                    <path d="M326.561,265.954C325.316,266.485 320.363,268.452 312.938,269.575C304.321,270.881 301.979,271.072 301.979,271.072L298.298,275.981C293.667,276.252 289.828,276.313 287.634,276.304L285.869,276.274C285.494,275.752 285.528,271.125 286.093,270.968C286.093,270.968 295.486,271.212 309.161,269.479C321.947,267.86 325.752,265.571 326.221,265.432L326.257,265.423L326.308,265.458L326.317,265.467C326.378,265.545 326.466,265.72 326.561,265.954Z" style="fill:rgb(42,187,169);fill-rule:nonzero;"/>
                                </g>
                                <g transform="matrix(2,0,0,2,0,0)">
                                    <path d="M281.254,268.366L280.258,268.544C280.258,268.544 279.655,267.81 278.724,266.858L278.713,266.845C277.519,265.624 275.79,264.051 274.106,263.238C271.095,261.78 268.587,262.082 268.587,262.082L267.775,261.317C267.775,261.317 272.165,260.28 275.513,262.456C277.224,263.565 278.686,265.079 279.704,266.294C280.631,267.395 281.186,268.245 281.254,268.366Z" style="fill:rgb(12,155,134);fill-rule:nonzero;"/>
                                </g>
                                <g transform="matrix(2,0,0,2,0,0)">
                                    <path d="M283.715,263.474C283.519,263.587 281.557,268.234 281.261,268.364L281.254,268.366C281.116,268.403 280.55,267.615 279.638,266.572C278.524,265.287 276.881,263.613 274.877,262.643C271.595,261.048 267.775,261.317 267.775,261.317C267.314,259.58 269.763,251.832 270.543,251.921C271.324,252.017 274.895,252.579 278.567,255.348C279.696,256.194 280.628,257.284 281.382,258.387C283.082,260.862 283.844,263.404 283.715,263.474Z" style="fill:rgb(86,194,177);fill-rule:nonzero;"/>
                                </g>
                                <g transform="matrix(2,0,0,2,0,0)">
                                    <path d="M280.258,268.544C280.258,268.544 280.242,268.524 280.21,268.486C280.05,268.295 279.501,267.652 278.724,266.858L278.713,266.845L278.698,266.822L278.576,265.42C278.97,265.818 279.325,266.211 279.638,266.572C280.53,267.592 281.09,268.367 281.244,268.367L281.248,268.367L280.258,268.544Z" style="fill:rgb(20,135,120);fill-rule:nonzero;"/>
                                </g>
                                <g transform="matrix(2,0,0,2,0,0)">
                                    <path d="M281.244,268.367C281.09,268.367 280.53,267.592 279.638,266.572C279.325,266.211 278.97,265.818 278.576,265.42L278.557,265.205L281.382,258.387C282.959,260.684 283.729,263.037 283.729,263.421C283.729,263.451 283.724,263.469 283.715,263.474C283.519,263.587 281.557,268.234 281.261,268.364L281.254,268.366L281.248,268.367L281.244,268.367Z" style="fill:rgb(25,178,157);fill-rule:nonzero;"/>
                                </g>
                                <g transform="matrix(2,0,0,2,0,0)">
                                    <path d="M325.36,256.96C325.553,257.041 325.913,257.138 326.372,257.205C327.961,257.46 330.854,257.504 333.106,256.362C336.036,254.878 337.335,253.175 337.378,252.565C337.424,251.964 330.998,236.893 330.998,236.893C330.882,236.836 330.586,236.825 330.176,236.86L330.169,236.863C328.551,236.977 325.222,237.664 324.905,237.925C324.502,238.249 324.503,256.585 325.36,256.96Z" style="fill:rgb(12,155,134);fill-rule:nonzero;"/>
                                </g>
                                <g transform="matrix(2,0,0,2,0,0)">
                                    <path d="M326.372,257.205C327.961,257.46 330.854,257.504 333.106,256.362C336.036,254.878 337.335,253.175 337.378,252.565C337.424,251.964 330.998,236.893 330.998,236.893C330.882,236.836 330.586,236.825 330.176,236.86L330.169,236.863C330.169,236.863 327.596,241.811 326.45,244.768C325.424,247.44 326.209,255.626 326.372,257.205Z" style="fill:rgb(3,104,99);fill-rule:nonzero;"/>
                                </g>
                                <g transform="matrix(2,0,0,2,0,0)">
                                    <path d="M324.964,342.842L325.22,343.494L333.623,342.428L333.742,341.32L324.964,342.842Z" style="fill:rgb(86,194,177);fill-rule:nonzero;"/>
                                </g>
                                <g transform="matrix(2,0,0,2,0,0)">
                                    <path d="M329.497,361.034L329.353,361.734L347.124,362.006L347.121,361.033L329.497,361.034Z" style="fill:rgb(12,155,134);fill-rule:nonzero;"/>
                                </g>
                                <g transform="matrix(2,0,0,2,0,0)">
                                    <path d="M269.84,364.077L269.84,364.998L280.444,365.397L280.574,364.077L269.84,364.077Z" style="fill:rgb(12,155,134);fill-rule:nonzero;"/>
                                </g>
                                <g transform="matrix(2,0,0,2,0,0)">
                                    <path d="M269.845,364.077L269.843,364.077C269.891,362.818 273.291,357.288 274.595,353.226C275.285,351.071 275.447,347.865 275.447,345.321C275.447,344.302 275.421,343.389 275.393,342.693L280.246,342.693C279.513,345.212 276.91,353.941 275.204,356.907C273.243,360.333 269.951,363.96 269.845,364.077Z" style="fill:rgb(37,131,123);fill-rule:nonzero;"/>
                                </g>
                                <g transform="matrix(2,0,0,2,0,0)">
                                    <path d="M330.591,361.033L329.494,361.033C329.494,361.033 328.537,355.768 327.736,351.92C326.981,348.266 325.755,344.874 325.225,343.493L329.618,342.936L330.591,361.033Z" style="fill:rgb(37,131,123);fill-rule:nonzero;"/>
                                </g>
                                <g transform="matrix(-0.754963,-1.85203,-1.85203,0.754963,1379.8,925.128)">
                                    <path d="M345.471,225.941C345.471,225.941 351.022,219.277 350.387,218.502C350.323,218.424 347.705,218.948 347.474,218.994C345.471,219.388 344.88,223.313 344.742,224.124C344.555,225.225 345.471,225.941 345.471,225.941Z" style="fill:rgb(42,187,169);fill-rule:nonzero;"/>
                                </g>
                                <g transform="matrix(-0.754963,-1.85203,-1.85203,0.754963,1379.8,925.128)">
                                    <path d="M345.471,225.941C345.471,225.941 349.956,219.952 350.103,218.741C350.112,218.669 350.193,218.522 350.12,218.52C349.786,218.511 348.099,218.858 348.099,218.858C348.099,218.858 346.652,220.111 346.3,219.902C345.765,219.586 345.531,217.107 344.69,216.056C343.849,215.006 344.106,217.456 343.444,218.684C342.782,219.912 342.151,224.33 342.151,224.33L345.471,225.941Z" style="fill:rgb(14,164,140);fill-rule:nonzero;"/>
                                </g>
                            </g>
                            <g id="_Image4_" serif:id="_Image4" transform="matrix(-0.037964,0,0,0.0500184,454.057,288.753)">
                                <clipPath id="_clip3">
                                    <path d="M11925,-5749.25C11925.3,-5749.59 11925.6,-5749.93 11926,-5750.29C11925.6,-5749.97 11925.3,-5749.59 11924.9,-5749.25L11925,-5749.25Z"/>
                                </clipPath>
                                <g clip-path="url(#_clip3)">
                                    <clipPath id="_clip4">
                                        <path d="M0,0C0,0 0,0 0,0Z"/>
                                    </clipPath>
                                    <g clip-path="url(#_clip4)">
                                        <g transform="matrix(52.6815,-0,-0,39.9853,-7658.15,-2104.83)">
                                        </g>
                                    </g>
                                </g>
                            </g>
                            <g id="_Image7_" serif:id="_Image7" transform="matrix(-0.984872,0,0,0.979742,426.444,266.22)">
                                <clipPath id="_clip5">
                                    <path d="M373.801,-246.073C378.088,-251.978 386.294,-260.682 402.651,-265.677C412.854,-268.79 422.151,-269.997 430.443,-270.03L431.09,-270.03L430.766,-270.03C422.393,-270.03 412.985,-268.83 402.651,-265.677C386.294,-260.682 378.088,-251.978 373.801,-246.073Z"/>
                                </clipPath>
                                <g clip-path="url(#_clip5)">
                                    <clipPath id="_clip6">
                                        <path d="M0,0C0,0 0,0 0,0Z"/>
                                    </clipPath>
                                    <g clip-path="url(#_clip6)">
                                        <g transform="matrix(2.03072,-0,-0,2.04135,-323.237,-84.4573)">
                                        </g>
                                    </g>
                                </g>
                            </g>
                            <g id="_Image10_" serif:id="_Image10" transform="matrix(-0.131958,0,0,0.149994,454.055,288.754)">
                                <clipPath id="_clip7">
                                    <path d="M3431.81,-1916.5C3431.56,-1916.85 3431.3,-1917.2 3431.05,-1917.54C3430.95,-1917.42 3430.86,-1917.31 3430.76,-1917.2C3431.11,-1916.96 3431.46,-1916.73 3431.81,-1916.5Z"/>
                                </clipPath>
                                <g clip-path="url(#_clip7)">
                                    <clipPath id="_clip8">
                                        <path d="M0,0C0,0 0,0 0,0Z"/>
                                    </clipPath>
                                    <g clip-path="url(#_clip8)">
                                        <g transform="matrix(15.1563,-0,-0,13.3338,-2203.24,-701.895)">
                                        </g>
                                    </g>
                                </g>
                            </g>
                            <g id="_Image13_" serif:id="_Image13" transform="matrix(-0.983026,0,0,0.965336,447.852,239.439)">
                                <clipPath id="_clip9">
                                    <path d="M454.25,-230.609L454.411,-230.609L454.09,-230.609C451.478,-230.616 448.663,-230.787 445.742,-231.14C433.13,-232.664 423.208,-237.019 423.163,-240.976L423.163,-241.03C423.163,-241.111 423.17,-241.194 423.179,-241.276C423.506,-244.088 428.886,-245.913 436.491,-246.233C428.884,-245.913 423.504,-244.088 423.179,-241.276C422.708,-237.24 432.812,-232.703 445.742,-231.14C448.721,-230.78 451.592,-230.609 454.25,-230.609Z"/>
                                </clipPath>
                                <g clip-path="url(#_clip9)">
                                    <clipPath id="_clip10">
                                        <path d="M0,0C0,0 0,0 0,0Z"/>
                                    </clipPath>
                                    <g clip-path="url(#_clip10)">
                                        <g transform="matrix(2.03453,-0,-0,2.07182,-302.067,-57.9751)">
                                        </g>
                                    </g>
                                </g>
                            </g>
                            <g id="_Image18_" serif:id="_Image18" transform="matrix(-0.810667,0,0,0.0459901,435.273,235.531)">
                                <clipPath id="_clip11">
                                    <path d="M532.282,-5083.51C533.191,-5084.14 534.124,-5084.48 535.08,-5084.53L535.406,-5084.53L535.244,-5084.53C534.229,-5084.53 533.239,-5084.18 532.282,-5083.51Z"/>
                                </clipPath>
                                <g clip-path="url(#_clip11)">
                                    <clipPath id="_clip12">
                                        <path d="M0,0C0,0 0,0 0,0Z"/>
                                    </clipPath>
                                    <g clip-path="url(#_clip12)">
                                        <g transform="matrix(2.4671,-0,-0,43.4876,-381.808,-1131.93)">
                                        </g>
                                    </g>
                                </g>
                            </g>
                            <g id="_Image21_" serif:id="_Image21" transform="matrix(-0.981992,0,0,0.828897,395.393,280.661)">
                                <clipPath id="_clip13">
                                    <path d="M401.439,-335.501C401.439,-335.501 401.439,-335.499 401.439,-335.501C401.288,-335.525 401.138,-335.562 400.988,-335.606C400.983,-335.606 400.979,-335.609 400.975,-335.609C400.973,-335.611 400.971,-335.611 400.967,-335.611C400.965,-335.613 400.963,-335.613 400.96,-335.613C400.685,-335.699 400.411,-335.815 400.144,-335.968C399.86,-336.129 399.596,-336.323 399.357,-336.541C399.525,-336.388 399.703,-336.247 399.889,-336.124C400.387,-335.792 400.912,-335.589 401.439,-335.501Z"/>
                                </clipPath>
                                <g clip-path="url(#_clip13)">
                                    <clipPath id="_clip14">
                                        <path d="M0,0C0,0 0,0 0,0Z"/>
                                    </clipPath>
                                    <g clip-path="url(#_clip14)">
                                        <g transform="matrix(2.03668,-0,-0,2.41284,-355.805,-117.25)">
                                        </g>
                                    </g>
                                </g>
                            </g>
                            <g id="_Image24_" serif:id="_Image24" transform="matrix(-0.934395,0,0,0.812003,393.429,278.283)">
                                <clipPath id="_clip15">
                                    <path d="M415.092,-337.035C416.925,-337.035 418.681,-338.282 419.426,-340.404C419.519,-340.665 419.59,-340.932 419.644,-341.2C419.568,-340.823 419.454,-340.449 419.303,-340.085C419.276,-340.023 419.249,-339.961 419.222,-339.9L419.222,-339.897C419.218,-339.892 419.216,-339.887 419.214,-339.88C419.212,-339.875 419.209,-339.869 419.204,-339.864L419.204,-339.862C418.37,-338.075 416.764,-337.035 415.092,-337.035C414.874,-337.035 414.655,-337.054 414.436,-337.089C414.436,-337.087 414.436,-337.089 414.436,-337.089C414.655,-337.054 414.874,-337.035 415.092,-337.035Z"/>
                                </clipPath>
                                <g clip-path="url(#_clip15)">
                                    <clipPath id="_clip16">
                                        <path d="M0,0C0,0 0,0 0,0Z"/>
                                    </clipPath>
                                    <g clip-path="url(#_clip16)">
                                        <g transform="matrix(2.14042,-0,-0,2.46304,-376.032,-116.76)">
                                        </g>
                                    </g>
                                </g>
                            </g>
                            <g id="_Image35_" serif:id="_Image35" transform="matrix(-0.263978,0,0,0.767975,396.911,275.609)">
                                <clipPath id="_clip17">
                                    <path d="M1496.72,-355.96C1496.96,-356.309 1497.3,-356.66 1497.76,-357.001C1497.65,-356.923 1497.55,-356.843 1497.45,-356.765C1497.15,-356.499 1496.9,-356.231 1496.72,-355.96Z"/>
                                </clipPath>
                                <g clip-path="url(#_clip17)">
                                    <clipPath id="_clip18">
                                        <path d="M0,0C0,0 0,0 0,0Z"/>
                                    </clipPath>
                                    <g clip-path="url(#_clip18)">
                                        <g transform="matrix(7.5764,-0,-0,2.60425,-1317.84,-119.972)">
                                        </g>
                                    </g>
                                </g>
                            </g>
                            <g id="_Image38_" serif:id="_Image38" transform="matrix(-0.850666,0,0,0.947995,396.418,279.507)">
                                <clipPath id="_clip19">
                                    <path d="M464.083,-291.173C464.08,-291.175 464.076,-291.175 464.073,-291.175C464.078,-291.175 464.08,-291.175 464.083,-291.173ZM464.065,-291.179C463.644,-291.277 463.228,-291.424 462.83,-291.624C462.036,-292.021 461.405,-292.593 460.959,-293.257C461.281,-292.772 461.703,-292.342 462.215,-291.989C462.491,-291.798 462.795,-291.628 463.123,-291.488C463.431,-291.354 463.748,-291.252 464.065,-291.179Z"/>
                                </clipPath>
                                <g clip-path="url(#_clip19)">
                                    <clipPath id="_clip20">
                                        <path d="M0,0C0,0 0,0 0,0Z"/>
                                    </clipPath>
                                    <g clip-path="url(#_clip20)">
                                        <g transform="matrix(2.3511,-0,-0,2.10971,-409.529,-101.302)">
                                        </g>
                                    </g>
                                </g>
                            </g>
                            <g id="_Image41_" serif:id="_Image41" transform="matrix(-0.605763,0,0,0.829196,389.258,275.181)">
                                <clipPath id="_clip21">
                                    <path d="M638.09,-324.251L638.09,-324.254L638.09,-324.251ZM638.105,-324.269C638.108,-324.277 638.112,-324.281 638.118,-324.286C638.112,-324.281 638.108,-324.277 638.105,-324.269ZM638.118,-324.289C638.16,-324.349 638.201,-324.409 638.242,-324.47C638.477,-324.827 638.652,-325.193 638.769,-325.562C639.188,-326.907 638.855,-328.308 637.905,-329.459C639.036,-328.082 639.297,-326.348 638.43,-324.782C638.335,-324.611 638.232,-324.448 638.118,-324.289Z"/>
                                </clipPath>
                                <g clip-path="url(#_clip21)">
                                    <clipPath id="_clip22">
                                        <path d="M0,0C0,0 0,0 0,0Z"/>
                                    </clipPath>
                                    <g clip-path="url(#_clip22)">
                                        <g transform="matrix(3.30162,-0,-0,2.41198,-586.919,-110.598)">
                                        </g>
                                    </g>
                                </g>
                            </g>
                            <g id="_Image44_" serif:id="_Image44" transform="matrix(-0.994546,0,0,0.857434,394.094,260.813)">
                                <clipPath id="_clip23">
                                    <path d="M387.578,-295.688L387.689,-295.688C390.492,-295.715 393.167,-297.649 394.306,-300.917C394.54,-301.59 394.693,-302.284 394.766,-302.979C394.753,-302.864 394.739,-302.75 394.722,-302.634C394.639,-302.056 394.5,-301.48 394.306,-300.917C393.809,-299.495 393.024,-298.327 392.063,-297.46C392.061,-297.458 392.059,-297.455 392.054,-297.453C392.052,-297.447 392.048,-297.445 392.046,-297.442C392.039,-297.438 392.033,-297.433 392.028,-297.426C392.026,-297.426 392.024,-297.424 392.022,-297.424C392.016,-297.416 392.008,-297.409 391.999,-297.402C390.749,-296.296 389.21,-295.692 387.632,-295.692C387.493,-295.692 387.352,-295.697 387.209,-295.706C387.214,-295.706 387.218,-295.704 387.222,-295.704C387.342,-295.697 387.459,-295.692 387.578,-295.688ZM386.424,-295.811C385.783,-295.939 385.147,-296.17 384.533,-296.513C384.38,-296.597 384.231,-296.687 384.087,-296.782C383.929,-296.886 383.776,-296.996 383.628,-297.112C383.519,-297.198 383.412,-297.285 383.31,-297.375C383.563,-297.151 383.834,-296.944 384.12,-296.76C384.857,-296.282 385.631,-295.968 386.414,-295.813C386.416,-295.811 386.42,-295.811 386.424,-295.811Z"/>
                                </clipPath>
                                <g clip-path="url(#_clip23)">
                                    <clipPath id="_clip24">
                                        <path d="M0,0C0,0 0,0 0,0Z"/>
                                    </clipPath>
                                    <g clip-path="url(#_clip24)">
                                        <g transform="matrix(2.01097,-0,-0,2.33254,-352.62,-90.1996)">
                                        </g>
                                    </g>
                                </g>
                            </g>
                            <g id="_Image47_" serif:id="_Image47" transform="matrix(-0.772031,0,0,0.0900271,391.131,266.713)">
                                <clipPath id="_clip25">
                                    <path d="M504.056,-2948.5C504.05,-2948.5 504.045,-2948.53 504.039,-2948.53C503.703,-2948.69 503.366,-2949.04 503.028,-2949.53C503.023,-2949.53 503.017,-2949.53 503.015,-2949.55C503.359,-2949.01 503.708,-2948.67 504.056,-2948.5Z"/>
                                </clipPath>
                                <g clip-path="url(#_clip25)">
                                    <clipPath id="_clip26">
                                        <path d="M0,0C0,0 0,0 0,0Z"/>
                                    </clipPath>
                                    <g clip-path="url(#_clip26)">
                                        <g transform="matrix(2.59057,-0,-0,22.2155,-458.09,-924.611)">
                                        </g>
                                    </g>
                                </g>
                            </g>
                            <g id="_Image52_" serif:id="_Image52" transform="matrix(-0.96309,0,0,0.963601,386.086,261.096)">
                                <clipPath id="_clip27">
                                    <path d="M388.317,-264.377C388.152,-264.47 387.996,-264.567 387.842,-264.671C387.996,-264.567 388.154,-264.47 388.317,-264.377ZM396.511,-264.948C396.513,-264.948 396.515,-264.95 396.518,-264.95C396.515,-264.95 396.513,-264.948 396.511,-264.948ZM396.535,-264.965C396.537,-264.968 396.541,-264.97 396.543,-264.974C396.541,-264.97 396.537,-264.968 396.535,-264.965ZM396.553,-264.98C397.545,-265.752 398.356,-266.791 398.869,-268.056C399.07,-268.557 399.213,-269.07 399.299,-269.584C399.187,-268.919 398.979,-268.254 398.672,-267.615C398.159,-266.549 397.426,-265.661 396.553,-264.98Z"/>
                                </clipPath>
                                <g clip-path="url(#_clip27)">
                                    <clipPath id="_clip28">
                                        <path d="M0,0C0,0 0,0 0,0Z"/>
                                    </clipPath>
                                    <g clip-path="url(#_clip28)">
                                        <g transform="matrix(2.07665,-0,-0,2.07555,-372.453,-80.5552)">
                                        </g>
                                    </g>
                                </g>
                            </g>
                            <g id="_Image55_" serif:id="_Image55" transform="matrix(-0.944506,0,0,0.703995,393.351,265.405)">
                                <clipPath id="_clip29">
                                    <path d="M410.559,-372.342C412.219,-372.342 413.84,-373.08 415.157,-374.425C413.84,-373.08 412.219,-372.342 410.559,-372.342C410.408,-372.342 410.259,-372.348 410.109,-372.361L410.113,-372.361C410.263,-372.348 410.41,-372.342 410.559,-372.342ZM409.29,-372.487C408.461,-372.678 407.641,-373.058 406.858,-373.644C406.847,-373.654 406.836,-373.662 406.826,-373.671C406.977,-373.556 407.134,-373.446 407.295,-373.342C407.941,-372.925 408.612,-372.645 409.286,-372.487L409.29,-372.487Z"/>
                                </clipPath>
                                <g clip-path="url(#_clip29)">
                                    <clipPath id="_clip30">
                                        <path d="M0,0C0,0 0,0 0,0Z"/>
                                    </clipPath>
                                    <g clip-path="url(#_clip30)">
                                        <g transform="matrix(2.11751,-0,-0,2.84093,-372.089,-116.382)">
                                        </g>
                                    </g>
                                </g>
                            </g>
                            <g id="_Image61_" serif:id="_Image61" transform="matrix(-0.960462,0,0,0.9234,395.589,256.409)">
                                <clipPath id="_clip31">
                                    <path d="M398.798,-265.702C398.019,-266.246 397.364,-266.933 396.849,-267.708C397.288,-267.045 397.828,-266.45 398.461,-265.95L398.463,-265.948C398.466,-265.948 398.466,-265.946 398.469,-265.946C398.575,-265.863 398.685,-265.781 398.798,-265.702ZM407.466,-265.971C407.476,-265.977 407.484,-265.985 407.49,-265.991C407.484,-265.985 407.476,-265.977 407.466,-265.971ZM407.497,-265.994C407.502,-266 407.508,-266.004 407.514,-266.01C407.508,-266.004 407.502,-266 407.497,-265.994ZM407.523,-266.019C407.528,-266.021 407.53,-266.023 407.532,-266.025C407.53,-266.023 407.528,-266.021 407.523,-266.019ZM410.286,-270.83C410.304,-270.938 410.318,-271.045 410.332,-271.151C410.366,-271.432 410.384,-271.715 410.388,-271.994L410.388,-272.192C410.37,-273.578 409.995,-274.936 409.312,-276.118C410.217,-274.55 410.581,-272.669 410.286,-270.83Z"/>
                                </clipPath>
                                <g clip-path="url(#_clip31)">
                                    <clipPath id="_clip32">
                                        <path d="M0,0C0,0 0,0 0,0Z"/>
                                    </clipPath>
                                    <g clip-path="url(#_clip32)">
                                        <g transform="matrix(2.08233,-0,-0,2.16591,-363.577,-78.9857)">
                                        </g>
                                    </g>
                                </g>
                            </g>
                            <g id="_Image66_" serif:id="_Image66" transform="matrix(-0.961137,0,0,0.985334,450.626,273.52)">
                                <clipPath id="_clip33">
                                    <path d="M462.761,-273.21L462.898,-273.21C464.576,-273.235 466.175,-274.214 466.856,-275.862C466.92,-276.016 466.974,-276.176 467.02,-276.334C467.018,-276.332 467.018,-276.33 467.018,-276.328C467.016,-276.326 467.016,-276.323 467.016,-276.321C467.014,-276.319 467.014,-276.315 467.014,-276.31C466.97,-276.16 466.918,-276.01 466.856,-275.862C466.164,-274.192 464.534,-273.21 462.831,-273.21C462.113,-273.21 461.386,-273.384 460.71,-273.753C460.462,-273.886 460.235,-274.042 460.024,-274.216C459.923,-274.302 459.823,-274.391 459.73,-274.487C460.012,-274.201 460.341,-273.952 460.708,-273.751C461.364,-273.394 462.069,-273.22 462.761,-273.21Z"/>
                                </clipPath>
                                <g clip-path="url(#_clip33)">
                                    <clipPath id="_clip34">
                                        <path d="M0,0C0,0 0,0 0,0Z"/>
                                    </clipPath>
                                    <g clip-path="url(#_clip34)">
                                        <g transform="matrix(2.08087,-0,-0,2.02977,-306.059,-91.3873)">
                                        </g>
                                    </g>
                                </g>
                            </g>
                            <g id="_Image69_" serif:id="_Image69" transform="matrix(-0.922005,0,0,0.98334,449.432,272.541)">
                                <clipPath id="_clip35">
                                    <path d="M481.18,-272.768C482.955,-272.768 484.654,-273.753 485.375,-275.426C485.44,-275.574 485.494,-275.725 485.54,-275.875C485.467,-275.638 485.375,-275.403 485.257,-275.174C484.48,-273.655 482.863,-272.768 481.18,-272.768C480.523,-272.768 479.858,-272.904 479.228,-273.185C478.869,-273.346 478.543,-273.547 478.254,-273.776C478.474,-273.602 478.71,-273.446 478.968,-273.312C479.673,-272.942 480.432,-272.768 481.18,-272.768ZM485.542,-275.885C485.542,-275.887 485.542,-275.89 485.544,-275.892C485.542,-275.89 485.542,-275.887 485.542,-275.885Z"/>
                                </clipPath>
                                <g clip-path="url(#_clip35)">
                                    <clipPath id="_clip36">
                                        <path d="M0,0C0,0 0,0 0,0Z"/>
                                    </clipPath>
                                    <g clip-path="url(#_clip36)">
                                        <g transform="matrix(2.16918,-0,-0,2.03388,-320.344,-90.5769)">
                                        </g>
                                    </g>
                                </g>
                            </g>
                            <g id="_Image72_" serif:id="_Image72" transform="matrix(-0.187989,0,0,0.61801,451.671,270.019)">
                                <clipPath id="_clip37">
                                    <path d="M2392.8,-433.258C2392.83,-433.301 2392.86,-433.345 2392.9,-433.389C2393.14,-433.694 2393.45,-433.999 2393.84,-434.298C2393.4,-433.958 2393.05,-433.607 2392.8,-433.258Z"/>
                                </clipPath>
                                <g clip-path="url(#_clip37)">
                                    <clipPath id="_clip38">
                                        <path d="M0,0C0,0 0,0 0,0Z"/>
                                    </clipPath>
                                    <g clip-path="url(#_clip38)">
                                        <g transform="matrix(10.6389,-0,-0,3.23619,-1559.24,-140.039)">
                                        </g>
                                    </g>
                                </g>
                            </g>
                            <g id="_Image75_" serif:id="_Image75" transform="matrix(-0.51001,0,0,0.928998,451.654,268.701)">
                                <clipPath id="_clip39">
                                    <path d="M880.022,-285.814C880.153,-286.117 880.349,-286.419 880.602,-286.711C880.981,-287.143 881.467,-287.527 882.039,-287.858C881.353,-287.46 880.784,-286.986 880.384,-286.444C880.381,-286.435 880.377,-286.429 880.369,-286.419C880.226,-286.22 880.112,-286.019 880.022,-285.814ZM882.043,-287.86C882.051,-287.866 882.055,-287.868 882.059,-287.87C882.055,-287.868 882.051,-287.866 882.043,-287.86ZM882.071,-287.879C882.075,-287.879 882.081,-287.881 882.084,-287.883C882.081,-287.881 882.075,-287.879 882.071,-287.879ZM882.1,-287.895C882.104,-287.895 882.104,-287.897 882.104,-287.897C882.104,-287.897 882.104,-287.895 882.1,-287.895Z"/>
                                </clipPath>
                                <g clip-path="url(#_clip39)">
                                    <clipPath id="_clip40">
                                        <path d="M0,0C0,0 0,0 0,0Z"/>
                                    </clipPath>
                                    <g clip-path="url(#_clip40)">
                                        <g transform="matrix(3.92149,-0,-0,2.15286,-574.768,-91.7414)">
                                        </g>
                                    </g>
                                </g>
                            </g>
                            <g id="_Image78_" serif:id="_Image78" transform="matrix(-0.985499,0,0,0.994999,451.762,270.558)">
                                <clipPath id="_clip41">
                                    <path d="M449.805,-266.565C448.858,-267.365 448.321,-268.546 448.317,-269.758L448.317,-269.716C448.332,-268.647 448.758,-267.607 449.517,-266.834C449.609,-266.739 449.705,-266.652 449.805,-266.565ZM456.621,-268.64C456.621,-268.645 456.621,-268.649 456.623,-268.651C456.621,-268.649 456.621,-268.645 456.621,-268.64ZM456.625,-268.657C456.625,-268.659 456.625,-268.661 456.628,-268.663C456.634,-268.693 456.643,-268.72 456.649,-268.747C456.641,-268.718 456.634,-268.686 456.625,-268.657ZM448.317,-269.787C448.319,-270.101 448.355,-270.42 448.431,-270.731C448.425,-270.704 448.418,-270.677 448.412,-270.65C448.35,-270.375 448.321,-270.099 448.317,-269.825L448.317,-269.787Z"/>
                                </clipPath>
                                <g clip-path="url(#_clip41)">
                                    <clipPath id="_clip42">
                                        <path d="M0,0C0,0 0,0 0,0Z"/>
                                    </clipPath>
                                    <g clip-path="url(#_clip42)">
                                        <g transform="matrix(2.02943,-0,-0,2.01005,-297.341,-87.5227)">
                                        </g>
                                    </g>
                                </g>
                            </g>
                            <g id="_Image81_" serif:id="_Image81" transform="matrix(-0.734009,0,0,0.834001,419.608,282.645)">
                                <clipPath id="_clip43">
                                    <path d="M568.324,-334.698L568.326,-334.7L568.324,-334.698ZM568.329,-334.705C568.619,-335.046 568.863,-335.422 569.053,-335.835C569.194,-336.146 569.299,-336.461 569.365,-336.781C569.277,-336.361 569.123,-335.944 568.903,-335.54C568.741,-335.24 568.548,-334.963 568.329,-334.705Z"/>
                                </clipPath>
                                <g clip-path="url(#_clip43)">
                                    <clipPath id="_clip44">
                                        <path d="M0,0C0,0 0,0 0,0Z"/>
                                    </clipPath>
                                    <g clip-path="url(#_clip44)">
                                        <g transform="matrix(2.72476,-0,-0,2.39808,-443.024,-118.911)">
                                        </g>
                                    </g>
                                </g>
                            </g>
                            <g transform="matrix(2,0,0,2,-181.786,-152.975)">
                                <path d="M281.566,226.423C281.548,226.408 281.53,226.392 281.512,226.377L281.46,226.154C281.476,226.166 281.492,226.179 281.508,226.192L281.566,226.423Z" style="fill:url(#_Linear45);"/>
                            </g>
                            <g transform="matrix(2,0,0,2,-181.786,-152.975)">
                                <path d="M283.354,223.895L280.891,223.683L280.89,223.682C280.576,223.147 280.255,222.556 279.932,221.905C280.256,222.555 280.579,223.146 280.894,223.681L283.354,223.895ZM277.782,216.514C277.695,216.242 277.61,215.964 277.526,215.681C277.367,215.146 277.224,214.622 277.097,214.109C277.225,214.622 277.368,215.147 277.527,215.682C277.611,215.965 277.696,216.242 277.782,216.514ZM276.185,204.73C276.39,201.682 277.059,199.956 277.059,199.956C277.059,199.956 278.212,199.22 280.175,198.143C280.175,198.145 280.174,198.145 280.174,198.145C278.215,199.219 277.062,199.956 277.062,199.956C277.062,199.956 276.391,201.682 276.185,204.73Z" style="fill:rgb(63,180,172);fill-rule:nonzero;"/>
                            </g>
                            <g transform="matrix(1.06129,-0.000874124,0.000868582,1.05456,-106.307,-148.736)">
                                <g transform="matrix(0.944235,0,0,1.61527,454.512,313.646)">
                                    <path d="M50.282,52.014C65.748,54.76 77.175,62.847 77.278,62.801C81.288,60.993 83.878,59.351 84.184,59.101C90.412,51.53 90.904,42.442 84.206,34.28C83.296,33.169 82.268,32.103 81.152,31.095L81.128,31.092C80.454,30.482 79.666,29.884 78.924,29.312L78.82,29.365L74.994,29.677C71.141,30.055 30.669,33.324 20.63,46.555C19.817,47.626 19.16,48.731 18.628,49.765L23.392,49.62L23.698,49.62C31.675,49.625 40.543,50.286 50.282,52.014Z" style="fill:rgb(16,16,16);"/>
                                </g>
                                <g transform="matrix(0.944235,0,0,1.61527,454.512,313.646)">
                                    <path d="M74.994,29.677C77.448,29.457 78.82,29.364 78.82,29.364L78.924,29.312C79.666,29.883 80.454,30.482 81.128,31.092L81.152,31.095C82.268,32.103 83.296,33.169 84.206,34.28C90.904,42.442 90.412,51.53 84.184,59.101C83.94,59.397 81.329,60.981 77.107,62.849C76.373,62.687 76.68,62.277 76.668,62.267L78.252,62.143C86.534,54.143 87.958,43.947 80.526,34.89C79.614,33.78 78.586,32.714 77.47,31.706L77.446,31.701L74.994,29.677Z" style="fill:rgb(16,16,16);"/>
                                </g>
                                <g transform="matrix(0.944235,0,0,1.61527,454.512,313.646)">
                                    <path d="M77.446,31.701L77.47,31.706C78.586,32.714 79.614,33.78 80.526,34.89C87.958,43.947 86.534,54.143 78.252,62.143L77.359,62.704C73.305,59.457 65.748,54.76 50.282,52.014C40.575,50.291 31.735,49.629 23.698,49.62L23.392,49.62L18.628,49.765C19.16,48.731 19.817,47.626 20.63,46.555C30.669,33.324 71.141,30.055 74.994,29.677L77.446,31.701Z" style="fill:rgb(16,16,16);"/>
                                </g>
                            </g>
                        </g>
                    </g>
                </g>
            </g>
        </g>
    </g>
    <defs>
        <linearGradient id="_Linear45" x1="0" y1="0" x2="1" y2="0" gradientUnits="userSpaceOnUse" gradientTransform="matrix(-31.2793,37.7759,-37.7759,-31.2793,312.922,226.493)"><stop offset="0" style="stop-color:rgb(212,71,133);stop-opacity:1"/><stop offset="1" style="stop-color:rgb(36,32,89);stop-opacity:1"/></linearGradient>
    </defs>
</svg>
