<?xml version="1.0" encoding="UTF-8" standalone="no"?><!-- Generator: Gravit.io --><svg xmlns="http://www.w3.org/2000/svg" xmlns:xlink="http://www.w3.org/1999/xlink" style="isolation:isolate" viewBox="48.981 30.707 110.348 201.293" width="110.348pt" height="201.293pt"><defs><clipPath id="_clipPath_DLqBnbYStM3SvdqyMR8CGw9gNaUgK8VS"><rect x="48.981" y="30.707" width="110.348" height="201.293"/></clipPath></defs><g clip-path="url(#_clipPath_DLqBnbYStM3SvdqyMR8CGw9gNaUgK8VS)"><g><path d=" M 59.68 55.907 C 61.485 54.174 63.417 52.533 65.478 51.002 C 91.558 31.619 128.43 37.005 147.765 63.021 C 167.1 89.038 161.624 125.896 135.544 145.279 C 109.463 164.662 72.592 159.276 53.256 133.26 C 51.843 131.358 50.562 129.398 49.416 127.39 C 65.059 143.392 90.539 145.775 108.995 132.059 C 129.13 117.095 133.328 88.599 118.364 68.465 C 104.581 49.919 79.317 44.894 59.68 55.907 Z " fill-rule="evenodd" fill="rgb(255,255,255)"/><path d=" M 60.142 55.662 C 60.341 55.509 60.542 55.357 60.744 55.207 C 83.861 38.027 116.576 42.847 133.756 65.963 C 150.936 89.079 146.117 121.795 123 138.975 C 99.884 156.155 67.168 151.335 49.988 128.219 C 49.755 127.905 49.526 127.589 49.298 127.273 C 64.933 143.38 90.494 145.809 108.995 132.059 C 129.13 117.095 133.328 88.599 118.364 68.465 C 104.688 50.063 79.709 44.973 60.142 55.662 Z " fill-rule="evenodd" fill="rgb(240,240,240)"/></g></g></svg>