<?xml version="1.0" standalone="no"?><!-- Generator: Gravit.io --><svg xmlns="http://www.w3.org/2000/svg" xmlns:xlink="http://www.w3.org/1999/xlink" style="isolation:isolate" viewBox="842.333 494.509 185.334 20.981" width="185.334" height="20.981"><defs><clipPath id="_clipPath_NxsDF6yCKeU5g1uMLZsKW8VBvG5zZxux"><rect x="842.333" y="494.509" width="185.334" height="20.981"/></clipPath></defs><g clip-path="url(#_clipPath_NxsDF6yCKeU5g1uMLZsKW8VBvG5zZxux)"><rect x="842.333" y="494.509" width="185.334" height="20.981" style="fill:rgb(0,0,0)" fill-opacity="0"/><path d=" M 896.491 500.046 C 896.437 500.144 896.383 500.242 896.488 500.368 C 896.54 500.431 896.751 500.522 896.857 500.487 C 896.963 500.452 897.175 500.382 897.229 500.284 C 897.441 500.213 897.706 500.206 897.81 500.332 L 897.862 500.395 C 898.073 500.486 898.233 500.353 898.445 500.283 C 898.605 500.15 898.765 500.016 898.923 500.044 C 899.188 500.037 899.397 500.289 899.767 500.247 C 899.874 500.212 900.033 500.079 900.14 500.043 L 900.456 500.099 C 900.773 500.155 900.987 499.924 900.988 499.763 C 900.99 499.601 900.833 499.412 900.729 499.286 C 900.361 499.006 900.1 498.691 899.732 498.411 C 899.628 498.285 899.575 498.222 899.365 498.131 C 898.996 498.012 898.467 498.026 898.149 498.131 C 897.14 498.545 896.551 499.303 896.439 499.983 L 896.491 500.046 Z " fill="rgb(255,255,255)"/><path d=" M 896.562 499.26 L 896.613 499.485 L 896.982 499.604 L 897.248 499.435 C 897.46 499.365 897.619 499.393 897.777 499.421 L 897.829 499.484 C 897.988 499.512 898.2 499.442 898.306 499.407 C 898.36 499.308 898.572 499.238 898.784 499.168 C 899.049 499.161 899.258 499.413 899.47 499.343 L 899.842 499.139 L 900 499.167 C 900.265 499.16 900.425 499.027 900.426 498.865 C 900.428 498.704 900.323 498.578 900.219 498.452 C 899.903 498.235 899.642 497.92 899.327 497.703 C 899.275 497.64 899.17 497.514 899.012 497.486 C 898.749 497.332 898.272 497.409 897.954 497.514 C 897.157 497.858 896.622 498.517 896.458 499.134 L 896.562 499.26 Z " fill="rgb(255,255,255)"/><path d=" M 896.612 498.536 C 896.558 498.634 896.769 498.725 896.927 498.753 L 897.245 498.648 L 897.616 498.606 L 897.773 498.795 L 898.09 498.851 L 898.356 498.682 L 898.622 498.514 L 898.937 498.731 C 899.147 498.822 899.415 498.492 899.679 498.485 L 900.048 498.604 C 900.207 498.632 900.525 498.527 900.527 498.365 C 900.528 498.204 900.424 498.078 900.213 497.987 C 900.108 497.861 899.898 497.77 899.793 497.644 C 899.374 497.301 898.276 495.977 897.684 497.057 C 897.469 497.449 896.666 498.438 896.612 498.536 Z " fill="rgb(255,255,255)"/><path d=" M 902.167 500.94 C 902.225 501.01 906.514 500.694 906.62 500.659 L 906.638 500.006 C 906.966 500.075 907.176 499.668 907.166 499.494 C 907.157 499.319 906.984 499.11 906.868 498.971 C 906.473 498.657 906.184 498.309 905.789 497.995 C 905.673 497.856 905.616 497.786 905.394 497.682 C 905.008 497.543 904.468 497.544 904.15 497.649 C 903.147 498.07 902.597 498.874 902.529 499.607 Q 902.051 500.801 902.167 500.94 Z " fill="rgb(255,255,255)"/><path d=" M 902.774 498.772 L 902.825 498.997 L 903.194 499.116 L 903.46 498.947 C 903.672 498.877 903.831 498.905 903.989 498.933 L 904.041 498.996 C 904.2 499.024 904.412 498.954 904.518 498.918 C 904.572 498.82 904.784 498.75 904.996 498.68 C 905.261 498.673 905.47 498.925 905.682 498.855 L 906.054 498.651 L 906.212 498.679 C 906.477 498.672 906.637 498.539 906.638 498.377 C 906.64 498.216 906.535 498.09 906.431 497.964 C 906.116 497.747 905.854 497.432 905.539 497.215 C 905.487 497.152 905.382 497.026 905.224 496.998 C 904.961 496.844 904.484 496.921 904.166 497.026 C 903.37 497.37 902.834 498.029 902.67 498.646 L 902.774 498.772 Z " fill="rgb(255,255,255)"/><path d=" M 902.706 497.984 C 902.652 498.082 902.862 498.173 903.021 498.201 L 903.339 498.095 L 903.71 498.053 L 903.866 498.242 L 904.183 498.298 L 904.449 498.13 L 904.715 497.961 L 905.03 498.178 C 905.241 498.269 905.509 497.94 905.773 497.933 L 906.142 498.052 C 906.3 498.08 906.619 497.974 906.62 497.813 C 906.622 497.652 906.517 497.526 906.307 497.435 C 906.202 497.309 905.991 497.218 905.887 497.092 C 905.467 496.748 904.369 495.424 903.777 496.504 C 903.562 496.897 902.759 497.886 902.706 497.984 Z " fill="rgb(255,255,255)"/><path d=" M 910.204 498.787 C 910.147 498.884 910.09 498.98 910.19 499.109 C 910.241 499.174 910.448 499.272 910.555 499.24 C 910.663 499.208 910.877 499.145 910.934 499.049 C 911.148 498.985 911.413 498.986 911.513 499.116 L 911.563 499.18 C 911.771 499.278 911.985 499.215 912.149 499.087 C 912.313 498.959 912.478 498.83 912.635 498.863 C 912.9 498.865 913.1 499.123 913.472 499.093 C 913.579 499.061 913.743 498.933 913.851 498.901 L 914.165 498.967 C 914.48 499.033 914.701 498.809 914.708 498.648 C 914.715 498.487 914.564 498.293 914.463 498.163 C 914.105 497.872 913.854 497.548 913.496 497.256 C 913.395 497.127 913.345 497.062 913.137 496.965 C 912.772 496.834 912.243 496.832 911.922 496.927 C 910.9 497.308 910.288 498.047 910.154 498.723 L 910.204 498.787 Z " fill="rgb(255,255,255)"/><path d=" M 910.522 497.764 L 910.565 497.989 L 910.93 498.12 L 911.202 497.96 C 911.416 497.897 911.573 497.93 911.731 497.963 L 911.781 498.028 C 911.938 498.061 912.153 497.997 912.26 497.965 C 912.317 497.869 912.531 497.806 912.745 497.742 C 913.01 497.743 913.211 498.002 913.425 497.939 L 913.804 497.747 L 913.961 497.78 C 914.226 497.782 914.39 497.653 914.396 497.492 C 914.403 497.331 914.303 497.202 914.095 497.104 C 913.787 496.877 913.536 496.554 913.228 496.327 C 913.177 496.262 913.077 496.133 912.92 496.1 C 912.662 495.937 912.183 496 911.861 496.095 C 911.054 496.413 910.498 497.055 910.314 497.666 L 910.522 497.764 Z " fill="rgb(255,255,255)"/><path d=" M 910.577 496.842 L 910.899 496.747 L 911.271 496.717 L 911.421 496.911 L 911.736 496.977 L 912.007 496.817 L 912.279 496.657 L 912.587 496.884 C 912.794 496.982 913.072 496.661 913.337 496.662 L 913.702 496.793 C 913.859 496.826 914.181 496.731 914.187 496.569 C 914.194 496.408 914.094 496.279 913.886 496.181 C 913.785 496.052 913.578 495.954 913.477 495.825 C 913.069 495.469 912.014 494.11 911.388 495.171 C 911.16 495.556 910.077 496.851 910.577 496.842 Z " fill="rgb(255,255,255)"/><path d=" M 917.761 498.992 C 917.704 499.088 917.647 499.184 917.747 499.314 C 917.798 499.378 918.005 499.476 918.112 499.444 C 918.22 499.413 918.434 499.349 918.491 499.253 C 918.705 499.19 918.97 499.191 919.07 499.32 L 919.12 499.385 C 919.328 499.482 919.542 499.419 919.706 499.291 C 919.87 499.163 920.035 499.035 920.192 499.068 C 920.456 499.069 920.657 499.328 921.029 499.297 C 921.136 499.266 921.3 499.138 921.407 499.106 L 921.722 499.172 C 922.037 499.238 922.258 499.013 922.265 498.852 C 922.271 498.691 922.121 498.497 922.02 498.368 C 921.662 498.076 921.411 497.753 921.053 497.461 C 920.952 497.331 920.902 497.267 920.694 497.169 C 920.329 497.039 919.8 497.036 919.479 497.131 C 918.457 497.513 917.844 498.251 917.71 498.927 L 917.761 498.992 Z " fill="rgb(255,255,255)"/><path d=" M 917.908 497.994 L 917.952 498.219 L 918.317 498.35 L 918.588 498.19 C 918.802 498.127 918.96 498.16 919.117 498.193 L 919.167 498.257 C 919.325 498.29 919.539 498.227 919.646 498.195 C 919.703 498.099 919.917 498.035 920.132 497.972 C 920.396 497.973 920.597 498.232 920.811 498.169 L 921.19 497.977 L 921.347 498.01 C 921.612 498.011 921.776 497.883 921.783 497.722 C 921.789 497.561 921.689 497.432 921.481 497.334 C 921.173 497.107 920.922 496.784 920.614 496.557 C 920.564 496.492 920.463 496.363 920.306 496.33 C 920.048 496.167 919.569 496.229 919.248 496.324 Q 918.441 496.643 917.908 497.994 Z " fill="rgb(255,255,255)"/><path d=" M 917.992 497.253 C 917.935 497.349 918.142 497.447 918.3 497.48 L 918.621 497.385 L 918.993 497.354 L 919.144 497.548 L 919.459 497.614 L 919.73 497.454 L 920.001 497.295 L 920.309 497.522 C 920.517 497.619 920.795 497.299 921.059 497.3 L 921.424 497.43 C 921.582 497.463 921.903 497.368 921.91 497.207 C 921.916 497.046 921.3 496.592 921.2 496.463 C 920.791 496.106 919.736 494.748 919.11 495.808 C 918.883 496.194 918.548 496.611 918.213 497.028 Q 918.049 497.156 917.992 497.253 Z " fill="rgb(255,255,255)"/><path d=" M 924.676 498.422 C 924.619 498.519 924.562 498.615 924.662 498.744 C 924.713 498.809 924.92 498.907 925.027 498.875 C 925.135 498.843 925.349 498.78 925.406 498.683 C 925.62 498.62 925.885 498.621 925.985 498.751 L 926.035 498.815 C 926.243 498.913 926.457 498.85 926.621 498.721 C 926.785 498.593 926.95 498.465 927.107 498.498 C 927.372 498.5 927.572 498.758 927.944 498.728 C 928.051 498.696 928.215 498.568 928.323 498.536 L 928.637 498.602 C 928.952 498.668 929.173 498.444 929.18 498.283 C 929.187 498.122 929.036 497.928 928.935 497.798 C 928.577 497.506 928.326 497.183 927.968 496.891 C 927.867 496.762 927.817 496.697 927.609 496.6 C 927.244 496.469 926.715 496.466 926.394 496.562 Q 925.372 496.943 924.676 498.422 Z " fill="rgb(255,255,255)"/><path d=" M 924.82 497.221 L 924.863 497.447 L 925.228 497.578 L 925.5 497.418 C 925.714 497.354 925.871 497.387 926.079 497.485 L 926.129 497.55 C 926.287 497.583 926.501 497.519 926.608 497.488 C 926.665 497.391 926.879 497.328 927.094 497.264 C 927.358 497.266 927.559 497.524 927.773 497.461 L 928.152 497.269 L 928.309 497.302 C 928.574 497.304 928.738 497.176 928.745 497.014 C 928.751 496.853 928.651 496.724 928.55 496.595 C 928.242 496.368 927.991 496.044 927.683 495.817 C 927.633 495.753 927.532 495.623 927.375 495.59 C 927.117 495.428 926.638 495.49 926.317 495.585 C 925.51 495.903 924.954 496.545 924.77 497.156 L 924.82 497.221 Z " fill="rgb(255,255,255)"/><path d=" M 925.024 496.127 C 924.967 496.223 924.91 496.319 924.853 496.416 C 924.796 496.512 925.004 496.61 925.161 496.643 L 925.483 496.548 L 925.855 496.517 L 925.955 496.647 L 926.27 496.713 L 926.541 496.553 L 926.812 496.393 L 927.12 496.62 C 927.328 496.718 927.606 496.397 927.87 496.398 L 928.235 496.529 C 928.393 496.562 928.714 496.467 928.721 496.305 C 928.728 496.144 928.627 496.015 928.42 495.917 C 928.319 495.788 928.112 495.69 928.011 495.561 C 927.603 495.205 926.548 493.846 925.922 494.907 C 925.694 495.292 925.359 495.709 925.024 496.127 Z " fill="rgb(255,255,255)"/><path d=" M 911.423 501.239 C 911.361 501.334 911.299 501.428 911.393 501.561 C 911.439 501.627 911.642 501.731 911.75 501.702 C 911.859 501.674 912.077 501.617 912.139 501.523 C 912.356 501.466 912.621 501.475 912.714 501.607 L 912.761 501.673 C 912.963 501.777 913.181 501.721 913.351 501.598 C 913.522 501.475 913.693 501.352 913.848 501.389 C 914.113 501.399 914.3 501.663 914.673 501.644 C 914.781 501.616 914.952 501.493 915.061 501.464 L 915.372 501.54 C 915.683 501.615 915.916 501.398 915.931 501.237 C 915.947 501.076 915.806 500.878 915.713 500.745 C 915.371 500.443 915.137 500.112 914.795 499.81 C 914.701 499.678 914.654 499.611 914.452 499.508 C 914.095 499.366 913.566 499.347 913.24 499.432 C 912.199 499.783 911.547 500.502 911.377 501.173 L 911.423 501.239 Z " fill="rgb(255,255,255)"/><path d=" M 911.624 500.246 L 911.656 500.473 L 912.013 500.615 L 912.293 500.464 C 912.51 500.407 912.666 500.444 912.821 500.482 L 912.868 500.548 C 913.024 500.586 913.241 500.529 913.35 500.501 C 913.412 500.406 913.63 500.349 913.847 500.293 C 914.111 500.302 914.298 500.567 914.516 500.51 L 914.904 500.33 L 915.06 500.368 C 915.324 500.377 915.495 500.254 915.51 500.093 C 915.525 499.932 915.432 499.8 915.338 499.668 C 915.043 499.432 914.809 499.101 914.514 498.865 C 914.467 498.798 914.373 498.666 914.218 498.628 C 913.969 498.458 913.487 498.506 913.161 498.591 C 912.337 498.885 911.748 499.509 911.531 500.114 L 911.624 500.246 Z " fill="rgb(255,255,255)"/><path d=" M 896.439 500.237 C 896.385 500.335 896.591 500.824 896.537 500.923 C 896.483 501.021 896.694 501.112 896.852 501.14 L 897.171 501.034 L 897.541 500.992 L 897.698 501.181 L 898.015 501.237 L 898.281 501.069 L 898.547 500.9 L 898.862 501.117 C 899.073 501.208 899.34 500.879 899.605 500.872 L 899.974 500.99 C 900.132 501.018 900.45 500.913 900.452 500.752 C 900.453 500.591 900.377 499.926 900.167 499.835 C 900.062 499.709 899.823 500.157 899.718 500.03 C 899.299 499.687 898.201 498.363 897.609 499.443 C 897.394 499.836 897.488 499.809 897.167 500.237 L 896.439 500.237 Z " fill="rgb(255,255,255)"/><path d=" M 892.672 501.479 C 892.618 501.577 892.564 501.675 892.669 501.801 C 892.721 501.864 892.932 501.955 893.038 501.92 C 893.144 501.885 893.356 501.815 893.41 501.717 C 893.622 501.646 893.886 501.639 893.991 501.765 L 894.043 501.828 C 894.254 501.919 894.466 501.849 894.626 501.716 C 894.786 501.583 894.946 501.449 895.104 501.477 C 895.369 501.47 895.578 501.722 895.948 501.68 C 896.054 501.645 896.214 501.512 896.32 501.476 L 896.637 501.532 C 896.954 501.588 897.168 501.357 897.169 501.196 C 897.171 501.034 897.014 500.845 896.909 500.719 C 896.542 500.439 896.281 500.124 895.913 499.844 C 895.809 499.718 895.756 499.655 895.546 499.564 C 895.177 499.445 894.648 499.459 894.329 499.564 C 893.321 499.978 892.732 500.736 892.62 501.416 L 892.672 501.479 Z " fill="rgb(255,255,255)"/><path d=" M 892.787 500.476 L 892.838 500.701 L 893.207 500.82 L 893.473 500.651 C 893.685 500.581 893.844 500.609 894.054 500.7 L 894.106 500.763 C 894.265 500.791 894.477 500.721 894.583 500.686 C 894.637 500.587 894.849 500.517 895.061 500.447 C 895.326 500.44 895.535 500.692 895.747 500.622 L 896.119 500.418 L 896.277 500.446 C 896.542 500.439 896.702 500.306 896.703 500.145 C 896.705 499.983 896.6 499.857 896.496 499.731 C 896.181 499.514 895.919 499.199 895.604 498.982 C 895.552 498.919 895.447 498.793 895.289 498.765 C 895.026 498.611 894.549 498.688 894.231 498.793 C 893.435 499.137 892.9 499.797 892.735 500.413 L 892.787 500.476 Z " fill="rgb(255,255,255)"/><path d=" M 892.847 499.733 C 892.793 499.832 893.004 499.923 893.162 499.951 L 893.481 499.845 L 893.851 499.803 L 894.008 499.992 L 894.325 500.048 L 894.591 499.88 L 894.857 499.711 L 895.172 499.928 C 895.383 500.019 895.65 499.69 895.915 499.682 L 896.284 499.801 C 896.442 499.829 896.76 499.724 896.762 499.563 C 896.763 499.402 896.659 499.275 896.448 499.184 C 896.344 499.058 896.133 498.967 896.028 498.841 C 895.609 498.498 894.511 497.174 893.919 498.254 C 893.704 498.647 892.874 499.684 892.847 499.733 Z " fill="rgb(255,255,255)"/><path d=" M 914.889 500.491 C 914.827 500.585 914.765 500.68 914.858 500.812 C 914.905 500.878 915.107 500.982 915.216 500.954 C 915.325 500.925 915.542 500.868 915.604 500.774 C 915.822 500.717 916.086 500.726 916.179 500.859 L 916.226 500.925 C 916.428 501.029 916.646 500.972 916.817 500.849 C 916.988 500.726 917.158 500.603 917.314 500.641 C 917.578 500.65 917.765 500.915 918.138 500.896 C 918.247 500.867 918.418 500.744 918.526 500.716 L 918.837 500.791 C 919.148 500.867 919.381 500.649 919.397 500.488 C 919.412 500.328 919.272 500.129 919.178 499.997 C 918.836 499.694 918.602 499.364 918.26 499.061 C 918.167 498.929 918.12 498.863 917.918 498.759 C 917.56 498.617 917.031 498.599 916.705 498.684 C 915.664 499.034 915.012 499.753 914.842 500.424 L 914.889 500.491 Z " fill="rgb(255,255,255)"/><path d=" M 900.029 500.731 L 900.08 500.955 L 900.449 501.074 L 900.715 500.906 C 900.927 500.836 901.085 500.864 901.296 500.955 L 901.348 501.018 C 901.506 501.046 901.719 500.975 901.825 500.94 C 901.879 500.842 902.091 500.772 902.303 500.702 C 902.567 500.694 902.776 500.947 902.989 500.876 L 903.361 500.673 L 903.519 500.701 C 903.784 500.694 903.943 500.56 903.945 500.399 C 903.947 500.238 903.842 500.112 903.737 499.986 C 903.422 499.769 903.161 499.454 902.846 499.236 C 902.794 499.173 902.689 499.047 902.531 499.019 C 902.268 498.865 901.791 498.943 901.473 499.048 C 900.676 499.392 900.141 500.051 899.977 500.668 L 900.029 500.731 Z " fill="rgb(255,255,255)"/><path d=" M 900.25 499.694 C 900.197 499.792 900.143 499.89 900.089 499.988 C 900.035 500.086 900.246 500.177 900.404 500.205 L 900.722 500.1 L 901.093 500.058 L 901.25 500.247 L 901.566 500.303 L 901.832 500.134 L 902.098 499.966 L 902.414 500.183 C 902.624 500.274 902.892 499.944 903.156 499.937 L 903.525 500.056 C 903.684 500.084 904.002 499.979 904.003 499.817 C 904.005 499.656 903.9 499.53 903.69 499.439 C 903.585 499.313 903.375 499.222 903.27 499.096 C 902.85 498.753 901.753 497.429 901.161 498.509 C 900.945 498.901 900.624 499.329 900.303 499.757 L 900.25 499.694 Z " fill="rgb(255,255,255)"/><path d=" M 908.669 500.011 L 908.713 500.237 L 909.078 500.368 L 909.349 500.208 C 909.563 500.144 909.72 500.177 909.878 500.21 L 909.928 500.275 C 910.085 500.308 910.3 500.245 910.407 500.213 C 910.464 500.117 910.678 500.053 910.893 499.99 C 911.157 499.991 911.358 500.25 911.572 500.186 L 911.951 499.995 L 912.108 500.028 C 912.373 500.029 912.537 499.901 912.543 499.74 C 912.55 499.579 912.45 499.449 912.242 499.352 C 911.934 499.125 911.683 498.801 911.375 498.574 C 911.325 498.51 911.224 498.38 911.067 498.347 C 910.809 498.185 910.33 498.247 910.008 498.342 C 909.201 498.661 908.646 499.302 908.461 499.914 L 908.669 500.011 Z " fill="rgb(255,255,255)"/><path d=" M 908.753 499.271 C 908.696 499.367 908.903 499.465 909.061 499.498 L 909.382 499.403 L 909.754 499.372 L 909.905 499.566 L 910.219 499.632 L 910.491 499.472 L 910.762 499.312 L 911.07 499.54 C 911.278 499.637 911.556 499.316 911.82 499.318 L 912.185 499.448 C 912.343 499.481 912.664 499.386 912.671 499.225 C 912.677 499.064 912.577 498.935 912.369 498.837 C 912.269 498.708 912.061 498.61 911.961 498.48 C 911.552 498.124 910.497 496.766 909.871 497.826 C 909.643 498.212 908.81 499.174 908.753 499.271 Z " fill="rgb(255,255,255)"/><path d=" M 914.214 499.007 C 914.158 499.103 914.101 499.2 914.044 499.296 C 913.987 499.392 914.194 499.49 914.352 499.523 L 914.673 499.428 L 915.045 499.397 L 915.196 499.592 L 915.51 499.657 L 915.782 499.498 L 916.053 499.338 L 916.361 499.565 C 916.569 499.663 916.847 499.342 917.111 499.343 L 917.476 499.474 C 917.633 499.507 917.955 499.411 917.962 499.25 C 917.968 499.089 917.868 498.96 917.66 498.862 C 917.56 498.733 917.352 498.635 917.252 498.506 C 916.843 498.149 915.788 496.791 915.162 497.851 C 914.934 498.237 914.6 498.654 914.265 499.072 L 914.214 499.007 Z " fill="rgb(255,255,255)"/><path d=" M 920.815 499.361 C 920.758 499.457 920.701 499.554 920.644 499.65 C 920.587 499.746 920.795 499.844 920.952 499.877 L 921.274 499.782 L 921.645 499.751 L 921.796 499.945 L 922.111 500.011 L 922.382 499.852 L 922.653 499.692 L 922.961 499.919 C 923.169 500.016 923.447 499.696 923.711 499.697 L 924.076 499.827 C 924.234 499.86 924.555 499.765 924.562 499.604 C 924.569 499.443 924.468 499.314 924.261 499.216 C 924.16 499.087 923.952 498.989 923.852 498.86 C 923.443 498.503 922.389 497.145 921.762 498.205 C 921.535 498.591 921.2 499.008 920.865 499.425 L 920.815 499.361 Z " fill="rgb(255,255,255)"/><path d=" M 993.541 504.343 L 993.434 504.648 L 993.708 504.881 L 994.138 504.894 C 994.392 504.845 994.618 504.992 994.716 505.163 L 994.765 505.249 C 994.863 505.42 995.117 505.372 995.371 505.323 C 995.625 505.275 995.752 505.251 996.055 505.288 C 996.407 505.411 996.428 505.691 996.731 505.729 L 997.288 505.717 L 997.513 505.864 C 997.738 506.011 998.119 505.939 998.275 505.719 C 998.48 505.585 998.333 505.329 998.235 505.158 C 998.165 504.791 998.047 504.34 997.977 503.973 C 997.928 503.888 997.957 503.693 997.781 503.631 C 997.633 503.375 997.105 503.19 996.597 503.287 C 995.483 503.309 994.409 503.893 993.893 504.466 L 993.541 504.343 Z " fill="rgb(255,255,255)"/><path d=" M 994.643 503.322 Q 994.735 503.415 995.031 503.52 L 995.394 503.633 L 995.355 503.823 L 995.631 504.045 L 996.034 503.968 L 996.437 503.892 C 996.619 503.948 996.579 504.139 996.626 504.221 C 996.855 504.36 997.298 504.093 997.527 504.232 L 997.803 504.454 C 998.032 504.593 998.435 504.516 998.475 504.326 C 998.562 504.218 998.602 504.028 998.507 503.863 C 998.412 503.698 998.452 503.508 998.358 503.343 C 998.208 502.824 998.069 501.023 996.519 501.957 C 995.854 502.358 994.327 503.003 994.643 503.322 Z " fill="rgb(255,255,255)"/><path d=" M 989.992 504.042 L 990.263 504.347 L 990.651 504.29 L 991 504.354 L 991.029 504.55 L 991.339 504.735 L 991.659 504.602 L 991.979 504.469 C 992.153 504.501 992.182 504.697 992.25 504.774 C 992.492 504.882 992.783 504.552 993.025 504.66 L 993.335 504.844 C 993.578 504.952 993.898 504.819 993.869 504.623 C 993.907 504.502 993.878 504.305 993.743 504.153 C 993.607 504 993.578 503.804 993.442 503.651 C 993.142 503.149 992.426 501.359 991.407 502.513 C 990.971 503.008 990.573 503.382 990.069 503.801 Q 990.03 503.921 989.992 504.042 Z " fill="rgb(255,255,255)"/><path d=" M 1005.171 507.856 C 1005.396 508.003 1005.777 507.931 1005.933 507.711 C 1006.138 507.577 1005.991 507.321 1005.892 507.15 C 1005.823 506.783 1005.704 506.332 1005.635 505.965 C 1005.586 505.88 1005.615 505.684 1005.439 505.623 C 1005.291 505.367 1004.763 505.182 1004.255 505.279 C 1003.29 504.893 1003.835 504.535 1003.167 504.833 C 1002 505.569 1001.609 506.011 1001.167 506.666 L 1005.171 507.856 Z " fill="rgb(255,255,255)"/><path d=" M 1002.204 504.738 L 1002.593 504.936 L 1002.956 505.049 L 1002.916 505.24 L 1003.192 505.461 L 1003.595 505.384 L 1003.998 505.308 C 1004.18 505.364 1004.14 505.555 1004.188 505.637 C 1004.416 505.776 1004.859 505.509 1005.088 505.648 L 1005.364 505.87 C 1005.593 506.009 1005.996 505.932 1006.036 505.742 C 1006.123 505.634 1006.163 505.444 1006.068 505.279 C 1005.974 505.114 1006.014 504.924 1005.919 504.759 C 1005.77 504.24 1005.63 502.439 1004.08 503.373 C 1003.416 503.774 1002.061 504.605 1002.204 504.738 Z " fill="rgb(255,255,255)"/><path d=" M 997.467 505.374 L 997.67 505.728 L 998.062 505.752 L 998.39 505.886 L 998.378 506.084 L 998.644 506.328 L 998.985 506.263 L 999.325 506.198 C 999.489 506.265 999.477 506.464 999.528 506.552 C 999.743 506.708 1000.095 506.444 1000.31 506.6 L 1000.576 506.844 C 1000.791 506.999 1001.132 506.934 1001.144 506.736 C 1001.206 506.626 1001.218 506.427 1001.116 506.25 C 1001.015 506.073 1001.027 505.875 1000.925 505.698 C 1000.734 505.145 1000.399 503.246 999.166 504.168 C 998.637 504.563 998.172 504.848 997.593 505.154 Q 997.53 505.264 997.467 505.374 Z " fill="rgb(255,255,255)"/><path d=" M 861.922 509.977 C 861.922 509.977 863.597 505.943 863.883 504.817 C 864.169 503.69 863.796 501.556 865.657 502.508 C 867.517 503.461 870.143 504.745 872.239 505.415 C 874.335 506.084 876.449 506.666 876.449 506.666 C 876.449 506.666 867.2 509.912 861.886 510.01 L 861.922 509.977 Z " fill="rgb(255,255,255)"/><path d=" M 870.111 509.395 C 870.111 509.395 870.789 505.602 871.075 504.476 C 873.4 499.891 876.388 503.231 879.357 504.476 C 881.218 505.428 878.332 504.163 880.428 504.833 C 882.524 505.502 884.638 506.083 884.638 506.083 C 884.638 506.083 875.389 509.33 870.075 509.427 L 870.111 509.395 Z " fill="rgb(255,255,255)"/><rect x="918.633" y="498.402" width="4.003" height="1.03" transform="matrix(1,0,0,1,0,0)" fill="rgb(255,255,255)"/><rect x="909.507" y="498.832" width="4.454" height="1.441" transform="matrix(1,0,0,1,0,0)" fill="rgb(255,255,255)"/><path d=" M 960.402 499.287 C 960.329 499.372 960.255 499.456 960.331 499.602 C 960.369 499.674 960.555 499.807 960.667 499.796 C 960.778 499.784 961 499.76 961.073 499.675 C 961.295 499.651 961.555 499.7 961.631 499.845 L 961.669 499.918 C 961.856 500.051 962.078 500.027 962.262 499.93 C 962.447 499.834 963.018 500.453 963.167 500.514 C 963.427 500.562 963.191 500.137 963.562 500.174 C 963.673 500.162 963.858 500.065 963.969 500.054 L 964.267 500.175 C 964.565 500.296 964.822 500.115 964.858 499.958 C 964.893 499.8 964.78 499.583 964.704 499.437 C 964.404 499.086 964.215 498.723 963.915 498.372 C 963.839 498.226 963.801 498.154 963.615 498.02 C 963.279 497.826 962.759 497.729 962.426 497.765 C 961.352 497.957 960.617 498.573 960.364 499.214 L 960.402 499.287 Z " fill="rgb(255,255,255)"/><path d=" M 960.898 498.337 L 960.901 498.567 L 961.236 498.761 L 961.532 498.652 C 961.754 498.628 961.903 498.689 962.052 498.75 L 962.09 498.822 C 962.239 498.883 962.461 498.859 962.572 498.847 C 962.645 498.763 962.867 498.739 963.09 498.715 C 963.35 498.763 963.501 499.054 963.723 499.03 L 964.13 498.91 L 964.279 498.97 C 964.539 499.019 964.723 498.922 964.759 498.765 C 964.794 498.608 964.718 498.463 964.532 498.329 C 964.269 498.051 964.08 497.687 963.818 497.409 C 963.78 497.336 963.705 497.191 963.556 497.13 C 963.331 496.924 962.849 496.899 962.515 496.935 C 961.664 497.104 961.002 497.635 960.712 498.204 L 960.898 498.337 Z " fill="rgb(255,255,255)"/><path d=" M 961.118 497.44 L 961.452 497.405 L 961.823 497.441 L 961.936 497.659 L 962.234 497.781 L 962.53 497.672 L 962.825 497.563 L 963.087 497.842 C 963.274 497.975 963.605 497.71 963.865 497.758 L 964.201 497.952 C 964.35 498.013 964.683 497.977 964.719 497.82 C 964.754 497.662 964.678 497.517 964.492 497.384 C 964.416 497.239 964.229 497.105 964.154 496.96 C 963.816 496.536 963.022 495.011 962.215 495.941 C 961.922 496.28 960.625 497.359 961.118 497.44 Z " fill="rgb(255,255,255)"/><path d=" M 967.585 500.148 C 967.512 500.233 967.439 500.317 967.514 500.462 C 967.552 500.535 967.739 500.668 967.85 500.656 C 967.961 500.644 968.183 500.621 968.256 500.536 C 968.479 500.512 968.739 500.561 968.814 500.706 L 968.852 500.779 C 969.039 500.912 969.261 500.888 969.445 500.791 C 969.63 500.695 969.814 500.598 969.963 500.659 C 970.223 500.708 970.374 500.998 970.746 501.035 C 970.857 501.023 971.041 500.926 971.152 500.914 L 971.45 501.036 C 971.748 501.157 972.006 500.976 972.041 500.819 C 972.077 500.661 971.963 500.444 971.888 500.298 C 971.587 499.947 971.398 499.584 971.098 499.232 C 971.023 499.087 970.985 499.015 970.798 498.881 C 970.462 498.687 969.942 498.59 969.609 498.626 C 968.536 498.818 967.8 499.434 967.547 500.075 L 967.585 500.148 Z " fill="rgb(255,255,255)"/><path d=" M 967.909 499.192 L 967.911 499.422 L 968.247 499.616 L 968.543 499.508 C 968.765 499.484 968.914 499.545 969.063 499.605 L 969.101 499.678 C 969.249 499.739 969.472 499.715 969.583 499.703 C 969.656 499.618 969.878 499.594 970.1 499.57 C 970.361 499.619 970.512 499.909 970.734 499.885 L 971.141 499.765 L 971.29 499.826 C 971.55 499.874 971.734 499.778 971.769 499.62 C 971.805 499.463 971.729 499.318 971.543 499.185 C 971.28 498.906 971.091 498.543 970.829 498.264 C 970.791 498.192 970.715 498.046 970.566 497.986 C 970.342 497.78 969.86 497.755 969.526 497.791 Q 968.675 497.959 967.909 499.192 Z " fill="rgb(255,255,255)"/><path d=" M 968.124 498.479 C 968.051 498.563 968.238 498.697 968.387 498.757 L 968.72 498.721 L 969.091 498.758 L 969.205 498.976 L 969.502 499.098 L 969.798 498.989 L 970.094 498.88 L 970.356 499.159 C 970.543 499.292 970.874 499.027 971.134 499.075 L 971.469 499.269 C 971.618 499.33 971.952 499.294 971.987 499.137 C 972.022 498.979 971.498 498.422 971.422 498.277 C 971.084 497.853 970.29 496.328 969.484 497.258 C 969.191 497.597 968.786 497.947 968.382 498.298 Q 968.198 498.394 968.124 498.479 Z " fill="rgb(255,255,255)"/><path d=" M 975.367 499.703 C 975.297 499.816 974.161 501.007 974.475 501.509 C 974.522 501.617 974.735 501.826 974.853 501.821 C 974.97 501.816 975.205 501.805 975.275 501.692 C 975.509 501.681 975.792 501.778 975.888 501.993 L 975.935 502.101 C 976.148 502.311 976.383 502.3 976.57 502.182 C 976.757 502.063 976.944 501.945 977.109 502.047 C 977.392 502.144 977.583 502.575 977.983 502.666 C 978.1 502.661 978.287 502.542 978.405 502.537 L 978.735 502.742 C 979.066 502.946 978.841 502.325 978.863 502.105 C 978.885 501.884 978.932 501.544 978.863 501.314 C 978.825 501.108 978.697 500.739 978.405 500.186 C 978.309 499.971 978.031 499.81 977.818 499.6 C 977.44 499.288 976.875 499.095 976.523 499.111 Q 975.397 499.272 975.367 499.703 Z " fill="rgb(255,255,255)"/><path d=" M 975.056 499.573 L 975.044 499.802 L 975.367 500.017 L 975.669 499.927 C 975.892 499.916 976.037 499.986 976.215 500.131 L 976.248 500.206 C 976.393 500.275 976.616 500.265 976.728 500.26 C 976.806 500.18 977.03 500.17 977.253 500.16 C 977.509 500.224 977.642 500.524 977.866 500.514 L 978.279 500.418 L 978.424 500.488 C 978.68 500.553 978.87 500.468 978.915 500.313 C 978.961 500.158 978.894 500.009 978.828 499.859 C 978.583 499.565 978.417 499.19 978.172 498.896 C 978.139 498.821 978.072 498.672 977.927 498.602 C 977.716 498.382 977.236 498.328 976.901 498.343 C 976.041 498.459 975.348 498.949 975.022 499.498 L 975.056 499.573 Z " fill="rgb(255,255,255)"/><path d=" M 975.516 498.559 C 975.438 498.639 975.36 498.719 975.281 498.799 C 975.203 498.879 975.381 499.024 975.526 499.093 L 975.861 499.078 L 976.229 499.138 L 976.296 499.287 L 976.585 499.427 L 976.887 499.337 L 977.189 499.246 L 977.433 499.541 C 977.611 499.685 977.958 499.44 978.215 499.505 L 978.538 499.719 C 978.683 499.789 979.018 499.774 979.063 499.619 C 979.108 499.464 979.041 499.315 978.863 499.17 C 978.797 499.02 978.618 498.876 978.552 498.726 C 978.241 498.282 977.542 496.711 976.68 497.59 C 976.367 497.91 975.942 498.234 975.516 498.559 Z " fill="rgb(255,255,255)"/><path d=" M 958.458 499.52 L 958.46 499.75 L 958.796 499.944 L 959.091 499.835 C 959.314 499.812 959.463 499.872 959.612 499.933 L 959.649 500.006 C 959.798 500.066 960.02 500.042 960.132 500.03 C 960.205 499.946 960.427 499.922 960.649 499.898 C 960.909 499.947 961.061 500.237 961.283 500.213 L 961.689 500.093 L 961.838 500.153 C 962.098 500.202 962.283 500.105 962.318 499.948 C 962.354 499.791 962.278 499.646 962.091 499.512 C 961.829 499.234 961.64 498.87 961.378 498.592 C 961.34 498.519 961.264 498.374 961.115 498.313 C 960.891 498.107 960.408 498.083 960.075 498.118 C 959.224 498.287 958.562 498.818 958.271 499.387 L 958.458 499.52 Z " fill="rgb(255,255,255)"/><path d=" M 956.628 499.314 C 956.555 499.398 956.742 499.532 956.891 499.592 L 957.224 499.556 L 957.595 499.593 L 957.709 499.811 L 958.007 499.933 L 958.302 499.824 L 958.598 499.715 L 958.86 499.994 C 959.047 500.127 959.378 499.862 959.638 499.91 L 959.973 500.104 C 960.122 500.165 960.456 500.129 960.491 499.972 C 960.527 499.814 960.451 499.669 960.264 499.536 C 960.189 499.391 960.002 499.257 959.926 499.112 C 959.588 498.688 958.794 497.163 957.988 498.093 C 957.695 498.432 956.702 499.229 956.628 499.314 Z " fill="rgb(255,255,255)"/><path d=" M 964.094 499.527 C 964.02 499.611 963.947 499.696 963.874 499.781 C 963.8 499.865 963.987 499.999 964.136 500.059 L 964.469 500.023 L 964.841 500.06 L 964.954 500.278 L 965.252 500.399 L 965.547 500.291 L 965.843 500.182 L 966.105 500.461 C 966.292 500.594 966.623 500.328 966.883 500.377 L 967.219 500.571 C 967.368 500.632 967.701 500.596 967.736 500.439 C 967.772 500.281 967.696 500.136 967.51 500.003 C 967.434 499.857 967.247 499.724 967.172 499.579 C 966.834 499.155 966.039 497.629 965.233 498.56 C 964.94 498.899 964.536 499.249 964.131 499.599 L 964.094 499.527 Z " fill="rgb(255,255,255)"/><path d=" M 970.489 501.06 C 970.416 501.145 970.342 501.23 970.269 501.314 C 970.196 501.399 970.382 501.532 970.531 501.593 L 970.865 501.557 L 971.236 501.594 L 971.349 501.811 L 971.647 501.933 L 971.943 501.824 L 972.238 501.716 L 972.5 501.994 C 972.687 502.128 973.018 501.862 973.278 501.911 L 973.614 502.105 C 973.763 502.165 974.096 502.129 974.132 501.972 C 974.167 501.815 974.091 501.67 973.905 501.536 C 973.829 501.391 973.642 501.258 973.567 501.112 C 973.229 500.688 972.435 499.163 971.628 500.094 C 971.335 500.432 970.931 500.783 970.527 501.133 L 970.489 501.06 Z " fill="rgb(255,255,255)"/><rect x="904.449" y="499.564" width="1.438" height="1.415" transform="matrix(1,0,0,1,0,0)" fill="rgb(255,255,255)"/><rect x="926.035" y="497.838" width="1.976" height="2.377" transform="matrix(1,0,0,1,0,0)" fill="rgb(255,255,255)"/><path d=" M 842.335 515.093 L 842.485 514.945 C 842.687 514.971 842.851 514.86 842.955 514.707 C 843.06 514.554 843.164 514.401 843.306 514.387 C 843.531 514.316 843.771 514.481 844.077 514.355 C 844.159 514.299 844.264 514.146 844.346 514.09 L 844.63 514.061 C 844.915 514.032 845.041 513.782 845.003 513.644 C 844.966 513.506 844.785 513.382 844.665 513.3 C 844.283 513.149 843.983 512.943 843.601 512.793 C 843.481 512.711 843.421 512.67 843.218 512.643 C 842.874 512.631 842.585 512.656 842.338 512.823 C 842.333 514.158 842.341 514.987 842.335 515.093 Z " fill="rgb(255,255,255)"/><path d=" M 842.338 513.91 C 842.48 513.895 842.664 513.783 842.746 513.728 C 842.768 513.631 842.932 513.519 843.097 513.407 C 843.321 513.337 843.561 513.502 843.726 513.39 L 843.994 513.126 L 844.136 513.111 C 844.361 513.041 844.465 512.888 844.427 512.749 C 844.389 512.611 844.269 512.529 844.067 512.502 C 843.745 512.393 843.445 512.187 843.122 512.078 C 843.062 512.037 842.942 511.955 842.8 511.969 C 842.536 511.929 842.517 511.933 842.338 512.024 Q 842.333 513.031 842.338 513.91 Z " fill="rgb(255,255,255)"/><path d=" M 842.338 512.597 L 842.73 512.724 C 842.932 512.75 843.081 512.403 843.305 512.333 L 843.65 512.345 C 843.792 512.33 844.039 512.163 844.001 512.024 C 843.963 511.886 843.843 511.804 843.641 511.777 C 843.521 511.695 843.318 511.668 843.198 511.586 C 843.011 511.505 842.677 511.303 842.335 511.178 Q 842.329 511.906 842.338 512.597 Z " fill="rgb(255,255,255)"/><path d=" M 847.682 513.11 C 847.66 513.207 847.637 513.304 847.757 513.386 C 847.817 513.427 848.02 513.454 848.102 513.398 C 848.184 513.342 848.348 513.231 848.371 513.134 C 848.535 513.022 848.759 512.952 848.879 513.034 L 848.939 513.075 C 849.142 513.102 849.306 512.99 849.41 512.837 C 849.515 512.684 849.619 512.532 849.761 512.517 C 849.985 512.446 850.226 512.611 850.532 512.485 C 850.614 512.429 850.719 512.276 850.801 512.221 L 851.085 512.191 C 851.37 512.162 851.496 511.912 851.458 511.774 C 851.42 511.636 851.24 511.512 851.12 511.43 C 850.738 511.28 850.438 511.074 850.056 510.923 C 849.935 510.841 849.875 510.8 849.673 510.773 C 849.329 510.761 848.88 510.902 848.634 511.07 C 847.872 511.669 847.552 512.46 847.622 513.068 L 847.682 513.11 Z " fill="rgb(255,255,255)"/><path d=" M 847.537 512.225 L 847.635 512.404 L 847.979 512.416 L 848.165 512.207 C 848.33 512.096 848.472 512.081 848.614 512.066 L 848.674 512.108 C 848.816 512.093 848.981 511.981 849.063 511.926 C 849.085 511.829 849.249 511.717 849.414 511.605 C 849.638 511.535 849.878 511.7 850.043 511.588 L 850.311 511.323 L 850.454 511.309 C 850.678 511.238 850.782 511.086 850.744 510.947 C 850.706 510.809 850.586 510.727 850.384 510.7 C 850.062 510.591 849.762 510.385 849.44 510.276 C 849.38 510.235 849.259 510.153 849.117 510.167 C 848.855 510.1 848.466 510.282 848.22 510.449 Q 847.622 510.937 847.537 512.225 Z " fill="rgb(255,255,255)"/><path d=" M 847.407 511.575 C 847.385 511.672 847.587 511.698 847.73 511.684 L 847.976 511.516 L 848.283 511.39 L 848.463 511.514 L 848.747 511.484 L 848.934 511.276 L 849.12 511.067 L 849.442 511.176 C 849.645 511.203 849.793 510.856 850.018 510.785 L 850.362 510.797 C 850.504 510.783 850.751 510.615 850.713 510.477 C 850.675 510.339 850.031 510.121 849.91 510.038 C 849.468 509.847 848.208 508.982 847.964 510.049 C 847.875 510.437 847.705 510.881 847.534 511.325 Q 847.429 511.478 847.407 511.575 Z " fill="rgb(255,255,255)"/><path d=" M 853.384 510.758 C 853.362 510.855 853.339 510.952 853.459 511.034 C 853.519 511.076 853.722 511.102 853.804 511.046 C 853.886 510.991 854.05 510.879 854.073 510.782 C 854.237 510.67 854.461 510.6 854.581 510.682 L 854.641 510.724 C 854.844 510.75 855.008 510.638 855.112 510.486 C 855.217 510.333 855.321 510.18 855.463 510.165 C 855.687 510.095 855.928 510.26 856.234 510.133 C 856.316 510.078 856.421 509.925 856.503 509.869 L 856.787 509.84 C 857.072 509.81 857.198 509.561 857.16 509.422 C 857.122 509.284 856.942 509.161 856.822 509.078 C 856.44 508.928 856.14 508.722 855.758 508.572 C 855.638 508.489 855.577 508.448 855.375 508.422 C 855.031 508.41 854.582 508.551 854.336 508.718 Q 853.574 509.317 853.384 510.758 Z " fill="rgb(255,255,255)"/><path d=" M 853.181 509.702 L 853.279 509.882 L 853.623 509.893 L 853.81 509.685 C 853.974 509.573 854.116 509.559 854.319 509.585 L 854.379 509.626 C 854.521 509.612 854.685 509.5 854.767 509.444 C 854.79 509.347 854.954 509.236 855.118 509.124 C 855.343 509.054 855.583 509.218 855.747 509.107 L 856.016 508.842 L 856.158 508.828 C 856.382 508.757 856.487 508.604 856.449 508.466 C 856.411 508.328 856.291 508.246 856.171 508.163 C 855.849 508.054 855.548 507.848 855.226 507.739 C 855.166 507.698 855.046 507.616 854.904 507.63 C 854.642 507.562 854.253 507.745 854.006 507.912 C 853.409 508.4 853.112 509.093 853.121 509.661 L 853.181 509.702 Z " fill="rgb(255,255,255)"/><path d=" M 853.058 508.72 C 853.036 508.817 853.014 508.914 852.992 509.011 C 852.97 509.108 853.172 509.135 853.314 509.12 L 853.56 508.953 L 853.867 508.826 L 853.987 508.909 L 854.271 508.879 L 854.458 508.671 L 854.644 508.462 L 854.967 508.571 C 855.169 508.598 855.318 508.251 855.542 508.18 L 855.886 508.192 C 856.029 508.178 856.275 508.01 856.237 507.872 C 856.199 507.734 856.079 507.651 855.877 507.625 C 855.757 507.542 855.555 507.516 855.435 507.434 C 854.992 507.242 853.732 506.377 853.488 507.444 C 853.4 507.832 853.229 508.276 853.058 508.72 Z " fill="rgb(255,255,255)"/><path d=" M 844.683 514.081 C 844.66 514.178 844.638 514.275 844.616 514.372 C 844.594 514.469 844.796 514.496 844.938 514.481 L 845.185 514.314 L 845.492 514.187 L 845.672 514.311 L 845.956 514.282 L 846.143 514.073 L 846.329 513.865 L 846.651 513.974 C 846.853 514 847.002 513.653 847.227 513.583 L 847.571 513.595 C 847.713 513.58 847.96 513.413 847.922 513.274 C 847.884 513.136 847.764 513.054 847.562 513.027 C 847.442 512.945 847.239 512.918 847.119 512.836 C 846.677 512.645 845.417 511.779 845.173 512.847 C 845.084 513.235 844.913 513.679 844.743 514.122 L 844.683 514.081 Z " fill="rgb(255,255,255)"/><path d=" M 850.368 512.597 C 850.346 512.694 850.323 512.791 850.301 512.888 C 850.279 512.985 850.481 513.011 850.624 512.997 L 850.87 512.829 L 851.177 512.703 L 851.357 512.827 L 851.641 512.797 L 851.828 512.589 L 852.014 512.38 L 852.336 512.489 C 852.539 512.516 852.687 512.169 852.912 512.098 L 853.256 512.11 C 853.398 512.096 853.645 511.928 853.607 511.79 C 853.569 511.652 853.449 511.569 853.247 511.543 C 853.127 511.46 852.924 511.434 852.804 511.351 C 852.362 511.16 851.102 510.295 850.858 511.362 C 850.769 511.75 850.599 512.194 850.428 512.638 L 850.368 512.597 Z " fill="rgb(255,255,255)"/><rect x="854.657" y="509.579" width="1.756" height="2.113" transform="matrix(0.953,-0.304,0.304,0.953,-114.765,284.349)" fill="rgb(255,255,255)"/><path d=" M 842.335 515.491 Q 842.336 514.539 842.338 514.545 C 871.277 504.098 902.479 498.402 935.001 498.402 C 967.524 498.402 998.728 504.098 1027.667 514.546 Q 1027.661 514.541 1027.667 515.491 L 842.335 515.491 Z " fill="rgb(255,255,255)"/></g></svg>