<?xml version="1.0" standalone="no"?><!-- Generator: Gravit.io --><svg xmlns="http://www.w3.org/2000/svg" xmlns:xlink="http://www.w3.org/1999/xlink" style="isolation:isolate" viewBox="708.698 329.312 452.604 351.377" width="452.604" height="351.377"><defs><clipPath id="_clipPath_B0VRFKzIgcXuGMFRRu7StSSNVSk4DVOX"><rect x="708.698" y="329.312" width="452.604" height="351.377"/></clipPath></defs><g clip-path="url(#_clipPath_B0VRFKzIgcXuGMFRRu7StSSNVSk4DVOX)"><g><g><path d=" M 1159.002 630.288 C 1159.002 656.788 1137.502 678.388 1110.902 678.388 L 789.302 678.388 C 762.702 678.388 741.202 656.888 741.202 630.288 L 741.202 624.288 C 741.202 597.688 762.702 576.188 789.302 576.188 L 1110.902 576.188 C 1137.402 576.188 1159.002 597.688 1159.002 624.288 L 1159.002 630.288 Z " fill="rgb(88,89,91)"/><path d=" M 1110.902 680.688 L 789.302 680.688 C 761.502 680.688 738.902 658.088 738.902 630.288 L 738.902 624.288 C 738.902 596.488 761.502 573.888 789.302 573.888 L 1110.902 573.888 C 1138.702 573.888 1161.302 596.488 1161.302 624.288 L 1161.302 630.288 C 1161.302 658.088 1138.702 680.688 1110.902 680.688 Z  M 789.302 578.488 C 764.102 578.488 743.602 598.988 743.602 624.188 L 743.602 630.188 C 743.602 655.388 764.102 675.888 789.302 675.888 L 1110.902 675.888 C 1136.102 675.888 1156.602 655.388 1156.602 630.188 L 1156.602 624.188 C 1156.602 598.988 1136.102 578.488 1110.902 578.488 L 789.302 578.488 Z " fill="rgb(0,0,0)"/></g><g><path d=" M 831.902 627.288 C 831.902 648.888 814.402 666.388 792.802 666.388 C 771.202 666.388 753.702 648.888 753.702 627.288 C 753.702 605.688 771.202 588.188 792.802 588.188 C 814.402 588.188 831.902 605.688 831.902 627.288 Z " fill="rgb(180,180,181)"/><path d=" M 792.802 668.688 C 770.002 668.688 751.402 650.088 751.402 627.288 C 751.402 604.488 770.002 585.888 792.802 585.888 C 815.602 585.888 834.202 604.488 834.202 627.288 C 834.202 650.088 815.702 668.688 792.802 668.688 Z  M 792.802 590.488 C 772.502 590.488 756.002 606.988 756.002 627.288 C 756.002 647.588 772.502 664.088 792.802 664.088 C 813.102 664.088 829.602 647.588 829.602 627.288 C 829.602 606.988 813.102 590.488 792.802 590.488 Z " fill="rgb(0,0,0)"/></g><g><path d=" M 816.702 627.288 C 816.702 640.488 806.002 651.188 792.802 651.188 C 779.602 651.188 768.902 640.488 768.902 627.288 C 768.902 614.088 779.602 603.388 792.802 603.388 C 806.002 603.388 816.702 614.088 816.702 627.288 Z " fill="rgb(230,231,232)"/><path d=" M 792.802 653.488 C 778.302 653.488 766.602 641.688 766.602 627.288 C 766.602 612.788 778.402 601.088 792.802 601.088 C 807.302 601.088 819.002 612.888 819.002 627.288 C 819.002 641.688 807.302 653.488 792.802 653.488 Z  M 792.802 605.688 C 780.902 605.688 771.202 615.388 771.202 627.188 C 771.202 638.988 780.902 648.688 792.802 648.688 C 804.702 648.688 814.402 638.988 814.402 627.188 C 814.402 615.388 804.702 605.688 792.802 605.688 Z " fill="rgb(0,0,0)"/></g><g><circle vector-effect="non-scaling-stroke" cx="897.7019392738943" cy="627.2883819540505" r="39.10000000000002" fill="rgb(180,180,181)"/><path d=" M 897.702 668.688 C 874.902 668.688 856.302 650.088 856.302 627.288 C 856.302 604.488 874.902 585.888 897.702 585.888 C 920.502 585.888 939.102 604.488 939.102 627.288 C 939.102 650.088 920.502 668.688 897.702 668.688 Z  M 897.702 590.488 C 877.402 590.488 860.902 606.988 860.902 627.288 C 860.902 647.588 877.402 664.088 897.702 664.088 C 918.002 664.088 934.502 647.588 934.502 627.288 C 934.402 606.988 917.902 590.488 897.702 590.488 Z " fill="rgb(0,0,0)"/></g><g><path d=" M 921.502 627.288 C 921.502 640.488 910.802 651.188 897.602 651.188 C 884.402 651.188 873.702 640.488 873.702 627.288 C 873.702 614.088 884.402 603.388 897.602 603.388 C 910.802 603.388 921.502 614.088 921.502 627.288 Z " fill="rgb(230,231,232)"/><path d=" M 897.702 653.488 C 883.202 653.488 871.502 641.688 871.502 627.288 C 871.502 612.788 883.302 601.088 897.702 601.088 C 912.202 601.088 923.902 612.888 923.902 627.288 C 923.902 641.688 912.102 653.488 897.702 653.488 Z  M 897.702 605.688 C 885.802 605.688 876.102 615.388 876.102 627.188 C 876.102 638.988 885.802 648.688 897.702 648.688 C 909.602 648.688 919.302 638.988 919.302 627.188 C 919.302 615.388 909.502 605.688 897.702 605.688 Z " fill="rgb(0,0,0)"/></g><g><circle vector-effect="non-scaling-stroke" cx="1002.5019392738942" cy="627.2883819540505" r="39.10000000000002" fill="rgb(180,180,181)"/><path d=" M 1002.502 668.688 C 979.702 668.688 961.102 650.088 961.102 627.288 C 961.102 604.488 979.702 585.888 1002.502 585.888 C 1025.302 585.888 1043.902 604.488 1043.902 627.288 C 1043.902 650.088 1025.302 668.688 1002.502 668.688 Z  M 1002.502 590.488 C 982.202 590.488 965.702 606.988 965.702 627.288 C 965.702 647.588 982.202 664.088 1002.502 664.088 C 1022.802 664.088 1039.302 647.588 1039.302 627.288 C 1039.202 606.988 1022.802 590.488 1002.502 590.488 Z " fill="rgb(0,0,0)"/></g><g><path d=" M 1026.402 627.288 C 1026.402 640.488 1015.702 651.188 1002.502 651.188 C 989.302 651.188 978.602 640.488 978.602 627.288 C 978.602 614.088 989.302 603.388 1002.502 603.388 C 1015.702 603.388 1026.402 614.088 1026.402 627.288 Z " fill="rgb(230,231,232)"/><path d=" M 1002.502 653.488 C 988.002 653.488 976.302 641.688 976.302 627.288 C 976.302 612.788 988.102 601.088 1002.502 601.088 C 1017.002 601.088 1028.702 612.888 1028.702 627.288 C 1028.702 641.688 1016.902 653.488 1002.502 653.488 Z  M 1002.502 605.688 C 990.602 605.688 980.902 615.388 980.902 627.188 C 980.902 638.988 990.602 648.688 1002.502 648.688 C 1014.402 648.688 1024.102 638.988 1024.102 627.188 C 1024.102 615.388 1014.402 605.688 1002.502 605.688 Z " fill="rgb(0,0,0)"/></g><g><path d=" M 1146.402 627.288 C 1146.402 648.888 1128.902 666.388 1107.302 666.388 C 1085.702 666.388 1068.202 648.888 1068.202 627.288 C 1068.202 605.688 1085.702 588.188 1107.302 588.188 C 1128.902 588.188 1146.402 605.688 1146.402 627.288 Z " fill="rgb(180,180,181)"/><path d=" M 1107.302 668.688 C 1084.502 668.688 1065.902 650.088 1065.902 627.288 C 1065.902 604.488 1084.502 585.888 1107.302 585.888 C 1130.102 585.888 1148.702 604.488 1148.702 627.288 C 1148.702 650.088 1130.102 668.688 1107.302 668.688 Z  M 1107.302 590.488 C 1087.002 590.488 1070.502 606.988 1070.502 627.288 C 1070.502 647.588 1087.002 664.088 1107.302 664.088 C 1127.602 664.088 1144.102 647.588 1144.102 627.288 C 1144.102 606.988 1127.602 590.488 1107.302 590.488 Z " fill="rgb(0,0,0)"/></g><g><path d=" M 1131.202 627.288 C 1131.202 640.488 1120.502 651.188 1107.302 651.188 C 1094.102 651.188 1083.402 640.488 1083.402 627.288 C 1083.402 614.088 1094.102 603.388 1107.302 603.388 C 1120.502 603.388 1131.202 614.088 1131.202 627.288 Z " fill="rgb(230,231,232)"/><path d=" M 1107.302 653.488 C 1092.802 653.488 1081.102 641.688 1081.102 627.288 C 1081.102 612.788 1092.902 601.088 1107.302 601.088 C 1121.802 601.088 1133.502 612.888 1133.502 627.288 C 1133.502 641.688 1121.802 653.488 1107.302 653.488 Z  M 1107.302 605.688 C 1095.402 605.688 1085.702 615.388 1085.702 627.188 C 1085.702 638.988 1095.402 648.688 1107.302 648.688 C 1119.202 648.688 1128.902 638.988 1128.902 627.188 C 1128.902 615.388 1119.202 605.688 1107.302 605.688 Z " fill="rgb(0,0,0)"/></g><g><path d=" M 1117.902 576.188 L 1117.902 563.188 C 1117.902 541.588 1100.402 524.088 1078.802 524.088 L 821.502 524.088 C 799.902 524.088 782.402 541.588 782.402 563.188 L 782.402 576.188 L 1117.902 576.188 Z " fill="rgb(230,231,232)"/><path d=" M 1117.902 578.488 L 782.402 578.488 C 781.102 578.488 780.102 577.488 780.102 576.188 L 780.102 563.188 C 780.102 540.388 798.702 521.788 821.502 521.788 L 1078.802 521.788 C 1101.602 521.788 1120.202 540.388 1120.202 563.188 L 1120.202 576.188 C 1120.202 577.488 1119.102 578.488 1117.902 578.488 Z  M 784.702 573.888 L 1115.502 573.888 L 1115.502 563.188 C 1115.502 542.888 1099.002 526.488 1078.702 526.488 L 821.502 526.488 C 801.202 526.488 784.702 542.988 784.702 563.188 L 784.702 573.888 Z " fill="rgb(0,0,0)"/></g><g><path d=" M 950.502 374.388 C 949.702 374.388 948.902 373.988 948.502 373.188 L 934.602 348.288 C 934.002 347.188 934.402 345.788 935.502 345.088 C 936.602 344.488 938.002 344.888 938.702 345.988 L 952.602 370.888 C 953.202 371.988 952.802 373.388 951.702 374.088 C 951.202 374.288 950.902 374.388 950.502 374.388 Z " fill="rgb(0,0,0)"/></g><g><path d=" M 936.602 347.188 C 932.602 349.388 927.502 347.988 925.302 343.988 C 923.102 339.988 924.502 334.888 928.502 332.688 C 932.502 330.488 937.602 331.888 939.802 335.888 C 942.002 339.888 940.602 344.888 936.602 347.188 Z " fill="rgb(230,231,232)"/><path d=" M 932.602 350.588 C 928.702 350.588 925.202 348.488 923.302 345.088 C 920.402 339.988 922.302 333.488 927.402 330.588 C 932.402 327.788 939.102 329.788 941.902 334.688 C 944.802 339.788 942.902 346.288 937.802 349.188 C 936.102 350.088 934.402 350.588 932.602 350.588 Z  M 932.502 333.888 C 931.502 333.888 930.502 334.188 929.602 334.688 C 926.702 336.288 925.702 339.988 927.302 342.888 C 928.902 345.688 932.602 346.788 935.502 345.188 C 938.402 343.588 939.402 339.888 937.802 336.988 C 936.702 335.088 934.702 333.888 932.502 333.888 Z " fill="rgb(0,0,0)"/></g><g><path d=" M 871.602 467.888 C 866.502 467.888 861.902 465.888 858.502 462.588 L 855.302 524.088 L 890.302 524.088 L 883.902 463.188 C 880.702 466.088 876.402 467.888 871.602 467.888 Z " fill="rgb(230,231,232)"/><path d=" M 890.402 526.388 C 890.402 526.388 890.402 526.388 890.402 526.388 L 855.302 526.388 C 854.702 526.388 854.102 526.088 853.602 525.688 C 853.202 525.188 852.902 524.588 853.002 523.988 L 856.202 462.488 C 856.202 461.588 856.802 460.788 857.702 460.488 C 858.502 460.188 859.502 460.388 860.202 460.988 C 866.102 466.788 876.202 467.088 882.502 461.588 C 883.202 460.988 884.102 460.888 884.902 461.188 C 885.702 461.488 886.302 462.288 886.402 463.088 L 892.702 523.288 C 892.802 523.588 892.902 523.888 892.902 524.188 C 892.802 525.388 891.702 526.388 890.402 526.388 Z  M 857.802 521.788 L 887.802 521.788 L 882.102 467.488 C 875.602 471.288 867.002 471.088 860.702 467.188 L 857.802 521.788 Z " fill="rgb(0,0,0)"/></g><g><path d=" M 871.602 430.388 C 869.102 430.388 866.702 430.888 864.502 431.788 C 857.702 434.588 852.902 441.288 852.902 449.088 C 852.902 449.788 853.002 450.588 853.002 451.288 C 853.502 455.688 855.502 459.588 858.502 462.488 C 861.902 465.788 866.502 467.788 871.602 467.788 C 876.302 467.788 880.702 465.988 884.002 463.088 C 887.902 459.688 890.402 454.688 890.402 449.088 C 890.302 438.788 882.002 430.388 871.602 430.388 Z " fill="rgb(180,180,181)"/><path d=" M 871.602 470.188 C 866.102 470.188 860.902 468.088 856.902 464.188 C 853.502 460.788 851.302 456.388 850.702 451.588 C 850.602 450.788 850.502 449.988 850.502 449.088 C 850.502 440.488 855.602 432.888 863.502 429.588 C 866.002 428.488 868.702 427.988 871.502 427.988 C 883.102 427.988 892.602 437.388 892.602 449.088 C 892.602 455.088 890.002 460.888 885.402 464.888 C 881.702 468.388 876.702 470.188 871.602 470.188 Z  M 871.602 432.788 C 869.402 432.788 867.302 433.188 865.402 433.988 C 859.202 436.488 855.202 442.488 855.202 449.188 C 855.202 449.888 855.302 450.488 855.302 451.088 C 855.702 454.788 857.502 458.288 860.102 460.888 C 866.002 466.688 876.102 466.988 882.402 461.488 C 885.902 458.388 888.002 453.888 888.002 449.188 C 888.002 440.088 880.702 432.788 871.602 432.788 Z " fill="rgb(0,0,0)"/></g><g><path d=" M 864.502 431.888 L 811.402 407.888 C 811.602 408.988 811.802 410.188 811.802 411.288 C 811.802 417.788 807.902 423.488 802.302 425.988 L 853.102 451.388 C 853.002 450.688 853.002 449.888 853.002 449.188 C 852.902 441.388 857.702 434.688 864.502 431.888 Z " fill="rgb(230,231,232)"/><path d=" M 853.002 453.688 C 852.602 453.688 852.302 453.588 852.002 453.488 L 801.202 428.088 C 800.402 427.688 799.902 426.888 799.902 425.988 C 799.902 425.088 800.402 424.288 801.302 423.888 C 806.202 421.588 809.402 416.688 809.402 411.288 C 809.402 410.388 809.302 409.388 809.102 408.388 C 808.902 407.488 809.202 406.688 809.902 406.088 C 810.602 405.588 811.502 405.388 812.302 405.788 L 865.402 429.788 C 866.202 430.188 866.802 430.988 866.802 431.988 C 866.802 432.888 866.202 433.788 865.402 434.088 C 859.202 436.588 855.202 442.588 855.202 449.288 C 855.202 449.988 855.302 450.588 855.302 451.188 C 855.402 452.088 855.002 452.888 854.302 453.388 C 854.002 453.588 853.502 453.688 853.002 453.688 Z  M 807.002 425.788 L 850.602 447.588 C 851.102 441.288 854.302 435.688 859.302 432.088 L 814.102 411.588 C 814.002 417.188 811.302 422.388 807.002 425.788 Z " fill="rgb(0,0,0)"/></g><g><path d=" M 811.402 407.788 C 809.802 400.488 803.302 394.988 795.502 394.988 C 786.502 394.988 779.202 402.288 779.202 411.288 C 779.202 414.888 780.402 418.288 782.502 420.988 C 785.202 424.588 789.402 427.088 794.102 427.488 C 794.602 427.488 795.002 427.588 795.502 427.588 C 797.902 427.588 800.202 426.988 802.302 426.088 C 807.902 423.488 811.802 417.888 811.802 411.388 C 811.802 410.088 811.602 408.888 811.402 407.788 Z " fill="rgb(180,180,181)"/><path d=" M 795.502 429.888 C 795.102 429.888 794.702 429.888 794.302 429.788 C 788.602 429.288 783.802 426.588 780.602 422.388 C 778.202 419.088 776.902 415.288 776.902 411.288 C 776.902 401.088 785.202 392.688 795.502 392.688 C 804.202 392.688 811.802 398.888 813.702 407.388 C 814.002 408.688 814.102 409.988 814.102 411.288 C 814.102 418.488 809.802 425.088 803.302 428.188 C 800.702 429.288 798.102 429.888 795.502 429.888 Z  M 795.502 397.288 C 787.802 397.288 781.602 403.488 781.602 411.188 C 781.602 414.188 782.602 416.988 784.402 419.488 C 786.802 422.688 790.402 424.688 794.402 424.988 L 795.102 425.088 C 797.102 425.388 799.302 424.788 801.402 423.788 C 806.302 421.488 809.502 416.588 809.502 411.188 C 809.502 410.288 809.402 409.288 809.202 408.288 C 807.702 401.988 802.002 397.288 795.502 397.288 Z " fill="rgb(0,0,0)"/></g><g><path d=" M 770.602 492.188 C 768.002 494.388 764.702 495.888 761.002 495.888 C 752.902 495.888 746.302 489.288 746.302 481.188 C 746.302 481.188 746.302 481.088 746.302 481.088 L 740.402 478.388 L 722.502 488.288 L 711.102 513.088 L 741.102 496.488 L 762.402 506.288 L 769.302 539.888 L 780.702 515.088 L 776.602 495.088 L 770.602 492.188 Z " fill="rgb(230,231,232)"/><path d=" M 769.302 542.088 C 769.202 542.088 769.102 542.088 769.002 542.088 C 768.002 541.988 767.202 541.188 767.002 540.288 L 760.302 507.888 L 741.102 499.088 L 712.102 515.088 C 711.202 515.588 710.102 515.488 709.402 514.788 C 708.702 514.088 708.502 512.988 708.902 512.088 L 720.302 487.288 C 720.502 486.788 720.902 486.488 721.302 486.188 L 739.202 476.288 C 739.802 475.888 740.602 475.888 741.302 476.188 L 747.202 478.888 C 748.002 479.288 748.602 480.088 748.602 480.988 C 748.602 487.988 754.102 493.488 760.902 493.488 C 763.902 493.488 766.702 492.388 769.002 490.388 C 769.702 489.788 770.702 489.588 771.502 489.988 L 777.502 492.788 C 778.202 493.088 778.702 493.688 778.802 494.388 L 782.902 514.388 C 783.002 514.888 782.902 515.388 782.702 515.788 L 771.302 540.588 C 771.102 541.588 770.202 542.088 769.302 542.088 Z  M 741.102 494.088 C 741.402 494.088 741.802 494.188 742.102 494.288 L 763.402 504.088 C 764.102 504.388 764.602 504.988 764.702 505.688 L 770.202 532.288 L 778.402 514.588 L 774.702 496.488 L 771.002 494.788 C 768.102 496.888 764.602 498.088 761.102 498.088 C 752.202 498.088 744.802 491.188 744.102 482.488 L 740.602 480.888 L 724.402 489.788 L 716.202 507.488 L 740.002 494.388 C 740.402 494.188 740.802 494.088 741.102 494.088 Z " fill="rgb(0,0,0)"/></g><g><path d=" M 761.002 473.888 C 758.102 473.888 755.502 475.688 754.402 478.188 C 754.002 479.088 753.702 480.088 753.702 481.188 C 753.702 482.588 754.102 483.888 754.802 484.988 C 756.102 487.088 758.302 488.488 761.002 488.488 C 761.402 488.488 761.802 488.388 762.202 488.388 C 764.602 487.988 766.702 486.388 767.702 484.188 C 768.102 483.288 768.402 482.288 768.402 481.188 C 768.302 477.088 765.002 473.888 761.002 473.888 Z " fill="none"/></g><g><path d=" M 773.502 473.488 L 794.102 427.388 C 789.302 426.988 785.202 424.588 782.502 420.888 L 761.402 466.488 C 766.502 466.588 771.002 469.388 773.502 473.488 Z " fill="rgb(230,231,232)"/><path d=" M 773.502 475.888 C 772.702 475.888 771.902 475.488 771.502 474.788 C 769.302 471.188 765.502 468.988 761.302 468.888 C 760.502 468.888 759.802 468.488 759.402 467.788 C 759.002 467.088 758.902 466.288 759.302 465.588 L 780.402 420.088 C 780.702 419.388 781.502 418.788 782.302 418.788 C 783.102 418.688 783.902 419.088 784.402 419.688 C 786.802 422.888 790.402 424.888 794.402 425.188 C 795.202 425.288 795.802 425.688 796.202 426.288 C 796.602 426.988 796.602 427.688 796.302 428.388 L 775.602 474.488 C 775.202 475.288 774.502 475.788 773.602 475.888 C 773.602 475.888 773.502 475.888 773.502 475.888 Z  M 764.802 464.588 C 767.902 465.288 770.702 466.888 772.902 469.088 L 790.802 429.188 C 788.002 428.488 785.302 427.088 783.202 425.088 L 764.802 464.588 Z " fill="rgb(0,0,0)"/></g><g><path d=" M 773.802 473.988 C 773.702 473.788 773.602 473.688 773.502 473.488 C 771.002 469.388 766.602 466.588 761.402 466.388 C 761.302 466.388 761.202 466.388 761.002 466.388 C 759.702 466.388 758.502 466.588 757.302 466.888 C 751.002 468.488 746.402 474.188 746.302 480.888 C 746.302 480.988 746.302 480.988 746.302 480.988 C 746.302 489.088 752.902 495.688 761.002 495.688 C 764.702 495.688 768.002 494.288 770.602 491.988 C 773.702 489.288 775.702 485.388 775.702 480.988 C 775.702 478.488 775.002 476.088 773.802 473.988 Z  M 767.602 484.088 C 766.602 486.288 764.602 487.888 762.102 488.288 C 761.702 488.388 761.302 488.388 760.902 488.388 C 758.302 488.388 756.002 486.988 754.702 484.888 C 754.002 483.788 753.602 482.488 753.602 481.088 C 753.602 479.988 753.802 478.988 754.302 478.088 C 755.402 475.588 758.002 473.788 760.902 473.788 C 764.902 473.788 768.202 476.988 768.202 481.088 C 768.302 482.188 768.002 483.188 767.602 484.088 Z " fill="rgb(180,180,181)"/><path d=" M 761.002 498.088 C 751.602 498.088 744.002 490.488 744.002 481.088 C 744.102 473.288 749.302 466.588 756.802 464.688 C 758.402 464.288 759.702 464.088 761.102 464.088 C 761.202 464.088 761.502 464.088 761.602 464.088 C 767.302 464.188 772.502 467.288 775.502 472.288 L 775.902 472.888 C 777.402 475.488 778.102 478.288 778.102 481.088 C 778.102 485.988 776.002 490.588 772.202 493.888 C 769.002 496.588 765.102 498.088 761.002 498.088 Z  M 761.002 468.788 C 759.902 468.788 759.002 468.888 757.902 469.188 C 752.502 470.588 748.702 475.388 748.702 480.988 C 748.702 487.888 754.202 493.488 761.002 493.488 C 764.002 493.488 766.802 492.388 769.102 490.388 C 771.802 487.988 773.402 484.588 773.402 481.088 C 773.402 479.088 772.902 477.088 771.802 475.088 L 773.502 473.488 L 771.502 474.688 C 769.302 471.088 765.502 468.888 761.302 468.788 C 761.202 468.788 761.102 468.788 761.002 468.788 Z  M 761.002 490.688 C 757.602 490.688 754.602 488.988 752.802 486.088 C 751.902 484.588 751.402 482.888 751.402 481.088 C 751.402 479.688 751.702 478.388 752.302 477.188 C 753.902 473.788 757.302 471.588 761.002 471.588 C 766.302 471.588 770.602 475.888 770.602 481.188 C 770.602 482.588 770.302 483.888 769.702 485.088 C 768.402 487.988 765.702 490.088 762.502 490.588 C 761.902 490.688 761.502 490.688 761.002 490.688 Z  M 761.002 476.188 C 759.102 476.188 757.302 477.288 756.502 479.088 C 756.202 479.788 756.102 480.388 756.102 481.088 C 756.102 481.988 756.302 482.888 756.802 483.688 C 757.802 485.388 759.802 486.288 761.702 485.988 C 763.402 485.688 764.802 484.688 765.502 483.188 C 765.802 482.488 765.902 481.888 765.902 481.188 C 765.902 478.388 763.702 476.188 761.002 476.188 Z " fill="rgb(0,0,0)"/></g><g><path d=" M 761.002 473.888 C 758.102 473.888 755.502 475.688 754.402 478.188 C 754.002 479.088 753.702 480.088 753.702 481.188 C 753.702 482.588 754.102 483.888 754.802 484.988 C 756.102 487.088 758.302 488.488 761.002 488.488 C 761.402 488.488 761.802 488.388 762.202 488.388 C 764.602 487.988 766.702 486.388 767.702 484.188 C 768.102 483.288 768.402 482.288 768.402 481.188 C 768.302 477.088 765.002 473.888 761.002 473.888 Z " fill="rgb(230,231,232)"/><path d=" M 761.002 490.688 C 757.602 490.688 754.602 488.988 752.802 486.088 C 751.902 484.588 751.402 482.888 751.402 481.088 C 751.402 479.688 751.702 478.388 752.302 477.188 C 753.902 473.788 757.302 471.588 761.002 471.588 C 766.302 471.588 770.602 475.888 770.602 481.188 C 770.602 482.588 770.302 483.888 769.702 485.088 C 768.402 487.988 765.702 490.088 762.502 490.588 C 761.902 490.688 761.502 490.688 761.002 490.688 Z  M 761.002 476.188 C 759.102 476.188 757.302 477.288 756.502 479.088 C 756.202 479.788 756.102 480.388 756.102 481.088 C 756.102 481.988 756.302 482.888 756.802 483.688 C 757.802 485.388 759.802 486.288 761.702 485.988 C 763.402 485.688 764.802 484.688 765.502 483.188 C 765.802 482.488 765.902 481.888 765.902 481.188 C 765.902 478.388 763.702 476.188 761.002 476.188 Z " fill="rgb(0,0,0)"/></g><g><path d=" M 998.102 445.088 L 972.002 408.888 C 971.702 409.088 971.502 409.188 971.202 409.388 C 967.702 411.388 964.002 412.788 960.302 413.988 L 960.302 453.488 C 970.802 448.088 982.602 444.988 995.202 444.988 C 996.202 444.988 997.202 444.988 998.102 445.088 Z " fill="rgb(230,231,232)"/><path d=" M 960.402 455.788 C 960.002 455.788 959.602 455.688 959.202 455.488 C 958.502 455.088 958.102 454.288 958.102 453.488 L 958.102 413.988 C 958.102 412.988 958.802 412.088 959.802 411.788 C 963.602 410.688 967.102 409.188 970.202 407.388 C 970.202 407.388 970.902 406.888 971.002 406.888 C 972.002 406.288 973.402 406.588 974.002 407.588 L 1000.102 443.788 C 1000.602 444.488 1000.702 445.488 1000.302 446.288 C 999.902 447.088 999.002 447.588 998.202 447.488 C 985.402 446.988 973.002 449.788 961.602 455.588 C 961.102 455.688 960.802 455.788 960.402 455.788 Z  M 962.702 415.688 L 962.702 449.788 C 972.402 445.288 982.802 442.988 993.502 442.788 L 971.402 412.088 C 968.702 413.388 965.802 414.588 962.702 415.688 Z " fill="rgb(0,0,0)"/></g><g><path d=" M 998.102 445.088 C 997.102 445.088 996.202 444.988 995.202 444.988 C 982.602 444.988 970.802 448.088 960.302 453.488 C 935.802 466.188 919.002 491.688 919.002 521.288 C 919.002 522.288 919.102 523.188 919.102 524.188 L 1071.202 524.188 C 1071.202 523.188 1071.302 522.288 1071.302 521.288 C 1071.502 480.088 1038.902 446.588 998.102 445.088 Z " fill="rgb(180,180,181)"/><path d=" M 1071.302 526.388 L 919.202 526.388 C 917.902 526.388 916.902 525.388 916.902 524.188 L 916.802 523.088 C 916.802 522.488 916.702 521.888 916.702 521.188 C 916.702 491.688 933.002 464.888 959.302 451.388 C 971.402 445.188 984.702 442.288 998.202 442.788 C 1040.602 444.388 1073.802 478.788 1073.802 521.288 C 1073.802 521.888 1073.802 522.488 1073.702 523.188 L 1073.602 524.288 C 1073.602 525.388 1072.602 526.388 1071.302 526.388 Z  M 921.402 521.788 L 1069.102 521.788 C 1069.102 521.588 1069.102 521.388 1069.102 521.188 C 1069.102 481.288 1037.902 448.888 998.002 447.388 C 985.202 446.888 972.802 449.688 961.402 455.488 C 936.702 468.188 921.302 493.388 921.302 521.188 C 921.402 521.388 921.402 521.588 921.402 521.788 Z " fill="rgb(0,0,0)"/></g><g><path d=" M 996.802 346.188 L 904.002 397.888 C 918.002 413.788 940.102 419.988 960.302 413.888 C 964.002 412.788 967.702 411.288 971.202 409.288 C 971.502 409.188 971.702 408.988 972.002 408.788 C 994.302 396.088 1004.002 369.888 996.802 346.188 Z " fill="rgb(230,231,232)"/><path d=" M 944.802 418.588 L 944.802 418.588 C 928.502 418.588 913.002 411.588 902.302 399.488 C 901.802 398.988 901.602 398.288 901.802 397.588 C 901.902 396.888 902.302 396.288 903.002 395.988 L 995.802 344.288 C 996.402 343.988 997.202 343.888 997.802 344.188 C 998.502 344.488 999.002 344.988 999.202 345.688 C 1006.902 370.988 996.202 397.788 973.402 411.088 C 972.902 411.388 972.702 411.488 972.502 411.588 C 969.102 413.488 965.202 415.088 961.202 416.288 C 955.802 417.788 950.302 418.588 944.802 418.588 Z  M 907.802 398.488 C 917.502 408.288 930.802 413.888 944.802 413.888 L 944.802 413.888 C 949.902 413.888 954.902 413.188 959.702 411.688 C 963.502 410.588 967.002 409.088 970.102 407.288 C 970.102 407.288 970.802 406.788 970.902 406.788 C 991.002 395.088 1000.802 371.888 995.402 349.588 L 907.802 398.488 Z " fill="rgb(0,0,0)"/></g><g><circle vector-effect="non-scaling-stroke" cx="871.6019392738942" cy="449.18838195405056" r="8.700000000000045" fill="rgb(230,231,232)"/><path d=" M 871.602 460.188 C 865.502 460.188 860.502 455.188 860.502 449.088 C 860.502 442.988 865.502 437.988 871.602 437.988 C 877.702 437.988 882.702 442.988 882.702 449.088 C 882.702 455.188 877.702 460.188 871.602 460.188 Z  M 871.602 442.788 C 868.102 442.788 865.202 445.688 865.202 449.188 C 865.202 452.688 868.102 455.588 871.602 455.588 C 875.102 455.588 878.002 452.688 878.002 449.188 C 878.002 445.688 875.202 442.788 871.602 442.788 Z " fill="rgb(0,0,0)"/></g><g><circle vector-effect="non-scaling-stroke" cx="795.5019392738942" cy="411.2883819540506" r="7.5" fill="rgb(230,231,232)"/><path d=" M 795.502 421.088 C 790.102 421.088 785.702 416.688 785.702 411.288 C 785.702 405.888 790.102 401.488 795.502 401.488 C 800.902 401.488 805.302 405.888 805.302 411.288 C 805.302 416.688 800.902 421.088 795.502 421.088 Z  M 795.502 406.088 C 792.602 406.088 790.302 408.388 790.302 411.288 C 790.302 414.188 792.602 416.488 795.502 416.488 C 798.402 416.488 800.702 414.188 800.702 411.288 C 800.702 408.388 798.402 406.088 795.502 406.088 Z " fill="rgb(0,0,0)"/></g></g></g></svg>