<?xml version="1.0" encoding="utf-8"?>
<!-- Generator: Adobe Illustrator 16.0.0, SVG Export Plug-In . SVG Version: 6.00 Build 0)  -->
<!DOCTYPE svg PUBLIC "-//W3C//DTD SVG 1.1//EN" "http://www.w3.org/Graphics/SVG/1.1/DTD/svg11.dtd">
<svg version="1.1" id="Layer_1" xmlns="http://www.w3.org/2000/svg" xmlns:xlink="http://www.w3.org/1999/xlink" x="0px" y="0px"
	 width="1400px" height="980px" viewBox="0 0 1400 980" enable-background="new 0 0 1400 980" xml:space="preserve">
<g>
	<g>
		<g>
			<rect fill="#5B839A" width="1400" height="980"/>
		</g>
	</g>
	<g>
		<path fill="#FFA174" d="M987.2,490c0,162.7-131.9,294.6-294.6,294.6C529.9,784.6,398,652.7,398,490
			c0-162.7,131.9-294.6,294.6-294.6C855.3,195.4,987.2,327.3,987.2,490z"/>
		<path d="M692.6,787c-163.7,0-297-133.2-297-297c0-163.7,133.2-297,297-297c163.7,0,297,133.2,297,297
			C989.6,653.7,856.3,787,692.6,787z M692.6,197.7c-161.2,0-292.3,131.1-292.3,292.3c0,161.2,131.1,292.3,292.3,292.3
			S984.9,651.2,984.9,490C984.9,328.8,853.8,197.7,692.6,197.7z"/>
	</g>
	<g>
		<g>
			<path fill="#58595B" d="M915,589.8c0,26.5-21.5,48.1-48.1,48.1H545.3c-26.6,0-48.1-21.5-48.1-48.1v-6c0-26.6,21.5-48.1,48.1-48.1
				h321.6c26.5,0,48.1,21.5,48.1,48.1V589.8z"/>
			<path d="M866.9,640.2H545.3c-27.8,0-50.4-22.6-50.4-50.4v-6c0-27.8,22.6-50.4,50.4-50.4h321.6c27.8,0,50.4,22.6,50.4,50.4v6
				C917.3,617.6,894.7,640.2,866.9,640.2z M545.3,538c-25.2,0-45.7,20.5-45.7,45.7v6c0,25.2,20.5,45.7,45.7,45.7h321.6
				c25.2,0,45.7-20.5,45.7-45.7v-6c0-25.2-20.5-45.7-45.7-45.7H545.3z"/>
		</g>
		<g>
			<path fill="#B4B4B5" d="M587.9,586.8c0,21.6-17.5,39.1-39.1,39.1c-21.6,0-39.1-17.5-39.1-39.1c0-21.6,17.5-39.1,39.1-39.1
				C570.4,547.7,587.9,565.2,587.9,586.8z"/>
			<path d="M548.8,628.2c-22.8,0-41.4-18.6-41.4-41.4c0-22.8,18.6-41.4,41.4-41.4c22.8,0,41.4,18.6,41.4,41.4
				C590.2,609.6,571.7,628.2,548.8,628.2z M548.8,550c-20.3,0-36.8,16.5-36.8,36.8c0,20.3,16.5,36.8,36.8,36.8
				c20.3,0,36.8-16.5,36.8-36.8C585.6,566.5,569.1,550,548.8,550z"/>
		</g>
		<g>
			<path fill="#E6E7E8" d="M572.7,586.8c0,13.2-10.7,23.9-23.9,23.9c-13.2,0-23.9-10.7-23.9-23.9c0-13.2,10.7-23.9,23.9-23.9
				C562,562.9,572.7,573.6,572.7,586.8z"/>
			<path d="M548.8,613c-14.5,0-26.2-11.8-26.2-26.2c0-14.5,11.8-26.2,26.2-26.2c14.5,0,26.2,11.8,26.2,26.2
				C575,601.2,563.3,613,548.8,613z M548.8,565.2c-11.9,0-21.6,9.7-21.6,21.5s9.7,21.5,21.6,21.5c11.9,0,21.6-9.7,21.6-21.5
				S560.7,565.2,548.8,565.2z"/>
		</g>
		<g>
			<circle fill="#B4B4B5" cx="653.7" cy="586.8" r="39.1"/>
			<path d="M653.7,628.2c-22.8,0-41.4-18.6-41.4-41.4c0-22.8,18.6-41.4,41.4-41.4c22.8,0,41.4,18.6,41.4,41.4
				C695.1,609.6,676.5,628.2,653.7,628.2z M653.7,550c-20.3,0-36.8,16.5-36.8,36.8c0,20.3,16.5,36.8,36.8,36.8s36.8-16.5,36.8-36.8
				C690.4,566.5,673.9,550,653.7,550z"/>
		</g>
		<g>
			<path fill="#E6E7E8" d="M677.5,586.8c0,13.2-10.7,23.9-23.9,23.9c-13.2,0-23.9-10.7-23.9-23.9c0-13.2,10.7-23.9,23.9-23.9
				C666.8,562.9,677.5,573.6,677.5,586.8z"/>
			<path d="M653.7,613c-14.5,0-26.2-11.8-26.2-26.2c0-14.5,11.8-26.2,26.2-26.2c14.5,0,26.2,11.8,26.2,26.2
				C679.9,601.2,668.1,613,653.7,613z M653.7,565.2c-11.9,0-21.6,9.7-21.6,21.5s9.7,21.5,21.6,21.5c11.9,0,21.6-9.7,21.6-21.5
				S665.5,565.2,653.7,565.2z"/>
		</g>
		<g>
			<circle fill="#B4B4B5" cx="758.5" cy="586.8" r="39.1"/>
			<path d="M758.5,628.2c-22.8,0-41.4-18.6-41.4-41.4c0-22.8,18.6-41.4,41.4-41.4s41.4,18.6,41.4,41.4
				C799.9,609.6,781.3,628.2,758.5,628.2z M758.5,550c-20.3,0-36.8,16.5-36.8,36.8c0,20.3,16.5,36.8,36.8,36.8
				c20.3,0,36.8-16.5,36.8-36.8C795.2,566.5,778.8,550,758.5,550z"/>
		</g>
		<g>
			<path fill="#E6E7E8" d="M782.4,586.8c0,13.2-10.7,23.9-23.9,23.9s-23.9-10.7-23.9-23.9c0-13.2,10.7-23.9,23.9-23.9
				S782.4,573.6,782.4,586.8z"/>
			<path d="M758.5,613c-14.5,0-26.2-11.8-26.2-26.2c0-14.5,11.8-26.2,26.2-26.2c14.5,0,26.2,11.8,26.2,26.2
				C784.7,601.2,772.9,613,758.5,613z M758.5,565.2c-11.9,0-21.6,9.7-21.6,21.5s9.7,21.5,21.6,21.5c11.9,0,21.6-9.7,21.6-21.5
				S770.4,565.2,758.5,565.2z"/>
		</g>
		<g>
			<path fill="#B4B4B5" d="M902.4,586.8c0,21.6-17.5,39.1-39.1,39.1c-21.6,0-39.1-17.5-39.1-39.1c0-21.6,17.5-39.1,39.1-39.1
				C884.9,547.7,902.4,565.2,902.4,586.8z"/>
			<path d="M863.3,628.2c-22.8,0-41.4-18.6-41.4-41.4c0-22.8,18.6-41.4,41.4-41.4c22.8,0,41.4,18.6,41.4,41.4
				C904.7,609.6,886.1,628.2,863.3,628.2z M863.3,550c-20.3,0-36.8,16.5-36.8,36.8c0,20.3,16.5,36.8,36.8,36.8
				c20.3,0,36.8-16.5,36.8-36.8C900.1,566.5,883.6,550,863.3,550z"/>
		</g>
		<g>
			<path fill="#E6E7E8" d="M887.2,586.8c0,13.2-10.7,23.9-23.9,23.9c-13.2,0-23.9-10.7-23.9-23.9c0-13.2,10.7-23.9,23.9-23.9
				C876.5,562.9,887.2,573.6,887.2,586.8z"/>
			<path d="M863.3,613c-14.5,0-26.2-11.8-26.2-26.2c0-14.5,11.8-26.2,26.2-26.2c14.5,0,26.2,11.8,26.2,26.2
				C889.5,601.2,877.8,613,863.3,613z M863.3,565.2c-11.9,0-21.6,9.7-21.6,21.5s9.7,21.5,21.6,21.5c11.9,0,21.6-9.7,21.6-21.5
				S875.2,565.2,863.3,565.2z"/>
		</g>
		<g>
			<path fill="#E6E7E8" d="M873.9,535.7v-13c0-21.6-17.5-39.1-39.1-39.1H577.5c-21.6,0-39.1,17.5-39.1,39.1v13H873.9z"/>
			<path d="M873.9,538H538.4c-1.3,0-2.3-1-2.3-2.3v-13c0-22.8,18.6-41.4,41.4-41.4h257.3c22.8,0,41.4,18.6,41.4,41.4v13
				C876.2,537,875.1,538,873.9,538z M540.7,533.4h330.8v-10.7c0-20.3-16.5-36.7-36.8-36.7H577.5c-20.3,0-36.8,16.5-36.8,36.7V533.4z
				"/>
		</g>
		<g>
			<path d="M706.5,333.9c-0.8,0-1.6-0.4-2-1.2l-13.9-24.9c-0.6-1.1-0.2-2.5,0.9-3.2c1.1-0.6,2.5-0.2,3.2,0.9l13.9,24.9
				c0.6,1.1,0.2,2.5-0.9,3.2C707.2,333.8,706.9,333.9,706.5,333.9z"/>
		</g>
		<g>
			<path fill="#E6E7E8" d="M692.6,306.7c-4,2.2-9.1,0.8-11.3-3.2c-2.2-4-0.8-9.1,3.2-11.3c4-2.2,9.1-0.8,11.3,3.2
				C698,299.4,696.6,304.4,692.6,306.7z"/>
			<path d="M688.6,310.1c-3.9,0-7.4-2.1-9.3-5.5c-2.9-5.1-1-11.6,4.1-14.5c5-2.8,11.7-0.8,14.5,4.1c2.9,5.1,1,11.6-4.1,14.5
				C692.1,309.6,690.4,310.1,688.6,310.1z M688.5,293.4c-1,0-2,0.3-2.9,0.8c-2.9,1.6-3.9,5.3-2.3,8.2c1.6,2.8,5.3,3.9,8.2,2.3
				c2.9-1.6,3.9-5.3,2.3-8.2C692.7,294.6,690.7,293.4,688.5,293.4z"/>
		</g>
		<g>
			<path fill="#E6E7E8" d="M627.6,427.4c-5.1,0-9.7-2-13.1-5.3l-3.2,61.5h35l-6.4-60.9C636.7,425.6,632.4,427.4,627.6,427.4z"/>
			<path d="M646.4,485.9C646.4,485.9,646.4,485.9,646.4,485.9h-35.1c-0.6,0-1.2-0.3-1.7-0.7c-0.4-0.5-0.7-1.1-0.6-1.7l3.2-61.5
				c0-0.9,0.6-1.7,1.5-2c0.8-0.3,1.8-0.1,2.5,0.5c5.9,5.8,16,6.1,22.3,0.6c0.7-0.6,1.6-0.7,2.4-0.4c0.8,0.3,1.4,1.1,1.5,1.9
				l6.3,60.2c0.1,0.3,0.2,0.6,0.2,0.9C648.8,484.9,647.7,485.9,646.4,485.9z M613.8,481.3h30l-5.7-54.3c-6.5,3.8-15.1,3.6-21.4-0.3
				L613.8,481.3z"/>
		</g>
		<g>
			<path fill="#B4B4B5" d="M627.6,389.9c-2.5,0-4.9,0.5-7.1,1.4c-6.8,2.8-11.6,9.5-11.6,17.3c0,0.7,0.1,1.5,0.1,2.2
				c0.5,4.4,2.5,8.3,5.5,11.2c3.4,3.3,8,5.3,13.1,5.3c4.7,0,9.1-1.8,12.4-4.7c3.9-3.4,6.4-8.4,6.4-14
				C646.3,398.3,638,389.9,627.6,389.9z"/>
			<path d="M627.6,429.7c-5.5,0-10.7-2.1-14.7-6c-3.4-3.4-5.6-7.8-6.2-12.6c-0.1-0.8-0.2-1.6-0.2-2.5c0-8.6,5.1-16.2,13-19.5
				c2.5-1.1,5.2-1.6,8-1.6c11.6,0,21.1,9.4,21.1,21.1c0,6-2.6,11.8-7.2,15.8C637.7,427.9,632.7,429.7,627.6,429.7z M627.6,392.3
				c-2.2,0-4.3,0.4-6.2,1.2c-6.2,2.5-10.2,8.5-10.2,15.2c0,0.7,0.1,1.3,0.1,1.9c0.4,3.7,2.2,7.2,4.8,9.8c5.9,5.8,16,6.1,22.3,0.6
				c3.5-3.1,5.6-7.6,5.6-12.3C644,399.6,636.7,392.3,627.6,392.3z"/>
		</g>
		<g>
			<path fill="#E6E7E8" d="M620.5,391.4l-53.1-24c0.2,1.1,0.4,2.3,0.4,3.4c0,6.5-3.9,12.2-9.5,14.7l50.8,25.4
				c-0.1-0.7-0.1-1.5-0.1-2.2C608.9,400.9,613.7,394.2,620.5,391.4z"/>
			<path d="M609,413.2c-0.4,0-0.7-0.1-1-0.2l-50.8-25.4c-0.8-0.4-1.3-1.2-1.3-2.1c0-0.9,0.5-1.7,1.4-2.1c4.9-2.3,8.1-7.2,8.1-12.6
				c0-0.9-0.1-1.9-0.3-2.9c-0.2-0.9,0.1-1.7,0.8-2.3c0.7-0.5,1.6-0.7,2.4-0.3l53.1,24c0.8,0.4,1.4,1.2,1.4,2.2
				c0,0.9-0.6,1.8-1.4,2.1c-6.2,2.5-10.2,8.5-10.2,15.2c0,0.7,0.1,1.3,0.1,1.9c0.1,0.9-0.3,1.7-1,2.2
				C610,413.1,609.5,413.2,609,413.2z M563,385.3l43.6,21.8c0.5-6.3,3.7-11.9,8.7-15.5l-45.2-20.5C570,376.7,567.3,381.9,563,385.3z
				"/>
		</g>
		<g>
			<path fill="#B4B4B5" d="M567.4,367.3c-1.6-7.3-8.1-12.8-15.9-12.8c-9,0-16.3,7.3-16.3,16.3c0,3.6,1.2,7,3.3,9.7
				c2.7,3.6,6.9,6.1,11.6,6.5c0.5,0,0.9,0.1,1.4,0.1c2.4,0,4.7-0.6,6.8-1.5c5.6-2.6,9.5-8.2,9.5-14.7
				C567.8,369.6,567.6,368.4,567.4,367.3z"/>
			<path d="M551.5,389.4c-0.4,0-0.8,0-1.2-0.1c-5.7-0.5-10.5-3.2-13.7-7.4c-2.4-3.3-3.7-7.1-3.7-11.1c0-10.2,8.3-18.6,18.6-18.6
				c8.7,0,16.3,6.2,18.2,14.7c0.3,1.3,0.4,2.6,0.4,3.9c0,7.2-4.3,13.8-10.8,16.9C556.7,388.8,554.1,389.4,551.5,389.4z M551.5,356.8
				c-7.7,0-13.9,6.2-13.9,13.9c0,3,1,5.8,2.8,8.3c2.4,3.2,6,5.2,10,5.5l0.7,0.1c2,0.3,4.2-0.3,6.3-1.3c4.9-2.3,8.1-7.2,8.1-12.6
				c0-0.9-0.1-1.9-0.3-2.9C563.7,361.5,558,356.8,551.5,356.8z"/>
		</g>
		<g>
			<path fill="#E6E7E8" d="M526.6,451.7c-2.6,2.2-5.9,3.7-9.6,3.7c-8.1,0-14.7-6.6-14.7-14.7c0,0,0-0.1,0-0.1l-5.9-2.7l-17.9,9.9
				l-11.4,24.8l30-16.6l21.3,9.8l6.9,33.6l11.4-24.8l-4.1-20L526.6,451.7z"/>
			<path d="M525.3,501.6c-0.1,0-0.2,0-0.3,0c-1-0.1-1.8-0.9-2-1.8l-6.7-32.4l-19.2-8.8l-29,16c-0.9,0.5-2,0.4-2.7-0.3
				c-0.7-0.7-0.9-1.8-0.5-2.7l11.4-24.8c0.2-0.5,0.6-0.8,1-1.1l17.9-9.9c0.6-0.4,1.4-0.4,2.1-0.1l5.9,2.7c0.8,0.4,1.4,1.2,1.4,2.1
				c0,7,5.5,12.5,12.3,12.5c3,0,5.8-1.1,8.1-3.1c0.7-0.6,1.7-0.8,2.5-0.4l6,2.8c0.7,0.3,1.2,0.9,1.3,1.6l4.1,20c0.1,0.5,0,1-0.2,1.4
				l-11.4,24.8C527.1,501.1,526.2,501.6,525.3,501.6z M497.1,453.6c0.3,0,0.7,0.1,1,0.2l21.3,9.8c0.7,0.3,1.2,0.9,1.3,1.6l5.5,26.6
				l8.2-17.7l-3.7-18.1l-3.7-1.7c-2.9,2.1-6.4,3.3-9.9,3.3c-8.9,0-16.3-6.9-17-15.6l-3.5-1.6l-16.2,8.9l-8.2,17.7l23.8-13.1
				C496.4,453.7,496.8,453.6,497.1,453.6z"/>
		</g>
		<g>
			<path fill="none" d="M517,433.4c-2.9,0-5.5,1.8-6.6,4.3c-0.4,0.9-0.7,1.9-0.7,3c0,1.4,0.4,2.7,1.1,3.8c1.3,2.1,3.5,3.5,6.2,3.5
				c0.4,0,0.8-0.1,1.2-0.1c2.4-0.4,4.5-2,5.5-4.2c0.4-0.9,0.7-1.9,0.7-3C524.3,436.6,521,433.4,517,433.4z"/>
		</g>
		<g>
			<path fill="#E6E7E8" d="M529.5,433l20.6-46.1c-4.8-0.4-8.9-2.8-11.6-6.5L517.4,426C522.5,426.1,527,428.9,529.5,433z"/>
			<path d="M529.5,435.4c-0.8,0-1.6-0.4-2-1.1c-2.2-3.6-6-5.8-10.2-5.9c-0.8,0-1.5-0.4-1.9-1.1c-0.4-0.7-0.5-1.5-0.1-2.2l21.1-45.5
				c0.3-0.7,1.1-1.3,1.9-1.3c0.8-0.1,1.6,0.3,2.1,0.9c2.4,3.2,6,5.2,10,5.5c0.8,0.1,1.4,0.5,1.8,1.1c0.4,0.7,0.4,1.4,0.1,2.1
				L531.6,434c-0.4,0.8-1.1,1.3-2,1.4C529.6,435.4,529.5,435.4,529.5,435.4z M520.8,424.1c3.1,0.7,5.9,2.3,8.1,4.5l17.9-39.9
				c-2.8-0.7-5.5-2.1-7.6-4.1L520.8,424.1z"/>
		</g>
		<g>
			<path fill="#B4B4B5" d="M529.8,433.5c-0.1-0.2-0.2-0.3-0.3-0.5c-2.5-4.1-6.9-6.9-12.1-7.1c-0.1,0-0.2,0-0.4,0
				c-1.3,0-2.5,0.2-3.7,0.5c-6.3,1.6-10.9,7.3-11,14c0,0.1,0,0.1,0,0.1c0,8.1,6.6,14.7,14.7,14.7c3.7,0,7-1.4,9.6-3.7
				c3.1-2.7,5.1-6.6,5.1-11C531.7,438,531,435.6,529.8,433.5z M523.6,443.6c-1,2.2-3,3.8-5.5,4.2c-0.4,0.1-0.8,0.1-1.2,0.1
				c-2.6,0-4.9-1.4-6.2-3.5c-0.7-1.1-1.1-2.4-1.1-3.8c0-1.1,0.2-2.1,0.7-3c1.1-2.5,3.7-4.3,6.6-4.3c4,0,7.3,3.2,7.3,7.3
				C524.3,441.7,524,442.7,523.6,443.6z"/>
			<path d="M517,457.6c-9.4,0-17-7.6-17-17c0.1-7.8,5.3-14.5,12.8-16.4c1.6-0.4,2.9-0.6,4.3-0.6c0.1,0,0.4,0,0.5,0
				c5.7,0.1,10.9,3.2,13.9,8.2l0.4,0.6c1.5,2.6,2.2,5.4,2.2,8.2c0,4.9-2.1,9.5-5.9,12.8C525,456.1,521.1,457.6,517,457.6z
				 M517,428.3c-1.1,0-2,0.1-3.1,0.4c-5.4,1.4-9.2,6.2-9.2,11.8c0,6.9,5.5,12.5,12.3,12.5c3,0,5.8-1.1,8.1-3.1
				c2.7-2.4,4.3-5.8,4.3-9.3c0-2-0.5-4-1.6-6l1.7-1.6l-2,1.2c-2.2-3.6-6-5.8-10.2-5.9C517.2,428.3,517.1,428.3,517,428.3z
				 M517,450.2c-3.4,0-6.4-1.7-8.2-4.6c-0.9-1.5-1.4-3.2-1.4-5c0-1.4,0.3-2.7,0.9-3.9c1.6-3.4,5-5.6,8.7-5.6c5.3,0,9.6,4.3,9.6,9.6
				c0,1.4-0.3,2.7-0.9,3.9c-1.3,2.9-4,5-7.2,5.5C517.9,450.2,517.5,450.2,517,450.2z M517,435.7c-1.9,0-3.7,1.1-4.5,2.9
				c-0.3,0.7-0.4,1.3-0.4,2c0,0.9,0.2,1.8,0.7,2.6c1,1.7,3,2.6,4.9,2.3c1.7-0.3,3.1-1.3,3.8-2.8c0.3-0.7,0.4-1.3,0.4-2
				C521.9,437.9,519.7,435.7,517,435.7z"/>
		</g>
		<g>
			<path fill="#E6E7E8" d="M517,433.4c-2.9,0-5.5,1.8-6.6,4.3c-0.4,0.9-0.7,1.9-0.7,3c0,1.4,0.4,2.7,1.1,3.8
				c1.3,2.1,3.5,3.5,6.2,3.5c0.4,0,0.8-0.1,1.2-0.1c2.4-0.4,4.5-2,5.5-4.2c0.4-0.9,0.7-1.9,0.7-3C524.3,436.6,521,433.4,517,433.4z"
				/>
			<path d="M517,450.2c-3.4,0-6.4-1.7-8.2-4.6c-0.9-1.5-1.4-3.2-1.4-5c0-1.4,0.3-2.7,0.9-3.9c1.6-3.4,5-5.6,8.7-5.6
				c5.3,0,9.6,4.3,9.6,9.6c0,1.4-0.3,2.7-0.9,3.9c-1.3,2.9-4,5-7.2,5.5C517.9,450.2,517.5,450.2,517,450.2z M517,435.7
				c-1.9,0-3.7,1.1-4.5,2.9c-0.3,0.7-0.4,1.3-0.4,2c0,0.9,0.2,1.8,0.7,2.6c1,1.7,3,2.6,4.9,2.3c1.7-0.3,3.1-1.3,3.8-2.8
				c0.3-0.7,0.4-1.3,0.4-2C521.9,437.9,519.7,435.7,517,435.7z"/>
		</g>
		<g>
			<path fill="#E6E7E8" d="M754.1,404.6l-26.1-36.2c-0.3,0.2-0.5,0.3-0.8,0.5c-3.5,2-7.2,3.4-10.9,4.6V413
				c10.5-5.4,22.3-8.5,34.9-8.5C752.2,404.5,753.2,404.5,754.1,404.6z"/>
			<path d="M716.4,415.3c-0.4,0-0.8-0.1-1.2-0.3c-0.7-0.4-1.1-1.2-1.1-2v-39.5c0-1,0.7-1.9,1.7-2.2c3.8-1.1,7.3-2.6,10.4-4.4
				c0,0,0.7-0.5,0.8-0.5c1-0.6,2.4-0.3,3,0.7l26.1,36.2c0.5,0.7,0.6,1.7,0.2,2.5c-0.4,0.8-1.3,1.3-2.1,1.2
				c-12.8-0.5-25.2,2.3-36.6,8.1C717.1,415.2,716.8,415.3,716.4,415.3z M718.7,375.2v34.1c9.7-4.5,20.1-6.8,30.8-7l-22.1-30.7
				C724.7,372.9,721.8,374.1,718.7,375.2z"/>
		</g>
		<g>
			<path fill="#B4B4B5" d="M754.1,404.6c-1,0-1.9-0.1-2.9-0.1c-12.6,0-24.4,3.1-34.9,8.5c-24.5,12.7-41.3,38.2-41.3,67.8
				c0,1,0.1,1.9,0.1,2.9h152.1c0-1,0.1-1.9,0.1-2.9C827.5,439.6,794.9,406.1,754.1,404.6z"/>
			<path d="M827.3,485.9H675.2c-1.3,0-2.3-1-2.3-2.2l-0.1-1.1c0-0.6-0.1-1.2-0.1-1.9c0-29.5,16.3-56.3,42.6-69.8
				c12.1-6.2,25.4-9.1,38.9-8.6c42.4,1.6,75.6,36,75.6,78.5c0,0.6,0,1.2-0.1,1.9l-0.1,1.1C829.6,484.9,828.6,485.9,827.3,485.9z
				 M677.4,481.3h147.7c0-0.2,0-0.4,0-0.6c0-39.9-31.2-72.3-71.1-73.8c-12.8-0.5-25.2,2.3-36.6,8.1c-24.7,12.7-40.1,37.9-40.1,65.7
				C677.4,480.9,677.4,481.1,677.4,481.3z"/>
		</g>
		<g>
			<path fill="#E6E7E8" d="M752.8,305.7l-92.8,51.7c14,15.9,36.1,22.1,56.3,16c3.7-1.1,7.4-2.6,10.9-4.6c0.3-0.1,0.5-0.3,0.8-0.5
				C750.3,355.6,760,329.4,752.8,305.7z"/>
			<path d="M700.8,378.1L700.8,378.1c-16.3,0-31.8-7-42.5-19.1c-0.5-0.5-0.7-1.2-0.5-1.9c0.1-0.7,0.5-1.3,1.2-1.6l92.8-51.7
				c0.6-0.3,1.4-0.4,2-0.1c0.7,0.3,1.2,0.8,1.4,1.5c7.7,25.3-3,52.1-25.8,65.4c-0.5,0.3-0.7,0.4-0.9,0.5c-3.4,1.9-7.3,3.5-11.3,4.7
				C711.8,377.3,706.3,378.1,700.8,378.1z M663.8,358c9.7,9.8,23,15.4,37,15.4h0c5.1,0,10.1-0.7,14.9-2.2c3.8-1.1,7.3-2.6,10.4-4.4
				c0,0,0.7-0.5,0.8-0.5c20.1-11.7,29.9-34.9,24.5-57.2L663.8,358z"/>
		</g>
		<g>
			<circle fill="#E6E7E8" cx="627.6" cy="408.7" r="8.7"/>
			<path d="M627.6,419.7c-6.1,0-11.1-5-11.1-11.1s5-11.1,11.1-11.1c6.1,0,11.1,5,11.1,11.1S633.7,419.7,627.6,419.7z M627.6,402.3
				c-3.5,0-6.4,2.9-6.4,6.4s2.9,6.4,6.4,6.4c3.5,0,6.4-2.9,6.4-6.4S631.2,402.3,627.6,402.3z"/>
		</g>
		<g>
			<circle fill="#E6E7E8" cx="551.5" cy="370.8" r="7.5"/>
			<path d="M551.5,380.6c-5.4,0-9.8-4.4-9.8-9.8c0-5.4,4.4-9.8,9.8-9.8c5.4,0,9.8,4.4,9.8,9.8C561.3,376.2,556.9,380.6,551.5,380.6z
				 M551.5,365.6c-2.9,0-5.2,2.3-5.2,5.2c0,2.9,2.3,5.2,5.2,5.2c2.9,0,5.2-2.3,5.2-5.2C556.7,367.9,554.4,365.6,551.5,365.6z"/>
		</g>
	</g>
	<g>
		<g>
			<path fill="#FFFFFF" d="M197.2,607.5c-1.3,0-2.3-1-2.3-2.2l-2.1-59.8c0-0.6-4.2-64.7,53.7-103.3c0.7-0.5,1.7-0.5,2.4-0.1
				c60.5,34.5,60.7,98.7,60.7,99.4l2,59.1c0.1,0.2,0.1,0.5,0.1,0.7c0,1.3-1,2.3-2.3,2.3c0,0-0.1,0-0.1,0c-1.2,0-2.2-0.9-2.3-2.1
				c-0.3-3.4-7-83.2-57.6-107.4c-48.8,27.6-50,107.7-50,111.2C199.5,606.4,198.5,607.4,197.2,607.5
				C197.2,607.5,197.2,607.5,197.2,607.5z M247.9,446.8c-54.4,37.2-50.5,97.7-50.4,98.3l0.9,26.4c5.2-27.7,18.1-64.9,50-82.2
				c0.6-0.3,1.4-0.4,2.1-0.1c33,15.1,48.5,51.3,55.5,78.6l-0.9-26.4C305,540.8,304.7,480.1,247.9,446.8z"/>
		</g>
		<g>
			<path fill="#FFFFFF" d="M324.7,796.4c-0.6,0-1.2-0.2-1.6-0.6c-0.5-0.4-0.7-1-0.7-1.6l-1.7-48.7c-0.2-6.5-3.3-12.6-8.3-16.7
				c-0.5-0.4-0.8-1.1-0.9-1.7l-2.4-70.1c0-0.9,0.4-1.7,1.2-2.1c0.8-0.4,1.7-0.4,2.4,0.1l108.6,74.7c0.6,0.4,1,1.1,1,1.8l2.1,59.1
				c0,0.6-0.2,1.2-0.6,1.7c-0.4,0.5-1,0.7-1.6,0.7L324.7,796.4C324.7,796.4,324.7,796.4,324.7,796.4z M316.1,725.9
				c5.6,5,9,12,9.2,19.5l1.6,46.3l92.7-3.2l-1.9-55.6l-103.8-71.5L316.1,725.9z"/>
		</g>
		<g>
			<path fill="#FFFFFF" d="M98,804.3c-0.6,0-1.2-0.2-1.6-0.6c-0.5-0.4-0.7-1-0.7-1.6l-2-59.1c0-0.7,0.3-1.4,0.9-1.9l103.2-82.1
				c0.7-0.5,1.6-0.7,2.4-0.3c0.8,0.4,1.3,1.2,1.4,2l2.4,70.1c0,0.7-0.2,1.3-0.7,1.8c-4.8,4.5-7.4,10.8-7.1,17.3l1.7,48.7
				c0,1.3-1,2.4-2.2,2.4L98,804.3C98.1,804.3,98,804.3,98,804.3z M98.3,743.9l1.9,55.6l92.7-3.2l-1.6-46.3
				c-0.3-7.5,2.6-14.7,7.8-20.1l-2.2-64.5L98.3,743.9z"/>
		</g>
		<g>
			<path fill="#FFFFFF" d="M246.4,829.1c-0.6,0-1.2-0.2-1.6-0.6c-0.5-0.4-0.7-1-0.7-1.6l-2.7-78.6c-0.4-12.3-10.4-21.8-22.7-21.8
				l-0.8,0c-5.5,0.2-10.7,2.4-14.7,6.1c-0.7,0.6-1.6,0.8-2.5,0.5c-0.8-0.3-1.4-1.2-1.4-2.1l-4.4-125.7c0.1-9,2.2-88,53.4-115.9
				c0.6-0.3,1.4-0.4,2.1-0.1c53.1,24.3,60.7,102.9,61.4,111.8l4.4,125.2c0.1,0.2,0.1,0.5,0.1,0.7c0,1.3-1,2.3-2.3,2.3
				c0,0-0.1,0-0.1,0c-0.5,0-1-0.2-1.5-0.5c-4-3.3-9.1-5.1-14.3-5.1l-0.8,0c-6.1,0.2-11.7,2.8-15.8,7.2c-4.1,4.4-6.3,10.2-6.1,16.2
				l2.7,78.6c0,1.3-1,2.4-2.2,2.4L246.4,829.1C246.5,829.1,246.4,829.1,246.4,829.1z M218.7,721.7c14.8,0,26.8,11.6,27.3,26.3
				l2.7,76.3l24.7-0.9l-2.6-76.3c-0.3-7.3,2.3-14.2,7.3-19.6c5-5.3,11.7-8.4,19-8.7l1,0c4.7,0,9.3,1.2,13.3,3.5l-4.2-121.2
				c-0.3-3.3-7-83.1-57.6-107.3c-48.8,27.6-50,107.7-50,111.2l4.2,121.1c4.2-2.7,9-4.3,14-4.5L218.7,721.7z"/>
		</g>
		<g>
			<path fill="#FFFFFF" d="M197.3,855c-1.2,0-2.3-1-2.3-2.2L191.4,750c-0.3-7.8,2.9-15.4,8.6-20.8c4.8-4.6,11.2-7.2,17.8-7.4l1,0
				c14.8,0,26.8,11.6,27.3,26.3l3.6,102.8c0,1.3-1,2.4-2.2,2.4L197.3,855C197.3,855,197.3,855,197.3,855z M218.7,726.4l-0.8,0
				c-5.5,0.2-10.7,2.4-14.7,6.1c-4.8,4.5-7.4,10.8-7.1,17.3l3.5,100.5l45.3-1.6l-3.5-100.5C240.9,736,231,726.4,218.7,726.4z"/>
		</g>
		<g>
			<path fill="#FFFFFF" d="M191.1,887c-0.7,0-1.3-0.3-1.8-0.8c-0.5-0.5-0.7-1.3-0.5-2l6.1-32c0.2-1.1,1.1-1.8,2.2-1.9l50-1.7
				c1-0.1,2.1,0.7,2.3,1.7l8.3,31.5c0.2,0.7,0,1.4-0.4,2c-0.4,0.6-1.1,0.9-1.8,0.9L191.1,887C191.2,887,191.2,887,191.1,887z
				 M199.2,855l-5.2,27.3l58.6-2l-7.1-26.9L199.2,855z"/>
		</g>
		<g>
			<path fill="#FFFFFF" d="M276.6,852.3c-0.6,0-1.2-0.2-1.6-0.6c-0.5-0.4-0.7-1-0.7-1.6l-3.6-102.8c-0.3-7.3,2.3-14.2,7.3-19.6
				c5-5.3,11.7-8.4,19-8.7l1,0c6.3,0,12.4,2.2,17.3,6.2c6.1,5,9.8,12.3,10,20.2l3.6,102.8c0,0.6-0.2,1.2-0.6,1.7
				c-0.4,0.5-1,0.7-1.6,0.7L276.6,852.3C276.6,852.3,276.6,852.3,276.6,852.3z M298,723.6l-0.8,0c-6.1,0.2-11.7,2.8-15.8,7.2
				c-4.1,4.4-6.3,10.2-6.1,16.2l3.5,100.5l45.3-1.6l-3.5-100.5c-0.2-6.5-3.3-12.6-8.3-16.7C308.3,725.5,303.2,723.6,298,723.6z"/>
		</g>
		<g>
			<path fill="#FFFFFF" d="M270.4,884.3c-0.7,0-1.3-0.3-1.8-0.8c-0.5-0.5-0.6-1.3-0.5-1.9l6.1-32c0.2-1.1,1.1-1.9,2.2-1.9l50-1.7
				c1.1-0.1,2.1,0.7,2.3,1.7l8.3,31.5c0.2,0.7,0,1.4-0.4,2c-0.4,0.6-1.1,0.9-1.8,0.9L270.4,884.3
				C270.5,884.3,270.5,884.3,270.4,884.3z M278.5,852.2l-5.2,27.3l58.6-2l-7.1-26.9L278.5,852.2z"/>
		</g>
		<g>
			<path fill="#FFFFFF" d="M211.5,592.5c-0.2,0-0.4,0-0.7-0.1c-1-0.3-1.6-1.2-1.7-2.2l-0.7-21.4c0-0.3,0-0.6,0.2-1l12.8-32
				c0.1-0.3,0.3-0.6,0.6-0.9l21.6-19.5c0.7-0.6,1.6-0.8,2.5-0.4c0.8,0.3,1.4,1.2,1.4,2.1l1.1,33c0,0.8-0.4,1.6-1.1,2.1l-11.9,7.3
				l-22.3,31.8C212.9,592.2,212.2,592.5,211.5,592.5z M213.1,569.2l0.5,13.9l18.6-26.5c0.2-0.3,0.4-0.5,0.7-0.6l11.2-6.9l-0.9-26.7
				l-17.5,15.8L213.1,569.2z"/>
		</g>
		<g>
			<path fill="#FFFFFF" d="M294.2,589.6c-0.7,0-1.4-0.3-1.8-0.9L268,558.6l-12.4-6.5c-0.7-0.4-1.2-1.1-1.2-2l-1.1-33
				c0-0.9,0.5-1.7,1.3-2.2c0.8-0.4,1.8-0.3,2.5,0.2l22.9,17.9c0.3,0.2,0.5,0.5,0.7,0.8l15,31c0.1,0.3,0.2,0.6,0.2,0.9l0.7,20.7
				c0.1,0.2,0.1,0.5,0.1,0.7C296.6,588.6,295.6,589.6,294.2,589.6C294.3,589.6,294.2,589.6,294.2,589.6z M258.9,548.6l11.6,6.1
				c0.3,0.2,0.5,0.4,0.7,0.6l20.3,25.2l-0.5-13.9l-14.6-30.1L258,521.9L258.9,548.6z"/>
		</g>
	</g>
	<g>
		<g>
			<path fill="#FFFFFF" d="M1255.9,295.6c-0.2,0-0.4,0-0.6-0.1l-115-30.7c-0.9-0.2-1.5-1-1.7-1.8l-21.9-121.4
				c-0.1-0.7,0.1-1.4,0.6-2c0.5-0.5,1.2-0.8,1.9-0.8l188.5,15.1c0.7,0.1,1.4,0.5,1.8,1.1c0.4,0.6,0.5,1.4,0.2,2.1l-51.6,137
				C1257.7,295,1256.8,295.6,1255.9,295.6z M1142.9,260.7l111.5,29.8l49.8-132.1l-182.4-14.6L1142.9,260.7z"/>
		</g>
		<g>
			<path fill="#FFFFFF" d="M1119,143.5c-0.4,0-0.9-0.1-1.2-0.4l-81-51.3l-88.3,3.5l-71.3,36.1c-1.2,0.6-2.5,0.1-3.1-1
				c-0.6-1.1-0.1-2.5,1-3.1l71.7-36.3c0.3-0.2,0.6-0.2,1-0.3l89.5-3.5c0.5,0,0.9,0.1,1.3,0.4l81.7,51.7c1.1,0.7,1.4,2.1,0.7,3.2
				C1120.6,143.1,1119.8,143.5,1119,143.5z"/>
		</g>
		<g>
			<path fill="#5B839A" d="M1162.2,264.3c-0.9,11.8-11.3,20.6-23,19.6c-11.8-0.9-20.5-11.3-19.6-23c0.9-11.8,11.3-20.5,23-19.6
				C1154.4,242.2,1163.1,252.5,1162.2,264.3z"/>
			<path fill="#FFFFFF" d="M1140.9,286.3c-0.6,0-1.3,0-1.9-0.1c-6.3-0.5-12-3.4-16.2-8.3c-4.1-4.8-6.1-10.9-5.6-17.3
				c1-12.9,12.5-22.9,25.5-21.7c13,1,22.8,12.5,21.7,25.5C1163.5,276.7,1153.2,286.3,1140.9,286.3z M1140.9,243.5
				c-9.8,0-18.2,7.7-19,17.5c-0.4,5.1,1.2,10,4.5,13.9c3.3,3.9,7.9,6.2,13,6.6c10.5,0.8,19.7-7.1,20.5-17.5
				c0.8-10.5-7-19.7-17.5-20.5C1141.9,243.6,1141.4,243.5,1140.9,243.5z"/>
		</g>
		<g>
			<path fill="#5B839A" d="M1282.5,295.4c-1.2,14.7-14.1,25.7-28.8,24.5c-14.7-1.2-25.7-14.1-24.5-28.8
				c1.2-14.7,14.1-25.7,28.8-24.5C1272.7,267.8,1283.7,280.7,1282.5,295.4z"/>
			<path fill="#FFFFFF" d="M1255.9,322.3c-0.8,0-1.6,0-2.4-0.1c-7.7-0.6-14.8-4.2-19.8-10.1c-5-5.9-7.5-13.4-6.8-21.2
				c1.3-15.8,15.3-27.9,31.3-26.6c7.7,0.6,14.8,4.2,19.8,10.1c5,5.9,7.5,13.4,6.8,21.2C1283.6,310.6,1270.9,322.3,1255.9,322.3z
				 M1255.8,268.9c-12.6,0-23.3,9.9-24.3,22.4c-0.5,6.5,1.5,12.8,5.7,17.8c4.2,5,10.1,8,16.6,8.5c13.5,1.1,25.2-9.1,26.3-22.4
				c0.5-6.5-1.5-12.8-5.7-17.8c-4.2-5-10.1-8-16.6-8.5C1257.1,268.9,1256.5,268.9,1255.8,268.9z"/>
		</g>
		<g>
			<path fill="#5B839A" d="M1336,158.6c-1.3,15.7-15,27.4-30.8,26.2c-15.7-1.3-27.4-15-26.2-30.8c1.3-15.7,15-27.4,30.8-26.2
				C1325.5,129.1,1337.2,142.9,1336,158.6z"/>
			<path fill="#FFFFFF" d="M1307.5,187.2c-0.8,0-1.7,0-2.5-0.1c-8.2-0.7-15.7-4.5-21-10.8c-5.3-6.3-7.9-14.3-7.3-22.5
				c1.3-16.8,16.3-29.7,33.3-28.3c8.2,0.7,15.7,4.5,21,10.8c5.3,6.3,7.9,14.3,7.3,22.5C1337,174.7,1323.5,187.2,1307.5,187.2z
				 M1307.4,130.1c-13.5,0-25,10.6-26.1,24.1c-0.6,7,1.6,13.8,6.2,19.1c4.5,5.3,10.9,8.6,17.9,9.1c14.5,1.1,27.1-9.8,28.2-24.1
				c0.6-7-1.6-13.8-6.2-19.1c-4.5-5.3-10.9-8.6-17.9-9.1C1308.9,130.1,1308.2,130.1,1307.4,130.1z"/>
		</g>
		<g>
			<path fill="#5B839A" d="M1142.9,143.1c-1.1,13.2-12.6,23-25.8,21.9c-13.2-1.1-23-12.6-21.9-25.8c1.1-13.2,12.6-23,25.7-21.9
				C1134.1,118.4,1143.9,129.9,1142.9,143.1z"/>
			<path fill="#FFFFFF" d="M1119,167.4c-0.7,0-1.4,0-2.1-0.1c-14.4-1.2-25.2-13.8-24.1-28.3c1.1-14.2,13.8-25.2,28.3-24
				c7,0.6,13.3,3.8,17.9,9.1c4.5,5.3,6.7,12.1,6.2,19.1C1144.1,156.8,1132.6,167.4,1119,167.4z M1119,119.6
				c-11.2,0-20.6,8.7-21.5,19.9c-1,11.9,7.9,22.3,19.8,23.3c11.8,0.9,22.3-8.1,23.2-19.8c0.5-5.7-1.3-11.3-5.1-15.7
				c-3.7-4.4-9-7.1-14.7-7.5C1120.2,119.6,1119.6,119.6,1119,119.6z"/>
		</g>
		<g>
			<path fill="#5B839A" d="M1056,90.9c-0.8,10.3-9.8,18-20.1,17.2c-10.3-0.8-18-9.8-17.1-20.1c0.8-10.3,9.8-18,20.1-17.2
				C1049.2,71.6,1056.9,80.6,1056,90.9z"/>
			<path fill="#FFFFFF" d="M1037.4,110.5c-0.6,0-1.1,0-1.7-0.1c-5.6-0.4-10.7-3-14.3-7.3c-3.6-4.3-5.4-9.7-5-15.3
				c0.9-11.4,11-20.2,22.6-19.3c11.6,0.9,20.2,11.1,19.3,22.6C1057.5,102,1048.3,110.5,1037.4,110.5z M1037.4,73.1
				c-8.5,0-15.6,6.6-16.3,15.1c-0.4,4.4,1,8.6,3.9,11.9c2.8,3.3,6.8,5.4,11.2,5.7c9.1,0.7,16.9-6.1,17.6-15c0.7-9-6-16.9-15-17.6
				C1038.2,73.1,1037.8,73.1,1037.4,73.1z"/>
		</g>
		<g>
			<path fill="#5B839A" d="M967.3,94.5c-0.9,10.7-10.2,18.7-20.9,17.8c-10.7-0.9-18.7-10.2-17.8-20.9c0.9-10.7,10.2-18.7,20.9-17.8
				C960.1,74.5,968.1,83.9,967.3,94.5z"/>
			<path fill="#FFFFFF" d="M947.9,114.7c-0.6,0-1.2,0-1.8-0.1c-12-1-20.9-11.5-19.9-23.4c0.9-11.8,11.4-21,23.4-19.9
				c11.9,1,20.9,11.5,19.9,23.4C968.7,105.9,959.2,114.7,947.9,114.7z M947.9,75.9c-8.8,0-16.3,6.9-17,15.7
				c-0.8,9.4,6.3,17.6,15.7,18.4c9.4,0.7,17.7-6.4,18.4-15.7c0.8-9.4-6.3-17.7-15.7-18.4C948.8,75.9,948.3,75.9,947.9,75.9z"/>
		</g>
		<g>
			<path fill="#FFFFFF" d="M852.6,170c-0.8,0-1.5,0-2.3-0.1c-15.8-1.3-27.7-15.2-26.4-31c1.3-15.6,15.1-27.6,31-26.4
				c15.8,1.3,27.6,15.2,26.4,31C880.1,158.4,867.5,170,852.6,170z M852.6,117.1c-12.5,0-23,9.7-24,22.2c-1.1,13.3,8.9,24.9,22.1,26
				c13.3,1,24.9-9,26-22.1c1.1-13.3-8.9-24.9-22.1-26C853.9,117.1,853.2,117.1,852.6,117.1z"/>
		</g>
	</g>
	<g>
		<g>
			<g>
				<path fill="#FFFFFF" d="M310.8,365.8c-47,0-95.9-22-134.2-60.3c-32.8-32.8-53.7-73.5-59-114.6c-5.3-41.4,5.9-78.2,31.5-103.8
					c0.9-0.9,2.4-0.9,3.3,0c0.9,0.9,0.9,2.4,0,3.3l0,0c0,0,0,0,0,0c-31.6,31.7-3.6,111.1,62.4,177c45.7,45.7,101,75.3,140.8,75.3
					c15.5,0,27.7-4.4,36.3-12.9l0,0c0.9-0.9,2.4-0.9,3.3,0c0.9,0.9,0.9,2.4,0,3.3l0,0C373.6,354.5,344.5,365.8,310.8,365.8z
					 M136.5,110.8c-13.1,22.2-18.2,49.6-14.3,79.5c5.1,40.1,25.6,79.9,57.7,111.9c37.4,37.4,85.1,58.9,130.9,58.9
					c22.6,0,43-5.3,60.3-15.4c-4.8,1.1-10,1.6-15.6,1.6c-41.6,0-96.8-29.4-144.1-76.6C156.3,215.7,127.5,151,136.5,110.8z"/>
			</g>
			<g>
				<path fill="#FFFFFF" d="M355.5,347.4C355.5,347.4,355.5,347.4,355.5,347.4c-41.6,0-96.8-29.4-144.1-76.6
					c-67.8-67.8-95.8-150.2-62.3-183.7c9.5-9.5,22.8-14.3,39.6-14.3c41.6,0,96.8,29.4,144.1,76.6c32.7,32.7,57.2,69.6,69.1,104
					c12.1,35,9.7,63.2-6.7,79.7C385.5,342.6,372.2,347.4,355.5,347.4z M188.6,77.4c-15.5,0-27.7,4.4-36.3,12.9
					c-31.6,31.6-3.7,111.1,62.3,177.1c45.7,45.7,101,75.3,140.8,75.3c0,0,0,0,0,0c15.5,0,27.7-4.4,36.3-12.9
					c15.1-15.1,17.1-41.7,5.6-74.9c-11.7-33.7-35.8-70-68-102.2C283.7,107,228.4,77.4,188.6,77.4z M266.9,288.9
					c-11.4,0-25.8-7.3-37.6-19.2c-18.2-18.2-24.5-40.5-14.3-50.7c3.2-3.2,7.7-4.8,13.1-4.8c11.4,0,25.8,7.3,37.6,19.2
					c8.5,8.5,14.7,18.3,17.6,27.6c3,9.8,1.8,18-3.2,23C276.8,287.2,272.2,288.9,266.9,288.9z M228,218.8c-4.2,0-7.5,1.2-9.8,3.5
					c-3.8,3.8-4.5,10.3-2.1,18.4c2.6,8.6,8.4,17.7,16.4,25.7c11,11,24.1,17.8,34.3,17.8c4.2,0,7.5-1.2,9.8-3.5
					c3.8-3.8,4.5-10.3,2.1-18.4c-2.6-8.6-8.4-17.7-16.4-25.7C251.3,225.7,238.2,218.8,228,218.8z"/>
			</g>
			<g>
				<path fill="#FFFFFF" d="M266.9,288.9L266.9,288.9c-11.4,0-25.8-7.3-37.6-19.2c-18.2-18.2-24.5-40.5-14.3-50.7
					c3.2-3.2,7.7-4.8,13.1-4.8c11.4,0,25.8,7.3,37.6,19.2c8.5,8.5,14.7,18.3,17.6,27.6c3,9.8,1.8,18-3.2,23
					C276.8,287.2,272.2,288.9,266.9,288.9z M228,218.8c-4.2,0-7.5,1.2-9.8,3.5c-8.1,8.1-1.5,28.3,14.3,44.1
					c11,11,24.1,17.8,34.3,17.8c4.2,0,7.5-1.2,9.8-3.5c3.8-3.8,4.5-10.3,2.1-18.4c-2.6-8.6-8.4-17.7-16.4-25.7
					C251.3,225.7,238.2,218.8,228,218.8z"/>
			</g>
			<g>
				<path fill="#FFFFFF" d="M215,224.6c-0.9,0-1.7-0.5-2.1-1.3L148.6,89.7c-0.6-1.2-0.1-2.6,1.1-3.1c1.2-0.6,2.5-0.1,3.1,1.1
					l64.3,133.5c0.6,1.2,0.1,2.6-1.1,3.1C215.7,224.5,215.3,224.6,215,224.6z"/>
			</g>
			<g>
				<path fill="#FFFFFF" d="M393.4,333.8c-0.3,0-0.6-0.1-0.9-0.2l-115.1-49c-1.2-0.5-1.7-1.9-1.2-3.1c0.5-1.2,1.9-1.7,3.1-1.2
					l115.1,49c1.2,0.5,1.7,1.9,1.2,3.1C395.2,333.2,394.3,333.8,393.4,333.8z"/>
			</g>
			<g>
				<path fill="#FFFFFF" d="M221.6,279.7c-0.6,0-1.2-0.2-1.6-0.7c-0.9-0.9-0.9-2.4,0-3.3l10.1-10.1c0.9-0.9,2.4-0.9,3.3,0
					c0.9,0.9,0.9,2.4,0,3.3L223.2,279C222.8,279.5,222.2,279.7,221.6,279.7z"/>
			</g>
			<g>
				<path fill="#FFFFFF" d="M263.9,237.3c-0.6,0-1.2-0.2-1.6-0.7c-0.9-0.9-0.9-2.4,0-3.3l75.4-75.4c0.9-0.9,2.4-0.9,3.3,0
					s0.9,2.4,0,3.3l-75.4,75.4C265.1,237.1,264.5,237.3,263.9,237.3z"/>
			</g>
			<g>
				<path fill="#FFFFFF" d="M239,221c-1.3,0-2.3-1-2.3-2.3V87c0-1.3,1-2.3,2.3-2.3c1.3,0,2.3,1,2.3,2.3v131.6
					C241.4,219.9,240.3,221,239,221z"/>
			</g>
			<g>
				<path fill="#FFFFFF" d="M278.9,258.6c-1.3,0-2.3-1-2.3-2.3c0-1.3,1-2.3,2.3-2.3l121.2,0c1.3,0,2.3,1,2.3,2.3
					c0,1.3-1,2.3-2.3,2.3L278.9,258.6z"/>
			</g>
			<g>
				<path fill="#FFFFFF" d="M215.3,247.6h-22.9c-1.3,0-2.3-1-2.3-2.3c0-1.3,1-2.3,2.3-2.3h22.9c1.3,0,2.3,1,2.3,2.3
					C217.6,246.5,216.6,247.6,215.3,247.6z"/>
			</g>
			<g>
				<path fill="#FFFFFF" d="M257.7,309.3c-1.3,0-2.3-1-2.3-2.3v-21.9c0-1.3,1-2.3,2.3-2.3c1.3,0,2.3,1,2.3,2.3V307
					C260,308.2,259,309.3,257.7,309.3z"/>
			</g>
		</g>
		<g>
			<path fill="#FFFFFF" d="M245.9,255.4c-0.6,0-1.2-0.2-1.6-0.7c-0.9-0.9-0.9-2.4,0-3.3L420.9,74.7c0.9-0.9,2.4-0.9,3.3,0
				c0.9,0.9,0.9,2.4,0,3.3L247.5,254.7C247.1,255.2,246.5,255.4,245.9,255.4z"/>
		</g>
		<g>
			<path fill="#FFFFFF" d="M150.7,91.1c-1.2,0-2.3-1-2.3-2.2c-0.1-1.3,0.9-2.4,2.2-2.4L422.5,74c1.3-0.1,2.4,0.9,2.4,2.2
				c0.1,1.3-0.9,2.4-2.2,2.4L150.8,91C150.8,91.1,150.7,91.1,150.7,91.1z"/>
		</g>
		<g>
			<path fill="#FFFFFF" d="M393.4,333.8c-0.1,0-0.2,0-0.3,0c-1.3-0.1-2.2-1.3-2-2.6l29.2-255.1c0.1-1.3,1.3-2.2,2.6-2.1
				c1.3,0.1,2.2,1.3,2,2.6l-29.2,255.1C395.6,332.9,394.6,333.8,393.4,333.8z"/>
		</g>
		<g>
			<path fill="#FFFFFF" d="M154.5,397.8c-1.3,0-2.3-1-2.3-2.3V345c0-20.6,23.5-42,24.5-42.9c1-0.9,2.4-0.8,3.3,0.2
				c0.9,1,0.8,2.4-0.2,3.3c-0.2,0.2-23,20.9-23,39.4v50.4C156.8,396.7,155.8,397.8,154.5,397.8z"/>
		</g>
		<g>
			<path fill="#FFFFFF" d="M154.5,423.3c-43.8,0-90.4-9.8-90.4-27.9c0-18.1,46.6-27.9,90.4-27.9c43.9,0,90.5,9.8,90.5,27.9
				C244.9,413.6,198.3,423.3,154.5,423.3z M154.5,372.2c-50.6,0-85.8,12.2-85.8,23.2c0,11,35.2,23.2,85.8,23.2
				c50.6,0,85.8-12.3,85.8-23.2C240.3,384.5,205,372.2,154.5,372.2z"/>
		</g>
	</g>
	<g>
		<g>
			<path fill="#5B839A" d="M903.7,324.5c-8.9,8.8-3.3,28.7,12.3,44.5c15.7,15.8,35.6,21.5,44.4,12.8c8.9-8.8,3.3-28.7-12.3-44.5
				C932.5,321.5,912.6,315.8,903.7,324.5z"/>
			<path fill="#FFFFFF" d="M949.1,388.3L949.1,388.3c-10.7,0-24-6.7-34.8-17.6c-16.8-17-22.2-38-12.3-47.8c3.2-3.1,7.6-4.8,13-4.8
				c10.7,0,24,6.7,34.8,17.6c7.9,7.9,13.5,17.1,15.9,25.9c2.6,9.3,1.3,17-3.6,21.9C958.9,386.6,954.4,388.3,949.1,388.3z M915,322.7
				c-4.1,0-7.4,1.2-9.7,3.4c-7.8,7.7-2.1,26.6,12.3,41.3c9.9,10,21.9,16.2,31.4,16.2c4.1,0,7.4-1.2,9.7-3.4
				c3.7-3.6,4.5-9.8,2.4-17.3c-2.2-8-7.5-16.5-14.8-23.9C936.6,328.9,924.5,322.7,915,322.7z"/>
		</g>
		<g>
			<path fill="#5B839A" d="M985.3,426.2h-12.9c-2.3,0-4.1,1.8-4.1,4.1c0,2.3,1.8,4.1,4.1,4.1h12.9c2.3,0,4.1-1.8,4.1-4.1
				C989.4,428.1,987.6,426.2,985.3,426.2z"/>
			<path fill="#FFFFFF" d="M985.3,436.7h-12.9c-3.5,0-6.4-2.9-6.4-6.4c0-3.5,2.9-6.4,6.4-6.4h12.9c3.5,0,6.4,2.9,6.4,6.4
				C991.7,433.9,988.9,436.7,985.3,436.7z M972.4,428.6c-1,0-1.8,0.8-1.8,1.8s0.8,1.8,1.8,1.8h12.9c1,0,1.8-0.8,1.8-1.8
				s-0.8-1.8-1.8-1.8H972.4z"/>
		</g>
		<g>
			<path fill="#5B839A" d="M1009.6,337.3c-15.7,15.8-21.2,35.8-12.3,44.5c8.9,8.8,28.8,3.1,44.4-12.8c15.7-15.8,21.2-35.8,12.3-44.5
				C1045.2,315.8,1025.3,321.5,1009.6,337.3z"/>
			<path fill="#FFFFFF" d="M1008.6,388.3C1008.6,388.3,1008.6,388.3,1008.6,388.3c-5.3,0-9.8-1.7-13-4.8c-4.9-4.9-6.2-12.6-3.6-21.9
				c2.4-8.8,8.1-18,15.9-25.9c10.7-10.8,24-17.6,34.8-17.6c5.3,0,9.8,1.7,13,4.8c9.9,9.8,4.5,30.8-12.3,47.8
				C1032.7,381.6,1019.3,388.3,1008.6,388.3z M1042.7,322.7c-9.5,0-21.6,6.2-31.5,16.2c-7.3,7.4-12.5,15.9-14.8,23.9
				c-2.1,7.6-1.2,13.7,2.4,17.3c2.3,2.3,5.6,3.4,9.7,3.4c9.5,0,21.6-6.2,31.4-16.2c14.5-14.6,20.1-33.5,12.3-41.3
				C1050.1,323.9,1046.8,322.7,1042.7,322.7z"/>
		</g>
		<g>
			<path fill="#5B839A" d="M1070.1,298.9c0-115.2-91.1-117-91.2-117h0c-0.1,0-91.2,1.8-91.2,117c0,0-1.7,103.2,91.2,160c0,0,0,0,0,0
				C1071.8,402.1,1070.1,298.9,1070.1,298.9z M960.4,381.8c-8.9,8.8-28.8,3.1-44.4-12.8c-15.7-15.8-21.2-35.8-12.3-44.5
				c8.9-8.8,28.8-3.1,44.4,12.8C963.8,353.1,969.3,373.1,960.4,381.8z M985.3,434.4h-12.9c-2.3,0-4.1-1.8-4.1-4.1
				c0-2.3,1.8-4.1,4.1-4.1h12.9c2.3,0,4.1,1.8,4.1,4.1C989.4,432.6,987.6,434.4,985.3,434.4z M1041.7,369.1
				c-15.7,15.8-35.6,21.5-44.4,12.8c-8.9-8.8-3.3-28.7,12.3-44.5c15.7-15.8,35.6-21.5,44.4-12.8
				C1062.9,333.3,1057.4,353.2,1041.7,369.1z"/>
			<path fill="#FFFFFF" d="M978.9,461.3c-0.4,0-0.8-0.1-1.2-0.3c-93-56.8-92.3-161-92.3-162c0-115.7,89.6-119.2,93.5-119.3
				c3.9,0.1,93.6,3.6,93.6,119.3c0,1,0.7,105.2-92.3,162C979.7,461.1,979.3,461.3,978.9,461.3z M978.8,184.2
				c-3.5,0.1-88.8,3.4-88.8,114.7c0,1-0.6,101.7,88.9,157.3c89.4-55.6,88.9-156.2,88.9-157.3C1067.7,187.7,982.5,184.3,978.8,184.2z
				 M985.3,436.7h-12.9c-3.5,0-6.4-2.9-6.4-6.4c0-3.5,2.9-6.4,6.4-6.4h12.9c3.5,0,6.4,2.9,6.4,6.4
				C991.7,433.9,988.9,436.7,985.3,436.7z M972.4,428.6c-1,0-1.8,0.8-1.8,1.8s0.8,1.8,1.8,1.8h12.9c1,0,1.8-0.8,1.8-1.8
				s-0.8-1.8-1.8-1.8H972.4z M1008.6,388.3c-5.3,0-9.8-1.7-13-4.8c-4.9-4.9-6.2-12.6-3.6-21.9c2.4-8.8,8.1-18,15.9-25.9
				c10.7-10.8,24-17.6,34.8-17.6c5.3,0,9.8,1.7,13,4.8c9.9,9.8,4.5,30.8-12.3,47.8C1032.7,381.6,1019.3,388.3,1008.6,388.3z
				 M1042.7,322.7c-9.5,0-21.6,6.2-31.5,16.2c-7.3,7.4-12.5,15.9-14.8,23.9c-2.1,7.6-1.2,13.7,2.4,17.3c2.3,2.3,5.6,3.4,9.7,3.4
				c9.5,0,21.6-6.2,31.4-16.2c14.5-14.6,20.1-33.5,12.3-41.3C1050.1,323.9,1046.8,322.7,1042.7,322.7z M949.1,388.3
				c-10.7,0-24-6.7-34.8-17.6c-16.8-17-22.2-38-12.3-47.8c3.2-3.1,7.6-4.8,13-4.8c10.7,0,24,6.7,34.8,17.6
				c7.9,7.9,13.5,17.1,15.9,25.9c2.6,9.3,1.3,17-3.6,21.9C958.9,386.6,954.4,388.3,949.1,388.3z M915,322.7c-4.1,0-7.4,1.2-9.7,3.4
				c-7.8,7.7-2.1,26.6,12.3,41.3c9.9,10,21.9,16.2,31.4,16.2c4.1,0,7.4-1.2,9.7-3.4c3.7-3.6,4.5-9.8,2.4-17.3
				c-2.2-8-7.5-16.5-14.8-23.9C936.6,328.9,924.5,322.7,915,322.7z"/>
		</g>
	</g>
	<g>
		<g>
			<path fill="#5B839A" d="M738.1,62.9c-6.3,1.6-10.4,7.5-9.8,13.9c-0.1,0-0.1,0-0.2,0l-93.7,23.5c-8.4,2.1-13.6,10.7-11.5,19.1
				l-81.2,20.3c-1.8-6.2-8.1-9.9-14.4-8.3l-0.8,0.2c-6.4,1.6-10.3,8.1-8.7,14.6l9.7,38.8c1.6,6.4,8.1,10.3,14.6,8.7l0.8-0.2
				c6.3-1.6,10.1-7.8,8.8-14.1l70.3-17.6c2.4-3.6,6.2-6.4,10.8-7.5c9.8-2.5,19.8,3.5,22.3,13.4c0.2,0.7,0.3,1.4,0.4,2.1l90.2-22.6
				c0.1,0,0.1-0.1,0.2-0.1c2.5,5.8,8.9,9.2,15.2,7.6c7-1.8,11.3-8.9,9.5-15.9L754,72.4C752.3,65.4,745.1,61.1,738.1,62.9z
				 M719.9,100.4l-59.6,14.9l-2.2-8.7l59.6-14.9L719.9,100.4z"/>
			<path fill="#FFFFFF" d="M539.2,196.3c-6.6,0-12.3-4.5-13.9-10.9l-9.7-38.8c-1.9-7.7,2.8-15.5,10.4-17.4l0.8-0.2
				c1.1-0.3,2.3-0.4,3.5-0.4c5.5,0,10.6,3.3,12.9,8.2l77.1-19.3c-1-8.9,4.7-17.4,13.6-19.6l92.1-23.1c0.3-6.8,4.9-12.6,11.6-14.3
				c1.2-0.3,2.5-0.5,3.8-0.5c7.1,0,13.3,4.8,15,11.7l16.6,66.2c2.1,8.3-3,16.7-11.2,18.7c-1.2,0.3-2.5,0.5-3.7,0.5l0,0
				c-5.5,0-10.5-2.9-13.3-7.6L656,171.9c-0.6,0.1-1.3,0-1.9-0.3c-0.5-0.4-0.9-1-1-1.6c-0.1-0.6-0.2-1.2-0.3-1.8
				c-1.8-7.1-8.2-12.1-15.5-12.1c-1.3,0-2.6,0.2-3.9,0.5c-3.8,1-7.2,3.3-9.4,6.6c-0.3,0.5-0.8,0.8-1.4,1l-68.3,17.1
				c0.4,6.7-4.1,12.9-10.8,14.6l-0.8,0.2C541.5,196.2,540.4,196.3,539.2,196.3z M530.3,133.3c-0.8,0-1.6,0.1-2.3,0.3l-0.8,0.2
				c-5.2,1.3-8.3,6.6-7,11.7l9.7,38.8c1.3,5.1,6.6,8.3,11.7,7l0.8-0.2c5.1-1.3,8.2-6.3,7.1-11.4c-0.3-1.2,0.5-2.4,1.7-2.7l69.5-17.4
				c2.9-3.9,6.9-6.6,11.6-7.8c1.7-0.4,3.3-0.6,5-0.6c9.4,0,17.6,6.3,20,15.4l87.9-22c1.1-0.3,2.4,0.2,2.9,1.3c1.7,4,5.6,6.6,9.9,6.6
				l0,0c0.9,0,1.7-0.1,2.6-0.3c5.8-1.4,9.3-7.3,7.9-13.1L751.8,73c-1.4-5.7-7.4-9.3-13.1-7.9c-5.1,1.3-8.5,6.1-8.1,11.4
				c0.1,1.2-0.7,2.2-1.8,2.5l-93.8,23.5c-7.2,1.8-11.6,9.1-9.8,16.3c0.3,1.2-0.4,2.5-1.7,2.8l-81.2,20.3c-1.2,0.3-2.4-0.4-2.8-1.6
				C538.3,136.2,534.5,133.3,530.3,133.3z M660.4,117.7c-1,0-2-0.7-2.3-1.8l-2.2-8.7c-0.1-0.6-0.1-1.2,0.3-1.8
				c0.3-0.5,0.8-0.9,1.4-1.1l59.6-14.9c1.2-0.3,2.5,0.4,2.8,1.7l2.2,8.7c0.2,0.6,0.1,1.2-0.3,1.8c-0.3,0.5-0.8,0.9-1.4,1.1
				l-59.6,14.9C660.7,117.6,660.5,117.7,660.4,117.7z M661,108.4l1,4.1l55.1-13.8l-1-4.1L661,108.4z"/>
		</g>
		<g>
			<path fill="#5B839A" d="M649.6,172.2c0,6.7-5.5,12.2-12.2,12.2c-6.7,0-12.2-5.5-12.2-12.2c0-6.7,5.5-12.2,12.2-12.2
				C644.2,160,649.6,165.5,649.6,172.2z"/>
			<path fill="#FFFFFF" d="M637.4,186.7c-8,0-14.5-6.5-14.5-14.5c0-8,6.5-14.5,14.5-14.5c8,0,14.5,6.5,14.5,14.5
				C652,180.2,645.4,186.7,637.4,186.7z M637.4,162.3c-5.4,0-9.9,4.4-9.9,9.9c0,5.4,4.4,9.9,9.9,9.9c5.4,0,9.9-4.4,9.9-9.9
				C647.3,166.8,642.9,162.3,637.4,162.3z"/>
		</g>
		<g>
			<path fill="#5B839A" d="M679.6,261.1L645.8,190c-2.5,1.2-5.4,1.9-8.4,1.9c-3,0-5.8-0.7-8.4-1.9l-33.8,71.1
				c-1.9,3.9-0.2,8.6,3.7,10.5c3.9,1.9,8.6,0.2,10.5-3.7l27.9-58.8l27.9,58.8c1.9,3.9,6.6,5.6,10.5,3.7
				C679.8,269.7,681.4,265,679.6,261.1z"/>
			<path fill="#FFFFFF" d="M672.5,274.6c-3.9,0-7.5-2.3-9.2-5.8l-25.8-54.4l-25.8,54.4c-2.3,4.9-8.7,7.2-13.6,4.8
				c-5.1-2.4-7.2-8.5-4.8-13.6l33.8-71.1c0.6-1.2,1.9-1.6,3.1-1.1c4.7,2.2,10.1,2.2,14.8,0c1.2-0.5,2.5,0,3.1,1.1l33.8,71.1
				c2.4,5.1,0.2,11.2-4.8,13.6C675.5,274.3,674,274.6,672.5,274.6z M637.4,206.7L637.4,206.7c0.9,0,1.7,0.5,2.1,1.3l27.9,58.8
				c1.3,2.7,4.7,3.9,7.4,2.6c2.8-1.3,3.9-4.6,2.6-7.4L644.7,193c-4.7,1.6-9.8,1.6-14.5,0l-32.8,69.1c-1.3,2.8-0.1,6.1,2.6,7.4
				c2.7,1.3,6.1,0,7.4-2.6l27.9-58.8C635.7,207.2,636.5,206.7,637.4,206.7z"/>
		</g>
	</g>
	<g>
		<g>
			<path fill="#FFFFFF" d="M1064.7,918.2c-68,0-133.1-25.3-183.4-71.1c-0.7-0.6-1-1.7-0.6-2.6c0.3-0.9,1.2-1.5,2.2-1.5h363.6
				c1,0,1.8,0.6,2.2,1.5s0.1,1.9-0.6,2.6C1197.8,893,1132.7,918.2,1064.7,918.2z M889,847.7c48.8,42.5,110.9,65.8,175.7,65.8h0
				c64.8,0,127-23.3,175.7-65.8H889z"/>
		</g>
		<g>
			<path fill="#FFFFFF" d="M1239.4,803.6H890c-1,0-1.8-0.6-2.2-1.5c-0.3-0.9-0.1-1.9,0.7-2.6c25.5-21.6,54.3-38.2,85.7-49.3
				c0.2-0.1,0.5-0.1,0.8-0.1h179.4c0.3,0,0.5,0,0.8,0.1c31.4,11.1,60.2,27.6,85.7,49.3c0.7,0.6,1,1.7,0.7,2.6
				C1241.2,803,1240.4,803.6,1239.4,803.6z M896.5,799h336.4c-23.7-19.2-50.2-34-78.9-44.2H975.4C946.7,765,920.2,779.8,896.5,799z"
				/>
		</g>
		<g>
			<path fill="#FFFFFF" d="M1153.3,754.8H976.1c-1.3,0-2.3-1-2.3-2.3v-21.3c0-48.2,39.2-87.4,87.4-87.4h7.1
				c48.2,0,87.4,39.2,87.4,87.4v21.3C1155.6,753.8,1154.6,754.8,1153.3,754.8z M978.4,750.1H1151v-18.9c0-45.6-37.1-82.7-82.7-82.7
				h-7.1c-45.6,0-82.7,37.1-82.7,82.7V750.1z M1020.4,710.8c-9.9,0-18-8.1-18-18s8.1-18,18-18c9.9,0,18,8.1,18,18
				S1030.3,710.8,1020.4,710.8z M1020.4,679.5c-7.3,0-13.3,6-13.3,13.3c0,7.3,6,13.3,13.3,13.3c7.3,0,13.3-6,13.3-13.3
				C1033.7,685.5,1027.7,679.5,1020.4,679.5z"/>
		</g>
		<g>
			<path fill="#FFFFFF" d="M1020.4,710.8c-9.9,0-18-8.1-18-18s8.1-18,18-18c9.9,0,18,8.1,18,18S1030.3,710.8,1020.4,710.8z
				 M1020.4,679.5c-7.3,0-13.3,6-13.3,13.3c0,7.3,6,13.3,13.3,13.3c7.3,0,13.3-6,13.3-13.3C1033.7,685.5,1027.7,679.5,1020.4,679.5z
				"/>
		</g>
		<g>
			<path fill="#FFFFFF" d="M1264.2,847.7H865.2c-13.4,0-24.4-10.9-24.4-24.4c0-13.4,10.9-24.4,24.4-24.4h398.9
				c13.4,0,24.4,10.9,24.4,24.4C1288.6,836.8,1277.6,847.7,1264.2,847.7z M865.2,803.6c-10.9,0-19.7,8.8-19.7,19.7
				c0,10.9,8.8,19.7,19.7,19.7h398.9c10.9,0,19.7-8.8,19.7-19.7c0-10.9-8.8-19.7-19.7-19.7H865.2z M1251.6,838.3
				c-5.3,0-10.2-2.9-12.9-7.5c-1.3-2.3-2-4.9-2-7.5c0-7.5,5.6-13.9,13.1-14.8c0.6-0.1,1.2-0.1,1.8-0.1c8.2,0,14.9,6.7,14.9,14.9
				c0,5.1-2.6,9.8-6.9,12.6C1257.2,837.5,1254.4,838.3,1251.6,838.3z M1251.6,813.1c-0.4,0-0.8,0-1.2,0.1c-5.1,0.6-9,5-9,10.2
				c0,1.8,0.5,3.6,1.4,5.1c2.8,4.9,9.6,6.6,14.4,3.5c3-1.9,4.8-5.1,4.8-8.7C1261.8,817.7,1257.2,813.1,1251.6,813.1z M1177.1,838.3
				c-5.3,0-10.3-2.9-12.9-7.5c-1.3-2.3-2-4.9-2-7.5c0-8.2,6.7-14.9,14.9-14.9c8.2,0,14.9,6.7,14.9,14.9c0,2.6-0.7,5.2-2,7.5
				C1187.4,835.4,1182.4,838.3,1177.1,838.3z M1177.1,813.1c-5.7,0-10.3,4.6-10.3,10.3c0,1.8,0.5,3.6,1.4,5.1
				c1.8,3.2,5.2,5.1,8.9,5.1c3.6,0,7.1-2,8.9-5.1c0.9-1.6,1.4-3.3,1.4-5.1C1187.4,817.7,1182.8,813.1,1177.1,813.1z M1102.7,838.3
				c-5.3,0-10.2-2.9-12.9-7.5c-1.3-2.3-2-4.9-2-7.5c0-8.2,6.7-14.9,14.9-14.9c8.2,0,14.9,6.7,14.9,14.9c0,2.6-0.7,5.2-2,7.5
				C1113,835.4,1108,838.3,1102.7,838.3z M1102.7,813.1c-5.7,0-10.3,4.6-10.3,10.3c0,1.8,0.5,3.6,1.4,5.1c1.8,3.2,5.2,5.1,8.9,5.1
				c3.6,0,7-2,8.9-5.1c0.9-1.6,1.4-3.3,1.4-5.1C1113,817.7,1108.4,813.1,1102.7,813.1z M1028.3,838.3c-5.3,0-10.3-2.9-12.9-7.5
				c-1.3-2.3-2-4.9-2-7.5c0-8.2,6.7-14.9,14.9-14.9c8.2,0,14.9,6.7,14.9,14.9c0,2.6-0.7,5.2-2,7.5
				C1038.5,835.4,1033.6,838.3,1028.3,838.3z M1028.3,813.1c-5.7,0-10.3,4.6-10.3,10.3c0,1.8,0.5,3.6,1.4,5.1
				c1.8,3.2,5.2,5.1,8.9,5.1c3.6,0,7.1-2,8.9-5.1c0.9-1.6,1.4-3.4,1.4-5.1C1038.6,817.7,1033.9,813.1,1028.3,813.1z M953.8,838.3
				c-5.3,0-10.2-2.9-12.9-7.5c-1.3-2.3-2-4.9-2-7.5c0-8.2,6.7-14.9,14.9-14.9c8.2,0,14.9,6.7,14.9,14.9c0,2.6-0.7,5.2-2,7.5
				C964.1,835.4,959.1,838.3,953.8,838.3z M953.8,813.1c-5.7,0-10.3,4.6-10.3,10.3c0,1.8,0.5,3.6,1.4,5.1c1.8,3.2,5.2,5.1,8.9,5.1
				c3.6,0,7-2,8.9-5.1c0.9-1.6,1.4-3.3,1.4-5.1C964.1,817.7,959.5,813.1,953.8,813.1z M879.6,838.3c-5.3,0-10.2-2.9-12.9-7.5
				c-1.3-2.3-2-4.9-2-7.5c0-8.2,6.6-14.8,14.8-14.9c0.1,0,0.1,0,0.2,0c8.2,0,14.9,6.7,14.9,14.9c0,2.6-0.7,5.2-2,7.5
				C889.8,835.4,884.9,838.3,879.6,838.3z M879.6,813.1c0,0-0.1,0-0.1,0c-5.6,0-10.2,4.6-10.2,10.3c0,1.8,0.5,3.6,1.4,5.1
				c1.8,3.2,5.2,5.1,8.9,5.1c3.6,0,7.1-2,8.9-5.1c0.9-1.6,1.4-3.4,1.4-5.1C889.8,817.7,885.3,813.1,879.6,813.1z"/>
		</g>
		<g>
			<path fill="#FFFFFF" d="M953.8,838.3c-5.3,0-10.2-2.9-12.9-7.5c-1.3-2.3-2-4.9-2-7.5c0-8.2,6.7-14.9,14.9-14.9
				c8.2,0,14.9,6.7,14.9,14.9c0,2.6-0.7,5.2-2,7.5C964.1,835.4,959.1,838.3,953.8,838.3z M953.8,813.1c-5.7,0-10.3,4.6-10.3,10.3
				c0,1.8,0.5,3.6,1.4,5.1c1.8,3.2,5.2,5.1,8.9,5.1c3.6,0,7-2,8.9-5.1c0.9-1.6,1.4-3.3,1.4-5.1C964.1,817.7,959.5,813.1,953.8,813.1
				z"/>
		</g>
		<g>
			<path fill="#FFFFFF" d="M1028.3,838.3c-5.3,0-10.3-2.9-12.9-7.5c-1.3-2.3-2-4.9-2-7.5c0-8.2,6.7-14.9,14.9-14.9
				c8.2,0,14.9,6.7,14.9,14.9c0,2.6-0.7,5.2-2,7.5C1038.5,835.4,1033.6,838.3,1028.3,838.3z M1028.3,813.1
				c-5.7,0-10.3,4.6-10.3,10.3c0,1.8,0.5,3.6,1.4,5.1c1.8,3.2,5.2,5.1,8.9,5.1c3.6,0,7.1-2,8.9-5.1c0.9-1.6,1.4-3.4,1.4-5.1
				C1038.6,817.7,1033.9,813.1,1028.3,813.1z"/>
		</g>
		<g>
			<path fill="#FFFFFF" d="M1102.7,838.3c-5.3,0-10.2-2.9-12.9-7.5c-1.3-2.3-2-4.9-2-7.5c0-8.2,6.7-14.9,14.9-14.9
				c8.2,0,14.9,6.7,14.9,14.9c0,2.6-0.7,5.2-2,7.5C1113,835.4,1108,838.3,1102.7,838.3z M1102.7,813.1c-5.7,0-10.3,4.6-10.3,10.3
				c0,1.8,0.5,3.6,1.4,5.1c1.8,3.2,5.2,5.1,8.9,5.1c3.6,0,7-2,8.9-5.1c0.9-1.6,1.4-3.3,1.4-5.1
				C1113,817.7,1108.4,813.1,1102.7,813.1z"/>
		</g>
		<g>
			<path fill="#FFFFFF" d="M1177.1,838.3c-5.3,0-10.3-2.9-12.9-7.5c-1.3-2.3-2-4.9-2-7.5c0-8.2,6.7-14.9,14.9-14.9
				c8.2,0,14.9,6.7,14.9,14.9c0,2.6-0.7,5.2-2,7.5C1187.4,835.4,1182.4,838.3,1177.1,838.3z M1177.1,813.1
				c-5.7,0-10.3,4.6-10.3,10.3c0,1.8,0.5,3.6,1.4,5.1c1.8,3.2,5.2,5.1,8.9,5.1c3.6,0,7.1-2,8.9-5.1c0.9-1.6,1.4-3.3,1.4-5.1
				C1187.4,817.7,1182.8,813.1,1177.1,813.1z"/>
		</g>
		<g>
			<path fill="#FFFFFF" d="M1251.6,838.3c-5.3,0-10.2-2.9-12.9-7.5c-1.3-2.3-2-4.9-2-7.5c0-7.5,5.6-13.9,13.1-14.8
				c0.6-0.1,1.2-0.1,1.8-0.1c8.2,0,14.9,6.7,14.9,14.9c0,5.1-2.6,9.8-6.9,12.6C1257.2,837.5,1254.4,838.3,1251.6,838.3z
				 M1251.6,813.1c-0.4,0-0.8,0-1.2,0.1c-5.1,0.6-9,5-9,10.2c0,1.8,0.5,3.6,1.4,5.1c2.8,4.9,9.6,6.6,14.4,3.5c3-1.9,4.8-5.1,4.8-8.7
				C1261.8,817.7,1257.2,813.1,1251.6,813.1z"/>
		</g>
		<g>
			<path fill="#FFFFFF" d="M879.6,838.3c-5.3,0-10.2-2.9-12.9-7.5c-1.3-2.3-2-4.9-2-7.5c0-8.2,6.6-14.8,14.8-14.9c0.1,0,0.1,0,0.2,0
				c8.2,0,14.9,6.7,14.9,14.9c0,2.6-0.7,5.2-2,7.5C889.8,835.4,884.9,838.3,879.6,838.3z M879.6,813.1c-5.7,0-10.3,4.6-10.3,10.3
				c0,1.8,0.5,3.6,1.4,5.1c1.8,3.2,5.2,5.1,8.9,5.1c3.6,0,7.1-2,8.9-5.1c0.9-1.6,1.4-3.4,1.4-5.1
				C889.8,817.7,885.2,813.1,879.6,813.1z"/>
		</g>
	</g>
	<g>
		<g>
			<path fill="#FFFFFF" d="M1144.8,609.6L1144.8,609.6c-3.3,0-6.6-0.1-9.9-0.4c-0.4,0-0.8-0.2-1.1-0.4
				c-19.4-12.5-34.7-30.2-44.2-51.3c-27.5-60.5-0.6-132,59.8-159.4c15.8-7.2,32.5-10.8,49.7-10.8c12.9,0,25.7,2.1,38,6.1
				c0.4,0.1,0.7,0.3,1,0.6c7.2,7.7,13.5,16.2,18.6,25.4c0.3,0.6,0.4,1.4,0.1,2c-0.3,0.7-0.8,1.1-1.5,1.4c-0.7,0.2-1.4,0.4-2.1,0.7
				c-7.5,3.4-10.9,12.3-7.4,19.8c2.4,5.3,7.8,8.8,13.7,8.8c2.1,0,4.2-0.5,6.2-1.3c0.6-0.3,1.6-0.4,2.2-0.1c0.6,0.3,1.3,0.8,1.5,1.4
				c5.9,24.8,4.2,50.6-4.8,74.6c-0.3,0.7-0.9,1.3-1.7,1.5c-0.8,0.2-1.6-0.1-2.1-0.6c-4.3-4.2-11.1-5.4-16.6-2.9
				c-3.6,1.7-6.4,4.6-7.8,8.4c-1.4,3.7-1.3,7.8,0.4,11.5c2,4.3,5.8,7.4,10.5,8.4c0.8,0.2,1.4,0.7,1.7,1.4c0.3,0.7,0.2,1.6-0.3,2.2
				c-7,9.7-15.4,18.4-24.8,25.7c-0.7,0.6-1.7,0.6-2.6,0.2c-0.8-0.5-1.3-1.3-1.2-2.3c0.5-4.7-0.3-9.5-2.3-13.9
				c-4.4-9.7-14.2-16-24.9-16c-3.9,0-7.7,0.8-11.3,2.5c-6.6,3-11.7,8.4-14.3,15.3c-2.6,6.8-2.3,14.2,0.7,20.9c2.3,5,5.9,9.1,10.6,12
				c0.8,0.5,1.2,1.4,1.1,2.3c-0.1,0.9-0.8,1.7-1.7,1.9C1167,608.1,1155.9,609.6,1144.8,609.6z M1135.8,604.6c12,0.9,24.2,0,35.9-2.7
				c-3.5-3-6.3-6.7-8.2-11c-3.5-7.8-3.8-16.5-0.8-24.4c3-8,8.9-14.3,16.7-17.9c4.2-1.9,8.6-2.9,13.2-2.9c12.5,0,23.9,7.4,29.1,18.7
				c1.6,3.5,2.5,7.3,2.8,11.1c6.7-5.7,12.8-12.1,18.1-19.1c-4.6-1.9-8.3-5.4-10.4-10c-2.2-4.8-2.4-10.1-0.5-15
				c1.8-4.9,5.5-8.8,10.3-11c6.2-2.8,13.6-2.1,19.1,1.6c7.4-21.4,8.9-44.1,4.2-66.2c-1.9,0.6-3.9,0.9-6,0.9
				c-7.7,0-14.7-4.5-17.9-11.5c-4.5-9.8-0.1-21.5,9.7-26c-4.6-7.8-10-15.1-16.1-21.7c-11.6-3.8-23.7-5.7-35.9-5.7
				c-16.5,0-32.6,3.5-47.8,10.4c-58.1,26.4-83.9,95.2-57.5,153.3C1102.9,575.7,1117.5,592.6,1135.8,604.6z M1102.8,548.7
				c-1.8,0-3.7-0.4-5.4-1.2c-2.8-1.3-5.1-3.6-6.3-6.3c-1.4-3.1-1.5-6.6-0.3-9.8c1.2-3.2,3.6-5.7,6.7-7.1c3.4-1.6,7.5-1.5,10.8,0.1
				c2.7,1.3,4.9,3.5,6.1,6.2c2.9,6.4,0.1,14-6.4,17C1106.4,548.3,1104.7,548.7,1102.8,548.7z M1102.8,527.7c-1.2,0-2.3,0.2-3.4,0.7
				c-2,0.9-3.5,2.5-4.3,4.6c-0.8,2-0.7,4.2,0.2,6.2c0.8,1.8,2.2,3.2,4,4c2.1,1,4.6,1,6.8,0c4.1-1.9,5.9-6.7,4-10.8
				c-0.8-1.7-2.2-3.1-3.9-4C1105.2,528,1104,527.7,1102.8,527.7z M1164.7,540.8l-0.9,0c-9.5-0.3-17.8-5.8-21.7-14.4
				c-5.6-12.4-0.1-27.1,12.3-32.7c5.3-2.4,11.2-2.9,16.8-1.3c7.1,1.9,12.9,6.9,15.9,13.6c2.7,6,3,12.7,0.6,18.9s-6.9,11.1-12.9,13.8
				C1171.7,540.1,1168.3,540.8,1164.7,540.8z M1164.6,496.1c-2.9,0-5.6,0.6-8.3,1.8c-10.1,4.6-14.5,16.5-10,26.5
				c3.2,7,9.9,11.5,17.6,11.7l0.7,0c2.9,0,5.6-0.6,8.2-1.8c4.9-2.2,8.6-6.2,10.5-11.2c1.9-5,1.7-10.5-0.5-15.3
				c-2.5-5.4-7.2-9.4-12.9-11C1168.2,496.3,1166.4,496.1,1164.6,496.1z M1236.8,508.1c-0.4,0-0.9,0-1.3,0c-9.3-0.5-17.4-6-21.2-14.4
				c-5.6-12.4-0.1-27.1,12.3-32.7c5.4-2.4,11.4-2.9,17.1-1.2c6.9,2,12.6,6.9,15.6,13.5c2.7,6,3,12.7,0.6,18.9
				c-2.3,6.2-6.9,11.1-12.9,13.8C1243.7,507.3,1240.3,508.1,1236.8,508.1z M1236.7,463.3c-2.9,0-5.6,0.6-8.2,1.8
				c-10.1,4.6-14.5,16.5-10,26.5c3.1,6.8,9.7,11.3,17.2,11.7c3.3,0.2,6.4-0.4,9.3-1.8c10.1-4.6,14.5-16.5,10-26.5
				c-2.4-5.3-7-9.3-12.7-10.9C1240.5,463.6,1238.6,463.3,1236.7,463.3z M1119,485.2c-0.7,0-1.5,0-2.2-0.1
				c-6.4-0.8-11.8-4.7-14.4-10.5c-4.2-9.1-0.1-19.9,9-24.1c5.4-2.4,11.7-2.1,16.7,0.9c3.3,1.9,5.8,4.7,7.4,8.2
				c2,4.4,2.2,9.4,0.5,13.9c-1.7,4.5-5.1,8.2-9.5,10.2C1124.2,484.7,1121.6,485.2,1119,485.2z M1119,453.5c-1.9,0-3.8,0.4-5.6,1.2
				c-6.8,3.1-9.8,11.1-6.7,17.9c2,4.3,6,7.3,10.8,7.8c2.4,0.3,4.9-0.1,7.2-1.1c3.3-1.5,5.8-4.2,7.1-7.6c1.3-3.4,1.1-7.1-0.3-10.3
				c-1.2-2.6-3.1-4.7-5.5-6.1C1123.7,454.1,1121.4,453.5,1119,453.5z M1184.7,453.1c-1.4,0-2.7-0.2-4.1-0.5
				c-5.2-1.3-9.4-4.7-11.6-9.5c-1.9-4.2-2-8.8-0.4-13.1c1.6-4.3,4.8-7.7,8.9-9.6c4.7-2.2,10.3-2,15,0.4c3.4,1.8,6.1,4.6,7.7,8.1
				c3.9,8.6,0.1,18.7-8.5,22.6C1189.5,452.6,1187.1,453.1,1184.7,453.1z M1184.6,423.6c-1.8,0-3.5,0.4-5.1,1.1c-3,1.4-5.3,3.8-6.5,7
				c-1.2,3.1-1.1,6.5,0.3,9.5c1.6,3.5,4.7,6,8.4,6.9c2.7,0.7,5.5,0.4,8.1-0.7c6.2-2.8,9-10.2,6.2-16.5c-1.2-2.5-3.1-4.6-5.6-5.9
				C1188.6,424,1186.6,423.6,1184.6,423.6z"/>
		</g>
		<g>
			<path fill="#FFFFFF" d="M1199.3,628.2C1199.3,628.2,1199.3,628.2,1199.3,628.2c-8.8,0-17.6-1-26.2-2.9c-4.3-1-8.7-2.2-13.1-3.7
				c-9.1-3.2-17.9-7.4-26.1-12.7c-0.9-0.6-1.3-1.7-0.9-2.7c0.3-1,1.3-1.6,2.4-1.6c13.9,1.1,27.9-0.2,41.3-3.8
				c0.6-0.2,1.3-0.1,1.8,0.3c7.7,4.7,17.4,5.3,25.6,1.6c8.9-4,14.9-12.6,15.9-22.3c0.1-0.6,0.4-1.2,0.9-1.6
				c9.1-7.1,17.1-15.4,23.9-24.8c0.5-0.8,1.5-1.1,2.4-0.9c3.2,0.7,6.4,0.3,9.4-1c7.5-3.4,10.9-12.3,7.4-19.8
				c-0.8-1.7-1.8-3.2-3.2-4.5c-0.7-0.6-0.9-1.6-0.6-2.5c8.7-23.1,10.3-48,4.7-71.9c-0.3-1.1,0.3-2.1,1.2-2.6
				c7.3-3.6,10.4-12.2,7-19.6c-3-6.6-10.8-10.2-17.8-8.2c-1,0.3-2.2-0.2-2.7-1.1c-4.9-8.9-10.9-17.1-17.9-24.5
				c-0.7-0.8-0.8-1.9-0.3-2.8c0.6-0.9,1.7-1.3,2.7-1c31.8,10.5,57.9,34,71.8,64.5c27.5,60.4,0.6,132-59.8,159.4
				C1233.2,624.5,1216.5,628.2,1199.3,628.2z M1144.2,609.6c5.5,3,11.3,5.5,17.2,7.6c4.3,1.5,8.6,2.7,12.6,3.6
				c8.3,1.8,16.8,2.8,25.2,2.8c16.5,0,32.6-3.5,47.8-10.4c58.1-26.4,83.9-95.2,57.5-153.3c-12-26.5-33.8-47.5-60.5-58.8
				c4.3,5.3,8.2,11,11.6,16.9c8.8-1.6,17.9,3.1,21.5,11.1c4.2,9.1,0.8,19.7-7.6,24.8c5.3,23.8,3.7,48.5-4.7,71.5
				c1.3,1.5,2.3,3.1,3.1,4.8c4.5,9.9,0.1,21.5-9.7,26c-3.4,1.5-7.1,2.1-10.8,1.6c-6.6,9-14.4,17-23.2,24
				c-1.4,10.9-8.4,20.5-18.5,25.1c-9.3,4.2-20.3,3.7-29.1-1.3C1166.2,608.3,1155.2,609.6,1144.2,609.6z M1292.4,518.3
				c-2.8,0-5.5-0.8-7.9-2.2c-2.7-1.6-4.8-3.9-6.1-6.8c-1.7-3.7-1.8-7.9-0.4-11.7c1.4-3.8,4.3-6.9,8-8.5c3.4-1.6,7.4-1.8,11-0.6
				c4.1,1.3,7.5,4.3,9.3,8.2c1.7,3.7,1.8,7.9,0.4,11.7c-1.4,3.8-4.3,6.9-8,8.5C1296.7,517.8,1294.6,518.3,1292.4,518.3z
				 M1292.4,492.3c-1.5,0-3,0.3-4.4,1c-2.6,1.2-4.6,3.3-5.6,5.9c-1,2.7-0.9,5.6,0.3,8.1c0.9,2,2.4,3.6,4.2,4.7c3,1.8,6.7,2,9.9,0.6
				c2.6-1.2,4.6-3.3,5.6-5.9c1-2.7,0.9-5.5-0.3-8.1c-1.2-2.7-3.6-4.8-6.5-5.7C1294.6,492.5,1293.5,492.3,1292.4,492.3z"/>
		</g>
		<g>
			<g>
				<path fill="#FFFFFF" d="M1192.7,609.7L1192.7,609.7c-5.9,0-11.7-1.6-16.7-4.7c-5.4-3.3-9.7-8.2-12.4-14
					c-3.5-7.8-3.8-16.5-0.8-24.4c3-8,8.9-14.3,16.7-17.9c4.2-1.9,8.6-2.9,13.2-2.9c12.5,0,23.9,7.4,29.1,18.7
					c2.3,5.1,3.3,10.7,2.7,16.3c-1.1,11.4-8.2,21.3-18.6,26.1C1201.7,608.7,1197.3,609.7,1192.7,609.7z M1192.7,550.4
					c-3.9,0-7.7,0.8-11.3,2.5c-6.6,3-11.7,8.4-14.3,15.3c-2.6,6.8-2.3,14.2,0.7,20.9c2.3,5,5.9,9.1,10.6,12c4.3,2.6,9.3,4,14.3,4
					l0,0c3.9,0,7.7-0.8,11.3-2.5c8.9-4,14.9-12.6,15.9-22.3c0.5-4.7-0.3-9.5-2.3-13.9C1213.1,556.7,1203.3,550.4,1192.7,550.4z"/>
			</g>
			<g>
				<path fill="#FFFFFF" d="M1250.2,558c-1.4,0-2.8-0.2-4.2-0.5c-6.1-1.3-11.1-5.4-13.7-11c-2.2-4.8-2.4-10.1-0.5-15
					c1.8-4.9,5.5-8.8,10.3-11c7.2-3.3,16.2-1.7,21.8,3.8c1.8,1.7,3.2,3.7,4.2,5.9c4.5,9.9,0.1,21.5-9.7,26
					C1255.7,557.4,1253,558,1250.2,558z M1250.2,523.4c-2.1,0-4.2,0.5-6.2,1.3c-3.6,1.7-6.4,4.6-7.8,8.4c-1.4,3.7-1.3,7.8,0.4,11.5
					c2,4.3,5.8,7.4,10.5,8.4c3.2,0.7,6.4,0.3,9.4-1c7.5-3.4,10.9-12.3,7.4-19.8c-0.8-1.7-1.8-3.2-3.2-4.5
					C1257.8,525,1254,523.4,1250.2,523.4z"/>
			</g>
			<g>
				<path fill="#FFFFFF" d="M1259.4,456.9L1259.4,456.9c-7.7,0-14.7-4.5-17.9-11.5c-4.5-9.9-0.1-21.5,9.8-26c0.9-0.4,1.8-0.7,2.7-1
					c9.2-2.7,19.4,2,23.4,10.7c4.4,9.7,0.4,21-9.2,25.7l-0.5,0.3C1264.9,456.3,1262.2,456.9,1259.4,456.9z M1265.5,450.9l1.4,1.9
					l-1-2.1c7.3-3.6,10.4-12.2,7-19.6c-3-6.6-10.8-10.2-17.8-8.2c-0.7,0.2-1.4,0.4-2,0.7c-7.5,3.4-10.9,12.3-7.4,19.8
					c2.4,5.3,7.8,8.8,13.7,8.8l0,0C1261.5,452.2,1263.6,451.8,1265.5,450.9z"/>
			</g>
			<g>
				<path fill="#FFFFFF" d="M1164.7,540.8C1164.7,540.8,1164.7,540.8,1164.7,540.8l-0.9,0c-9.5-0.3-17.8-5.8-21.7-14.4
					c-5.6-12.4-0.1-27.1,12.3-32.7c5.3-2.4,11.2-2.9,16.8-1.3c7.1,1.9,12.9,6.9,15.9,13.6c2.7,6,3,12.7,0.6,18.9
					s-6.9,11.1-12.9,13.8C1171.7,540.1,1168.3,540.8,1164.7,540.8z M1164.6,496.1c-2.9,0-5.6,0.6-8.3,1.8
					c-10.1,4.6-14.5,16.5-10,26.5c3.2,7,9.9,11.5,17.6,11.7l0.7,0c2.9,0,5.6-0.6,8.2-1.8c4.9-2.2,8.6-6.2,10.5-11.2
					c1.9-5,1.7-10.5-0.5-15.3c-2.5-5.4-7.2-9.4-12.9-11C1168.2,496.3,1166.4,496.1,1164.6,496.1z"/>
			</g>
			<g>
				<path fill="#FFFFFF" d="M1236.8,508.1L1236.8,508.1c-0.4,0-0.9,0-1.3,0c-9.3-0.5-17.4-6-21.2-14.4c-5.6-12.4-0.1-27.1,12.3-32.7
					c5.4-2.4,11.4-2.9,17.1-1.2c6.9,2,12.6,6.9,15.6,13.5c5.6,12.4,0.1,27.1-12.3,32.7C1243.7,507.3,1240.3,508.1,1236.8,508.1z
					 M1236.7,463.3c-2.9,0-5.6,0.6-8.2,1.8c-10.1,4.6-14.5,16.5-10,26.5c3.1,6.8,9.7,11.3,17.2,11.7c3.3,0.2,6.4-0.4,9.3-1.8
					c10.1-4.6,14.5-16.5,10-26.5c-2.4-5.3-7-9.3-12.7-10.9C1240.5,463.6,1238.6,463.3,1236.7,463.3z"/>
			</g>
			<g>
				<path fill="#FFFFFF" d="M1292.4,518.3L1292.4,518.3c-2.8,0-5.5-0.8-7.9-2.2c-2.7-1.6-4.8-3.9-6.1-6.8c-1.7-3.7-1.8-7.9-0.4-11.7
					c1.4-3.8,4.3-6.9,8-8.5c3.4-1.6,7.4-1.8,11-0.6c4.1,1.3,7.5,4.3,9.3,8.2c1.7,3.7,1.8,7.9,0.4,11.7c-1.4,3.8-4.3,6.9-8,8.5
					C1296.7,517.8,1294.6,518.3,1292.4,518.3z M1292.4,492.3c-1.5,0-3,0.3-4.4,1c-2.6,1.2-4.6,3.3-5.6,5.9c-1,2.7-0.9,5.6,0.3,8.1
					c0.9,2,2.4,3.6,4.2,4.7c1.7,1,3.6,1.5,5.5,1.5l0,0c1.5,0,3-0.3,4.4-1c2.6-1.2,4.6-3.3,5.6-5.9c1-2.7,0.9-5.5-0.3-8.1
					c-1.2-2.7-3.6-4.8-6.5-5.7C1294.6,492.5,1293.5,492.3,1292.4,492.3z"/>
			</g>
			<g>
				<path fill="#FFFFFF" d="M1184.7,453.1L1184.7,453.1c-1.4,0-2.7-0.2-4.1-0.5c-5.2-1.3-9.4-4.7-11.6-9.5c-1.9-4.2-2-8.8-0.4-13.1
					c1.6-4.3,4.8-7.7,8.9-9.6c4.7-2.2,10.3-2,15,0.4c3.4,1.8,6.1,4.6,7.7,8.1c3.9,8.6,0.1,18.7-8.5,22.6
					C1189.5,452.6,1187.1,453.1,1184.7,453.1z M1184.6,423.6c-1.8,0-3.5,0.4-5.1,1.1c-3,1.4-5.3,3.8-6.5,7c-1.2,3.1-1.1,6.5,0.3,9.5
					c1.6,3.5,4.7,6,8.4,6.9c2.7,0.7,5.5,0.4,8.1-0.7c6.2-2.8,9-10.2,6.2-16.5c-1.2-2.5-3.1-4.6-5.6-5.9
					C1188.6,424,1186.6,423.6,1184.6,423.6z"/>
			</g>
			<g>
				<path fill="#FFFFFF" d="M1102.8,548.7L1102.8,548.7c-1.8,0-3.7-0.4-5.4-1.2c-2.8-1.3-5.1-3.6-6.3-6.3c-1.4-3.1-1.5-6.6-0.3-9.8
					c1.2-3.2,3.6-5.7,6.7-7.1c3.4-1.6,7.5-1.5,10.8,0.1c2.7,1.3,4.9,3.5,6.1,6.2c2.9,6.4,0.1,14-6.4,17
					C1106.4,548.3,1104.7,548.7,1102.8,548.7z M1102.8,527.7c-1.2,0-2.3,0.2-3.4,0.7c-2,0.9-3.5,2.5-4.3,4.6c-0.8,2-0.7,4.2,0.2,6.2
					c0.8,1.8,2.2,3.2,4,4c1.1,0.5,2.3,0.7,3.4,0.7l0,0c1.2,0,2.3-0.2,3.3-0.7c4.1-1.9,5.9-6.7,4-10.8c-0.8-1.7-2.2-3.1-3.9-4
					C1105.2,528,1104,527.7,1102.8,527.7z"/>
			</g>
			<g>
				<path fill="#FFFFFF" d="M1119,485.2L1119,485.2c-0.7,0-1.5,0-2.2-0.1c-6.4-0.8-11.8-4.7-14.4-10.5c-4.2-9.1-0.1-19.9,9-24.1
					c5.4-2.4,11.7-2.1,16.7,0.9c3.3,1.9,5.8,4.7,7.4,8.2c2,4.4,2.2,9.4,0.5,13.9c-1.7,4.5-5.1,8.2-9.5,10.2
					C1124.2,484.7,1121.6,485.2,1119,485.2z M1119,453.5c-1.9,0-3.8,0.4-5.6,1.2c-6.8,3.1-9.8,11.1-6.7,17.9c2,4.3,6,7.3,10.8,7.8
					c2.4,0.3,4.9-0.1,7.2-1.1c3.3-1.5,5.8-4.2,7.1-7.6c1.3-3.4,1.1-7.1-0.3-10.3c-1.2-2.6-3.1-4.7-5.5-6.1
					C1123.7,454.1,1121.4,453.5,1119,453.5z"/>
			</g>
		</g>
	</g>
	<g>
		<g>
			<path fill="#5B839A" d="M575.6,793.8c4.7-1.2,9.5,1.7,10.7,6.4c1.2,4.7-1.7,9.5-6.4,10.7c-4.7,1.2-9.5-1.7-10.7-6.4
				C568,799.9,570.8,795,575.6,793.8z"/>
			<path fill="#FFFFFF" d="M577.8,813.6c-5.1,0-9.6-3.5-10.8-8.4c-0.7-2.9-0.3-5.9,1.2-8.5c1.5-2.6,4-4.4,6.9-5.1
				c5.9-1.5,12.1,2.2,13.6,8.1c1.5,6-2.1,12.1-8.1,13.6C579.6,813.5,578.7,813.6,577.8,813.6z M577.8,795.9c-0.5,0-1.1,0.1-1.6,0.2
				c-1.7,0.4-3.1,1.5-4,3c-0.9,1.5-1.1,3.3-0.7,4.9c0.9,3.4,4.5,5.6,7.9,4.7c3.5-0.9,5.6-4.4,4.7-7.9
				C583.3,797.9,580.7,795.9,577.8,795.9z"/>
		</g>
		<g>
			<path fill="#5B839A" d="M624.7,775.1c8-2,16,2.8,18.1,10.7c2,8-2.8,16.1-10.8,18.1c-8,2-16-2.8-18.1-10.7
				C611.9,785.3,616.7,777.2,624.7,775.1z"/>
			<path fill="#FFFFFF" d="M628.3,806.7c-7.9,0-14.7-5.3-16.6-13c-1.1-4.4-0.5-9.1,1.9-13c2.3-3.9,6.1-6.7,10.5-7.9
				c1.4-0.4,2.8-0.5,4.3-0.5c7.9,0,14.7,5.3,16.6,13c1.1,4.5,0.5,9.1-1.9,13c-2.4,3.9-6.1,6.7-10.5,7.9
				C631.2,806.6,629.8,806.7,628.3,806.7z M628.4,777c-1,0-2.1,0.1-3.1,0.4c-3.2,0.8-6,2.9-7.7,5.7c-1.7,2.9-2.2,6.2-1.4,9.5
				c1.7,6.6,8.6,10.7,15.2,9.1c3.2-0.8,6-2.9,7.7-5.7c1.7-2.9,2.2-6.3,1.4-9.5C639.1,780.9,634.1,777,628.4,777z"/>
		</g>
		<g>
			<path fill="#5B839A" d="M686,753.8c10.9-2.8,22,3.8,24.8,14.8c2.8,10.9-3.8,22-14.8,24.8c-10.9,2.8-22-3.8-24.8-14.8
				C668.5,767.7,675.1,756.6,686,753.8z"/>
			<path fill="#FFFFFF" d="M691.1,796.4c-10.4,0-19.5-7.1-22-17.1c-3.1-12.1,4.3-24.5,16.4-27.6c1.8-0.5,3.7-0.7,5.6-0.7
				c10.4,0,19.5,7.1,22,17.2c3.1,12.2-4.3,24.6-16.4,27.6C694.8,796.1,692.9,796.4,691.1,796.4z M691.1,755.5c-1.5,0-3,0.2-4.5,0.6
				c-9.7,2.5-15.5,12.3-13.1,22c2,8,9.3,13.6,17.5,13.6c1.5,0,3-0.2,4.5-0.6c9.7-2.5,15.5-12.3,13.1-22
				C706.6,761.1,699.4,755.5,691.1,755.5z"/>
		</g>
		<g>
			<path fill="#5B839A" d="M742.3,781.7l-10.1-39.6c10.3-1.6,20.3,4.9,22.9,15.2C757.8,767.6,752.1,778.1,742.3,781.7z"/>
			<path fill="#FFFFFF" d="M742.3,784c-0.4,0-0.8-0.1-1.1-0.3c-0.6-0.3-1-0.8-1.2-1.5L730,742.7c-0.2-0.6,0-1.3,0.3-1.9
				c0.4-0.6,0.9-0.9,1.6-1c11.7-1.8,22.7,5.7,25.5,17c2.9,11.4-3.3,23.1-14.3,27.1C742.8,783.9,742.6,784,742.3,784z M735.2,744.2
				l8.7,34.2c7.3-3.9,11.1-12.3,9-20.5c-2.1-8.1-9.3-13.7-17.6-13.7C735.2,744.2,735.2,744.2,735.2,744.2z"/>
		</g>
		<g>
			<path fill="#5B839A" d="M766.9,760.8c-3.4,0.9-6.8-1.2-7.6-4.5c-0.9-3.3,1.2-6.8,4.5-7.6c3.4-0.8,6.8,1.2,7.6,4.5
				C772.3,756.5,770.2,760,766.9,760.8z"/>
			<path fill="#FFFFFF" d="M765.3,763.3c-3.9,0-7.4-2.7-8.3-6.5c-0.6-2.2-0.2-4.5,0.9-6.5c1.2-2,3-3.4,5.3-3.9
				c4.5-1.2,9.3,1.7,10.5,6.2c0.6,2.2,0.2,4.5-0.9,6.5c-1.2,2-3,3.4-5.3,3.9C766.8,763.2,766.1,763.3,765.3,763.3z M765.3,750.8
				c-0.3,0-0.7,0-1,0.1c-1,0.3-1.9,0.9-2.4,1.8c-0.5,0.9-0.7,2-0.4,3c0.5,2.1,2.7,3.4,4.8,2.9c1-0.3,1.9-0.9,2.4-1.8
				c0.5-0.9,0.7-2,0.4-3C768.7,752,767.1,750.8,765.3,750.8z"/>
		</g>
		<g>
			<path fill="#5B839A" d="M509.9,811.4l3.9,15.5c97.9,37.5,154.4,28.8,187,7.4l1.3,5.1c0.8,3,3.8,4.9,6.8,4.1c3-0.7,4.7-3.8,4-6.9
				l-2.4-9.6c0.3-0.2,0.5-0.5,0.8-0.7l48.4,58.1c8.8,10.6,22.3,13.9,30,7.4l9.4-7.8c7.8-6.5,6.9-20.3-1.9-30.9L746,791.9
				c-2.1-2.6-4.5-4.7-7.1-6.4c0.2-0.4,0.3-0.8,0.5-1.2l-11-43.2c-10.5-9.3-25.8-19.5-45.9-23.7l-2.4-9.6c-0.8-3-3.8-4.9-6.8-4.1
				c-3,0.8-4.7,3.8-4,6.9l1.3,5.1C631.8,712.4,577.9,731.8,509.9,811.4z M671.3,778.6c-2.8-10.9,3.8-22,14.8-24.8
				c10.9-2.8,22,3.8,24.8,14.8c2.8,10.9-3.8,22-14.8,24.8C685.2,796.2,674.1,789.6,671.3,778.6z M614,793.2c-2-7.9,2.8-16,10.7-18.1
				c8-2,16,2.8,18.1,10.7c2,8-2.8,16.1-10.8,18.1C624.1,806,616,801.2,614,793.2z M569.2,804.6c-1.2-4.7,1.7-9.6,6.4-10.8
				c4.7-1.2,9.5,1.7,10.7,6.4c1.2,4.7-1.7,9.5-6.4,10.7C575.2,812.2,570.4,809.3,569.2,804.6z"/>
			<path fill="#FFFFFF" d="M779.9,897.6c-7.8,0-16.1-4.3-22.2-11.6l-43.2-51.9l0.5,2c0.5,2.1,0.2,4.3-0.9,6.1
				c-1.1,1.8-2.8,3.1-4.8,3.6c-4.1,1-8.5-1.6-9.6-5.8l-0.5-2c-41.4,25.2-105,22.3-186.4-8.9c-0.7-0.3-1.2-0.9-1.4-1.6l-3.9-15.5
				c-0.2-0.7,0-1.5,0.5-2.1c55-64.3,107-96.9,154.5-96.9c1.7,0,3.3,0,5,0.1l-0.5-2c-0.5-2.1-0.2-4.2,0.8-6c1.1-1.8,2.8-3.1,4.8-3.7
				c4.2-1.1,8.5,1.6,9.6,5.8l2.1,8.2c16.4,3.8,32.2,12,45.6,24c0.3,0.3,0.6,0.7,0.7,1.2l11,43.2c0.1,0.3,0.1,0.6,0.1,0.9
				c2.2,1.7,4.3,3.6,6.1,5.8l51.1,61.3c4.6,5.5,7.3,12,7.7,18.3c0.4,6.6-1.8,12.2-6.1,15.8l-9.4,7.8
				C788.1,896.3,784.2,897.6,779.9,897.6z M711.1,824.2c0,0,0.1,0,0.1,0c0.6,0,1.4,0.2,1.8,0.7l48.4,58.1c5.1,6.1,12.2,9.9,18.6,9.9
				c3.2,0,6-1,8.2-2.8l9.4-7.8c3.2-2.6,4.8-6.9,4.5-12c-0.3-5.3-2.7-10.9-6.6-15.6l-51.1-61.4c-1.9-2.3-4.1-4.3-6.6-5.9
				c-0.9-0.6-1.3-1.7-0.9-2.8l0.2-0.5l-10.6-41.8c-9.3-8.1-24.3-18.5-44.3-22.7c-0.9-0.2-1.6-0.8-1.8-1.7l-2.4-9.6
				c-0.4-1.8-2.2-2.9-3.9-2.5c-0.8,0.2-1.5,0.7-1.9,1.5c-0.4,0.8-0.6,1.7-0.3,2.5l1.3,5.1c0.2,0.7,0,1.5-0.5,2.1
				c-0.5,0.6-1.2,0.9-2,0.8c-47.8-3.9-101.2,27.8-158,94.1l3.3,13.1c81.1,30.8,144,33.2,183.8,7.2c0.6-0.4,1.4-0.5,2.1-0.2
				c0.7,0.3,1.2,0.9,1.4,1.6l1.3,5.1c0.4,1.8,2.2,2.9,3.9,2.5c0.8-0.2,1.5-0.7,1.9-1.4c0.5-0.8,0.6-1.7,0.4-2.6l-2.4-9.6
				c-0.2-0.9,0.1-1.8,0.8-2.4l0.4-0.4C709.7,824.5,710.5,824.2,711.1,824.2z M577.8,813.6c-5.1,0-9.6-3.5-10.8-8.4
				c-0.7-2.9-0.3-5.9,1.2-8.5c1.5-2.6,4-4.4,6.9-5.1c5.9-1.5,12.1,2.2,13.6,8.1c1.5,6-2.1,12.1-8.1,13.6
				C579.6,813.5,578.7,813.6,577.8,813.6z M577.8,795.9c-0.5,0-1.1,0.1-1.6,0.2c-1.7,0.4-3.1,1.5-4,3c-0.9,1.5-1.1,3.3-0.7,4.9
				c0.9,3.4,4.5,5.6,7.9,4.7c3.5-0.9,5.6-4.4,4.7-7.9C583.3,797.9,580.7,795.9,577.8,795.9z M628.3,806.7c-7.9,0-14.7-5.3-16.6-13
				c-1.1-4.4-0.5-9.1,1.9-13c2.3-3.9,6.1-6.7,10.5-7.9c1.4-0.4,2.8-0.5,4.3-0.5c7.9,0,14.7,5.3,16.6,13c1.1,4.5,0.5,9.1-1.9,13
				c-2.4,3.9-6.1,6.7-10.5,7.9C631.2,806.6,629.8,806.7,628.3,806.7z M628.4,777c-1,0-2.1,0.1-3.1,0.4c-3.2,0.8-6,2.9-7.7,5.7
				c-1.7,2.9-2.2,6.2-1.4,9.5c1.7,6.6,8.6,10.7,15.2,9.1c3.2-0.8,6-2.9,7.7-5.7c1.7-2.9,2.2-6.3,1.4-9.5
				C639.1,780.9,634.1,777,628.4,777z M691.1,796.4c-10.4,0-19.5-7.1-22-17.1c-3.1-12.1,4.3-24.5,16.4-27.6c1.8-0.5,3.7-0.7,5.6-0.7
				c10.4,0,19.5,7.1,22,17.2c3.1,12.2-4.3,24.6-16.4,27.6C694.8,796.1,692.9,796.4,691.1,796.4z M691.1,755.5c-1.5,0-3,0.2-4.5,0.6
				c-9.7,2.5-15.5,12.3-13.1,22c2,8,9.3,13.6,17.5,13.6c1.5,0,3-0.2,4.5-0.6c9.7-2.5,15.5-12.3,13.1-22
				C706.6,761.1,699.4,755.5,691.1,755.5z"/>
		</g>
		<g>
			<line fill="#5B839A" x1="682.5" y1="717.4" x2="691.6" y2="753.2"/>
			<path fill="#FFFFFF" d="M691.6,755.5c-1,0-2-0.7-2.3-1.8l-9.1-35.8c-0.3-1.2,0.4-2.5,1.7-2.8c1.2-0.3,2.5,0.4,2.8,1.7l9.1,35.8
				c0.3,1.2-0.4,2.5-1.7,2.8C692,755.5,691.8,755.5,691.6,755.5z"/>
		</g>
		<g>
			<line fill="#5B839A" x1="670.6" y1="715.6" x2="680.9" y2="756.1"/>
			<path fill="#FFFFFF" d="M680.9,758.4c-1,0-2-0.7-2.3-1.8l-10.3-40.4c-0.3-1.2,0.4-2.5,1.7-2.8c1.2-0.3,2.5,0.4,2.8,1.7l10.3,40.4
				c0.3,1.2-0.4,2.5-1.7,2.8C681.3,758.4,681.1,758.4,680.9,758.4z"/>
		</g>
		<g>
			<line fill="#5B839A" x1="700.8" y1="834.3" x2="690.6" y2="794"/>
			<path fill="#FFFFFF" d="M700.8,836.6c-1,0-2-0.7-2.3-1.8l-10.2-40.3c-0.3-1.2,0.4-2.5,1.7-2.8c1.2-0.3,2.5,0.4,2.8,1.7l10.2,40.3
				c0.3,1.2-0.4,2.5-1.7,2.8C701.2,836.6,701,836.6,700.8,836.6z"/>
		</g>
		<g>
			<line fill="#5B839A" x1="710.4" y1="827.1" x2="701.3" y2="791.3"/>
			<path fill="#FFFFFF" d="M710.4,829.4c-1,0-2-0.7-2.3-1.8l-9.1-35.8c-0.3-1.2,0.4-2.5,1.7-2.8c1.2-0.3,2.5,0.4,2.8,1.7l9.1,35.8
				c0.3,1.2-0.4,2.5-1.7,2.8C710.7,829.4,710.6,829.4,710.4,829.4z"/>
		</g>
		<g>
			<line fill="#5B839A" x1="511.8" y1="819.2" x2="449.8" y2="834.9"/>
			<path fill="#FFFFFF" d="M449.8,837.3c-1,0-2-0.7-2.3-1.8c-0.3-1.2,0.4-2.5,1.7-2.8l62-15.8c1.2-0.3,2.5,0.4,2.8,1.7
				c0.3,1.2-0.4,2.5-1.7,2.8l-62,15.8C450.2,837.2,450,837.3,449.8,837.3z"/>
		</g>
		<g>
			<path fill="#5B839A" d="M436.9,838.2c0.9,3.6,4.5,5.7,8.1,4.8c3.6-0.9,5.7-4.5,4.8-8.1c-0.9-3.6-4.5-5.7-8.1-4.8
				C438.1,831,436,834.6,436.9,838.2z"/>
			<path fill="#FFFFFF" d="M443.3,845.6L443.3,845.6c-4.1,0-7.7-2.8-8.7-6.8c-1.2-4.8,1.7-9.7,6.5-10.9c4.7-1.2,9.7,1.8,10.9,6.5
				c0.6,2.3,0.2,4.8-1,6.8c-1.2,2.1-3.2,3.5-5.5,4.1C444.8,845.5,444.1,845.6,443.3,845.6z M443.3,832.2c-0.4,0-0.7,0-1.1,0.1
				c-2.3,0.6-3.7,3-3.1,5.3c0.5,1.9,2.2,3.3,4.2,3.3l0,0c0.4,0,0.7,0,1.1-0.1c1.1-0.3,2.1-1,2.7-2c0.6-1,0.8-2.2,0.5-3.3
				C447.1,833.6,445.3,832.2,443.3,832.2z"/>
		</g>
		<g>
			<line fill="#5B839A" x1="671.3" y1="778.6" x2="656.2" y2="782.5"/>
			<path fill="#FFFFFF" d="M656.2,784.8c-1,0-2-0.7-2.3-1.8c-0.3-1.2,0.4-2.5,1.7-2.8l15.1-3.8c1.2-0.3,2.5,0.4,2.8,1.7
				c0.3,1.2-0.4,2.5-1.7,2.8l-15.1,3.8C656.5,784.8,656.3,784.8,656.2,784.8z"/>
		</g>
		<g>
			<line fill="#5B839A" x1="614" y1="793.2" x2="598.8" y2="797.1"/>
			<path fill="#FFFFFF" d="M598.8,799.4c-1,0-2-0.7-2.3-1.8c-0.3-1.2,0.4-2.5,1.7-2.8l15.1-3.8c1.2-0.3,2.5,0.4,2.8,1.7
				c0.3,1.2-0.4,2.5-1.7,2.8l-15.1,3.9C599.2,799.4,599,799.4,598.8,799.4z"/>
		</g>
		<g>
			<line fill="#5B839A" x1="569.2" y1="804.6" x2="554.1" y2="808.4"/>
			<path fill="#FFFFFF" d="M554.1,810.8c-1,0-2-0.7-2.3-1.8c-0.3-1.2,0.4-2.5,1.7-2.8l15.1-3.8c1.2-0.3,2.5,0.4,2.8,1.7
				c0.3,1.2-0.4,2.5-1.7,2.8l-15.1,3.8C554.4,810.7,554.3,810.8,554.1,810.8z"/>
		</g>
	</g>
</g>
</svg>
