<?xml version="1.0" standalone="no"?><!-- Generator: Gravit.io --><svg xmlns="http://www.w3.org/2000/svg" xmlns:xlink="http://www.w3.org/1999/xlink" style="isolation:isolate" viewBox="-12 -315.915 2300.007 1511.813" width="2300.007" height="1511.813"><defs><clipPath id="_clipPath_1xD89pji2Sg9WOZP7jd1bWQld7yFM1g3"><rect x="-12" y="-315.915" width="2300.007" height="1511.813"/></clipPath></defs><g clip-path="url(#_clipPath_1xD89pji2Sg9WOZP7jd1bWQld7yFM1g3)"><path d=" M -12 1195.898 L 2287.715 1195.898 L 2288.007 -315.915 L -12 -315.915 L -12 1195.898 Z " fill="rgb(22,30,57)"/><path d=" M 1154.44 262.289 C 1148.604 262.289 1142.745 261.786 1136.924 260.809 C 1123.13 258.49 1109.701 253.582 1096.813 247.329 C 1081.207 239.755 1065.707 230.393 1052.636 217.547 C 1041.978 207.074 1033.216 193.834 1028.134 178.401 C 1023.62 164.686 1022.494 149.765 1023.729 135.174 C 1026.466 102.767 1040.538 72.597 1056.478 46.914 C 1073.202 19.963 1093.737 -4.018 1116.481 -23.603 C 1139.925 -43.794 1169.092 -55.486 1185.95 -85.273 C 1202.973 -115.342 1198.502 -157.395 1180.078 -184.995 C 1162.146 -211.849 1132.804 -223.942 1105.745 -230.995 C 1091.661 -234.662 1077.361 -237.035 1063.273 -240.689 C 1051.64 -243.715 1039.874 -248.129 1031.401 -258.675 C 1020.833 -271.835 1017.546 -292.049 1016.398 -309.595 C 1016.26 -311.702 1016.196 -313.809 1016.133 -315.915 L 1688.497 -315.915 C 1686.643 -297.009 1686.324 -277.809 1685.99 -258.875 C 1685.457 -229.062 1685.297 -198.755 1679.283 -169.649 C 1673.23 -140.342 1659.91 -114.963 1639.03 -97.727 C 1625.204 -86.306 1608.937 -78.507 1592.777 -73.351 C 1583.843 -70.502 1574.697 -68.947 1565.537 -68.947 C 1558.124 -68.947 1550.71 -69.97 1543.404 -72.154 C 1514.322 -80.853 1490.974 -106.199 1466.429 -125.401 C 1452.546 -136.261 1438.087 -147.169 1421.387 -150.009 C 1418.838 -150.435 1416.293 -150.649 1413.761 -150.649 C 1402.726 -150.649 1391.962 -146.649 1382.508 -139.582 C 1356.765 -120.335 1344.166 -84.035 1336.974 -50.291 C 1324.76 7.022 1311.768 64.473 1291.811 118.721 C 1273.253 169.175 1247.038 222.467 1204.617 248.315 C 1188.961 257.857 1171.784 262.289 1154.44 262.289" fill="rgb(32,38,81)"/><path d=" M 225.845 687.675 C 177.273 684.121 103.273 653.121 127 509 C 173.606 639.455 292.449 624.941 348.674 625.925 C 348.52 626.322 348.36 626.717 348.198 627.111 C 343.489 638.551 335.702 647.563 327.122 654.869 C 308.172 671.007 284.836 679.41 262.153 683.989 C 250.218 686.395 238.03 687.675 225.845 687.675 M 637.157 477.785 C 675.408 422.453 697.809 355.331 697.809 282.973 C 697.809 264.426 696.338 246.235 693.505 228.487 C 698.228 234.102 702.516 240.273 706.289 246.939 C 718.033 267.689 724.265 292.406 725.71 317.31 C 728.656 368.133 711.374 420.975 678 453.114 C 665.809 464.853 651.886 472.818 637.157 477.785" fill="rgb(32,38,81)"/><path d=" M 332.174 -230.449 C 324.784 -214.409 314.781 -200.542 305.762 -185.835 C 296.674 -171.035 288.45 -155.009 285.611 -136.677 C 283.096 -120.407 283.125 -103.309 286.565 -87.223 C 289.747 -72.337 295.74 -57.85 305.49 -47.581 C 315.961 -36.547 329.62 -31.331 343.489 -32.058 C 356.753 -32.751 368.918 -38.638 380.325 -46.455 C 390.964 -53.742 401.076 -62.319 412.325 -68.249 C 431.888 -78.559 454.374 -78.215 472.992 -65.081 C 487.098 -55.127 497.221 -39.222 504.961 -22.222 C 513.437 -3.594 519.573 16.383 526.188 36.021 C 532.533 54.869 539.208 74.218 549.578 90.478 C 559.396 105.871 572.744 116.985 588.966 119.741 C 609.256 123.186 632.286 116.711 649.362 103.219 C 681.313 77.97 686.862 30.493 695.756 -10.526 C 699.893 -29.607 704.97 -49.313 715.278 -65.031 C 726.685 -82.415 743.456 -91.655 761.489 -94.586 C 767.409 -95.546 773.382 -96.001 779.36 -95.986 C 786.904 -95.965 794.409 -94.29 801.742 -92.255 C 818.244 -87.682 834.445 -80.677 851.341 -78.354 C 867.814 -76.087 884.437 -79.278 897.409 -92.522 C 907.497 -102.821 913.369 -117.413 913.893 -133.304 C 914.984 -166.395 898.216 -197.022 875.986 -215.062 C 850.697 -235.582 820.213 -241.769 791.45 -251.915 C 777.841 -256.702 764.208 -262.395 752.057 -271.342 C 739.685 -280.449 727.8 -293.009 719.685 -307.515 C 718.164 -310.235 716.83 -313.049 715.62 -315.915 L 342.693 -315.915 C 344.213 -302.942 344.57 -289.755 343.568 -276.782 C 342.316 -260.542 338.776 -244.769 332.174 -230.449" fill-rule="evenodd" fill="rgb(20,26,43)"/><path d=" M 1812.59 465.626 C 1800.87 472.423 1787.75 475.677 1774.91 477.613 C 1747.377 481.77 1719.11 479.333 1691.91 486.557 C 1678.883 490.014 1666.097 495.869 1655.604 505.983 C 1643.283 517.874 1634.697 534.166 1629.177 551.817 C 1618.79 585.077 1612.377 626.35 1628.897 658.462 C 1642.483 684.897 1667.43 698.434 1691.804 705.155 C 1721.43 713.322 1752.764 713.71 1782.924 710.285 C 1825.657 705.431 1868.097 689.327 1902.924 658.571 C 1918.27 645.011 1932.097 628.965 1941.604 608.962 C 1949.804 591.733 1954.817 572.83 1959.364 553.858 C 1964.083 534.21 1967.964 513.774 1975.03 495.106 C 1987.166 460.029 2013.205 438.071 2046 438.071 C 2071.1 438.071 2102.971 447.305 2118.74 495.106 C 2174.795 674.455 2073.554 733.574 2136 836 C 2188.326 911.983 2287.603 914.046 2288.007 914 L 2288.007 -184.995 C 2286.487 -184.859 2079.71 -64.211 2078.19 -64.125 C 2055.124 -62.799 2032.003 -65.863 2009.164 -69.454 C 1986.017 -73.095 1962.937 -77.678 1939.657 -80.03 C 1917.23 -82.299 1893.577 -82.97 1872.564 -71.79 C 1861.217 -65.758 1851.39 -56.397 1845.03 -43.486 C 1839.27 -31.802 1836.257 -18.593 1834.257 -5.319 C 1830.364 20.617 1830.377 48.969 1820.043 72.845 C 1815.004 84.514 1807.443 94.255 1797.843 100.691 C 1792.417 104.334 1787.017 107.25 1780.777 108.149 C 1774.177 109.098 1767.483 108.402 1761.004 106.654 C 1730.764 98.493 1705.843 74.678 1678.017 59.61 C 1661.524 50.675 1642.443 46.911 1624.55 44.989 C 1603.457 42.721 1581.843 44.215 1561.617 52.254 C 1528.483 65.434 1496.893 95.489 1482.478 134.307 C 1471.158 164.794 1471.065 199.882 1482.53 230.353 C 1494.333 261.73 1516.382 286.285 1542.564 299.967 C 1557.857 307.953 1574.764 313.017 1591.457 313.781 C 1608.777 314.574 1625.843 310.489 1642.19 303.874 C 1674.137 290.959 1703.59 269.379 1736.564 260.075 C 1763.817 252.382 1796.177 254.371 1818.87 276.198 C 1838.243 294.839 1849.217 324.083 1852.51 353.173 C 1855.764 381.951 1852.443 413.615 1838.577 438.071 C 1831.99 449.686 1823.177 459.483 1812.59 465.626" fill-rule="evenodd" fill="rgb(20,26,43)"/><path d=" M 986.213 778.246 C 984.396 740.779 965.185 705.678 941.085 683.025 C 893.442 638.249 816.789 629.215 773.242 686.759 C 763.617 699.473 755.661 714.262 752.109 731.025 C 748.765 746.817 747.98 763.287 747.984 779.525 C 748 818.503 752.229 857.287 754.51 896.121 C 756.552 930.945 758.685 968.462 750.136 1002.361 C 746.844 1015.39 741.708 1028.165 733.396 1037.671 C 722.268 1050.405 706.69 1056.338 691.614 1057.818 C 682.828 1058.671 673.904 1058.231 664.972 1057.791 C 649.284 1057.031 633.578 1056.271 618.584 1062.485 C 596.776 1071.551 578.18 1092.938 566.016 1116.072 C 553.229 1140.365 546.252 1167.725 542.578 1195.898 L 1419.36 1195.898 C 1419.948 1167.445 1416.177 1139.378 1403.218 1115.298 C 1393.606 1097.431 1379.15 1086.565 1362.252 1081.058 C 1347.885 1076.365 1332.871 1075.005 1318.617 1069.818 C 1305.804 1065.178 1294.283 1056.725 1288.088 1041.965 C 1280.377 1023.591 1278.822 1001.079 1277.753 980.835 C 1276.75 961.931 1277.01 942.426 1272.822 924.017 C 1268.022 902.905 1256.956 885.951 1242.328 873.129 C 1224.426 857.439 1202.015 842.713 1179.182 843.431 C 1160.007 844.041 1143.084 855.273 1127.27 867.306 C 1094.765 892.047 1049.549 938.73 1010.31 904.345 C 976.576 874.786 988.278 820.931 986.213 778.246" fill-rule="evenodd" fill="rgb(20,26,43)"/></g></svg>