<?xml version="1.0" standalone="no"?><!-- Generator: Gravit.io --><svg xmlns="http://www.w3.org/2000/svg" xmlns:xlink="http://www.w3.org/1999/xlink" style="isolation:isolate" viewBox="0 0 3044.747 1511.867" width="3044.747" height="1511.867"><defs><clipPath id="_clipPath_klUv4TdRN839xBOFeEYwiXrkmF2sNOS9"><rect width="3044.747" height="1511.867"/></clipPath></defs><g clip-path="url(#_clipPath_klUv4TdRN839xBOFeEYwiXrkmF2sNOS9)"><rect width="3044.747" height="1511.867" style="fill:rgb(0,0,0)" fill-opacity="0"/><clipPath id="_clipPath_HoiVPvvRNYRDc5SV2BaonxVX83gPPHyQ"><rect x="0" y="0" width="3044.747" height="1511.867" transform="matrix(1,0,0,1,0,0)" fill="rgb(255,255,255)"/></clipPath><g clip-path="url(#_clipPath_HoiVPvvRNYRDc5SV2BaonxVX83gPPHyQ)"><g><rect x="0" y="0" width="3044.747" height="1511.867" transform="matrix(1,0,0,1,0,0)" fill="none"/><g><path d=" M 1736.388 926.968 C 1735.529 926.759 1734.636 926.635 1733.815 926.321 C 1732.032 925.651 1730.893 923.685 1731.175 921.941 C 1731.427 920.371 1733.567 918.139 1735.293 918.32 C 1736.588 918.456 1737.835 918.521 1738.979 919.248 C 1740.632 920.297 1741.384 921.956 1740.979 923.656 C 1740.567 925.355 1738.612 927.053 1736.929 926.819 C 1736.767 926.793 1736.596 926.813 1736.425 926.813 L 1736.388 926.968 Z " fill-rule="evenodd" fill="rgb(152,148,200)"/><path d=" M 1594.345 168.29 C 1589.193 168.357 1586.001 165.397 1585.917 160.477 C 1585.833 155.344 1589.561 151.624 1594.781 151.637 C 1599.983 151.664 1603.963 155.33 1604 160.157 C 1604.024 163.61 1600.313 168.864 1594.345 168.29 Z " fill-rule="evenodd" fill="rgb(152,148,200)"/><path d=" M 1711.169 31.921 C 1708.04 32.028 1704.808 29.268 1704.739 26.414 C 1704.644 22.548 1707.423 19.254 1710.895 19.014 C 1714.92 18.748 1717.587 22.268 1717.692 25.654 C 1717.801 29.334 1715.117 31.668 1711.169 31.921 Z " fill-rule="evenodd" fill="rgb(152,148,200)"/><path d=" M 1619.364 1359.769 C 1617.557 1359.841 1615.279 1361.196 1613.689 1363.474 C 1612.385 1365.35 1613.104 1367.429 1614.096 1369.189 C 1615.685 1372.016 1619.616 1372.922 1622.783 1371.389 C 1625.787 1369.941 1627.12 1366.664 1625.98 1363.508 C 1625.171 1361.269 1622.937 1359.754 1619.364 1359.769 Z " fill-rule="evenodd" fill="rgb(152,148,200)"/><path d=" M 1959.098 1089.357 C 1957.925 1089.004 1956.685 1088.817 1955.618 1088.273 C 1952.245 1086.572 1952.285 1081.968 1954.858 1079.686 C 1955.978 1078.696 1957.312 1078.08 1958.765 1077.792 C 1960.045 1077.535 1961.312 1077.736 1962.191 1078.729 C 1963.045 1079.681 1963.765 1080.768 1964.378 1081.893 C 1965.952 1084.76 1963.472 1089.613 1959.098 1089.357 Z " fill-rule="evenodd" fill="rgb(255,255,255)"/><path d=" M 1282.908 1144.811 C 1282.305 1144.668 1281.679 1144.579 1281.101 1144.36 C 1279.857 1143.889 1279.06 1142.517 1279.257 1141.293 C 1279.432 1140.195 1280.932 1138.636 1282.14 1138.763 C 1283.044 1138.859 1283.92 1138.9 1284.717 1139.409 C 1285.875 1140.14 1286.403 1141.304 1286.12 1142.493 C 1285.831 1143.685 1284.461 1144.872 1283.285 1144.708 C 1283.173 1144.692 1283.053 1144.708 1282.932 1144.708 L 1282.908 1144.811 Z " fill-rule="evenodd" fill="rgb(255,255,255)"/><path d=" M 1317.711 79.723 C 1317.816 82.969 1315.152 85.598 1310.751 85.695 C 1307.541 85.766 1305.511 82.954 1305.488 79.855 C 1305.455 75.717 1308.22 74.129 1311.825 73.935 C 1315.617 73.735 1317.685 76.859 1317.711 79.723 Z " fill-rule="evenodd" fill="rgb(255,255,255)"/><path d=" M 820.559 1181.684 C 821.92 1181.733 823.637 1182.754 824.835 1184.476 C 825.823 1185.888 825.279 1187.457 824.529 1188.786 C 823.331 1190.917 820.369 1191.594 817.98 1190.442 C 815.716 1189.352 814.713 1186.878 815.569 1184.505 C 816.183 1182.809 817.867 1181.67 820.559 1181.684 Z " fill-rule="evenodd" fill="rgb(255,255,255)"/><path d=" M 1354.889 889.113 C 1363.024 889.113 1363.024 876.499 1354.889 876.499 C 1346.755 876.499 1346.755 889.113 1354.889 889.113 Z " fill="rgb(159,22,90)"/><path d=" M 2230.333 1267.545 C 2238.467 1267.545 2238.467 1254.931 2230.333 1254.931 C 2222.2 1254.931 2222.2 1267.545 2230.333 1267.545 Z " fill="rgb(159,22,90)"/><path d=" M 1008.835 151.637 C 1016.969 151.637 1016.969 139.022 1008.835 139.022 C 1000.7 139.022 1000.7 151.637 1008.835 151.637 Z " fill="rgb(159,22,90)"/><path d=" M 1417.963 296.236 C 1426.097 296.236 1426.097 283.621 1417.963 283.621 C 1409.828 283.621 1409.828 296.236 1417.963 296.236 Z " fill="rgb(72,193,175)"/><path d=" M 2158.37 332.324 C 2166.505 332.324 2166.505 319.709 2158.37 319.709 C 2150.237 319.709 2150.237 332.324 2158.37 332.324 Z " fill="rgb(247,204,47)"/><path d=" M 1126.818 716.27 C 1129.821 718.902 1132.253 721.026 1135.028 723.451 C 1136.138 720.888 1137.053 718.77 1138.137 716.27 C 1134.308 716.27 1130.997 716.27 1126.818 716.27 Z  M 1150.28 737.594 C 1154.124 741.205 1157.794 744.656 1161.47 748.105 C 1161.68 747.994 1161.893 747.884 1162.101 747.773 C 1160.66 742.738 1159.217 737.704 1157.63 732.164 C 1155.066 734.06 1152.84 735.7 1150.28 737.594 Z  M 1153.358 712.43 C 1152.365 706.536 1151.44 701.061 1150.474 695.325 C 1147.098 701.305 1143.229 710.601 1143.086 713.08 C 1146.584 713.294 1150.074 713.7 1153.358 712.43 Z  M 1174.9 717.264 C 1167.849 715.062 1161.085 714.697 1157.302 716.209 C 1158.044 719.738 1158.797 723.316 1159.677 727.499 C 1164.848 724.021 1169.581 720.842 1174.9 717.264 Z  M 1127.378 748.918 C 1127.566 749.073 1127.752 749.228 1127.938 749.384 C 1133.861 745.281 1139.781 741.177 1145.989 736.881 C 1142.673 733.929 1139.576 731.168 1136.028 728.006 C 1133.034 735.244 1130.206 742.081 1127.378 748.918 Z  M 1137.397 725.418 C 1141.072 728.693 1144.718 731.931 1148.538 735.33 C 1151.44 733.234 1154.273 731.191 1157.253 729.041 C 1156.285 724.6 1155.354 720.329 1154.516 716.459 C 1150.201 716.459 1146.338 716.477 1142.477 716.449 C 1141.202 716.44 1140.686 717.237 1140.286 718.237 C 1139.354 720.553 1138.424 722.866 1137.397 725.418 Z  M 1156.44 712.344 C 1164.976 711.197 1172.893 713.556 1181.049 714.794 C 1181.158 715.742 1181.25 716.498 1181.28 716.762 C 1176.126 720.141 1171.294 723.328 1166.44 726.478 C 1165.01 727.409 1163.517 728.244 1162.046 729.113 C 1160.726 729.898 1160.16 730.848 1160.654 732.507 C 1162.636 739.164 1164.429 745.876 1166.44 752.525 C 1166.888 754.013 1166.44 754.853 1165.394 755.934 C 1159.637 750.373 1154.01 744.937 1148.332 739.449 C 1144.722 740.352 1142.216 742.918 1139.364 744.908 C 1135.536 747.58 1131.709 750.252 1127.876 752.916 C 1127.601 753.109 1127.281 753.338 1126.964 753.373 C 1125.904 753.485 1124.512 753.966 1123.836 753.48 C 1122.689 752.661 1123.773 751.478 1124.17 750.444 C 1126.47 744.512 1128.685 738.542 1131.012 732.62 C 1131.84 730.526 1132.912 728.528 1133.972 726.282 C 1129.15 722.889 1125.794 717.921 1120.497 715.262 C 1118.986 714.505 1119.149 713.414 1119.654 712.074 C 1126.226 712.482 1132.666 712.882 1139.366 713.296 C 1142.237 706.726 1145.006 700.377 1147.78 694.03 C 1148.281 692.884 1148.726 691.697 1149.361 690.624 C 1149.721 690.014 1150.417 689.601 1150.962 689.097 C 1151.474 689.746 1152.269 690.325 1152.456 691.055 C 1153.02 693.257 1153.69 695.52 1153.69 697.757 C 1153.688 702.642 1155.236 707.161 1156.44 712.344 Z " fill-rule="evenodd" fill="rgb(255,255,255)"/><path d=" M 1158.577 1280.268 C 1160.871 1279.849 1161.424 1280.208 1161.316 1282.3 C 1160.977 1288.916 1161.992 1295.36 1164.008 1301.632 C 1165.437 1306.073 1168.213 1309.44 1172.529 1311.465 C 1175.193 1312.716 1177.808 1314.081 1180.408 1315.465 C 1180.815 1315.679 1181.348 1316.327 1181.273 1316.636 C 1181.155 1317.137 1180.653 1317.691 1180.168 1317.929 C 1177.819 1319.096 1175.433 1320.196 1173.036 1321.252 C 1171.283 1322.024 1169.959 1323.295 1168.919 1324.812 C 1165.825 1329.329 1163.368 1334.067 1162.808 1339.693 C 1162.369 1344.133 1161.504 1348.52 1160.779 1352.933 C 1160.645 1353.733 1160.656 1354.907 1159.429 1354.827 C 1158.308 1354.747 1158.456 1353.613 1158.477 1352.907 C 1158.584 1349.053 1158.008 1345.267 1157.211 1341.533 C 1156.055 1336.093 1155.348 1330.52 1152.471 1325.559 C 1150.233 1321.711 1147.017 1319.653 1142.593 1319.38 C 1141.624 1319.319 1140.219 1319.608 1140.025 1318.24 C 1139.789 1316.567 1141.424 1316.795 1142.385 1316.525 C 1151.256 1314.065 1159.079 1305.375 1159.008 1295.709 C 1158.993 1293.479 1159.26 1291.239 1159.188 1289.007 C 1159.099 1286.153 1158.803 1283.309 1158.577 1280.268 Z " fill-rule="evenodd" fill="rgb(244,222,177)"/><path d=" M 1819.613 411.233 C 1821.103 410.959 1821.463 411.193 1821.395 412.551 C 1821.171 416.856 1821.834 421.04 1823.142 425.12 C 1824.071 428.005 1825.877 430.195 1828.679 431.508 C 1830.413 432.323 1832.113 433.212 1833.801 434.108 C 1834.067 434.251 1834.413 434.668 1834.366 434.872 C 1834.287 435.196 1833.961 435.557 1833.645 435.712 C 1832.119 436.469 1830.57 437.185 1829.011 437.871 C 1827.869 438.374 1827.011 439.197 1826.335 440.187 C 1824.322 443.121 1822.725 446.204 1822.361 449.855 C 1822.077 452.74 1821.513 455.599 1821.043 458.463 C 1820.955 458.99 1820.963 459.751 1820.165 459.696 C 1819.438 459.646 1819.531 458.905 1819.549 458.451 C 1819.618 455.943 1819.243 453.48 1818.726 451.052 C 1817.974 447.52 1817.514 443.895 1815.642 440.672 C 1814.189 438.169 1812.098 436.835 1809.223 436.654 C 1808.593 436.613 1807.679 436.803 1807.553 435.913 C 1807.401 434.826 1808.461 434.975 1809.087 434.801 C 1814.85 433.199 1819.937 427.552 1819.893 421.271 C 1819.883 419.819 1820.054 418.361 1820.01 416.913 C 1819.95 415.057 1819.759 413.21 1819.613 411.233 Z " fill-rule="evenodd" fill="rgb(244,222,177)"/><path d=" M 2135.669 689.793 C 2137.962 689.373 2138.522 689.731 2138.416 691.82 C 2138.069 698.444 2139.082 704.881 2141.109 711.156 C 2142.536 715.596 2145.309 718.963 2149.629 720.988 C 2152.282 722.237 2154.896 723.607 2157.496 724.987 C 2157.909 725.205 2158.442 725.848 2158.362 726.161 C 2158.242 726.659 2157.749 727.215 2157.269 727.453 C 2154.909 728.62 2152.522 729.719 2150.136 730.775 C 2148.376 731.547 2147.056 732.815 2146.016 734.339 C 2142.922 738.853 2140.456 743.593 2139.909 749.212 C 2139.469 753.651 2138.602 758.048 2137.869 762.456 C 2137.749 763.265 2137.749 764.432 2136.522 764.351 C 2135.402 764.273 2135.549 763.135 2135.576 762.435 C 2135.682 758.575 2135.096 754.788 2134.309 751.053 C 2133.149 745.619 2132.442 740.044 2129.562 735.083 C 2127.322 731.233 2124.109 729.179 2119.696 728.903 C 2118.722 728.841 2117.309 729.131 2117.122 727.765 C 2116.882 726.089 2118.522 726.317 2119.482 726.052 C 2128.349 723.589 2136.176 714.9 2136.096 705.236 C 2136.082 703.003 2136.349 700.761 2136.282 698.531 C 2136.189 695.679 2135.896 692.833 2135.669 689.793 Z " fill-rule="evenodd" fill="rgb(244,222,177)"/><path d=" M 1005.882 944.584 C 1004.288 943.588 1002.68 942.577 1001.052 941.561 C 999.96 942.472 998.916 943.358 997.849 944.218 C 997.496 944.504 997.104 944.777 996.686 944.937 C 996.414 945.036 995.992 945.022 995.764 944.868 C 995.624 944.773 995.649 944.305 995.718 944.041 C 996.11 942.528 996.541 941.026 996.988 939.425 C 996.541 939.17 996.11 938.946 995.698 938.686 C 994.926 938.194 994.153 937.702 993.406 937.169 C 993.194 937.013 993.078 936.73 992.814 936.366 C 993.621 936.148 994.24 935.974 994.86 935.82 C 995.713 935.609 996.557 935.356 997.426 935.222 C 998.15 935.106 998.581 934.72 998.896 934.105 C 999.349 933.218 999.817 932.348 1000.284 931.477 C 1000.608 930.873 1000.986 930.81 1001.416 931.348 C 1001.938 931.998 1002.432 932.69 1002.869 933.404 C 1003.228 933.981 1003.67 934.23 1004.364 934.265 C 1005.578 934.334 1006.788 934.524 1008 934.662 C 1008.154 934.684 1008.308 934.714 1008.446 934.773 C 1008.9 934.966 1008.964 935.317 1008.598 935.66 C 1007.649 936.545 1006.713 937.448 1005.721 938.284 C 1005.084 938.822 1004.853 939.354 1005.161 940.176 C 1005.578 941.281 1005.897 942.428 1006.256 943.553 C 1006.358 943.885 1006.47 944.224 1005.882 944.584 Z " fill-rule="evenodd" fill="rgb(246,244,232)"/><path d=" M 1696.175 613.326 C 1696.85 612.224 1697.457 611.082 1698.099 609.935 C 1696.754 608.706 1695.101 608.048 1693.89 606.548 C 1695.683 605.816 1697.347 606.51 1699.014 606.51 C 1699.683 605.055 1700.074 603.486 1701.11 601.983 C 1701.415 602.471 1701.625 602.763 1701.79 603.083 C 1702.266 603.996 1702.741 604.915 1703.187 605.846 C 1703.422 606.32 1703.774 606.478 1704.287 606.512 C 1705.279 606.579 1706.267 606.703 1707.253 606.843 C 1707.475 606.872 1707.674 607.062 1708.093 607.291 C 1706.881 608.048 1705.842 608.698 1704.737 609.387 C 1704.99 610.154 1705.207 610.842 1705.443 611.523 C 1705.77 612.466 1706.126 613.391 1706.427 614.34 C 1706.498 614.559 1706.394 614.832 1706.371 615.082 C 1706.097 615.039 1705.777 615.071 1705.561 614.938 C 1705.141 614.676 1704.771 614.332 1704.393 614.004 C 1703.507 613.224 1702.625 612.434 1701.698 611.608 C 1699.931 612.55 1698.211 613.462 1696.454 614.392 C 1695.857 614.078 1695.898 613.779 1696.175 613.326 Z " fill-rule="evenodd" fill="rgb(246,244,232)"/><g><path d=" M 0 1511.867 L 3044.747 1511.867 L 3044.747 0 L 0 0 L 0 1511.867 Z " fill="none"/></g><path d=" M 1114.581 384 C 1110.193 384 1105.761 380.127 1105.663 376.135 C 1105.531 370.611 1109.496 365.908 1114.455 365.573 C 1114.664 365.56 1114.871 365.553 1115.075 365.553 C 1120.477 365.553 1124.025 370.387 1124.165 375.064 C 1124.328 380.296 1120.488 383.644 1114.853 383.996 C 1114.763 383.999 1114.672 384 1114.581 384 Z " fill="rgb(251,222,102)"/><path d=" M 831.352 58.108 C 819.151 58.108 819.151 39.187 831.352 39.187 C 843.554 39.187 843.554 58.108 831.352 58.108 Z " fill="rgb(123,100,30)"/><path d=" M 876.599 601.983 C 868.464 601.983 868.464 589.368 876.599 589.368 C 884.733 589.368 884.733 601.983 876.599 601.983 Z " fill="rgb(176,102,56)"/><path d=" M 1923.928 137.746 C 1926.853 139.939 1929.828 141.622 1932.081 143.991 C 1935.27 147.341 1937.673 151.371 1938.92 155.898 C 1940.114 160.21 1941.084 164.587 1942.102 168.949 C 1942.92 172.443 1943.66 175.958 1944.437 179.459 C 1945.23 178.087 1945.686 176.773 1945.764 175.434 C 1946.253 166.753 1949.277 158.941 1953.712 151.589 C 1956.577 146.842 1959.721 142.431 1965.201 140.269 C 1967.134 139.506 1968.833 138.146 1971.004 136.837 C 1967.593 134.967 1964.357 133.363 1961.292 131.483 C 1954.697 127.438 1949.885 121.945 1947.872 114.291 C 1947.402 112.491 1946.754 110.758 1946.084 108.678 C 1943.185 122.171 1935.602 131.635 1923.928 137.746 L 1923.928 137.746 Z  M 1942.516 80.051 C 1946.104 79.398 1946.966 79.958 1946.797 83.211 C 1946.264 93.571 1947.849 103.638 1951.004 113.438 C 1953.234 120.385 1957.578 125.638 1964.318 128.798 C 1968.486 130.758 1972.569 132.895 1976.633 135.054 C 1977.272 135.393 1978.108 136.398 1977.988 136.887 C 1977.8 137.667 1977.017 138.533 1976.261 138.909 C 1972.589 140.726 1968.862 142.447 1965.109 144.098 C 1962.368 145.302 1960.309 147.286 1958.68 149.666 C 1953.846 156.721 1950.002 164.133 1949.129 172.911 C 1948.441 179.85 1947.092 186.723 1945.958 193.609 C 1945.752 194.873 1945.764 196.699 1943.845 196.569 C 1942.097 196.453 1942.329 194.669 1942.357 193.575 C 1942.524 187.549 1941.622 181.626 1940.384 175.791 C 1938.574 167.293 1937.465 158.581 1932.969 150.833 C 1929.48 144.814 1924.452 141.603 1917.537 141.173 C 1916.022 141.077 1913.825 141.531 1913.521 139.391 C 1913.152 136.777 1915.712 137.133 1917.21 136.717 C 1931.069 132.867 1943.294 119.291 1943.188 104.185 C 1943.165 100.691 1943.584 97.185 1943.474 93.705 C 1943.334 89.251 1942.865 84.811 1942.516 80.051 Z " fill-rule="evenodd" fill="rgb(255,255,255)"/><path d=" M 1561.136 1120.144 C 1553.437 1113.939 1547.379 1107.004 1545.163 1096.452 C 1541.12 1105.816 1536.271 1113.455 1529.281 1119.92 C 1538.728 1126.329 1541.779 1136.1 1544.133 1147.04 C 1546.54 1141.655 1548.456 1136.965 1550.711 1132.441 C 1553.069 1127.712 1556.516 1123.772 1561.136 1120.144 Z  M 1565.179 1120.163 C 1563.832 1121.548 1562.127 1123.119 1560.64 1124.871 C 1558.232 1127.707 1555.545 1130.417 1553.737 1133.613 C 1550.24 1139.796 1547.501 1146.365 1545.855 1153.332 C 1545.373 1155.356 1545.32 1155.337 1543.037 1156.304 C 1540.656 1154.015 1541.115 1150.808 1540.603 1147.983 C 1539.639 1142.699 1538.603 1137.468 1536.113 1132.641 C 1533.761 1128.072 1530.067 1124.775 1525.909 1121.941 C 1523.619 1120.384 1523.436 1119.261 1525.839 1117.86 C 1532.551 1113.949 1536.129 1107.455 1539.684 1101.061 C 1542.335 1096.293 1544.463 1091.179 1544.408 1085.496 C 1544.395 1084.139 1545.02 1083.327 1546.48 1083.572 C 1547.827 1083.801 1548.78 1084.34 1548.447 1086.051 C 1546.436 1096.452 1550.305 1104.793 1557.529 1111.991 C 1560.079 1114.532 1562.455 1117.247 1565.179 1120.163 Z " fill-rule="evenodd" fill="rgb(255,255,255)"/></g></g></g></g></svg>