<?xml version="1.0" encoding="UTF-8" standalone="no"?>
<!DOCTYPE svg PUBLIC "-//W3C//DTD SVG 1.1//EN" "http://www.w3.org/Graphics/SVG/1.1/DTD/svg11.dtd">
<svg width="100%" height="100%" viewBox="0 0 3045 1512" version="1.1" xmlns="http://www.w3.org/2000/svg" xmlns:xlink="http://www.w3.org/1999/xlink" xml:space="preserve" xmlns:serif="http://www.serif.com/" style="fill-rule:evenodd;clip-rule:evenodd;stroke-linejoin:round;stroke-miterlimit:2;">
    <g transform="matrix(6.18759e-17,-1.01051,1.01051,6.18759e-17,921.396,2182.66)">
        <path d="M1736.39,926.968C1735.53,926.759 1734.64,926.635 1733.82,926.321C1732.03,925.651 1730.89,923.685 1731.17,921.941C1731.43,920.371 1733.57,918.139 1735.29,918.32C1736.59,918.456 1737.84,918.521 1738.98,919.248C1740.63,920.297 1741.38,921.956 1740.98,923.656C1740.57,925.355 1738.61,927.053 1736.93,926.819C1736.77,926.793 1736.6,926.813 1736.42,926.813L1736.39,926.968Z" style="fill:rgb(152,148,200);"/>
    </g>
    <g transform="matrix(6.18759e-17,-1.01051,1.01051,6.18759e-17,1616.93,2819.62)">
        <path d="M1736.39,926.968C1735.53,926.759 1734.64,926.635 1733.82,926.321C1732.03,925.651 1730.89,923.685 1731.17,921.941C1731.43,920.371 1733.57,918.139 1735.29,918.32C1736.59,918.456 1737.84,918.521 1738.98,919.248C1740.63,920.297 1741.38,921.956 1740.98,923.656C1740.57,925.355 1738.61,927.053 1736.93,926.819C1736.77,926.793 1736.6,926.813 1736.42,926.813L1736.39,926.968Z" style="fill:rgb(152,148,200);"/>
    </g>
    <g transform="matrix(6.18759e-17,-1.01051,1.01051,6.18759e-17,538.854,2918.45)">
        <path d="M1736.39,926.968C1735.53,926.759 1734.64,926.635 1733.82,926.321C1732.03,925.651 1730.89,923.685 1731.17,921.941C1731.43,920.371 1733.57,918.139 1735.29,918.32C1736.59,918.456 1737.84,918.521 1738.98,919.248C1740.63,920.297 1741.38,921.956 1740.98,923.656C1740.57,925.355 1738.61,927.053 1736.93,926.819C1736.77,926.793 1736.6,926.813 1736.42,926.813L1736.39,926.968Z" style="fill:rgb(152,148,200);"/>
    </g>
    <g transform="matrix(6.18759e-17,-1.01051,1.01051,6.18759e-17,890.28,2351.05)">
        <path d="M1736.39,926.968C1735.53,926.759 1734.64,926.635 1733.82,926.321C1732.03,925.651 1730.89,923.685 1731.17,921.941C1731.43,920.371 1733.57,918.139 1735.29,918.32C1736.59,918.456 1737.84,918.521 1738.98,919.248C1740.63,920.297 1741.38,921.956 1740.98,923.656C1740.57,925.355 1738.61,927.053 1736.93,926.819C1736.77,926.793 1736.6,926.813 1736.42,926.813L1736.39,926.968Z" style="fill:rgb(152,148,200);"/>
    </g>
    <g transform="matrix(6.18759e-17,-1.01051,1.01051,6.18759e-17,-233.553,2574.35)">
        <path d="M1736.39,926.968C1735.53,926.759 1734.64,926.635 1733.82,926.321C1732.03,925.651 1730.89,923.685 1731.17,921.941C1731.43,920.371 1733.57,918.139 1735.29,918.32C1736.59,918.456 1737.84,918.521 1738.98,919.248C1740.63,920.297 1741.38,921.956 1740.98,923.656C1740.57,925.355 1738.61,927.053 1736.93,926.819C1736.77,926.793 1736.6,926.813 1736.42,926.813L1736.39,926.968Z" style="fill:rgb(152,148,200);"/>
    </g>
    <g transform="matrix(6.18759e-17,-1.01051,1.01051,6.18759e-17,99.5704,2418.77)">
        <path d="M1594.35,168.29C1589.19,168.357 1586,165.397 1585.92,160.477C1585.83,155.344 1589.56,151.624 1594.78,151.637C1599.98,151.664 1603.96,155.33 1604,160.157C1604.02,163.61 1600.31,168.864 1594.35,168.29Z" style="fill:rgb(152,148,200);"/>
    </g>
    <g transform="matrix(6.18759e-17,-1.01051,1.01051,6.18759e-17,1688.31,2488.32)">
        <path d="M1594.35,168.29C1589.19,168.357 1586,165.397 1585.92,160.477C1585.83,155.344 1589.56,151.624 1594.78,151.637C1599.98,151.664 1603.96,155.33 1604,160.157C1604.02,163.61 1600.31,168.864 1594.35,168.29Z" style="fill:rgb(152,148,200);"/>
    </g>
    <g transform="matrix(6.18759e-17,-1.01051,1.01051,6.18759e-17,2021.44,2490.15)">
        <path d="M1594.35,168.29C1589.19,168.357 1586,165.397 1585.92,160.477C1585.83,155.344 1589.56,151.624 1594.78,151.637C1599.98,151.664 1603.96,155.33 1604,160.157C1604.02,163.61 1600.31,168.864 1594.35,168.29Z" style="fill:rgb(152,148,200);"/>
    </g>
    <g transform="matrix(6.18759e-17,-1.01051,1.01051,6.18759e-17,928.718,2484.66)">
        <path d="M1594.35,168.29C1589.19,168.357 1586,165.397 1585.92,160.477C1585.83,155.344 1589.56,151.624 1594.78,151.637C1599.98,151.664 1603.96,155.33 1604,160.157C1604.02,163.61 1600.31,168.864 1594.35,168.29Z" style="fill:rgb(152,148,200);"/>
    </g>
    <g transform="matrix(6.18759e-17,-1.01051,1.01051,6.18759e-17,401.578,2585.33)">
        <path d="M1594.35,168.29C1589.19,168.357 1586,165.397 1585.92,160.477C1585.83,155.344 1589.56,151.624 1594.78,151.637C1599.98,151.664 1603.96,155.33 1604,160.157C1604.02,163.61 1600.31,168.864 1594.35,168.29Z" style="fill:rgb(152,148,200);"/>
    </g>
    <g transform="matrix(6.18759e-17,-1.01051,1.01051,6.18759e-17,789.611,1950.2)">
        <path d="M1594.35,168.29C1589.19,168.357 1586,165.397 1585.92,160.477C1585.83,155.344 1589.56,151.624 1594.78,151.637C1599.98,151.664 1603.96,155.33 1604,160.157C1604.02,163.61 1600.31,168.864 1594.35,168.29Z" style="fill:rgb(152,148,200);"/>
    </g>
    <g transform="matrix(6.18759e-17,-1.01051,1.01051,6.18759e-17,504.077,2299.8)">
        <path d="M1711.17,31.921C1708.04,32.028 1704.81,29.268 1704.74,26.414C1704.64,22.548 1707.42,19.254 1710.89,19.014C1714.92,18.748 1717.59,22.268 1717.69,25.654C1717.8,29.334 1715.12,31.668 1711.17,31.921Z" style="fill:rgb(152,148,200);"/>
    </g>
    <g transform="matrix(6.18759e-17,-1.01051,1.01051,6.18759e-17,844.522,2255.87)">
        <path d="M1619.36,1359.77C1617.56,1359.84 1615.28,1361.2 1613.69,1363.47C1612.38,1365.35 1613.1,1367.43 1614.1,1369.19C1615.68,1372.02 1619.62,1372.92 1622.78,1371.39C1625.79,1369.94 1627.12,1366.66 1625.98,1363.51C1625.17,1361.27 1622.94,1359.75 1619.36,1359.77Z" style="fill:rgb(152,148,200);"/>
    </g>
    <g transform="matrix(6.18759e-17,-1.01051,1.01051,6.18759e-17,-1292.41,1644.99)">
        <path d="M1619.36,1359.77C1617.56,1359.84 1615.28,1361.2 1613.69,1363.47C1612.38,1365.35 1613.1,1367.43 1614.1,1369.19C1615.68,1372.02 1619.62,1372.92 1622.78,1371.39C1625.79,1369.94 1627.12,1366.66 1625.98,1363.51C1625.17,1361.27 1622.94,1359.75 1619.36,1359.77Z" style="fill:rgb(152,148,200);"/>
    </g>
    <g transform="matrix(6.18759e-17,-1.01051,1.01051,6.18759e-17,-1323.52,1791.42)">
        <path d="M1619.36,1359.77C1617.56,1359.84 1615.28,1361.2 1613.69,1363.47C1612.38,1365.35 1613.1,1367.43 1614.1,1369.19C1615.68,1372.02 1619.62,1372.92 1622.78,1371.39C1625.79,1369.94 1627.12,1366.66 1625.98,1363.51C1625.17,1361.27 1622.94,1359.75 1619.36,1359.77Z" style="fill:rgb(152,148,200);"/>
    </g>
    <g transform="matrix(6.18759e-17,-1.01051,1.01051,6.18759e-17,901.263,1803.77)">
        <path d="M1619.36,1359.77C1617.56,1359.84 1615.28,1361.2 1613.69,1363.47C1612.38,1365.35 1613.1,1367.43 1614.1,1369.19C1615.68,1372.02 1619.62,1372.92 1622.78,1371.39C1625.79,1369.94 1627.12,1366.66 1625.98,1363.51C1625.17,1361.27 1622.94,1359.75 1619.36,1359.77Z" style="fill:rgb(152,148,200);"/>
    </g>
    <g transform="matrix(6.18759e-17,-1.01051,1.01051,6.18759e-17,529.702,1726.9)">
        <path d="M1619.36,1359.77C1617.56,1359.84 1615.28,1361.2 1613.69,1363.47C1612.38,1365.35 1613.1,1367.43 1614.1,1369.19C1615.68,1372.02 1619.62,1372.92 1622.78,1371.39C1625.79,1369.94 1627.12,1366.66 1625.98,1363.51C1625.17,1361.27 1622.94,1359.75 1619.36,1359.77Z" style="fill:rgb(152,148,200);"/>
    </g>
    <g transform="matrix(6.18759e-17,-1.01051,1.01051,6.18759e-17,628.541,2155.2)">
        <path d="M1959.1,1089.36C1957.92,1089 1956.68,1088.82 1955.62,1088.27C1952.25,1086.57 1952.29,1081.97 1954.86,1079.69C1955.98,1078.7 1957.31,1078.08 1958.77,1077.79C1960.05,1077.54 1961.31,1077.74 1962.19,1078.73C1963.05,1079.68 1963.77,1080.77 1964.38,1081.89C1965.95,1084.76 1963.47,1089.61 1959.1,1089.36Z" style="fill:white;"/>
    </g>
    <g transform="matrix(6.18759e-17,-1.01051,1.01051,6.18759e-17,-412.927,2347.39)">
        <path d="M1959.1,1089.36C1957.92,1089 1956.68,1088.82 1955.62,1088.27C1952.25,1086.57 1952.29,1081.97 1954.86,1079.69C1955.98,1078.7 1957.31,1078.08 1958.77,1077.79C1960.05,1077.54 1961.31,1077.74 1962.19,1078.73C1963.05,1079.68 1963.77,1080.77 1964.38,1081.89C1965.95,1084.76 1963.47,1089.61 1959.1,1089.36Z" style="fill:white;"/>
    </g>
    <g transform="matrix(6.18759e-17,-1.01051,1.01051,6.18759e-17,42.8296,2297.97)">
        <path d="M1959.1,1089.36C1957.92,1089 1956.68,1088.82 1955.62,1088.27C1952.25,1086.57 1952.29,1081.97 1954.86,1079.69C1955.98,1078.7 1957.31,1078.08 1958.77,1077.79C1960.05,1077.54 1961.31,1077.74 1962.19,1078.73C1963.05,1079.68 1963.77,1080.77 1964.38,1081.89C1965.95,1084.76 1963.47,1089.61 1959.1,1089.36Z" style="fill:white;"/>
    </g>
    <g transform="matrix(6.18759e-17,-1.01051,1.01051,6.18759e-17,569.97,2506.63)">
        <path d="M1959.1,1089.36C1957.92,1089 1956.68,1088.82 1955.62,1088.27C1952.25,1086.57 1952.29,1081.97 1954.86,1079.69C1955.98,1078.7 1957.31,1078.08 1958.77,1077.79C1960.05,1077.54 1961.31,1077.74 1962.19,1078.73C1963.05,1079.68 1963.77,1080.77 1964.38,1081.89C1965.95,1084.76 1963.47,1089.61 1959.1,1089.36Z" style="fill:white;"/>
    </g>
    <g transform="matrix(6.18759e-17,-1.01051,1.01051,6.18759e-17,379.614,2147.88)">
        <path d="M1959.1,1089.36C1957.92,1089 1956.68,1088.82 1955.62,1088.27C1952.25,1086.57 1952.29,1081.97 1954.86,1079.69C1955.98,1078.7 1957.31,1078.08 1958.77,1077.79C1960.05,1077.54 1961.31,1077.74 1962.19,1078.73C1963.05,1079.68 1963.77,1080.77 1964.38,1081.89C1965.95,1084.76 1963.47,1089.61 1959.1,1089.36Z" style="fill:white;"/>
    </g>
    <g transform="matrix(6.18759e-17,-1.01051,1.01051,6.18759e-17,1907.95,3388.85)">
        <path d="M1959.1,1089.36C1957.92,1089 1956.68,1088.82 1955.62,1088.27C1952.25,1086.57 1952.29,1081.97 1954.86,1079.69C1955.98,1078.7 1957.31,1078.08 1958.77,1077.79C1960.05,1077.54 1961.31,1077.74 1962.19,1078.73C1963.05,1079.68 1963.77,1080.77 1964.38,1081.89C1965.95,1084.76 1963.47,1089.61 1959.1,1089.36Z" style="fill:white;"/>
    </g>
    <g transform="matrix(6.18759e-17,-1.01051,1.01051,6.18759e-17,1873.18,2995.33)">
        <path d="M1959.1,1089.36C1957.92,1089 1956.68,1088.82 1955.62,1088.27C1952.25,1086.57 1952.29,1081.97 1954.86,1079.69C1955.98,1078.7 1957.31,1078.08 1958.77,1077.79C1960.05,1077.54 1961.31,1077.74 1962.19,1078.73C1963.05,1079.68 1963.77,1080.77 1964.38,1081.89C1965.95,1084.76 1963.47,1089.61 1959.1,1089.36Z" style="fill:white;"/>
    </g>
    <g transform="matrix(6.18759e-17,-1.01051,1.01051,6.18759e-17,773.138,2394.98)">
        <path d="M1282.91,1144.81C1282.31,1144.67 1281.68,1144.58 1281.1,1144.36C1279.86,1143.89 1279.06,1142.52 1279.26,1141.29C1279.43,1140.19 1280.93,1138.64 1282.14,1138.76C1283.04,1138.86 1283.92,1138.9 1284.72,1139.41C1285.88,1140.14 1286.4,1141.3 1286.12,1142.49C1285.83,1143.68 1284.46,1144.87 1283.29,1144.71C1283.17,1144.69 1283.05,1144.71 1282.93,1144.71L1282.91,1144.81Z" style="fill:white;"/>
    </g>
    <g transform="matrix(6.18759e-17,-1.01051,1.01051,6.18759e-17,1518.09,2686.46)">
        <path d="M1282.91,1144.81C1282.31,1144.67 1281.68,1144.58 1281.1,1144.36C1279.86,1143.89 1279.06,1142.52 1279.26,1141.29C1279.43,1140.19 1280.93,1138.64 1282.14,1138.76C1283.04,1138.86 1283.92,1138.9 1284.72,1139.41C1285.88,1140.14 1286.4,1141.3 1286.12,1142.49C1285.83,1143.68 1284.46,1144.87 1283.29,1144.71C1283.17,1144.69 1283.05,1144.71 1282.93,1144.71L1282.91,1144.81Z" style="fill:white;"/>
    </g>
    <g transform="matrix(6.18759e-17,-1.01051,1.01051,6.18759e-17,500.416,2513.95)">
        <path d="M1317.71,79.723C1317.82,82.969 1315.15,85.598 1310.75,85.695C1307.54,85.766 1305.51,82.954 1305.49,79.855C1305.45,75.717 1308.22,74.129 1311.83,73.935C1315.62,73.735 1317.68,76.859 1317.71,79.723Z" style="fill:white;"/>
    </g>
    <g transform="matrix(6.18759e-17,-1.01051,1.01051,6.18759e-17,758.495,2294.31)">
        <path d="M820.559,1181.68C821.92,1181.73 823.637,1182.75 824.835,1184.48C825.823,1185.89 825.279,1187.46 824.529,1188.79C823.331,1190.92 820.369,1191.59 817.98,1190.44C815.716,1189.35 814.713,1186.88 815.569,1184.51C816.183,1182.81 817.867,1181.67 820.559,1181.68Z" style="fill:white;"/>
    </g>
    <g transform="matrix(6.18759e-17,-1.01051,1.01051,6.18759e-17,1913.44,2532.25)">
        <path d="M1354.89,889.113C1363.02,889.113 1363.02,876.499 1354.89,876.499C1346.76,876.499 1346.76,889.113 1354.89,889.113Z" style="fill:rgb(159,22,90);fill-rule:nonzero;"/>
    </g>
    <g transform="matrix(6.18759e-17,-1.01051,1.01051,6.18759e-17,1313.09,2515.78)">
        <path d="M1354.89,889.113C1363.02,889.113 1363.02,876.499 1354.89,876.499C1346.76,876.499 1346.76,889.113 1354.89,889.113Z" style="fill:rgb(159,22,90);fill-rule:nonzero;"/>
    </g>
    <g transform="matrix(6.18759e-17,-1.01051,1.01051,6.18759e-17,1161.17,1831.23)">
        <path d="M1354.89,889.113C1363.02,889.113 1363.02,876.499 1354.89,876.499C1346.76,876.499 1346.76,889.113 1354.89,889.113Z" style="fill:rgb(159,22,90);fill-rule:nonzero;"/>
    </g>
    <g transform="matrix(6.18759e-17,-1.01051,1.01051,6.18759e-17,26.3566,1468.82)">
        <path d="M1354.89,889.113C1363.02,889.113 1363.02,876.499 1354.89,876.499C1346.76,876.499 1346.76,889.113 1354.89,889.113Z" style="fill:rgb(159,22,90);fill-rule:nonzero;"/>
    </g>
    <g transform="matrix(6.18759e-17,-1.01051,1.01051,6.18759e-17,758.495,2294.31)">
        <path d="M2230.33,1267.55C2238.47,1267.55 2238.47,1254.93 2230.33,1254.93C2222.2,1254.93 2222.2,1267.55 2230.33,1267.55Z" style="fill:rgb(159,22,90);fill-rule:nonzero;"/>
    </g>
    <g transform="matrix(6.18759e-17,-1.01051,1.01051,6.18759e-17,758.495,2294.31)">
        <path d="M1008.84,151.637C1016.97,151.637 1016.97,139.022 1008.84,139.022C1000.7,139.022 1000.7,151.637 1008.84,151.637Z" style="fill:rgb(159,22,90);fill-rule:nonzero;"/>
    </g>
    <g transform="matrix(6.18759e-17,-1.01051,1.01051,6.18759e-17,560.818,2354.71)">
        <path d="M1008.84,151.637C1016.97,151.637 1016.97,139.022 1008.84,139.022C1000.7,139.022 1000.7,151.637 1008.84,151.637Z" style="fill:rgb(159,22,90);fill-rule:nonzero;"/>
    </g>
    <g transform="matrix(6.18759e-17,-1.01051,1.01051,6.18759e-17,72.1152,1326.05)">
        <path d="M1008.84,151.637C1016.97,151.637 1016.97,139.022 1008.84,139.022C1000.7,139.022 1000.7,151.637 1008.84,151.637Z" style="fill:rgb(159,22,90);fill-rule:nonzero;"/>
    </g>
    <g transform="matrix(6.18759e-17,-1.01051,1.01051,6.18759e-17,95.9097,2160.69)">
        <path d="M1008.84,151.637C1016.97,151.637 1016.97,139.022 1008.84,139.022C1000.7,139.022 1000.7,151.637 1008.84,151.637Z" style="fill:rgb(159,22,90);fill-rule:nonzero;"/>
    </g>
    <g transform="matrix(6.18759e-17,-1.01051,1.01051,6.18759e-17,709.076,1547.52)">
        <path d="M1008.84,151.637C1016.97,151.637 1016.97,139.022 1008.84,139.022C1000.7,139.022 1000.7,151.637 1008.84,151.637Z" style="fill:rgb(159,22,90);fill-rule:nonzero;"/>
    </g>
    <g transform="matrix(6.18759e-17,-1.01051,1.01051,6.18759e-17,1457.69,1126.54)">
        <path d="M1008.84,151.637C1016.97,151.637 1016.97,139.022 1008.84,139.022C1000.7,139.022 1000.7,151.637 1008.84,151.637Z" style="fill:rgb(159,22,90);fill-rule:nonzero;"/>
    </g>
    <g transform="matrix(6.18759e-17,-1.01051,1.01051,6.18759e-17,994.61,1831.23)">
        <path d="M1417.96,296.236C1426.1,296.236 1426.1,283.621 1417.96,283.621C1409.83,283.621 1409.83,296.236 1417.96,296.236Z" style="fill:rgb(72,193,175);fill-rule:nonzero;"/>
    </g>
    <g transform="matrix(6.18759e-17,-1.01051,1.01051,6.18759e-17,1025.73,1635.38)">
        <path d="M1417.96,296.236C1426.1,296.236 1426.1,283.621 1417.96,283.621C1409.83,283.621 1409.83,296.236 1417.96,296.236Z" style="fill:rgb(72,193,175);fill-rule:nonzero;"/>
    </g>
    <g transform="matrix(6.18759e-17,-1.01051,1.01051,6.18759e-17,2209.96,1990.47)">
        <path d="M1417.96,296.236C1426.1,296.236 1426.1,283.621 1417.96,283.621C1409.83,283.621 1409.83,296.236 1417.96,296.236Z" style="fill:rgb(72,193,175);fill-rule:nonzero;"/>
    </g>
    <g transform="matrix(6.18759e-17,-1.01051,1.01051,6.18759e-17,2513.8,2109.44)">
        <path d="M1417.96,296.236C1426.1,296.236 1426.1,283.621 1417.96,283.621C1409.83,283.621 1409.83,296.236 1417.96,296.236Z" style="fill:rgb(72,193,175);fill-rule:nonzero;"/>
    </g>
    <g transform="matrix(6.18759e-17,-1.01051,1.01051,6.18759e-17,392.426,1531.05)">
        <path d="M1417.96,296.236C1426.1,296.236 1426.1,283.621 1417.96,283.621C1409.83,283.621 1409.83,296.236 1417.96,296.236Z" style="fill:rgb(72,193,175);fill-rule:nonzero;"/>
    </g>
    <g transform="matrix(6.18759e-17,-1.01051,1.01051,6.18759e-17,1386.3,1790.96)">
        <path d="M1417.96,296.236C1426.1,296.236 1426.1,283.621 1417.96,283.621C1409.83,283.621 1409.83,296.236 1417.96,296.236Z" style="fill:rgb(72,193,175);fill-rule:nonzero;"/>
    </g>
    <g transform="matrix(6.18759e-17,-1.01051,1.01051,6.18759e-17,758.495,2294.31)">
        <path d="M2158.37,332.324C2166.51,332.324 2166.51,319.709 2158.37,319.709C2150.24,319.709 2150.24,332.324 2158.37,332.324Z" style="fill:rgb(247,204,47);fill-rule:nonzero;"/>
    </g>
    <g transform="matrix(6.18759e-17,-1.01051,1.01051,6.18759e-17,1157.51,2797.65)">
        <path d="M2158.37,332.324C2166.51,332.324 2166.51,319.709 2158.37,319.709C2150.24,319.709 2150.24,332.324 2158.37,332.324Z" style="fill:rgb(247,204,47);fill-rule:nonzero;"/>
    </g>
    <g transform="matrix(6.18759e-17,-1.01051,1.01051,6.18759e-17,1446.71,2415.11)">
        <path d="M2158.37,332.324C2166.51,332.324 2166.51,319.709 2158.37,319.709C2150.24,319.709 2150.24,332.324 2158.37,332.324Z" style="fill:rgb(247,204,47);fill-rule:nonzero;"/>
    </g>
    <g transform="matrix(6.18759e-17,-1.01051,1.01051,6.18759e-17,2043.4,2984.35)">
        <path d="M2158.37,332.324C2166.51,332.324 2166.51,319.709 2158.37,319.709C2150.24,319.709 2150.24,332.324 2158.37,332.324Z" style="fill:rgb(247,204,47);fill-rule:nonzero;"/>
    </g>
    <g transform="matrix(6.18759e-17,-1.01051,1.01051,6.18759e-17,-242.705,2843.41)">
        <path d="M2158.37,332.324C2166.51,332.324 2166.51,319.709 2158.37,319.709C2150.24,319.709 2150.24,332.324 2158.37,332.324Z" style="fill:rgb(247,204,47);fill-rule:nonzero;"/>
    </g>
    <g transform="matrix(6.18759e-17,-1.01051,1.01051,6.18759e-17,1893.31,1917.25)">
        <path d="M1126.82,716.27C1129.82,718.902 1132.25,721.026 1135.03,723.451C1136.14,720.888 1137.05,718.77 1138.14,716.27L1126.82,716.27ZM1150.28,737.594C1154.12,741.205 1157.79,744.656 1161.47,748.105C1161.68,747.994 1161.89,747.884 1162.1,747.773C1160.66,742.738 1159.22,737.704 1157.63,732.164C1155.07,734.06 1152.84,735.7 1150.28,737.594ZM1153.36,712.43C1152.37,706.536 1151.44,701.061 1150.47,695.325C1147.1,701.305 1143.23,710.601 1143.09,713.08C1146.58,713.294 1150.07,713.7 1153.36,712.43ZM1174.9,717.264C1167.85,715.062 1161.09,714.697 1157.3,716.209C1158.04,719.738 1158.8,723.316 1159.68,727.499C1164.85,724.021 1169.58,720.842 1174.9,717.264ZM1127.38,748.918C1127.57,749.073 1127.75,749.228 1127.94,749.384C1133.86,745.281 1139.78,741.177 1145.99,736.881C1142.67,733.929 1139.58,731.168 1136.03,728.006C1133.03,735.244 1130.21,742.081 1127.38,748.918ZM1137.4,725.418C1141.07,728.693 1144.72,731.931 1148.54,735.33C1151.44,733.234 1154.27,731.191 1157.25,729.041C1156.29,724.6 1155.35,720.329 1154.52,716.459C1150.2,716.459 1146.34,716.477 1142.48,716.449C1141.2,716.44 1140.69,717.237 1140.29,718.237C1139.35,720.553 1138.42,722.866 1137.4,725.418ZM1156.44,712.344C1164.98,711.197 1172.89,713.556 1181.05,714.794C1181.16,715.742 1181.25,716.498 1181.28,716.762C1176.13,720.141 1171.29,723.328 1166.44,726.478C1165.01,727.409 1163.52,728.244 1162.05,729.113C1160.73,729.898 1160.16,730.848 1160.65,732.507C1162.64,739.164 1164.43,745.876 1166.44,752.525C1166.89,754.013 1166.44,754.853 1165.39,755.934C1159.64,750.373 1154.01,744.937 1148.33,739.449C1144.72,740.352 1142.22,742.918 1139.36,744.908C1135.54,747.58 1131.71,750.252 1127.88,752.916C1127.6,753.109 1127.28,753.338 1126.96,753.373C1125.9,753.485 1124.51,753.966 1123.84,753.48C1122.69,752.661 1123.77,751.478 1124.17,750.444C1126.47,744.512 1128.68,738.542 1131.01,732.62C1131.84,730.526 1132.91,728.528 1133.97,726.282C1129.15,722.889 1125.79,717.921 1120.5,715.262C1118.99,714.505 1119.15,713.414 1119.65,712.074C1126.23,712.482 1132.67,712.882 1139.37,713.296C1142.24,706.726 1145.01,700.377 1147.78,694.03C1148.28,692.884 1148.73,691.697 1149.36,690.624C1149.72,690.014 1150.42,689.601 1150.96,689.097C1151.47,689.746 1152.27,690.325 1152.46,691.055C1153.02,693.257 1153.69,695.52 1153.69,697.757C1153.69,702.642 1155.24,707.161 1156.44,712.344Z" style="fill:white;"/>
    </g>
    <g transform="matrix(1.01051,0,0,1.01051,1123.8,18.9425)">
        <path d="M1158.58,1280.27C1160.87,1279.85 1161.42,1280.21 1161.32,1282.3C1160.98,1288.92 1161.99,1295.36 1164.01,1301.63C1165.44,1306.07 1168.21,1309.44 1172.53,1311.46C1175.19,1312.72 1177.81,1314.08 1180.41,1315.46C1180.82,1315.68 1181.35,1316.33 1181.27,1316.64C1181.15,1317.14 1180.65,1317.69 1180.17,1317.93C1177.82,1319.1 1175.43,1320.2 1173.04,1321.25C1171.28,1322.02 1169.96,1323.3 1168.92,1324.81C1165.83,1329.33 1163.37,1334.07 1162.81,1339.69C1162.37,1344.13 1161.5,1348.52 1160.78,1352.93C1160.64,1353.73 1160.66,1354.91 1159.43,1354.83C1158.31,1354.75 1158.46,1353.61 1158.48,1352.91C1158.58,1349.05 1158.01,1345.27 1157.21,1341.53C1156.06,1336.09 1155.35,1330.52 1152.47,1325.56C1150.23,1321.71 1147.02,1319.65 1142.59,1319.38C1141.62,1319.32 1140.22,1319.61 1140.03,1318.24C1139.79,1316.57 1141.42,1316.8 1142.38,1316.53C1151.26,1314.07 1159.08,1305.38 1159.01,1295.71C1158.99,1293.48 1159.26,1291.24 1159.19,1289.01C1159.1,1286.15 1158.8,1283.31 1158.58,1280.27Z" style="fill:rgb(244,222,177);"/>
    </g>
    <g transform="matrix(1.01051,0,0,1.01051,-436.606,-95.5976)">
        <path d="M1819.61,411.233C1821.1,410.959 1821.46,411.193 1821.39,412.551C1821.17,416.856 1821.83,421.04 1823.14,425.12C1824.07,428.005 1825.88,430.195 1828.68,431.508C1830.41,432.323 1832.11,433.212 1833.8,434.108C1834.07,434.251 1834.41,434.668 1834.37,434.872C1834.29,435.196 1833.96,435.557 1833.64,435.712C1832.12,436.469 1830.57,437.185 1829.01,437.871C1827.87,438.374 1827.01,439.197 1826.34,440.187C1824.32,443.121 1822.73,446.204 1822.36,449.855C1822.08,452.74 1821.51,455.599 1821.04,458.463C1820.95,458.99 1820.96,459.751 1820.16,459.696C1819.44,459.646 1819.53,458.905 1819.55,458.451C1819.62,455.943 1819.24,453.48 1818.73,451.052C1817.97,447.52 1817.51,443.895 1815.64,440.672C1814.19,438.169 1812.1,436.835 1809.22,436.654C1808.59,436.613 1807.68,436.803 1807.55,435.913C1807.4,434.826 1808.46,434.975 1809.09,434.801C1814.85,433.199 1819.94,427.552 1819.89,421.271C1819.88,419.819 1820.05,418.361 1820.01,416.913C1819.95,415.057 1819.76,413.21 1819.61,411.233Z" style="fill:rgb(244,222,177);"/>
    </g>
    <g transform="matrix(1.01051,0,0,1.01051,-789.702,177.366)">
        <path d="M2135.67,689.793C2137.96,689.373 2138.52,689.731 2138.42,691.82C2138.07,698.444 2139.08,704.881 2141.11,711.156C2142.54,715.596 2145.31,718.963 2149.63,720.988C2152.28,722.237 2154.9,723.607 2157.5,724.987C2157.91,725.205 2158.44,725.848 2158.36,726.161C2158.24,726.659 2157.75,727.215 2157.27,727.453C2154.91,728.62 2152.52,729.719 2150.14,730.775C2148.38,731.547 2147.06,732.815 2146.02,734.339C2142.92,738.853 2140.46,743.593 2139.91,749.212C2139.47,753.651 2138.6,758.048 2137.87,762.456C2137.75,763.265 2137.75,764.432 2136.52,764.351C2135.4,764.273 2135.55,763.135 2135.58,762.435C2135.68,758.575 2135.1,754.788 2134.31,751.053C2133.15,745.619 2132.44,740.044 2129.56,735.083C2127.32,731.233 2124.11,729.179 2119.7,728.903C2118.72,728.841 2117.31,729.131 2117.12,727.765C2116.88,726.089 2118.52,726.317 2119.48,726.052C2128.35,723.589 2136.18,714.9 2136.1,705.236C2136.08,703.003 2136.35,700.761 2136.28,698.531C2136.19,695.679 2135.9,692.833 2135.67,689.793Z" style="fill:rgb(244,222,177);"/>
    </g>
    <g transform="matrix(1.01051,0,0,1.01051,-687.202,-679.236)">
        <path d="M2135.67,689.793C2137.96,689.373 2138.52,689.731 2138.42,691.82C2138.07,698.444 2139.08,704.881 2141.11,711.156C2142.54,715.596 2145.31,718.963 2149.63,720.988C2152.28,722.237 2154.9,723.607 2157.5,724.987C2157.91,725.205 2158.44,725.848 2158.36,726.161C2158.24,726.659 2157.75,727.215 2157.27,727.453C2154.91,728.62 2152.52,729.719 2150.14,730.775C2148.38,731.547 2147.06,732.815 2146.02,734.339C2142.92,738.853 2140.46,743.593 2139.91,749.212C2139.47,753.651 2138.6,758.048 2137.87,762.456C2137.75,763.265 2137.75,764.432 2136.52,764.351C2135.4,764.273 2135.55,763.135 2135.58,762.435C2135.68,758.575 2135.1,754.788 2134.31,751.053C2133.15,745.619 2132.44,740.044 2129.56,735.083C2127.32,731.233 2124.11,729.179 2119.7,728.903C2118.72,728.841 2117.31,729.131 2117.12,727.765C2116.88,726.089 2118.52,726.317 2119.48,726.052C2128.35,723.589 2136.18,714.9 2136.1,705.236C2136.08,703.003 2136.35,700.761 2136.28,698.531C2136.19,695.679 2135.9,692.833 2135.67,689.793Z" style="fill:rgb(244,222,177);"/>
    </g>
    <g transform="matrix(6.18759e-17,-1.01051,1.01051,6.18759e-17,723.719,2224.75)">
        <path d="M1005.88,944.584C1004.29,943.588 1002.68,942.577 1001.05,941.561C999.96,942.472 998.916,943.358 997.849,944.218C997.496,944.504 997.104,944.777 996.686,944.937C996.414,945.036 995.992,945.022 995.764,944.868C995.624,944.773 995.649,944.305 995.718,944.041C996.11,942.528 996.541,941.026 996.988,939.425C996.541,939.17 996.11,938.946 995.698,938.686C994.926,938.194 994.153,937.702 993.406,937.169C993.194,937.013 993.078,936.73 992.814,936.366C993.621,936.148 994.24,935.974 994.86,935.82C995.713,935.609 996.557,935.356 997.426,935.222C998.15,935.106 998.581,934.72 998.896,934.105C999.349,933.218 999.817,932.348 1000.28,931.477C1000.61,930.873 1000.99,930.81 1001.42,931.348C1001.94,931.998 1002.43,932.69 1002.87,933.404C1003.23,933.981 1003.67,934.23 1004.36,934.265C1005.58,934.334 1006.79,934.524 1008,934.662C1008.15,934.684 1008.31,934.714 1008.45,934.773C1008.9,934.966 1008.96,935.317 1008.6,935.66C1007.65,936.545 1006.71,937.448 1005.72,938.284C1005.08,938.822 1004.85,939.354 1005.16,940.176C1005.58,941.281 1005.9,942.428 1006.26,943.553C1006.36,943.885 1006.47,944.224 1005.88,944.584Z" style="fill:rgb(246,244,232);"/>
    </g>
    <g transform="matrix(6.18759e-17,-1.01051,1.01051,6.18759e-17,-114.58,1968.5)">
        <path d="M1005.88,944.584C1004.29,943.588 1002.68,942.577 1001.05,941.561C999.96,942.472 998.916,943.358 997.849,944.218C997.496,944.504 997.104,944.777 996.686,944.937C996.414,945.036 995.992,945.022 995.764,944.868C995.624,944.773 995.649,944.305 995.718,944.041C996.11,942.528 996.541,941.026 996.988,939.425C996.541,939.17 996.11,938.946 995.698,938.686C994.926,938.194 994.153,937.702 993.406,937.169C993.194,937.013 993.078,936.73 992.814,936.366C993.621,936.148 994.24,935.974 994.86,935.82C995.713,935.609 996.557,935.356 997.426,935.222C998.15,935.106 998.581,934.72 998.896,934.105C999.349,933.218 999.817,932.348 1000.28,931.477C1000.61,930.873 1000.99,930.81 1001.42,931.348C1001.94,931.998 1002.43,932.69 1002.87,933.404C1003.23,933.981 1003.67,934.23 1004.36,934.265C1005.58,934.334 1006.79,934.524 1008,934.662C1008.15,934.684 1008.31,934.714 1008.45,934.773C1008.9,934.966 1008.96,935.317 1008.6,935.66C1007.65,936.545 1006.71,937.448 1005.72,938.284C1005.08,938.822 1004.85,939.354 1005.16,940.176C1005.58,941.281 1005.9,942.428 1006.26,943.553C1006.36,943.885 1006.47,944.224 1005.88,944.584Z" style="fill:rgb(246,244,232);"/>
    </g>
    <g transform="matrix(6.18759e-17,-1.01051,1.01051,6.18759e-17,590.103,2345.56)">
        <path d="M1696.17,613.326C1696.85,612.224 1697.46,611.082 1698.1,609.935C1696.75,608.706 1695.1,608.048 1693.89,606.548C1695.68,605.816 1697.35,606.51 1699.01,606.51C1699.68,605.055 1700.07,603.486 1701.11,601.983C1701.41,602.471 1701.63,602.763 1701.79,603.083C1702.27,603.996 1702.74,604.915 1703.19,605.846C1703.42,606.32 1703.77,606.478 1704.29,606.512C1705.28,606.579 1706.27,606.703 1707.25,606.843C1707.48,606.872 1707.67,607.062 1708.09,607.291C1706.88,608.048 1705.84,608.698 1704.74,609.387C1704.99,610.154 1705.21,610.842 1705.44,611.523C1705.77,612.466 1706.13,613.391 1706.43,614.34C1706.5,614.559 1706.39,614.832 1706.37,615.082C1706.1,615.039 1705.78,615.071 1705.56,614.938C1705.14,614.676 1704.77,614.332 1704.39,614.004C1703.51,613.224 1702.63,612.434 1701.7,611.608C1699.93,612.55 1698.21,613.462 1696.45,614.392C1695.86,614.078 1695.9,613.779 1696.17,613.326Z" style="fill:rgb(246,244,232);"/>
    </g>
    <g transform="matrix(6.18759e-17,-1.01051,1.01051,6.18759e-17,1704.79,2709.8)">
        <path d="M1696.17,613.326C1696.85,612.224 1697.46,611.082 1698.1,609.935C1696.75,608.706 1695.1,608.048 1693.89,606.548C1695.68,605.816 1697.35,606.51 1699.01,606.51C1699.68,605.055 1700.07,603.486 1701.11,601.983C1701.41,602.471 1701.63,602.763 1701.79,603.083C1702.27,603.996 1702.74,604.915 1703.19,605.846C1703.42,606.32 1703.77,606.478 1704.29,606.512C1705.28,606.579 1706.27,606.703 1707.25,606.843C1707.48,606.872 1707.67,607.062 1708.09,607.291C1706.88,608.048 1705.84,608.698 1704.74,609.387C1704.99,610.154 1705.21,610.842 1705.44,611.523C1705.77,612.466 1706.13,613.391 1706.43,614.34C1706.5,614.559 1706.39,614.832 1706.37,615.082C1706.1,615.039 1705.78,615.071 1705.56,614.938C1705.14,614.676 1704.77,614.332 1704.39,614.004C1703.51,613.224 1702.63,612.434 1701.7,611.608C1699.93,612.55 1698.21,613.462 1696.45,614.392C1695.86,614.078 1695.9,613.779 1696.17,613.326Z" style="fill:rgb(246,244,232);"/>
    </g>
    <g transform="matrix(6.18759e-17,-1.01051,1.01051,6.18759e-17,2148.64,1860.97)">
        <path d="M1696.17,613.326C1696.85,612.224 1697.46,611.082 1698.1,609.935C1696.75,608.706 1695.1,608.048 1693.89,606.548C1695.68,605.816 1697.35,606.51 1699.01,606.51C1699.68,605.055 1700.07,603.486 1701.11,601.983C1701.41,602.471 1701.63,602.763 1701.79,603.083C1702.27,603.996 1702.74,604.915 1703.19,605.846C1703.42,606.32 1703.77,606.478 1704.29,606.512C1705.28,606.579 1706.27,606.703 1707.25,606.843C1707.48,606.872 1707.67,607.062 1708.09,607.291C1706.88,608.048 1705.84,608.698 1704.74,609.387C1704.99,610.154 1705.21,610.842 1705.44,611.523C1705.77,612.466 1706.13,613.391 1706.43,614.34C1706.5,614.559 1706.39,614.832 1706.37,615.082C1706.1,615.039 1705.78,615.071 1705.56,614.938C1705.14,614.676 1704.77,614.332 1704.39,614.004C1703.51,613.224 1702.63,612.434 1701.7,611.608C1699.93,612.55 1698.21,613.462 1696.45,614.392C1695.86,614.078 1695.9,613.779 1696.17,613.326Z" style="fill:rgb(246,244,232);"/>
    </g>
    <g transform="matrix(6.18759e-17,-1.01051,1.01051,6.18759e-17,758.495,2294.31)">
        <rect x="0" y="0" width="3044.75" height="1511.87" style="fill:none;fill-rule:nonzero;"/>
    </g>
    <g transform="matrix(6.18759e-17,-1.01051,1.01051,6.18759e-17,2572.37,1571.32)">
        <path d="M1114.58,384C1110.19,384 1105.76,380.127 1105.66,376.135C1105.53,370.611 1109.5,365.908 1114.45,365.573C1114.66,365.56 1114.87,365.553 1115.08,365.553C1120.48,365.553 1124.03,370.387 1124.16,375.064C1124.33,380.296 1120.49,383.644 1114.85,383.996C1114.76,383.999 1114.67,384 1114.58,384Z" style="fill:rgb(251,222,102);fill-rule:nonzero;"/>
    </g>
    <g transform="matrix(6.18759e-17,-1.01051,1.01051,6.18759e-17,150.82,2189.98)">
        <path d="M831.352,58.108C819.151,58.108 819.151,39.187 831.352,39.187C843.554,39.187 843.554,58.108 831.352,58.108Z" style="fill:rgb(123,100,30);fill-rule:nonzero;"/>
    </g>
    <g transform="matrix(6.18759e-17,-1.01051,1.01051,6.18759e-17,1055.01,1908.1)">
        <path d="M831.352,58.108C819.151,58.108 819.151,39.187 831.352,39.187C843.554,39.187 843.554,58.108 831.352,58.108Z" style="fill:rgb(123,100,30);fill-rule:nonzero;"/>
    </g>
    <g transform="matrix(6.18759e-17,-1.01051,1.01051,6.18759e-17,1642.55,1891.63)">
        <path d="M831.352,58.108C819.151,58.108 819.151,39.187 831.352,39.187C843.554,39.187 843.554,58.108 831.352,58.108Z" style="fill:rgb(123,100,30);fill-rule:nonzero;"/>
    </g>
    <g transform="matrix(6.18759e-17,-1.01051,1.01051,6.18759e-17,1948.22,1099.09)">
        <path d="M831.352,58.108C819.151,58.108 819.151,39.187 831.352,39.187C843.554,39.187 843.554,58.108 831.352,58.108Z" style="fill:rgb(123,100,30);fill-rule:nonzero;"/>
    </g>
    <g transform="matrix(6.18759e-17,-1.01051,1.01051,6.18759e-17,758.495,2294.31)">
        <path d="M876.599,601.983C868.464,601.983 868.464,589.368 876.599,589.368C884.733,589.368 884.733,601.983 876.599,601.983Z" style="fill:rgb(176,102,56);fill-rule:nonzero;"/>
    </g>
    <g transform="matrix(1.01051,0,0,1.01051,-1501.84,56.6847)">
        <path d="M1923.93,137.746C1926.85,139.939 1929.83,141.622 1932.08,143.991C1935.27,147.341 1937.67,151.371 1938.92,155.898C1940.11,160.21 1941.08,164.587 1942.1,168.949C1942.92,172.443 1943.66,175.958 1944.44,179.459C1945.23,178.087 1945.69,176.773 1945.76,175.434C1946.25,166.753 1949.28,158.941 1953.71,151.589C1956.58,146.842 1959.72,142.431 1965.2,140.269C1967.13,139.506 1968.83,138.146 1971,136.837C1967.59,134.967 1964.36,133.363 1961.29,131.483C1954.7,127.438 1949.88,121.945 1947.87,114.291C1947.4,112.491 1946.75,110.758 1946.08,108.678C1943.18,122.171 1935.6,131.635 1923.93,137.746ZM1942.52,80.051C1946.1,79.398 1946.97,79.958 1946.8,83.211C1946.26,93.571 1947.85,103.638 1951,113.438C1953.23,120.385 1957.58,125.638 1964.32,128.798C1968.49,130.758 1972.57,132.895 1976.63,135.054C1977.27,135.393 1978.11,136.398 1977.99,136.887C1977.8,137.667 1977.02,138.533 1976.26,138.909C1972.59,140.726 1968.86,142.447 1965.11,144.098C1962.37,145.302 1960.31,147.286 1958.68,149.666C1953.85,156.721 1950,164.133 1949.13,172.911C1948.44,179.85 1947.09,186.723 1945.96,193.609C1945.75,194.873 1945.76,196.699 1943.85,196.569C1942.1,196.453 1942.33,194.669 1942.36,193.575C1942.52,187.549 1941.62,181.626 1940.38,175.791C1938.57,167.293 1937.47,158.581 1932.97,150.833C1929.48,144.814 1924.45,141.603 1917.54,141.173C1916.02,141.077 1913.83,141.531 1913.52,139.391C1913.15,136.777 1915.71,137.133 1917.21,136.717C1931.07,132.867 1943.29,119.291 1943.19,104.185C1943.16,100.691 1943.58,97.185 1943.47,93.705C1943.33,89.251 1942.87,84.811 1942.52,80.051Z" style="fill:white;"/>
    </g>
    <g transform="matrix(1.01051,0,0,1.01051,812.514,-757.007)">
        <path d="M1561.14,1120.14C1553.44,1113.94 1547.38,1107 1545.16,1096.45C1541.12,1105.82 1536.27,1113.45 1529.28,1119.92C1538.73,1126.33 1541.78,1136.1 1544.13,1147.04C1546.54,1141.65 1548.46,1136.96 1550.71,1132.44C1553.07,1127.71 1556.52,1123.77 1561.14,1120.14ZM1565.18,1120.16C1563.83,1121.55 1562.13,1123.12 1560.64,1124.87C1558.23,1127.71 1555.55,1130.42 1553.74,1133.61C1550.24,1139.8 1547.5,1146.37 1545.86,1153.33C1545.37,1155.36 1545.32,1155.34 1543.04,1156.3C1540.66,1154.02 1541.12,1150.81 1540.6,1147.98C1539.64,1142.7 1538.6,1137.47 1536.11,1132.64C1533.76,1128.07 1530.07,1124.78 1525.91,1121.94C1523.62,1120.38 1523.44,1119.26 1525.84,1117.86C1532.55,1113.95 1536.13,1107.45 1539.68,1101.06C1542.34,1096.29 1544.46,1091.18 1544.41,1085.5C1544.39,1084.14 1545.02,1083.33 1546.48,1083.57C1547.83,1083.8 1548.78,1084.34 1548.45,1086.05C1546.44,1096.45 1550.31,1104.79 1557.53,1111.99C1560.08,1114.53 1562.45,1117.25 1565.18,1120.16Z" style="fill:white;"/>
    </g>
</svg>
