<?xml version="1.0" encoding="UTF-8" standalone="no"?>
<!DOCTYPE svg PUBLIC "-//W3C//DTD SVG 1.1//EN" "http://www.w3.org/Graphics/SVG/1.1/DTD/svg11.dtd">
<svg width="100%" height="100%" viewBox="0 0 361 361" version="1.1" xmlns="http://www.w3.org/2000/svg" xmlns:xlink="http://www.w3.org/1999/xlink" xml:space="preserve" xmlns:serif="http://www.serif.com/" style="fill-rule:evenodd;clip-rule:evenodd;stroke-linejoin:round;stroke-miterlimit:2;">
    <g transform="matrix(4.16667,0,0,-4.16667,-972.175,484.917)">
        <path d="M265.492,61.42L288.282,84.211L289.27,83.224L266.479,60.433L265.492,61.42Z" style="fill:rgb(47,184,225);fill-rule:nonzero;"/>
        <path d="M283.314,49.912L281.124,52.102L297.406,68.385L299.596,66.194C302.294,63.497 302.294,59.123 299.596,56.426L293.082,49.911C290.385,47.214 286.011,47.215 283.314,49.912Z" style="fill:rgb(201,211,215);fill-rule:nonzero;"/>
        <path d="M281.124,52.102L256.174,77.052L272.456,93.335L297.406,68.385L281.124,52.102Z" style="fill:white;fill-rule:nonzero;"/>
        <path d="M256.174,77.052L252.683,87.243L262.265,96.826L272.456,93.335L256.174,77.052Z" style="fill:rgb(201,211,215);fill-rule:nonzero;"/>
        <path d="M244.45,105.505C244.336,105.505 244.222,105.461 244.134,105.374C243.96,105.199 243.96,104.916 244.134,104.742L249.807,99.069C249.982,98.894 250.265,98.894 250.439,99.069C250.614,99.243 250.614,99.526 250.439,99.701L244.766,105.374C244.679,105.461 244.565,105.505 244.45,105.505Z" style="fill:white;fill-rule:nonzero;"/>
        <path d="M252.613,87.173L249.886,89.899L259.539,99.552L262.265,96.826L252.613,87.173Z" style="fill:rgb(47,184,225);fill-rule:nonzero;"/>
        <path d="M244.255,91.651L257.857,105.253L259.545,99.544L249.964,89.962L249.953,89.965L244.255,91.651Z" style="fill:rgb(201,211,215);fill-rule:nonzero;"/>
        <path d="M244.255,91.651L242.389,93.517L255.991,107.119L257.857,105.253L244.255,91.651Z" style="fill:rgb(35,155,201);fill-rule:nonzero;"/>
        <path d="M243.144,103.751C242.422,104.473 242.422,105.643 243.144,106.364C243.865,107.086 245.035,107.086 245.757,106.364C246.479,105.643 246.479,104.473 245.757,103.751C245.035,103.029 243.865,103.029 243.144,103.751Z" style="fill:rgb(190,32,46);fill-rule:nonzero;"/>
        <path d="M278.688,51.626C278.418,51.897 278.282,52.252 278.282,52.605C278.282,52.961 278.418,53.316 278.688,53.586L295.923,70.821C296.463,71.361 297.341,71.361 297.883,70.82C298.153,70.549 298.288,70.195 298.288,69.841C298.288,69.486 298.153,69.131 297.883,68.861L280.647,51.626C280.107,51.085 279.229,51.085 278.688,51.626Z" style="fill:rgb(190,32,46);fill-rule:nonzero;"/>
        <path d="M269.601,68.897C269.486,68.897 269.372,68.853 269.285,68.766C269.11,68.591 269.11,68.308 269.285,68.134L279.195,58.223C279.37,58.049 279.653,58.049 279.827,58.223C280.002,58.398 280.002,58.681 279.827,58.855L269.917,68.766C269.829,68.853 269.715,68.897 269.601,68.897Z" style="fill:rgb(201,211,215);fill-rule:nonzero;"/>
        <path d="M272.456,93.335L268.235,89.114C268.235,89.114 282.917,74.432 291.225,66.123L295.446,70.344L285.918,79.872L284.931,80.86L272.456,93.335Z" style="fill:rgb(190,218,230);fill-rule:nonzero;"/>
        <path d="M262.265,96.826L259.452,94.012L259.489,93.974L268.235,89.114L272.456,93.335L262.265,96.826Z" style="fill:rgb(149,181,194);fill-rule:nonzero;"/>
        <path d="M259.545,99.544L256.733,96.731L259.452,94.012L262.265,96.826L259.545,99.544Z" style="fill:rgb(33,156,201);fill-rule:nonzero;"/>
        <path d="M257.857,105.253L254.976,102.372L256.726,96.738L256.733,96.731L259.545,99.544L257.857,105.253Z" style="fill:rgb(149,181,194);fill-rule:nonzero;"/>
        <path d="M297.406,68.385L293.164,64.143C299.91,56.8 296.419,53.249 296.375,53.204L299.596,56.426C302.294,59.123 302.294,63.497 299.596,66.194L297.406,68.385Z" style="fill:rgb(149,181,194);fill-rule:nonzero;"/>
        <path d="M255.991,107.119L253.11,104.238L254.976,102.372L257.857,105.253L255.991,107.119Z" style="fill:rgb(29,132,181);fill-rule:nonzero;"/>
        <path d="M296.902,71.226L296.899,71.226C296.555,71.226 296.211,71.097 295.944,70.842L295.923,70.821L295.446,70.344L291.225,66.123C291.563,65.786 291.89,65.459 292.206,65.143C292.547,64.802 292.866,64.469 293.164,64.143L297.406,68.385L297.883,68.861C298.153,69.131 298.288,69.486 298.288,69.841C298.288,70.195 298.153,70.549 297.883,70.82C297.612,71.09 297.259,71.226 296.905,71.226L296.902,71.226Z" style="fill:rgb(141,26,41);fill-rule:nonzero;"/>
        <path d="M255.506,69.798L256.31,70.602L274.098,52.814L273.294,52.01L255.506,69.798Z" style="fill:rgb(35,155,201);fill-rule:nonzero;"/>
        <path d="M251.818,66.109L252.622,66.913L270.41,49.125L269.606,48.321L251.818,66.109Z" style="fill:rgb(35,155,201);fill-rule:nonzero;"/>
        <path d="M248.129,62.421L248.933,63.225L266.721,45.437L265.917,44.633L248.129,62.421Z" style="fill:rgb(35,155,201);fill-rule:nonzero;"/>
        <path d="M244.441,58.732L245.245,59.536L263.033,41.749L262.229,40.945L244.441,58.732Z" style="fill:rgb(35,155,201);fill-rule:nonzero;"/>
        <path d="M240.753,55.044L241.557,55.848L259.344,38.06L258.54,37.256L240.753,55.044Z" style="fill:rgb(35,155,201);fill-rule:nonzero;"/>
        <path d="M237.064,51.356L237.868,52.16L255.656,34.372L254.852,33.568L237.064,51.356Z" style="fill:rgb(35,155,201);fill-rule:nonzero;"/>
        <path d="M233.376,47.667L234.18,48.471L251.968,30.683L251.164,29.879L233.376,47.667Z" style="fill:rgb(35,155,201);fill-rule:nonzero;"/>
        <path d="M273.294,53.618L274.098,52.814L251.164,29.879L250.36,30.683L273.294,53.618Z" style="fill:rgb(35,155,201);fill-rule:nonzero;"/>
        <path d="M269.886,57.025L270.69,56.221L247.756,33.287L246.952,34.091L269.886,57.025Z" style="fill:rgb(35,155,201);fill-rule:nonzero;"/>
        <path d="M266.479,60.433L267.283,59.629L244.348,36.694L243.544,37.498L266.479,60.433Z" style="fill:rgb(35,155,201);fill-rule:nonzero;"/>
        <path d="M263.071,63.84L263.875,63.036L240.941,40.102L240.137,40.906L263.071,63.84Z" style="fill:rgb(35,155,201);fill-rule:nonzero;"/>
        <path d="M259.664,67.248L260.467,66.444L237.533,43.51L236.729,44.314L259.664,67.248Z" style="fill:rgb(35,155,201);fill-rule:nonzero;"/>
        <path d="M256.256,70.656L257.06,69.852L234.126,46.917L233.322,47.721L256.256,70.656Z" style="fill:rgb(35,155,201);fill-rule:nonzero;"/>
        <path d="M301.231,115.522L302.035,116.326L319.823,98.539L319.019,97.735L301.231,115.522Z" style="fill:rgb(35,155,201);fill-rule:nonzero;"/>
        <path d="M297.543,111.834L298.347,112.638L316.135,94.851L315.331,94.047L297.543,111.834Z" style="fill:rgb(35,155,201);fill-rule:nonzero;"/>
        <path d="M293.855,108.146L294.659,108.95L312.446,91.162L311.642,90.358L293.855,108.146Z" style="fill:rgb(35,155,201);fill-rule:nonzero;"/>
        <path d="M290.166,104.457L290.97,105.261L308.758,87.474L307.954,86.67L290.166,104.457Z" style="fill:rgb(35,155,201);fill-rule:nonzero;"/>
        <path d="M286.478,100.769L287.282,101.573L305.07,83.785L304.266,82.981L286.478,100.769Z" style="fill:rgb(35,155,201);fill-rule:nonzero;"/>
        <path d="M282.789,97.081L283.593,97.885L301.381,80.097L300.577,79.293L282.789,97.081Z" style="fill:rgb(35,155,201);fill-rule:nonzero;"/>
        <path d="M279.101,93.392L279.905,94.196L297.693,76.409L296.889,75.605L279.101,93.392Z" style="fill:rgb(35,155,201);fill-rule:nonzero;"/>
        <path d="M319.019,99.343L319.823,98.539L296.889,75.605L296.085,76.409L319.019,99.343Z" style="fill:rgb(35,155,201);fill-rule:nonzero;"/>
        <path d="M315.612,102.75L316.416,101.946L293.481,79.012L292.677,79.816L315.612,102.75Z" style="fill:rgb(35,155,201);fill-rule:nonzero;"/>
        <path d="M312.204,106.158L313.008,105.354L290.074,82.42L289.27,83.224L312.204,106.158Z" style="fill:rgb(35,155,201);fill-rule:nonzero;"/>
        <path d="M308.797,109.565L309.601,108.761L286.666,85.827L285.862,86.631L308.797,109.565Z" style="fill:rgb(35,155,201);fill-rule:nonzero;"/>
        <path d="M305.389,112.973L306.193,112.169L283.259,89.235L282.455,90.039L305.389,112.973Z" style="fill:rgb(35,155,201);fill-rule:nonzero;"/>
        <path d="M301.981,116.38L302.785,115.576L279.851,92.642L279.047,93.446L301.981,116.38Z" style="fill:rgb(35,155,201);fill-rule:nonzero;"/>
    </g>
</svg>
