<?xml version="1.0" encoding="UTF-8" standalone="no"?>
<!DOCTYPE svg PUBLIC "-//W3C//DTD SVG 1.1//EN" "http://www.w3.org/Graphics/SVG/1.1/DTD/svg11.dtd">
<svg width="100%" height="100%" viewBox="0 0 182 416" version="1.1" xmlns="http://www.w3.org/2000/svg" xmlns:xlink="http://www.w3.org/1999/xlink" xml:space="preserve" xmlns:serif="http://www.serif.com/" style="fill-rule:evenodd;clip-rule:evenodd;stroke-linejoin:round;stroke-miterlimit:2;">
    <path d="M181.067,258.382L181.067,326.385C181.067,326.385 155.538,312.433 144.201,290.456C141.662,285.533 139.837,280.21 139.167,274.549L139.167,210.162C139.167,210.162 145.307,213.898 152.885,219.789C165.106,229.282 181.067,244.361 181.067,258.382Z" style="fill:rgb(247,147,30);fill-rule:nonzero;"/>
    <rect x="139.168" y="210.164" width="41.9" height="116.222" style="fill:none;fill-rule:nonzero;"/>
    <path d="M139.167,210.164L139.167,214.635C151.011,222.936 174.333,241.434 174.333,258.382L174.333,322.163C178.367,324.911 181.067,326.387 181.067,326.387L181.067,258.382C181.067,235.666 139.167,210.164 139.167,210.164Z" style="fill:rgb(204,123,25);fill-opacity:0.5;fill-rule:nonzero;"/>
    <rect x="139.168" y="210.162" width="13.717" height="80.294" style="fill:none;fill-rule:nonzero;"/>
    <path d="M152.885,219.79L152.885,273.846C152.885,273.846 147.653,282 144.201,290.455C141.662,285.532 139.835,280.21 139.167,274.548L139.167,210.163C139.167,210.163 145.307,213.899 152.885,219.79Z" style="fill:rgb(204,123,25);fill-opacity:0.5;fill-rule:nonzero;"/>
    <rect x="53.362" y="311.22" width="74.343" height="104.734" style="fill:none;fill-rule:nonzero;"/>
    <path d="M146.899,270.672C146.899,270.672 136.923,282.668 134.264,289.727C134.02,290.38 133.775,291.039 133.536,291.707C131.191,298.176 129.276,304.685 129.276,304.685L51.791,304.685C51.791,304.685 49.876,298.176 47.531,291.707C47.292,291.039 47.048,290.38 46.803,289.727C44.144,282.668 34.168,270.672 34.168,270.672L38.758,266.861L142.31,266.861L146.899,270.672Z" style="fill:rgb(230,230,230);fill-rule:nonzero;"/>
    <path d="M134.728,346.411L131.636,338.55L128.557,330.708C128.637,331.063 130.075,337.432 129.325,346.646C128.553,356.128 125.465,368.612 116.203,380.634L114.791,372.543L113.395,364.448C113.395,364.448 111.18,370.024 107.239,378.006C103.293,385.996 90.533,406.312 90.533,406.312C90.533,406.312 77.775,385.996 73.833,378.006C69.888,370.024 67.679,364.448 67.679,364.448L66.277,372.543L64.871,380.634C55.607,368.612 52.515,356.128 51.747,346.646C50.993,337.432 52.429,331.058 52.509,330.708L49.432,338.55L46.344,346.411C41.949,331.751 43.491,321.102 46.649,313.744C47.123,312.632 47.636,311.594 48.165,310.631C49.228,308.722 50.369,307.095 51.492,305.738C53.028,303.858 54.515,302.491 55.632,301.578L125.44,301.578C127.161,302.99 129.769,305.488 132.104,309.275C132.379,309.708 132.643,310.163 132.903,310.631C134.064,312.722 135.117,315.151 135.92,317.95C137.936,324.982 138.34,334.335 134.728,346.411Z" style="fill:rgb(252,238,33);fill-rule:nonzero;"/>
    <rect x="61.252" y="303.524" width="58.564" height="73.128" style="fill:none;fill-rule:nonzero;"/>
    <path d="M118.12,334.826L116.191,329.338L114.267,323.85C114.267,323.85 115.23,328.372 114.748,334.989C114.267,341.61 112.338,350.328 106.556,358.721L105.678,353.072L104.803,347.421C104.803,347.421 103.423,351.313 100.96,356.888C98.499,362.465 90.535,376.652 90.535,376.652C90.535,376.652 82.57,362.465 80.108,356.888C77.647,351.313 76.266,347.421 76.266,347.421L75.392,353.072L74.512,358.721C68.731,350.328 66.802,341.61 66.32,334.989C65.84,328.372 66.802,323.85 66.802,323.85L64.878,329.338L62.948,334.826C60.208,324.589 61.17,317.153 63.14,312.018C63.435,311.241 63.755,310.517 64.087,309.845C65.664,306.664 67.547,304.62 68.746,303.524L112.323,303.524C113.523,304.62 115.406,306.664 116.983,309.845C117.707,311.304 118.363,313 118.866,314.952C120.122,319.864 120.375,326.394 118.12,334.826Z" style="fill:rgb(247,147,30);fill-opacity:0.3;fill-rule:nonzero;"/>
    <rect x="75.372" y="303.322" width="30.324" height="47.344" style="fill:none;fill-rule:nonzero;"/>
    <path d="M104.818,323.588L103.82,320.035L102.824,316.483C102.824,316.483 103.321,319.409 103.072,323.693C102.824,327.98 101.825,333.624 98.83,339.059L98.376,335.4L97.922,331.743C97.922,331.743 97.208,334.263 95.933,337.871C94.658,341.483 90.534,350.667 90.534,350.667C90.534,350.667 86.41,341.483 85.136,337.871C83.861,334.263 83.146,331.743 83.146,331.743L82.693,335.4L82.238,339.059C79.244,333.624 78.245,327.98 77.996,323.693C77.748,319.409 78.245,316.483 78.245,316.483L77.249,320.035L76.25,323.588C74.83,316.96 75.329,312.145 76.349,308.821C76.502,308.319 76.668,307.849 76.84,307.415C77.656,305.355 78.63,304.032 79.252,303.321L101.816,303.321C102.437,304.032 103.413,305.355 104.229,307.415C104.604,308.359 104.944,309.456 105.204,310.721C105.854,313.9 105.986,318.129 104.818,323.588Z" style="fill:rgb(247,147,30);fill-opacity:0.3;fill-rule:nonzero;"/>
    <rect x="51.492" y="301.578" width="80.613" height="24.808" style="fill:none;fill-rule:nonzero;"/>
    <path d="M132.104,309.275C129.77,305.489 127.162,302.989 125.44,301.579L55.632,301.579C54.515,302.491 53.028,303.857 51.492,305.739C57.823,306.283 75.335,307.7 95.427,308.577C97.658,312.547 103.079,321.025 111.25,326.387L101.388,308.819C111.548,309.195 122.135,309.404 132.104,309.275Z" style="fill:rgb(210,126,26);fill-opacity:0.5;fill-rule:nonzero;"/>
    <path d="M133.536,291.704C131.192,298.179 129.276,304.687 129.276,304.687L51.792,304.687C51.792,304.687 49.876,298.179 47.532,291.704L133.536,291.704Z" style="fill:rgb(247,147,30);fill-rule:nonzero;"/>
    <rect x="113.321" y="266.861" width="33.577" height="37.825" style="fill:none;fill-rule:nonzero;"/>
    <path d="M146.899,270.672C146.899,270.672 136.923,282.668 134.264,289.727C134.02,290.38 133.775,291.039 133.536,291.707C131.191,298.176 129.276,304.685 129.276,304.685L113.334,304.685C112.97,289.387 119.963,271.351 119.963,271.351L119.963,266.861L142.31,266.861L146.899,270.672Z" style="fill:rgb(153,153,153);fill-opacity:0.5;fill-rule:nonzero;"/>
    <path d="M146.899,114.725L146.899,271.35L34.168,271.35L34.168,114.725C34.168,82.437 48.803,53.262 63.164,32.412C63.394,32.077 63.618,31.753 63.847,31.424C65.09,29.644 66.327,27.922 67.554,26.272C79.71,9.861 90.534,0 90.534,0C90.534,0 101.358,9.861 113.514,26.272C114.74,27.922 115.978,29.644 117.22,31.424C118.098,32.681 118.976,33.968 119.848,35.29C133.556,55.905 146.899,83.894 146.899,114.725Z" style="fill:white;fill-rule:nonzero;"/>
    <rect x="63.164" y="26.272" width="56.685" height="9.309" style="fill:none;fill-rule:nonzero;"/>
    <path d="M119.849,35.291C97.797,36.533 71.181,33.44 63.165,32.412C63.394,32.079 63.618,31.755 63.847,31.425C65.09,29.644 66.327,27.923 67.554,26.272L113.514,26.272C114.741,27.923 115.978,29.644 117.219,31.425C118.098,32.681 118.975,33.969 119.849,35.291Z" style="fill:rgb(153,153,153);fill-opacity:0.5;fill-rule:nonzero;"/>
    <path d="M117.22,31.425L63.848,31.425C77.42,11.946 90.533,0 90.533,0C90.533,0 103.648,11.946 117.22,31.425Z" style="fill:rgb(247,147,30);fill-rule:nonzero;"/>
    <rect x="90.534" y="0" width="56.364" height="271.35" style="fill:none;fill-rule:nonzero;"/>
    <path d="M146.899,114.725L146.899,271.35L119.963,271.35L119.963,110.321C119.63,56.778 90.534,0 90.534,0C90.534,0 101.358,9.861 113.514,26.272C114.74,27.922 115.978,29.644 117.22,31.424C118.098,32.681 118.976,33.968 119.848,35.29C133.556,55.905 146.899,83.894 146.899,114.725Z" style="fill:rgb(153,153,153);fill-opacity:0.5;fill-rule:nonzero;"/>
    <path d="M0,258.381L0,326.386C0,326.386 38.242,305.482 41.9,274.546L41.9,210.164C41.9,210.164 0,235.666 0,258.381Z" style="fill:rgb(247,147,30);fill-rule:nonzero;"/>
    <rect x="0" y="210.164" width="41.9" height="116.222" style="fill:none;fill-rule:nonzero;"/>
    <path d="M33.67,215.696L33.67,274.546C31.099,296.284 11.456,313.066 0,321.126L0,326.386C0,326.386 38.242,305.484 41.9,274.546L41.9,210.164C41.9,210.164 38.514,212.226 33.67,215.696Z" style="fill:rgb(204,123,25);fill-opacity:0.5;fill-rule:nonzero;"/>
    <path d="M127.612,137.837C127.612,162.447 111.012,182.397 90.534,182.397C70.056,182.397 53.456,162.447 53.456,137.837C53.456,113.228 70.056,93.277 90.534,93.277C111.012,93.277 127.612,113.228 127.612,137.837Z" style="fill:rgb(247,147,30);fill-rule:nonzero;"/>
    <rect x="58.026" y="97.717" width="65.015" height="80.237" style="fill:none;fill-rule:nonzero;"/>
    <path d="M123.041,137.836C123.041,159.993 108.486,177.954 90.534,177.954C83.026,177.954 76.113,174.817 70.612,169.534C68.252,167.28 66.152,164.626 64.381,161.658C63.613,160.382 62.905,159.045 62.266,157.658C61.054,155.034 60.077,152.221 59.368,149.269C58.496,145.648 58.026,141.806 58.026,137.836C58.026,115.678 72.582,97.717 90.534,97.717C95.697,97.717 100.574,99.198 104.909,101.846C107.344,103.328 109.608,105.174 111.649,107.333C112.785,108.53 113.848,109.822 114.836,111.2C116.816,113.938 118.486,117.016 119.794,120.348C121.878,125.634 123.041,131.566 123.041,137.836Z" style="fill:white;fill-opacity:0.7;fill-rule:nonzero;"/>
    <rect x="89.098" y="267.709" width="18.395" height="36.977" style="fill:none;fill-rule:nonzero;"/>
    <path d="M107.493,275.119L107.493,304.687L94.005,304.687C88.482,290.354 89.12,274.272 89.12,274.272L93.04,267.708L107.493,275.119Z" style="fill:rgb(153,153,153);fill-opacity:0.5;fill-rule:nonzero;"/>
    <path d="M111.25,258.381L111.25,326.386C111.25,326.386 90.763,305.482 88.803,274.546L88.803,210.164C88.803,210.164 111.25,235.666 111.25,258.381Z" style="fill:rgb(247,147,30);fill-rule:nonzero;"/>
    <rect x="88.804" y="210.164" width="22.445" height="116.222" style="fill:none;fill-rule:nonzero;"/>
    <path d="M88.803,210.164L88.803,213.778C95.771,223.68 105.263,239.936 105.263,255.024L105.263,318.988C108.674,323.758 111.25,326.387 111.25,326.387L111.25,258.382C111.25,235.666 88.803,210.164 88.803,210.164Z" style="fill:rgb(204,123,25);fill-opacity:0.5;fill-rule:nonzero;"/>
    <path d="M111.648,107.333L82.947,136.035C81.266,137.716 78.518,137.716 76.836,136.035C75.155,134.353 75.155,131.6 76.836,129.919L104.91,101.847C107.343,103.328 109.608,105.173 111.648,107.333Z" style="fill:white;fill-rule:nonzero;"/>
    <path d="M119.794,120.347L70.611,169.535C68.252,167.281 66.152,164.626 64.382,161.658L114.835,111.199C116.816,113.938 118.487,117.015 119.794,120.347Z" style="fill:white;fill-rule:nonzero;"/>
    <path d="M74.941,143.322C74.941,144.345 74.552,145.373 73.778,146.145L62.266,157.658C61.054,155.034 60.077,152.221 59.368,149.268L68.137,140.5C69.689,138.948 72.228,138.948 73.778,140.5C74.552,141.272 74.941,142.3 74.941,143.322Z" style="fill:white;fill-rule:nonzero;"/>
    <path d="M95.529,153.316C94.301,152.088 94.301,150.077 95.529,148.848L113.399,130.977C114.627,129.749 116.638,129.749 117.867,130.977C119.095,132.207 119.095,134.217 117.867,135.445L99.997,153.316C98.767,154.544 96.757,154.544 95.529,153.316Z" style="fill:white;fill-rule:nonzero;"/>
</svg>
