<?xml version="1.0" encoding="UTF-8" standalone="no"?><!-- Generator: Gravit.io --><svg xmlns="http://www.w3.org/2000/svg" xmlns:xlink="http://www.w3.org/1999/xlink" style="isolation:isolate" viewBox="294.238 754.174 78.192 68.826" width="78.192pt" height="68.826pt"><defs><clipPath id="_clipPath_f6BseglJucHCHJaJj1VCpt3UxjvwdrHE"><rect x="294.238" y="754.174" width="78.192" height="68.826"/></clipPath></defs><g clip-path="url(#_clipPath_f6BseglJucHCHJaJj1VCpt3UxjvwdrHE)"><g><path d=" M 297.534 790.482 C 296.08 794.119 295.352 804.545 296.444 804.181 C 297.534 803.817 297.179 794.273 298.989 792.058 C 301.172 789.388 302.99 789.997 302.99 789.997 L 303.596 786.239 C 303.596 786.239 298.989 786.845 297.534 790.482 Z " fill="rgb(239,232,218)"/><path d=" M 339.527 806.267 C 339.527 806.267 339.142 822.271 345.8 821.247 C 350.735 820.488 350.537 803.706 350.537 803.706 L 339.527 806.267 Z " fill="rgb(231,230,232)"/><path d=" M 339.527 806.267 C 339.527 806.267 339.142 822.271 345.8 821.247 C 346.073 821.205 346.328 821.106 346.569 820.972 C 345.332 818.258 345.855 813.762 346.626 811.259 C 347.144 809.574 348.93 808.614 350.404 808.095 C 350.558 805.578 350.537 803.706 350.537 803.706 L 339.527 806.267 Z " fill="rgb(206,199,209)"/><path d=" M 347.47 817.082 C 346.142 817.571 341.39 818.061 341.39 818.061 C 341.425 820.961 344.36 822.254 346.142 822.254 C 347.924 822.254 347.295 821.59 347.435 821.485 C 347.575 821.38 349.742 822.429 351.244 821.275 C 352.747 820.122 349.322 816.663 349.182 816.523 C 349.042 816.383 348.798 816.593 347.47 817.082 Z " fill="rgb(196,168,126)"/><path d=" M 313.001 806.68 C 313.001 806.68 313.854 819.37 318.21 820.601 C 322.566 821.833 323.892 809.616 323.324 806.302 C 322.755 802.987 313.001 806.68 313.001 806.68 Z " fill="rgb(231,230,232)"/><path d=" M 313.001 806.68 C 313.001 806.68 313.854 819.37 318.21 820.601 C 318.764 820.758 319.268 820.695 319.727 820.463 C 317.677 818.73 316.984 815.064 318.006 813.113 C 318.883 811.438 321.626 811.355 323.251 811.466 C 323.493 809.322 323.505 807.359 323.324 806.302 C 322.755 802.987 313.001 806.68 313.001 806.68 Z " fill="rgb(206,199,209)"/><path d=" M 322.507 815.805 C 322.202 815.718 320.462 816.893 318.461 817.11 C 316.459 817.328 314.936 816.632 314.936 816.632 C 314.675 818.633 316.677 821.505 318.33 821.853 C 319.983 822.201 320.592 821.201 320.81 821.157 C 321.027 821.113 323.203 821.722 324.857 820.591 C 326.51 819.46 322.811 815.892 322.507 815.805 Z " fill="rgb(196,168,126)"/><path d=" M 347.113 776.395 C 347.113 776.395 342.612 782.327 332.793 780.486 C 322.974 778.645 306.609 776.599 302.518 785.191 C 298.427 793.782 300.882 814.852 307.837 820.785 C 307.837 820.785 310.292 822.421 312.337 820.785 C 314.382 819.149 314.792 809.943 314.792 809.943 C 314.792 809.943 325.429 810.352 334.021 810.148 C 334.021 810.148 335.657 821.808 339.135 822.012 C 342.612 822.217 344.249 819.353 344.453 817.102 C 344.657 814.852 345.476 809.33 346.908 808.306 C 348.34 807.283 354.886 803.601 357.75 793.578 C 360.614 783.554 356.728 776.19 347.113 776.395 Z " fill="rgb(255,255,255)"/><path d=" M 305.377 792.72 C 305.147 785.977 308.817 781.618 311.331 779.437 C 307.326 780.237 304.055 781.962 302.518 785.191 C 298.427 793.782 300.881 814.852 307.837 820.784 C 307.837 820.784 310.291 822.422 312.337 820.784 C 312.691 820.502 312.995 819.989 313.257 819.339 C 312.566 819.195 311.657 819.029 310.475 818.674 C 306.999 817.631 305.724 802.916 305.377 792.72 Z " fill="rgb(239,232,218)"/><path d=" M 310.367 817.85 C 308.018 818.633 305.625 818.155 305.625 818.155 C 305.625 818.155 305.799 821.679 307.931 822.679 C 310.063 823.68 311.934 822.027 312.108 821.94 C 312.282 821.853 314.544 823.376 315.85 821.983 C 317.155 820.591 314.153 817.284 313.979 816.849 C 313.805 816.414 312.717 817.066 310.367 817.85 Z " fill="rgb(221,195,153)"/><path d=" M 350.311 786.237 C 350.311 786.237 347.148 795.294 344.992 798.744 C 343.152 801.687 342.571 808.497 345.473 811.239 C 345.851 809.869 346.329 808.72 346.908 808.306 C 348.34 807.284 354.886 803.601 357.75 793.578 C 358.648 790.436 358.882 787.556 358.484 785.089 C 354.595 785.167 350.311 786.237 350.311 786.237 Z " fill="rgb(231,230,232)"/><path d=" M 332.006 760.077 C 329.82 755.488 328.797 766.85 333.366 770.086 C 337.935 773.323 339.869 772.103 340.216 771.938 C 340.563 771.772 341.373 765.419 341.373 765.419 C 341.373 765.419 335.152 766.678 332.006 760.077 Z " fill="rgb(239,216,174)"/><path d=" M 332.986 765.102 C 331.381 764.164 330.606 762.276 330.232 760.632 C 329.886 763.209 330.605 768.131 333.366 770.087 C 337.935 773.323 339.869 772.103 340.216 771.938 C 340.403 771.849 340.722 769.974 340.979 768.258 C 340.926 768.203 340.875 768.15 340.827 768.102 C 339.498 766.788 336.173 766.965 332.986 765.102 Z " fill="rgb(221,195,153)"/><path d=" M 363.829 755.464 C 362.385 762.631 356.045 762.924 356.045 762.924 C 356.045 762.924 358.376 768.89 358.753 768.966 C 359.13 769.042 361.303 769.755 364.947 765.503 C 368.591 761.251 364.833 750.48 363.829 755.464 Z " fill="rgb(239,216,174)"/><path d=" M 364.695 754.19 C 365.093 755.803 365.678 759.201 364.276 761.392 C 362.385 764.35 359.366 765.111 358.808 766.892 C 358.671 767.33 358.539 767.918 358.459 768.561 C 358.592 768.804 358.696 768.954 358.753 768.966 C 359.13 769.042 361.303 769.755 364.947 765.503 C 367.851 762.115 366.053 754.583 364.695 754.19 Z " fill="rgb(221,195,153)"/><path d=" M 361.29 766.813 L 362.578 773.276 C 362.578 773.276 372.948 773.834 372.409 770.467 C 371.871 767.1 361.29 766.813 361.29 766.813 Z " fill="rgb(255,255,255)"/><path d=" M 362.93 768.783 C 362.93 768.783 362.394 771.844 364.136 772.39 C 365.879 772.936 367.655 772.513 368.198 772.396 C 368.742 772.278 367.537 771.97 367.162 771.813 C 366.787 771.656 368.343 771.921 369.024 772.091 C 369.705 772.26 371.598 771.976 370.813 770.55 C 370.028 769.124 362.93 768.783 362.93 768.783 Z " fill="rgb(239,232,218)"/><path d=" M 354.372 762.585 C 346.97 764.897 348.262 761.663 340.918 764.434 C 337.27 765.81 337.881 771.345 337.881 771.345 C 337.881 771.345 329.954 773.289 329.476 776.959 C 328.997 780.628 338.436 777.831 338.436 777.831 C 338.436 777.831 338.245 790.434 343.788 794.757 C 349.33 799.08 364.461 795.231 368.94 790.951 C 373.42 786.671 364.567 771.575 364.567 771.575 C 364.567 771.575 361.773 760.273 354.372 762.585 Z " fill="rgb(255,255,255)"/><path d=" M 354.372 762.585 C 353.62 762.82 352.962 762.996 352.371 763.128 C 354.492 764.307 357.643 766.556 359.456 770.196 C 362.37 776.044 363.096 781.92 361.288 787.987 C 360.064 792.099 350.365 793.679 345.678 795.798 C 352.198 798.319 364.9 794.811 368.94 790.951 C 373.42 786.671 364.567 771.575 364.567 771.575 C 364.567 771.575 361.773 760.273 354.372 762.585 Z " fill="rgb(239,232,218)"/><path d=" M 354.319 762.233 C 351.662 763.063 350.18 763.53 348.963 763.464 C 349.183 764.519 349.628 765.682 350.544 766.184 C 352.359 767.178 354.559 766.906 355.041 768.065 C 355.522 769.224 355.928 770.866 357.311 771.101 C 358.694 771.336 360.786 770.198 363.151 771.259 C 363.709 771.51 364.307 771.842 364.888 772.142 C 364.686 771.779 364.6 771.378 364.6 771.378 C 364.6 771.378 361.72 759.921 354.319 762.233 Z " fill="rgb(22,24,30)"/><path d=" M 339.654 787.483 C 339.882 790.511 341.141 793.556 343.224 795.181 C 348.767 799.504 364.846 795.339 369.326 791.059 C 371.304 789.168 370.296 785.059 368.984 781.181 C 354.673 780.32 344.823 784.455 339.654 787.483 Z " fill="rgb(253,188,194)"/><path d=" M 367.386 781.106 C 367.252 781.102 367.119 781.099 366.986 781.095 C 366.559 781.083 366.135 781.074 365.716 781.071 C 365.619 781.07 365.521 781.069 365.424 781.068 C 364.344 781.064 363.292 781.088 362.269 781.138 L 362.268 781.138 C 362.295 783.399 361.976 785.679 361.289 787.987 C 360.123 791.902 349.652 793.973 344.607 795.991 C 351.063 798.889 365.174 795.027 369.326 791.059 C 371.304 789.168 370.296 785.059 368.984 781.181 C 368.444 781.149 367.913 781.125 367.386 781.106 Z " fill="rgb(244,174,183)"/><path d=" M 342.677 774.993 C 341.162 775.457 340.31 777.06 340.773 778.574 C 341.237 780.089 342.84 780.941 344.355 780.478 C 345.869 780.015 346.722 778.411 346.258 776.896 C 345.795 775.382 344.191 774.529 342.677 774.993 Z " fill="rgb(255,255,255)"/><path d=" M 342.922 775.796 C 341.851 776.124 341.248 777.258 341.576 778.329 C 341.904 779.4 343.038 780.003 344.109 779.675 C 345.181 779.347 345.783 778.213 345.455 777.142 C 345.128 776.071 343.993 775.468 342.922 775.796 Z " fill="rgb(22,24,30)"/><path d=" M 344.392 776.526 C 344.039 776.569 343.789 776.89 343.833 777.242 C 343.876 777.595 344.197 777.845 344.549 777.801 C 344.901 777.758 345.152 777.437 345.109 777.085 C 345.065 776.732 344.744 776.483 344.392 776.526 Z " fill="rgb(255,255,255)"/><path d=" M 360.803 771.729 C 359.289 772.193 358.436 773.796 358.9 775.31 C 359.364 776.825 360.967 777.677 362.481 777.214 C 363.996 776.751 364.848 775.147 364.385 773.633 C 363.922 772.118 362.318 771.265 360.803 771.729 Z " fill="rgb(255,255,255)"/><path d=" M 361.049 772.532 C 359.978 772.86 359.375 773.994 359.703 775.065 C 360.031 776.136 361.165 776.739 362.236 776.411 C 363.307 776.084 363.91 774.949 363.582 773.878 C 363.254 772.807 362.12 772.204 361.049 772.532 Z " fill="rgb(22,24,30)"/><path d=" M 362.519 773.262 C 362.166 773.305 361.916 773.627 361.959 773.979 C 362.003 774.331 362.324 774.581 362.676 774.538 C 363.028 774.494 363.279 774.173 363.235 773.821 C 363.191 773.469 362.871 773.218 362.519 773.262 Z " fill="rgb(255,255,255)"/><path d=" M 332.849 775.609 C 330.841 776.628 330.13 777.539 330.567 777.948 C 331.003 778.357 333.763 778.222 334.403 777.989 C 335.042 777.755 336.576 776.64 336.481 776.909 C 336.385 777.178 335.403 777.762 335.89 777.753 C 336.378 777.744 337.653 777.458 338.281 777.124 C 338.281 777.124 338.123 774.598 337.886 774.344 C 337.649 774.09 334.857 774.59 332.849 775.609 Z " fill="rgb(239,232,218)"/><path d=" M 348.791 785.438 C 347.599 786.23 348.68 787.525 349.684 787.446 C 350.687 787.368 351.216 786.797 351.725 787.194 C 352.235 787.592 353.284 787.14 352.775 786.374 C 352.775 786.374 350.578 784.251 348.791 785.438 Z " fill="rgb(191,107,121)"/><path d=" M 360.726 783.55 C 358.704 782.833 357.09 785.426 357.09 785.426 C 356.782 786.293 357.91 786.476 358.308 785.966 C 358.705 785.457 359.357 785.883 360.349 785.714 C 361.342 785.546 362.075 784.028 360.726 783.55 Z " fill="rgb(191,107,121)"/><path d=" M 332.966 780.308 C 328.092 779.394 321.176 777.985 315.636 778.92 C 315.697 780.536 315.807 782.17 316.412 783.663 C 317.076 785.298 318.464 786.755 320.213 786.99 C 321.536 787.168 322.957 786.65 324.181 787.183 C 325.322 787.679 325.915 788.924 326.826 789.77 C 328.597 791.415 331.734 791.236 333.307 789.401 C 334.592 787.903 334.869 785.605 336.484 784.471 C 337.114 784.029 337.926 783.786 338.344 783.141 C 338.659 782.657 338.682 782.046 338.689 781.469 C 338.693 781.212 338.695 780.952 338.693 780.692 C 336.779 780.834 335.207 780.729 332.966 780.308 Z " fill="rgb(22,24,30)"/><path d=" M 307.73 792.97 C 306.969 792.056 306.635 790.8 306.843 789.629 C 307.021 788.625 307.564 787.563 307.109 786.651 C 306.594 785.618 305.199 785.522 304.131 785.086 C 303.707 784.913 303.318 784.663 302.976 784.359 C 302.811 784.625 302.673 784.91 302.518 785.191 C 301.104 787.758 299.702 792.404 300.635 799.984 C 301.778 799.459 302.863 798.773 304.085 798.48 C 305.67 798.099 307.333 798.415 308.957 798.297 C 309.301 798.272 309.655 798.224 309.952 798.05 C 310.883 797.502 310.743 796.046 310.083 795.191 C 309.423 794.335 308.423 793.8 307.73 792.97 Z " fill="rgb(22,24,30)"/><path d=" M 321.747 792.679 C 321.572 791.513 321.241 790.188 320.185 789.664 C 318.965 789.058 317.419 789.861 316.162 789.337 C 315.895 789.226 315.637 789.054 315.348 789.059 C 314.699 789.07 314.426 789.88 314.331 790.522 C 314.29 790.797 314.25 791.072 314.209 791.348 C 314.104 792.06 313.998 792.772 313.93 793.489 C 313.904 793.759 313.884 794.039 313.976 794.293 C 314.145 794.765 314.648 795.032 315.135 795.148 C 315.623 795.263 316.135 795.272 316.606 795.445 C 317.636 795.824 318.234 796.886 319.123 797.529 C 320.218 798.319 321.782 798.395 322.947 797.713 C 323.793 796.04 323.257 793.79 321.747 792.679 Z " fill="rgb(22,24,30)"/><path d=" M 334.353 801.907 C 333.923 800.325 331.766 805.213 328.891 805.213 C 326.016 805.213 322.278 802.338 317.39 803.344 C 312.503 804.35 314.792 809.943 314.792 809.943 C 314.792 809.943 325.429 810.352 334.021 810.148 C 333.688 806.169 334.785 803.488 334.353 801.907 Z " fill="rgb(239,232,218)"/><path d=" M 297.109 801.87 C 296.852 802.053 296.926 801.394 296.779 801.064 C 296.633 800.735 296.523 802.016 296.304 802.199 C 296.084 802.382 295.938 801.467 295.938 801.467 C 295.938 801.467 293.778 802.968 294.327 805.786 C 294.876 808.605 296.706 808.934 296.999 809.117 C 297.292 809.301 296.779 808.532 296.706 807.763 C 296.633 806.995 297.768 805.713 298.024 804.285 C 298.28 802.858 297.365 801.687 297.109 801.87 Z " fill="rgb(22,24,30)"/><path d=" M 339.739 818.82 C 337.961 818.998 336.184 818.717 336.184 818.717 C 336.051 820.82 337.813 822.746 340.45 822.939 C 343.086 823.131 342.938 822.227 343.101 822.109 C 343.264 821.99 345.753 822.568 346.241 821.828 C 346.731 821.087 344.523 817.976 344.39 817.754 C 344.257 817.532 341.516 818.643 339.739 818.82 Z " fill="rgb(221,195,153)"/></g></g></svg>