<?xml version="1.0" encoding="UTF-8" standalone="no"?><!-- Generator: Gravit.io --><svg xmlns="http://www.w3.org/2000/svg" xmlns:xlink="http://www.w3.org/1999/xlink" style="isolation:isolate" viewBox="316 283.399 1018 383.446" width="1018pt" height="383.446pt"><defs><clipPath id="_clipPath_J2UFLtRE1eBDNVZWEcE2xsZTmbBzFMBh"><rect x="316" y="283.399" width="1018" height="383.446"/></clipPath></defs><g clip-path="url(#_clipPath_J2UFLtRE1eBDNVZWEcE2xsZTmbBzFMBh)"><rect x="316" y="283.399" width="1018" height="383.446" style="fill:rgb(22,30,57)" fill-opacity="0"/><linearGradient id="_lgradient_336" x1="0.44537109794114094" y1="0.7577311358283586" x2="0.5682706051727031" y2="0.3207551656051495" gradientTransform="matrix(-341.743,0,0,-253.055,657.743,605.797)" gradientUnits="userSpaceOnUse"><stop offset="0%" stop-opacity="1" style="stop-color:rgb(255,234,201)"/><stop offset="65.396966%" stop-opacity="1" style="stop-color:rgb(255,234,201)"/><stop offset="100%" stop-opacity="1" style="stop-color:rgb(255,207,163)"/></linearGradient><path d=" M 415.648 418.438 C 416.185 418.427 416.717 418.399 417.257 418.399 L 417.257 418.399 C 453.96 418.399 485.021 442.542 495.429 475.817 L 495.429 475.817 C 496.321 475.783 497.216 475.749 498.117 475.749 L 498.117 475.749 C 531.917 475.749 559.972 500.263 565.52 532.479 L 565.52 532.479 C 570.888 530.214 576.785 528.987 582.976 528.961 L 582.976 528.961 C 612.968 528.835 657.743 539.382 657.743 605.797 L 657.743 605.797 L 316 605.797 L 316 355.065 C 322.208 353.561 328.687 352.742 335.36 352.742 L 335.36 352.742 C 375.043 352.742 408.127 380.97 415.648 418.438 Z " fill="url(#_lgradient_336)"/><g><clipPath id="_clipPath_mCnZxqefc3ixE4jgpc82wfzESV3geNWg"><path d=" M 384.376 544.647 C 378.57 541.767 372.036 540.14 365.121 540.14 L 365.121 540.14 C 342.108 540.14 323.286 558.073 321.776 580.756 L 321.776 580.756 C 319.82 580.975 317.896 581.292 316 581.693 L 316 581.693 L 316 666.667 L 636.44 666.667 C 629.572 651.677 614.476 641.261 596.941 641.261 L 596.941 641.261 C 589.654 641.261 582.79 643.068 576.759 646.247 L 576.759 646.247 C 571.163 640.083 563.824 635.536 555.526 633.385 L 555.526 633.385 C 557.513 628.396 558.616 622.956 558.616 617.257 L 558.616 617.257 C 558.616 593.201 539.16 573.701 515.163 573.701 L 515.163 573.701 C 503.688 573.701 493.26 578.168 485.492 585.449 L 485.492 585.449 C 479.401 582.191 472.446 580.336 465.058 580.336 L 465.058 580.336 C 462.053 580.336 459.117 580.643 456.284 581.225 L 456.284 581.225 C 456.396 579.961 456.461 578.685 456.461 577.392 L 456.461 577.392 C 456.461 553.339 437.007 533.839 413.008 533.839 L 413.008 533.839 C 402.035 533.839 392.023 537.924 384.376 544.647" fill="rgb(255,255,255)"/></clipPath><g clip-path="url(#_clipPath_mCnZxqefc3ixE4jgpc82wfzESV3geNWg)"><g><g><g><linearGradient id="_lgradient_337" x1="0.5129392679466842" y1="2.389054548745875" x2="0.3655715449735757" y2="0.6374158328758823" gradientTransform="matrix(320.44,0,0,-132.828,316,666.667)" gradientUnits="userSpaceOnUse"><stop offset="0%" stop-opacity="1" style="stop-color:rgb(255,248,230)"/><stop offset="65.396966%" stop-opacity="1" style="stop-color:rgb(255,248,230)"/><stop offset="100%" stop-opacity="1" style="stop-color:rgb(255,207,163)"/></linearGradient><path d=" M 384.376 544.647 C 378.57 541.767 372.036 540.14 365.121 540.14 L 365.121 540.14 C 342.108 540.14 323.286 558.073 321.776 580.756 L 321.776 580.756 C 319.82 580.975 317.896 581.292 316 581.693 L 316 581.693 L 316 666.667 L 636.44 666.667 C 629.572 651.677 614.476 641.261 596.941 641.261 L 596.941 641.261 C 589.654 641.261 582.79 643.068 576.759 646.247 L 576.759 646.247 C 571.163 640.083 563.824 635.536 555.526 633.385 L 555.526 633.385 C 557.513 628.396 558.616 622.956 558.616 617.257 L 558.616 617.257 C 558.616 593.201 539.16 573.701 515.163 573.701 L 515.163 573.701 C 503.688 573.701 493.26 578.168 485.492 585.449 L 485.492 585.449 C 479.401 582.191 472.446 580.336 465.058 580.336 L 465.058 580.336 C 462.053 580.336 459.117 580.643 456.284 581.225 L 456.284 581.225 C 456.396 579.961 456.461 578.685 456.461 577.392 L 456.461 577.392 C 456.461 553.339 437.007 533.839 413.008 533.839 L 413.008 533.839 C 402.035 533.839 392.023 537.924 384.376 544.647" fill="url(#_lgradient_337)"/></g></g></g></g></g><g><clipPath id="_clipPath_p59yahmLIo5nv6nbzgTz8ymYQA729TnT"><path d=" M 316 666.667 L 596.832 666.667 C 581.058 655.439 561.795 648.817 540.978 648.817 L 540.978 648.817 C 539.487 648.817 538.006 648.863 536.531 648.928 L 536.531 648.928 C 521.363 615.324 487.655 591.928 448.475 591.928 L 448.475 591.928 C 431.586 591.928 415.717 596.283 401.902 603.917 L 401.902 603.917 C 393.482 590.265 381.771 578.883 367.884 570.849 L 367.884 570.849 C 371.1 561.195 372.868 550.877 372.868 540.14 L 372.868 540.14 C 372.868 500.845 349.526 467.041 316 451.839 L 316 451.839 L 316 666.667 Z " fill="rgb(255,255,255)"/></clipPath><g clip-path="url(#_clipPath_p59yahmLIo5nv6nbzgTz8ymYQA729TnT)"><g><g><g><linearGradient id="_lgradient_338" x1="0.5383142981608804" y1="0.7021423650548346" x2="0.41204522510748726" y2="0.19390799567778727" gradientTransform="matrix(280.832,0,0,-214.828,316,666.667)" gradientUnits="userSpaceOnUse"><stop offset="0%" stop-opacity="1" style="stop-color:rgb(255,248,230)"/><stop offset="65.396966%" stop-opacity="1" style="stop-color:rgb(255,248,230)"/><stop offset="100%" stop-opacity="1" style="stop-color:rgb(255,207,163)"/></linearGradient><path d=" M 316 666.667 L 596.832 666.667 C 581.058 655.439 561.795 648.817 540.978 648.817 L 540.978 648.817 C 539.487 648.817 538.006 648.863 536.531 648.928 L 536.531 648.928 C 521.363 615.324 487.655 591.928 448.475 591.928 L 448.475 591.928 C 431.586 591.928 415.717 596.283 401.902 603.917 L 401.902 603.917 C 393.482 590.265 381.771 578.883 367.884 570.849 L 367.884 570.849 C 371.1 561.195 372.868 550.877 372.868 540.14 L 372.868 540.14 C 372.868 500.845 349.526 467.041 316 451.839 L 316 451.839 L 316 666.667 Z " fill="url(#_lgradient_338)"/></g></g></g></g></g><linearGradient id="_lgradient_339" x1="0.5458157035936235" y1="3.6805389513786375" x2="0.5682706051727016" y2="0.32075516560514794" gradientTransform="matrix(-304.743,0,0,-164.187,1008.559,666.667)" gradientUnits="userSpaceOnUse"><stop offset="0%" stop-opacity="1" style="stop-color:rgb(255,234,201)"/><stop offset="85.62705335995739%" stop-opacity="1" style="stop-color:rgb(255,234,201)"/><stop offset="100%" stop-opacity="1" style="stop-color:rgb(255,207,163)"/></linearGradient><path d=" M 792.675 516.217 C 793.154 516.208 793.629 516.186 794.11 516.186 L 794.11 516.186 C 826.839 516.186 854.538 535.572 863.819 562.292 L 863.819 562.292 C 864.614 562.265 865.412 562.237 866.216 562.237 L 866.216 562.237 C 896.356 562.237 921.374 581.923 926.321 607.792 L 926.321 607.792 C 931.108 605.973 936.366 604.988 941.887 604.967 L 941.887 604.967 C 968.632 604.866 1008.559 613.335 1008.559 666.667 L 1008.559 666.667 L 703.816 666.667 L 703.816 518 Q 709.352 516.792 703.816 518 C 704.986 516.759 751.761 484.896 792.675 516.217 Z " fill="url(#_lgradient_339)"/><g><clipPath id="_clipPath_4aoItYjehgxFDXUMKOk55lNbE0ipYlQD"><path d=" M 705.559 470.633 L 705.559 666.667 L 363.816 666.667 C 363.816 614.741 408.591 606.495 438.584 606.593 L 438.584 606.593 C 444.773 606.614 450.672 607.573 456.039 609.344 L 456.039 609.344 C 461.587 584.156 489.643 564.989 523.441 564.989 L 523.441 564.989 C 524.343 564.989 525.237 565.016 526.131 565.043 L 526.131 565.043 C 536.537 539.027 567.6 520.151 604.301 520.151 L 604.301 520.151 C 604.841 520.151 605.375 520.173 605.912 520.181 L 605.912 520.181 C 613.429 490.887 646.515 468.817 686.199 468.817 L 686.199 468.817 C 692.869 468.817 699.349 469.457 705.559 470.633 Z " fill="rgb(255,255,255)"/></clipPath><g clip-path="url(#_clipPath_4aoItYjehgxFDXUMKOk55lNbE0ipYlQD)"><g><g><g><linearGradient id="_lgradient_340" x1="0.35919413954194646" y1="4.704708104076731" x2="0.43172868474134607" y2="0.3207529026938776" gradientTransform="matrix(-341.876,0,0,-162.026,705.692,666.667)" gradientUnits="userSpaceOnUse"><stop offset="0%" stop-opacity="1" style="stop-color:rgb(255,234,201)"/><stop offset="89.14527214970433%" stop-opacity="1" style="stop-color:rgb(255,234,201)"/><stop offset="100%" stop-opacity="1" style="stop-color:rgb(255,207,163)"/></linearGradient><path d=" M 705.559 520.181 L 705.559 666.667 L 363.816 666.667 C 363.816 614.741 408.591 606.495 438.584 606.593 L 438.584 606.593 C 444.773 606.614 450.672 607.573 456.039 609.344 L 456.039 609.344 C 461.587 584.156 489.643 564.989 523.441 564.989 L 523.441 564.989 C 524.343 564.989 525.237 565.016 526.131 565.043 L 526.131 565.043 C 536.537 539.027 567.6 520.151 604.301 520.151 L 604.301 520.151 C 604.841 520.151 605.375 520.173 605.912 520.181 L 605.912 520.181 C 656.229 487.156 708.684 516.458 705.559 520.181 Q 701.059 505.867 705.559 520.181 Z " fill="url(#_lgradient_340)"/></g></g></g></g></g><g><clipPath id="_clipPath_YQq0ILPG3IEV2hJDFnxhv2zleWtHbhuq"><path d=" M 1010.319 617.63 C 1010.319 618.343 1010.274 619.046 1010.202 619.743 L 1010.202 619.743 C 1012.071 619.422 1014.006 619.253 1015.988 619.253 L 1015.988 619.253 C 1020.86 619.253 1025.445 620.275 1029.462 622.071 L 1029.462 622.071 C 1034.584 618.057 1041.461 615.595 1049.027 615.595 L 1049.027 615.595 C 1064.852 615.595 1077.681 626.345 1077.681 639.607 L 1077.681 639.607 C 1077.681 642.748 1076.953 645.747 1075.643 648.498 L 1075.643 648.498 C 1081.116 649.683 1085.953 652.19 1089.644 655.588 L 1089.644 655.588 C 1093.622 653.836 1098.148 652.84 1102.953 652.84 L 1102.953 652.84 C 1114.515 652.84 1124.47 658.582 1129 666.845 L 1129 666.845 L 917.696 666.845 L 917.696 620.001 C 918.944 619.78 920.215 619.605 921.505 619.484 L 921.505 619.484 C 922.5 606.98 934.912 597.093 950.087 597.093 L 950.087 597.093 C 954.647 597.093 958.956 597.99 962.783 599.578 L 962.783 599.578 C 967.827 595.871 974.43 593.619 981.665 593.619 L 981.665 593.619 C 997.491 593.619 1010.319 604.369 1010.319 617.63" fill="rgb(255,255,255)"/></clipPath><g clip-path="url(#_clipPath_YQq0ILPG3IEV2hJDFnxhv2zleWtHbhuq)"><g><g><g><linearGradient id="_lgradient_341" x1="1.4197553179915694" y1="2.2443572581424167" x2="0.43065911312410865" y2="0.27101448821599217" gradientTransform="matrix(-211.304,0,0,-73.226,1129,666.845)" gradientUnits="userSpaceOnUse"><stop offset="0%" stop-opacity="1" style="stop-color:rgb(255,248,230)"/><stop offset="41.30728571705164%" stop-opacity="1" style="stop-color:rgb(255,248,230)"/><stop offset="100%" stop-opacity="1" style="stop-color:rgb(255,207,163)"/></linearGradient><path d=" M 1010.319 617.63 C 1010.319 618.343 1010.274 619.046 1010.202 619.743 L 1010.202 619.743 C 1012.071 619.422 1014.006 619.253 1015.988 619.253 L 1015.988 619.253 C 1020.86 619.253 1025.445 620.275 1029.462 622.071 L 1029.462 622.071 C 1034.584 618.057 1041.461 615.595 1049.027 615.595 L 1049.027 615.595 C 1064.852 615.595 1077.681 626.345 1077.681 639.607 L 1077.681 639.607 C 1077.681 642.748 1076.953 645.747 1075.643 648.498 L 1075.643 648.498 C 1081.116 649.683 1085.953 652.19 1089.644 655.588 L 1089.644 655.588 C 1093.622 653.836 1098.148 652.84 1102.953 652.84 L 1102.953 652.84 C 1114.515 652.84 1124.47 658.582 1129 666.845 L 1129 666.845 L 917.696 666.845 L 921.505 632 C 922.754 631.779 920.625 624 921.505 619.484 L 921.505 619.484 C 922.5 606.98 934.912 597.093 950.087 597.093 L 950.087 597.093 C 954.647 597.093 958.956 597.99 962.783 599.578 L 962.783 599.578 C 967.827 595.871 974.43 593.619 981.665 593.619 L 981.665 593.619 C 997.491 593.619 1010.319 604.369 1010.319 617.63" fill="url(#_lgradient_341)"/></g></g></g></g></g><linearGradient id="_lgradient_342" x1="0.3591941395419464" y1="4.704708104076731" x2="0.46924837042417633" y2="0.6537261533168905" gradientTransform="matrix(-304.743,0,0,-82.094,1009,666.667)" gradientUnits="userSpaceOnUse"><stop offset="0%" stop-opacity="1" style="stop-color:rgb(255,234,201)"/><stop offset="72.5542473944793%" stop-opacity="1" style="stop-color:rgb(255,234,201)"/><stop offset="100%" stop-opacity="1" style="stop-color:rgb(255,207,163)"/></linearGradient><path d=" M 793.117 591.653 C 793.596 591.649 794.07 591.638 794.552 591.638 L 794.552 591.638 C 827.281 591.638 854.979 601.304 864.26 614.626 L 864.26 614.626 C 865.056 614.613 865.853 614.599 866.657 614.599 L 866.657 614.599 C 896.798 614.599 921.815 624.414 926.762 637.312 L 926.762 637.312 C 931.549 636.405 936.808 635.914 942.328 635.904 L 942.328 635.904 C 969.073 635.853 1009 640.076 1009 666.667 L 1009 666.667 L 704.257 666.667 L 704.257 591.653 Q 709.793 591.051 704.257 591.653 C 705.427 591.034 752.202 576.037 793.117 591.653 Z " fill="url(#_lgradient_342)"/><rect x="316" y="603" width="73" height="63.667" transform="matrix(1,0,0,1,0,0)" fill="rgb(255,207,163)"/><g><clipPath id="_clipPath_uHUA3mRupfzdPIz8ceciOJ32GeFWeCFt"><path d=" M 706 543.742 L 706 666.667 L 364.257 666.667 C 364.257 634.106 409.032 628.935 439.025 628.997 L 439.025 628.997 C 445.215 629.01 451.113 629.611 456.48 630.722 L 456.48 630.722 C 462.028 614.927 490.084 602.909 523.883 602.909 L 523.883 602.909 C 524.784 602.909 525.679 602.926 526.572 602.942 L 526.572 602.942 C 536.979 586.629 568.041 574.792 604.743 574.792 L 604.743 574.792 C 605.283 574.792 605.816 574.806 606.353 574.811 L 606.353 574.811 C 613.871 556.442 646.956 542.603 686.64 542.603 L 686.64 542.603 C 693.311 542.603 699.791 543.004 706 543.742 Z " fill="rgb(255,255,255)"/></clipPath><g clip-path="url(#_clipPath_uHUA3mRupfzdPIz8ceciOJ32GeFWeCFt)"><g><g><g><linearGradient id="_lgradient_343" x1="0.35919413954194634" y1="4.7047081040767305" x2="0.275343023215378" y2="0.30533648474884156" gradientTransform="matrix(-341.876,0,0,-80.785,706.133,666.667)" gradientUnits="userSpaceOnUse"><stop offset="0%" stop-opacity="1" style="stop-color:rgb(255,234,201)"/><stop offset="5.083609632428898%" stop-opacity="1" style="stop-color:rgb(255,234,201)"/><stop offset="100%" stop-opacity="1" style="stop-color:rgb(255,207,163)"/></linearGradient><path d=" M 706 593.63 L 706 666.667 L 364.257 666.667 C 364.257 640.777 409.032 636.665 439.025 636.714 L 439.025 636.714 C 445.215 636.725 451.113 637.203 456.48 638.086 L 456.48 638.086 C 462.028 625.527 490.084 615.971 523.883 615.971 L 523.883 615.971 C 524.784 615.971 525.679 615.985 526.572 615.998 L 526.572 615.998 C 536.979 603.026 568.041 593.615 604.743 593.615 L 604.743 593.615 C 605.283 593.615 605.816 593.626 606.353 593.63 L 606.353 593.63 C 656.67 577.164 709.125 591.774 706 593.63 Q 701.5 586.493 706 593.63 Z " fill="url(#_lgradient_343)"/></g></g></g></g></g><clipPath id="_clipPath_wz9LpuvDt0JUqGw5h0QnlnJZq5bZrFca"><path d=" M 316 666.667 L 597.584 666.667 C 581.768 655.439 562.453 648.817 541.58 648.817 L 541.58 648.817 C 540.085 648.817 538.6 648.863 537.121 648.928 L 537.121 648.928 C 521.913 615.324 488.115 591.928 448.829 591.928 L 448.829 591.928 C 431.896 591.928 415.984 596.283 402.132 603.917 L 402.132 603.917 C 393.689 590.265 381.947 578.883 368.023 570.849 L 368.023 570.849 C 371.248 561.195 373.02 550.877 373.02 540.14 L 373.02 540.14 C 373.02 500.845 349.616 467.041 316 451.839 L 316 451.839 L 316 666.667 Z " fill="rgb(255,255,255)"/></clipPath><g clip-path="url(#_clipPath_wz9LpuvDt0JUqGw5h0QnlnJZq5bZrFca)"><g><g><g><linearGradient id="_lgradient_344" x1="0.5383142981608804" y1="0.7021423650548346" x2="0.41204522510748726" y2="0.19390799567778727" gradientTransform="matrix(281.584,0,0,-214.828,316,666.667)" gradientUnits="userSpaceOnUse"><stop offset="0%" stop-opacity="1" style="stop-color:rgb(255,248,230)"/><stop offset="65.396966%" stop-opacity="1" style="stop-color:rgb(255,248,230)"/><stop offset="100%" stop-opacity="1" style="stop-color:rgb(255,207,163)"/></linearGradient><path d=" M 316 666.667 L 597.584 666.667 C 581.768 655.439 562.453 648.817 541.58 648.817 L 541.58 648.817 C 540.085 648.817 538.6 648.863 537.121 648.928 L 537.121 648.928 C 521.913 615.324 488.115 591.928 448.829 591.928 L 448.829 591.928 C 431.896 591.928 415.984 596.283 402.132 603.917 L 402.132 603.917 C 393.689 590.265 381.947 578.883 368.023 570.849 L 368.023 570.849 C 371.248 561.195 373.02 550.877 373.02 540.14 L 373.02 540.14 C 373.02 500.845 349.616 467.041 316 451.839 L 316 451.839 L 316 666.667 Z " fill="url(#_lgradient_344)"/></g></g></g></g><g><clipPath id="_clipPath_3iwq1AfI1TjvIBtlAzNUwZBgPe65XrDg"><path d=" M 316 666.845 L 490.103 666.845 C 480.324 659.893 468.381 655.794 455.476 655.794 L 455.476 655.794 C 454.552 655.794 453.633 655.821 452.719 655.863 L 452.719 655.863 C 443.316 635.057 422.419 620.572 398.128 620.572 L 398.128 620.572 C 387.657 620.572 377.819 623.268 369.256 627.994 L 369.256 627.994 C 364.035 619.544 356.775 612.495 348.164 607.522 L 348.164 607.522 C 350.159 601.544 351.255 595.157 351.255 588.508 L 351.255 588.508 C 351.255 564.181 336.785 543.251 316 533.839 L 316 533.839 L 316 666.845 Z " fill="rgb(255,255,255)"/></clipPath><g clip-path="url(#_clipPath_3iwq1AfI1TjvIBtlAzNUwZBgPe65XrDg)"><g><g><g><linearGradient id="_lgradient_345" x1="0.6047301132665018" y1="0.6008318426837714" x2="-0.0613417294010431" y2="0.11153376568705697" gradientTransform="matrix(174.103,0,0,-133.007,316,666.845)" gradientUnits="userSpaceOnUse"><stop offset="0%" stop-opacity="1" style="stop-color:rgb(255,248,230)"/><stop offset="65.396966%" stop-opacity="1" style="stop-color:rgb(255,248,230)"/><stop offset="100%" stop-opacity="1" style="stop-color:rgb(255,207,163)"/></linearGradient><path d=" M 316 666.845 L 490.103 666.845 C 480.324 659.893 468.381 655.794 455.476 655.794 L 455.476 655.794 C 454.552 655.794 453.633 655.821 452.719 655.863 L 452.719 655.863 C 443.316 635.057 422.419 620.572 398.128 620.572 L 398.128 620.572 C 387.657 620.572 377.819 623.268 369.256 627.994 L 369.256 627.994 C 364.035 619.544 356.775 612.495 348.164 607.522 L 348.164 607.522 C 350.159 601.544 351.255 595.157 351.255 588.508 L 351.255 588.508 C 351.255 564.181 336.785 543.251 316 533.839 L 316 533.839 L 316 666.845 Z " fill="url(#_lgradient_345)"/></g></g></g></g></g><g><clipPath id="_clipPath_GRcBol6TBTcU0TQMWBLuk5lKNUcCM3TS"><path d=" M 755.652 553.334 C 755.652 559.26 760.456 564.063 766.384 564.063 L 766.384 564.063 C 772.311 564.063 777.113 559.26 777.113 553.334 L 777.113 553.334 C 777.113 547.407 772.311 542.603 766.384 542.603 L 766.384 542.603 C 760.456 542.603 755.652 547.407 755.652 553.334 Z " fill="rgb(255,255,255)"/></clipPath><g clip-path="url(#_clipPath_GRcBol6TBTcU0TQMWBLuk5lKNUcCM3TS)"><g><g><g><linearGradient id="_lgradient_346" x1="0.5059511679920448" y1="1.4510168996582777" x2="0.49672480119284046" y2="-0.03443122409893862" gradientTransform="matrix(21.461,0,0,-21.46,755.652,564.063)" gradientUnits="userSpaceOnUse"><stop offset="0%" stop-opacity="1" style="stop-color:rgb(255,248,230)"/><stop offset="65.396966%" stop-opacity="1" style="stop-color:rgb(255,248,230)"/><stop offset="100%" stop-opacity="1" style="stop-color:rgb(255,207,163)"/></linearGradient><path d=" M 755.652 553.334 C 755.652 559.26 760.456 564.063 766.384 564.063 L 766.384 564.063 C 772.311 564.063 777.113 559.26 777.113 553.334 L 777.113 553.334 C 777.113 547.407 772.311 542.603 766.384 542.603 L 766.384 542.603 C 760.456 542.603 755.652 547.407 755.652 553.334 Z " fill="url(#_lgradient_346)"/></g></g></g></g></g><g><clipPath id="_clipPath_AL5wvtINKzn7qVE4WYwT3vnksGsrTl6T"><path d=" M 831.591 422.939 C 831.591 426.702 834.641 429.751 838.404 429.751 L 838.404 429.751 C 842.167 429.751 845.217 426.702 845.217 422.939 L 845.217 422.939 C 845.217 419.175 842.167 416.127 838.404 416.127 L 838.404 416.127 C 834.641 416.127 831.591 419.175 831.591 422.939 Z " fill="rgb(255,255,255)"/></clipPath><g clip-path="url(#_clipPath_AL5wvtINKzn7qVE4WYwT3vnksGsrTl6T)"><g><g><g><linearGradient id="_lgradient_347" x1="0.5058003913894282" y1="1.4510814249363833" x2="0.4965749804305233" y2="-0.0342124106800592" gradientTransform="matrix(13.627,0,0,-13.624,831.591,429.751)" gradientUnits="userSpaceOnUse"><stop offset="0%" stop-opacity="1" style="stop-color:rgb(255,248,230)"/><stop offset="65.396966%" stop-opacity="1" style="stop-color:rgb(255,248,230)"/><stop offset="100%" stop-opacity="1" style="stop-color:rgb(255,207,163)"/></linearGradient><path d=" M 831.591 422.939 C 831.591 426.702 834.641 429.751 838.404 429.751 L 838.404 429.751 C 842.167 429.751 845.217 426.702 845.217 422.939 L 845.217 422.939 C 845.217 419.175 842.167 416.127 838.404 416.127 L 838.404 416.127 C 834.641 416.127 831.591 419.175 831.591 422.939 Z " fill="url(#_lgradient_347)"/></g></g></g></g></g><g><clipPath id="_clipPath_bgwuDRjAo9H8DIaFYX93SXH82EIkfbiT"><path d=" M 1143.373 618.695 C 1143.373 622.458 1146.424 625.507 1150.187 625.507 L 1150.187 625.507 C 1153.949 625.507 1157 622.458 1157 618.695 L 1157 618.695 C 1157 614.931 1153.949 611.883 1150.187 611.883 L 1150.187 611.883 C 1146.424 611.883 1143.373 614.931 1143.373 618.695 Z " fill="rgb(255,255,255)"/></clipPath><g clip-path="url(#_clipPath_bgwuDRjAo9H8DIaFYX93SXH82EIkfbiT)"><g><g><g><linearGradient id="_lgradient_348" x1="0.5058003913894282" y1="1.4510814249363833" x2="0.4965749804305233" y2="-0.0342124106800592" gradientTransform="matrix(13.627,0,0,-13.624,1143.373,625.507)" gradientUnits="userSpaceOnUse"><stop offset="0%" stop-opacity="1" style="stop-color:rgb(255,248,230)"/><stop offset="65.396966%" stop-opacity="1" style="stop-color:rgb(255,248,230)"/><stop offset="100%" stop-opacity="1" style="stop-color:rgb(255,207,163)"/></linearGradient><path d=" M 1143.373 618.695 C 1143.373 622.458 1146.424 625.507 1150.187 625.507 L 1150.187 625.507 C 1153.949 625.507 1157 622.458 1157 618.695 L 1157 618.695 C 1157 614.931 1153.949 611.883 1150.187 611.883 L 1150.187 611.883 C 1146.424 611.883 1143.373 614.931 1143.373 618.695 Z " fill="url(#_lgradient_348)"/></g></g></g></g></g><g><clipPath id="_clipPath_hV1d31cWH0B5HvKpEUDwQB27YS5lnM4d"><path d=" M 786.564 482.535 C 786.564 489.391 792.121 494.95 798.98 494.95 L 798.98 494.95 C 805.837 494.95 811.395 489.391 811.395 482.535 L 811.395 482.535 C 811.395 475.676 805.837 470.118 798.98 470.118 L 798.98 470.118 C 792.121 470.118 786.564 475.676 786.564 482.535 Z " fill="rgb(255,255,255)"/></clipPath><g clip-path="url(#_clipPath_hV1d31cWH0B5HvKpEUDwQB27YS5lnM4d)"><g><g><g><linearGradient id="_lgradient_349" x1="0.5059174139504918" y1="1.4508736039518908" x2="0.49669086753962755" y2="-0.03460368649644585" gradientTransform="matrix(24.831,0,0,-24.832,786.564,494.95)" gradientUnits="userSpaceOnUse"><stop offset="0%" stop-opacity="1" style="stop-color:rgb(255,248,230)"/><stop offset="65.396966%" stop-opacity="1" style="stop-color:rgb(255,248,230)"/><stop offset="100%" stop-opacity="1" style="stop-color:rgb(255,207,163)"/></linearGradient><path d=" M 786.564 482.535 C 786.564 489.391 792.121 494.95 798.98 494.95 L 798.98 494.95 C 805.837 494.95 811.395 489.391 811.395 482.535 L 811.395 482.535 C 811.395 475.676 805.837 470.118 798.98 470.118 L 798.98 470.118 C 792.121 470.118 786.564 475.676 786.564 482.535 Z " fill="url(#_lgradient_349)"/></g></g></g></g></g><g><clipPath id="_clipPath_tSFU6oyeUOS2kvPNUlMa929StRSKqldl"><path d=" M 863.499 470.71 C 863.499 478.63 869.92 485.051 877.84 485.051 L 877.84 485.051 C 885.761 485.051 892.184 478.63 892.184 470.71 L 892.184 470.71 C 892.184 462.787 885.761 456.367 877.84 456.367 L 877.84 456.367 C 869.92 456.367 863.499 462.787 863.499 470.71 Z " fill="rgb(255,255,255)"/></clipPath><g clip-path="url(#_clipPath_tSFU6oyeUOS2kvPNUlMa929StRSKqldl)"><g><g><g><linearGradient id="_lgradient_350" x1="0.50593892349168" y1="1.4508576209733652" x2="0.4967133680394191" y2="-0.034460311535315036" gradientTransform="matrix(28.685,0,0,-28.684,863.499,485.051)" gradientUnits="userSpaceOnUse"><stop offset="0%" stop-opacity="1" style="stop-color:rgb(255,248,230)"/><stop offset="65.396966%" stop-opacity="1" style="stop-color:rgb(255,248,230)"/><stop offset="100%" stop-opacity="1" style="stop-color:rgb(255,207,163)"/></linearGradient><path d=" M 863.499 470.71 C 863.499 478.63 869.92 485.051 877.84 485.051 L 877.84 485.051 C 885.761 485.051 892.184 478.63 892.184 470.71 L 892.184 470.71 C 892.184 462.787 885.761 456.367 877.84 456.367 L 877.84 456.367 C 869.92 456.367 863.499 462.787 863.499 470.71 Z " fill="url(#_lgradient_350)"/></g></g></g></g></g><g><clipPath id="_clipPath_zmuoqE8Am4r2eHSwEaSPeI00bntKwvrj"><path d=" M 677.316 639.85 C 677.316 647.771 683.737 654.191 691.659 654.191 L 691.659 654.191 C 699.579 654.191 706 647.771 706 639.85 L 706 639.85 C 706 631.928 699.579 625.507 691.659 625.507 L 691.659 625.507 C 683.737 625.507 677.316 631.928 677.316 639.85 Z " fill="rgb(255,255,255)"/></clipPath><g clip-path="url(#_clipPath_zmuoqE8Am4r2eHSwEaSPeI00bntKwvrj)"><g><g><g><linearGradient id="_lgradient_351" x1="0.5058629665783485" y1="1.4508749128433966" x2="0.4966365639380843" y2="-0.03457951006351223" gradientTransform="matrix(28.684,0,0,-28.684,677.316,654.191)" gradientUnits="userSpaceOnUse"><stop offset="0%" stop-opacity="1" style="stop-color:rgb(255,248,230)"/><stop offset="65.396966%" stop-opacity="1" style="stop-color:rgb(255,248,230)"/><stop offset="100%" stop-opacity="1" style="stop-color:rgb(255,207,163)"/></linearGradient><path d=" M 677.316 639.85 C 677.316 647.771 683.737 654.191 691.659 654.191 L 691.659 654.191 C 699.579 654.191 706 647.771 706 639.85 L 706 639.85 C 706 631.928 699.579 625.507 691.659 625.507 L 691.659 625.507 C 683.737 625.507 677.316 631.928 677.316 639.85 Z " fill="url(#_lgradient_351)"/></g></g></g></g></g><g><clipPath id="_clipPath_u3JOYbBoFTXowA9imApuqcBLDsorAJHb"><path d=" M 407.351 360.902 C 407.351 373.578 417.627 383.854 430.303 383.854 L 430.303 383.854 C 442.979 383.854 453.256 373.578 453.256 360.902 L 453.256 360.902 C 453.256 348.223 442.979 337.948 430.303 337.948 L 430.303 337.948 C 417.627 337.948 407.351 348.223 407.351 360.902 Z " fill="rgb(255,255,255)"/></clipPath><g clip-path="url(#_clipPath_u3JOYbBoFTXowA9imApuqcBLDsorAJHb)"><g><g><g><linearGradient id="_lgradient_352" x1="0.4940722646606055" y1="1.450969241046792" x2="0.5032991141189109" y2="-0.03455691422921858" gradientTransform="matrix(45.905,0,0,-45.905,407.351,383.854)" gradientUnits="userSpaceOnUse"><stop offset="0%" stop-opacity="1" style="stop-color:rgb(255,248,230)"/><stop offset="65.396966%" stop-opacity="1" style="stop-color:rgb(255,248,230)"/><stop offset="100%" stop-opacity="1" style="stop-color:rgb(255,207,163)"/></linearGradient><path d=" M 407.351 360.902 C 407.351 373.578 417.627 383.854 430.303 383.854 L 430.303 383.854 C 442.979 383.854 453.256 373.578 453.256 360.902 L 453.256 360.902 C 453.256 348.223 442.979 337.948 430.303 337.948 L 430.303 337.948 C 417.627 337.948 407.351 348.223 407.351 360.902 Z " fill="url(#_lgradient_352)"/></g></g></g></g></g><g><clipPath id="_clipPath_TEjDEJF4usPaNTYvrajzh1cn9MHEUG4x"><path d=" M 1021.348 565.556 C 1021.348 578.232 1031.624 588.508 1044.3 588.508 L 1044.3 588.508 C 1056.976 588.508 1067.253 578.232 1067.253 565.556 L 1067.253 565.556 C 1067.253 552.878 1056.976 542.603 1044.3 542.603 L 1044.3 542.603 C 1031.624 542.603 1021.348 552.878 1021.348 565.556 Z " fill="rgb(255,255,255)"/></clipPath><g clip-path="url(#_clipPath_TEjDEJF4usPaNTYvrajzh1cn9MHEUG4x)"><g><g><g><linearGradient id="_lgradient_353" x1="0.4940722646606055" y1="1.450969241046792" x2="0.5032991141189109" y2="-0.03455691422921858" gradientTransform="matrix(45.905,0,0,-45.905,1021.348,588.508)" gradientUnits="userSpaceOnUse"><stop offset="0%" stop-opacity="1" style="stop-color:rgb(255,248,230)"/><stop offset="65.396966%" stop-opacity="1" style="stop-color:rgb(255,248,230)"/><stop offset="100%" stop-opacity="1" style="stop-color:rgb(255,207,163)"/></linearGradient><path d=" M 1021.348 565.556 C 1021.348 578.232 1031.624 588.508 1044.3 588.508 L 1044.3 588.508 C 1056.976 588.508 1067.253 578.232 1067.253 565.556 L 1067.253 565.556 C 1067.253 552.878 1056.976 542.603 1044.3 542.603 L 1044.3 542.603 C 1031.624 542.603 1021.348 552.878 1021.348 565.556 Z " fill="url(#_lgradient_353)"/></g></g></g></g></g><g><clipPath id="_clipPath_h0Wbf69aqONdQjvyKibS8u5pqKY5sZhP"><path d=" M 353.085 387.019 C 353.085 392.946 357.891 397.75 363.817 397.75 L 363.817 397.75 C 369.743 397.75 374.547 392.946 374.547 387.019 L 374.547 387.019 C 374.547 381.092 369.743 376.288 363.817 376.288 L 363.817 376.288 C 357.891 376.288 353.085 381.092 353.085 387.019 Z " fill="rgb(255,255,255)"/></clipPath><g clip-path="url(#_clipPath_h0Wbf69aqONdQjvyKibS8u5pqKY5sZhP)"><g><g><g><linearGradient id="_lgradient_354" x1="0.49410201292246547" y1="1.4508275347912534" x2="0.5033278205765411" y2="-0.03453038021869004" gradientTransform="matrix(21.461,0,0,-21.461,353.085,397.75)" gradientUnits="userSpaceOnUse"><stop offset="0%" stop-opacity="1" style="stop-color:rgb(255,248,230)"/><stop offset="65.396966%" stop-opacity="1" style="stop-color:rgb(255,248,230)"/><stop offset="100%" stop-opacity="1" style="stop-color:rgb(255,207,163)"/></linearGradient><path d=" M 353.085 387.019 C 353.085 392.946 357.891 397.75 363.817 397.75 L 363.817 397.75 C 369.743 397.75 374.547 392.946 374.547 387.019 L 374.547 387.019 C 374.547 381.092 369.743 376.288 363.817 376.288 L 363.817 376.288 C 357.891 376.288 353.085 381.092 353.085 387.019 Z " fill="url(#_lgradient_354)"/></g></g></g></g></g><g><clipPath id="_clipPath_c2zjTLlIz7K71R9oXZXNqqZo9YHnDP4m"><path d=" M 558.884 553.334 C 558.884 559.26 563.689 564.063 569.616 564.063 L 569.616 564.063 C 575.541 564.063 580.347 559.26 580.347 553.334 L 580.347 553.334 C 580.347 547.407 575.541 542.603 569.616 542.603 L 569.616 542.603 C 563.689 542.603 558.884 547.407 558.884 553.334 Z " fill="rgb(255,255,255)"/></clipPath><g clip-path="url(#_clipPath_c2zjTLlIz7K71R9oXZXNqqZo9YHnDP4m)"><g><g><g><linearGradient id="_lgradient_355" x1="0.4941094613903232" y1="1.4510168996582786" x2="0.5033352550164629" y2="-0.03433894304516971" gradientTransform="matrix(21.463,0,0,-21.46,558.884,564.063)" gradientUnits="userSpaceOnUse"><stop offset="0%" stop-opacity="1" style="stop-color:rgb(255,248,230)"/><stop offset="65.396966%" stop-opacity="1" style="stop-color:rgb(255,248,230)"/><stop offset="100%" stop-opacity="1" style="stop-color:rgb(255,207,163)"/></linearGradient><path d=" M 558.884 553.334 C 558.884 559.26 563.689 564.063 569.616 564.063 L 569.616 564.063 C 575.541 564.063 580.347 559.26 580.347 553.334 L 580.347 553.334 C 580.347 547.407 575.541 542.603 569.616 542.603 L 569.616 542.603 C 563.689 542.603 558.884 547.407 558.884 553.334 Z " fill="url(#_lgradient_355)"/></g></g></g></g></g><g><clipPath id="_clipPath_fMxgwcI0t2damOXDKPOAS08g4ZVeREXR"><path d=" M 490.6 619.503 C 490.6 625.43 495.405 630.232 501.331 630.232 L 501.331 630.232 C 507.257 630.232 512.061 625.43 512.061 619.503 L 512.061 619.503 C 512.061 613.575 507.257 608.772 501.331 608.772 L 501.331 608.772 C 495.405 608.772 490.6 613.575 490.6 619.503 Z " fill="rgb(255,255,255)"/></clipPath><g clip-path="url(#_clipPath_fMxgwcI0t2damOXDKPOAS08g4ZVeREXR)"><g><g><g><linearGradient id="_lgradient_356" x1="0.9720228628230618" y1="0.7548966759863314" x2="-1.0987389413518889" y2="-0.363325553138917" gradientTransform="matrix(21.461,0,0,-21.46,490.6,630.232)" gradientUnits="userSpaceOnUse"><stop offset="0%" stop-opacity="1" style="stop-color:rgb(255,248,230)"/><stop offset="65.396966%" stop-opacity="1" style="stop-color:rgb(255,248,230)"/><stop offset="100%" stop-opacity="1" style="stop-color:rgb(255,207,163)"/></linearGradient><path d=" M 490.6 619.503 C 490.6 625.43 495.405 630.232 501.331 630.232 L 501.331 630.232 C 507.257 630.232 512.061 625.43 512.061 619.503 L 512.061 619.503 C 512.061 613.575 507.257 608.772 501.331 608.772 L 501.331 608.772 C 495.405 608.772 490.6 613.575 490.6 619.503 Z " fill="url(#_lgradient_356)"/></g></g></g></g></g><g><clipPath id="_clipPath_dxci2nK1doWwYniPi6FW5sXw7CMVSHQ5"><path d=" M 351.087 291.796 C 351.087 296.435 354.844 300.194 359.483 300.194 L 359.483 300.194 C 364.12 300.194 367.88 296.435 367.88 291.796 L 367.88 291.796 C 367.88 287.159 364.12 283.399 359.483 283.399 L 359.483 283.399 C 354.844 283.399 351.087 287.159 351.087 291.796 Z " fill="rgb(255,255,255)"/></clipPath><g clip-path="url(#_clipPath_dxci2nK1doWwYniPi6FW5sXw7CMVSHQ5)"><g><g><g><linearGradient id="_lgradient_357" x1="0.49408987693529194" y1="1.4509248967926283" x2="0.5033161948422441" y2="-0.0345156444356054" gradientTransform="matrix(16.793,0,0,-16.795,351.087,300.194)" gradientUnits="userSpaceOnUse"><stop offset="0%" stop-opacity="1" style="stop-color:rgb(255,248,230)"/><stop offset="65.396966%" stop-opacity="1" style="stop-color:rgb(255,248,230)"/><stop offset="100%" stop-opacity="1" style="stop-color:rgb(255,207,163)"/></linearGradient><path d=" M 351.087 291.796 C 351.087 296.435 354.844 300.194 359.483 300.194 L 359.483 300.194 C 364.12 300.194 367.88 296.435 367.88 291.796 L 367.88 291.796 C 367.88 287.159 364.12 283.399 359.483 283.399 L 359.483 283.399 C 354.844 283.399 351.087 287.159 351.087 291.796 Z " fill="url(#_lgradient_357)"/></g></g></g></g></g><g><clipPath id="_clipPath_i7lcYIvR17del9vb8TjYB3tU7eG5xkdX"><path d=" M 978.223 447.97 C 978.223 452.608 981.98 456.367 986.619 456.367 L 986.619 456.367 C 991.256 456.367 995.016 452.608 995.016 447.97 L 995.016 447.97 C 995.016 443.332 991.256 439.572 986.619 439.572 L 986.619 439.572 C 981.98 439.572 978.223 443.332 978.223 447.97 Z " fill="rgb(255,255,255)"/></clipPath><g clip-path="url(#_clipPath_i7lcYIvR17del9vb8TjYB3tU7eG5xkdX)"><g><g><g><linearGradient id="_lgradient_358" x1="0.49408987693529194" y1="1.4509248967926283" x2="0.5033161948422441" y2="-0.0345156444356054" gradientTransform="matrix(16.793,0,0,-16.795,978.223,456.367)" gradientUnits="userSpaceOnUse"><stop offset="0%" stop-opacity="1" style="stop-color:rgb(255,248,230)"/><stop offset="65.396966%" stop-opacity="1" style="stop-color:rgb(255,248,230)"/><stop offset="100%" stop-opacity="1" style="stop-color:rgb(255,207,163)"/></linearGradient><path d=" M 978.223 447.97 C 978.223 452.608 981.98 456.367 986.619 456.367 L 986.619 456.367 C 991.256 456.367 995.016 452.608 995.016 447.97 L 995.016 447.97 C 995.016 443.332 991.256 439.572 986.619 439.572 L 986.619 439.572 C 981.98 439.572 978.223 443.332 978.223 447.97 Z " fill="url(#_lgradient_358)"/></g></g></g></g></g><g><clipPath id="_clipPath_B7OZkTwyHH4DkjsCZEsn5RPThI4mceA3"><path d=" M 490.781 422.939 C 490.781 426.702 493.832 429.751 497.596 429.751 L 497.596 429.751 C 501.357 429.751 504.408 426.702 504.408 422.939 L 504.408 422.939 C 504.408 419.175 501.357 416.127 497.596 416.127 L 497.596 416.127 C 493.832 416.127 490.781 419.175 490.781 422.939 Z " fill="rgb(255,255,255)"/></clipPath><g clip-path="url(#_clipPath_B7OZkTwyHH4DkjsCZEsn5RPThI4mceA3)"><g><g><g><linearGradient id="_lgradient_359" x1="0.49414970645792344" y1="1.450985515756507" x2="0.5033751174168284" y2="-0.03430831985995941" gradientTransform="matrix(13.627,0,0,-13.624,490.781,429.751)" gradientUnits="userSpaceOnUse"><stop offset="0%" stop-opacity="1" style="stop-color:rgb(255,248,230)"/><stop offset="65.396966%" stop-opacity="1" style="stop-color:rgb(255,248,230)"/><stop offset="100%" stop-opacity="1" style="stop-color:rgb(255,207,163)"/></linearGradient><path d=" M 490.781 422.939 C 490.781 426.702 493.832 429.751 497.596 429.751 L 497.596 429.751 C 501.357 429.751 504.408 426.702 504.408 422.939 L 504.408 422.939 C 504.408 419.175 501.357 416.127 497.596 416.127 L 497.596 416.127 C 493.832 416.127 490.781 419.175 490.781 422.939 Z " fill="url(#_lgradient_359)"/></g></g></g></g></g><g><clipPath id="_clipPath_eeBZxQjLlgPkwdxFAVQwkZOCyl6Xqw8M"><path d=" M 1320.373 636.812 C 1320.373 640.575 1323.424 643.624 1327.188 643.624 L 1327.188 643.624 C 1330.949 643.624 1334 640.575 1334 636.812 L 1334 636.812 C 1334 633.048 1330.949 630 1327.188 630 L 1327.188 630 C 1323.424 630 1320.373 633.048 1320.373 636.812 Z " fill="rgb(255,255,255)"/></clipPath><g clip-path="url(#_clipPath_eeBZxQjLlgPkwdxFAVQwkZOCyl6Xqw8M)"><g><g><g><linearGradient id="_lgradient_360" x1="0.49414970645792344" y1="1.450985515756507" x2="0.5033751174168284" y2="-0.03430831985995941" gradientTransform="matrix(13.627,0,0,-13.624,1320.373,643.624)" gradientUnits="userSpaceOnUse"><stop offset="0%" stop-opacity="1" style="stop-color:rgb(255,248,230)"/><stop offset="65.396966%" stop-opacity="1" style="stop-color:rgb(255,248,230)"/><stop offset="100%" stop-opacity="1" style="stop-color:rgb(255,207,163)"/></linearGradient><path d=" M 1320.373 636.812 C 1320.373 640.575 1323.424 643.624 1327.188 643.624 L 1327.188 643.624 C 1330.949 643.624 1334 640.575 1334 636.812 L 1334 636.812 C 1334 633.048 1330.949 630 1327.188 630 L 1327.188 630 C 1323.424 630 1320.373 633.048 1320.373 636.812 Z " fill="url(#_lgradient_360)"/></g></g></g></g></g><g><clipPath id="_clipPath_5y4iNq36AtDn6Iw7d2oG62YyIcXe6aw3"><path d=" M 629.627 593.441 C 629.627 597.203 632.677 600.253 636.441 600.253 L 636.441 600.253 C 640.203 600.253 643.253 597.203 643.253 593.441 L 643.253 593.441 C 643.253 589.677 640.203 586.629 636.441 586.629 L 636.441 586.629 C 632.677 586.629 629.627 589.677 629.627 593.441 Z " fill="rgb(255,255,255)"/></clipPath><g clip-path="url(#_clipPath_5y4iNq36AtDn6Iw7d2oG62YyIcXe6aw3)"><g><g><g><linearGradient id="_lgradient_361" x1="0.49414970645792344" y1="1.450985515756507" x2="0.5033751174168284" y2="-0.03430831985995941" gradientTransform="matrix(13.627,0,0,-13.624,629.627,600.253)" gradientUnits="userSpaceOnUse"><stop offset="0%" stop-opacity="1" style="stop-color:rgb(255,248,230)"/><stop offset="65.396966%" stop-opacity="1" style="stop-color:rgb(255,248,230)"/><stop offset="100%" stop-opacity="1" style="stop-color:rgb(255,207,163)"/></linearGradient><path d=" M 629.627 593.441 C 629.627 597.203 632.677 600.253 636.441 600.253 L 636.441 600.253 C 640.203 600.253 643.253 597.203 643.253 593.441 L 643.253 593.441 C 643.253 589.677 640.203 586.629 636.441 586.629 L 636.441 586.629 C 632.677 586.629 629.627 589.677 629.627 593.441 Z " fill="url(#_lgradient_361)"/></g></g></g></g></g><g><clipPath id="_clipPath_RdENmrCDt3IWrZxi6ixxqIRov0Rpo9uv"><path d=" M 921.835 549.415 C 921.835 553.178 924.885 556.227 928.649 556.227 L 928.649 556.227 C 932.411 556.227 935.461 553.178 935.461 549.415 L 935.461 549.415 C 935.461 545.651 932.411 542.603 928.649 542.603 L 928.649 542.603 C 924.885 542.603 921.835 545.651 921.835 549.415 Z " fill="rgb(255,255,255)"/></clipPath><g clip-path="url(#_clipPath_RdENmrCDt3IWrZxi6ixxqIRov0Rpo9uv)"><g><g><g><linearGradient id="_lgradient_362" x1="0.49414970645792344" y1="1.450985515756507" x2="0.5033751174168284" y2="-0.03430831985995941" gradientTransform="matrix(13.627,0,0,-13.624,921.835,556.227)" gradientUnits="userSpaceOnUse"><stop offset="0%" stop-opacity="1" style="stop-color:rgb(255,248,230)"/><stop offset="65.396966%" stop-opacity="1" style="stop-color:rgb(255,248,230)"/><stop offset="100%" stop-opacity="1" style="stop-color:rgb(255,207,163)"/></linearGradient><path d=" M 921.835 549.415 C 921.835 553.178 924.885 556.227 928.649 556.227 L 928.649 556.227 C 932.411 556.227 935.461 553.178 935.461 549.415 L 935.461 549.415 C 935.461 545.651 932.411 542.603 928.649 542.603 L 928.649 542.603 C 924.885 542.603 921.835 545.651 921.835 549.415 Z " fill="url(#_lgradient_362)"/></g></g></g></g></g><g><clipPath id="_clipPath_ybeGhtvOPpZf7cCDjIB2tMyFB3QwrZdh"><path d=" M 524.603 482.535 C 524.603 489.391 530.161 494.95 537.019 494.95 L 537.019 494.95 C 543.877 494.95 549.435 489.391 549.435 482.535 L 549.435 482.535 C 549.435 475.676 543.877 470.118 537.019 470.118 L 537.019 470.118 C 530.161 470.118 524.603 475.676 524.603 482.535 Z " fill="rgb(255,255,255)"/></clipPath><g clip-path="url(#_clipPath_ybeGhtvOPpZf7cCDjIB2tMyFB3QwrZdh)"><g><g><g><linearGradient id="_lgradient_363" x1="0.4941344501718197" y1="1.450926224226805" x2="0.5033609965635725" y2="-0.034551063144332206" gradientTransform="matrix(24.832,0,0,-24.832,524.603,494.95)" gradientUnits="userSpaceOnUse"><stop offset="0%" stop-opacity="1" style="stop-color:rgb(255,248,230)"/><stop offset="65.396966%" stop-opacity="1" style="stop-color:rgb(255,248,230)"/><stop offset="100%" stop-opacity="1" style="stop-color:rgb(255,207,163)"/></linearGradient><path d=" M 524.603 482.535 C 524.603 489.391 530.161 494.95 537.019 494.95 L 537.019 494.95 C 543.877 494.95 549.435 489.391 549.435 482.535 L 549.435 482.535 C 549.435 475.676 543.877 470.118 537.019 470.118 L 537.019 470.118 C 530.161 470.118 524.603 475.676 524.603 482.535 Z " fill="url(#_lgradient_363)"/></g></g></g></g></g><g><clipPath id="_clipPath_JGrTpgPMts8VZuHeg7pDzeMGZ7NWQd8i"><path d=" M 443.816 470.71 C 443.816 478.63 450.237 485.051 458.157 485.051 L 458.157 485.051 C 466.079 485.051 472.5 478.63 472.5 470.71 L 472.5 470.71 C 472.5 462.787 466.079 456.367 458.157 456.367 L 458.157 456.367 C 450.237 456.367 443.816 462.787 443.816 470.71 Z " fill="rgb(255,255,255)"/></clipPath><g clip-path="url(#_clipPath_JGrTpgPMts8VZuHeg7pDzeMGZ7NWQd8i)"><g><g><g><linearGradient id="_lgradient_364" x1="0.4941047738576678" y1="1.4508576209733643" x2="0.5033307581462374" y2="-0.0345293543438423" gradientTransform="matrix(28.684,0,0,-28.684,443.816,485.051)" gradientUnits="userSpaceOnUse"><stop offset="0%" stop-opacity="1" style="stop-color:rgb(255,248,230)"/><stop offset="65.396966%" stop-opacity="1" style="stop-color:rgb(255,248,230)"/><stop offset="100%" stop-opacity="1" style="stop-color:rgb(255,207,163)"/></linearGradient><path d=" M 443.816 470.71 C 443.816 478.63 450.237 485.051 458.157 485.051 L 458.157 485.051 C 466.079 485.051 472.5 478.63 472.5 470.71 L 472.5 470.71 C 472.5 462.787 466.079 456.367 458.157 456.367 L 458.157 456.367 C 450.237 456.367 443.816 462.787 443.816 470.71 Z " fill="url(#_lgradient_364)"/></g></g></g></g></g><g><clipPath id="_clipPath_SR4jacATApFUw4LOZ6Q3lQuFWNRqWrPj"><path d=" M 782.711 314.536 C 782.711 322.458 789.132 328.878 797.053 328.878 L 797.053 328.878 C 804.975 328.878 811.395 322.458 811.395 314.536 L 811.395 314.536 C 811.395 306.615 804.975 300.194 797.053 300.194 L 797.053 300.194 C 789.132 300.194 782.711 306.615 782.711 314.536 Z " fill="rgb(255,255,255)"/></clipPath><g clip-path="url(#_clipPath_SR4jacATApFUw4LOZ6Q3lQuFWNRqWrPj)"><g><g><g><linearGradient id="_lgradient_365" x1="0.49411472133128775" y1="1.4509202807604704" x2="0.5033411239715516" y2="-0.03453414214662143" gradientTransform="matrix(28.684,0,0,-28.684,782.711,328.878)" gradientUnits="userSpaceOnUse"><stop offset="0%" stop-opacity="1" style="stop-color:rgb(255,248,230)"/><stop offset="65.396966%" stop-opacity="1" style="stop-color:rgb(255,248,230)"/><stop offset="100%" stop-opacity="1" style="stop-color:rgb(255,207,163)"/></linearGradient><path d=" M 782.711 314.536 C 782.711 322.458 789.132 328.878 797.053 328.878 L 797.053 328.878 C 804.975 328.878 811.395 322.458 811.395 314.536 L 811.395 314.536 C 811.395 306.615 804.975 300.194 797.053 300.194 L 797.053 300.194 C 789.132 300.194 782.711 306.615 782.711 314.536 Z " fill="url(#_lgradient_365)"/></g></g></g></g></g><g><clipPath id="_clipPath_XtNrwCHr02SAhkS6iHbo1WWOXsXve6uU"><path d=" M 823.936 619.503 C 823.936 625.43 828.741 630.232 834.668 630.232 L 834.668 630.232 C 840.593 630.232 845.397 625.43 845.397 619.503 L 845.397 619.503 C 845.397 613.575 840.593 608.772 834.668 608.772 L 834.668 608.772 C 828.741 608.772 823.936 613.575 823.936 619.503 Z " fill="rgb(255,255,255)"/></clipPath><g clip-path="url(#_clipPath_XtNrwCHr02SAhkS6iHbo1WWOXsXve6uU)"><g><g><g><linearGradient id="_lgradient_366" x1="0.02803802186878457" y1="0.7548966759863314" x2="2.098925447316102" y2="-0.3633934582084999" gradientTransform="matrix(21.461,0,0,-21.46,823.936,630.232)" gradientUnits="userSpaceOnUse"><stop offset="0%" stop-opacity="1" style="stop-color:rgb(255,248,230)"/><stop offset="65.396966%" stop-opacity="1" style="stop-color:rgb(255,248,230)"/><stop offset="100%" stop-opacity="1" style="stop-color:rgb(255,207,163)"/></linearGradient><path d=" M 823.936 619.503 C 823.936 625.43 828.741 630.232 834.668 630.232 L 834.668 630.232 C 840.593 630.232 845.397 625.43 845.397 619.503 L 845.397 619.503 C 845.397 613.575 840.593 608.772 834.668 608.772 L 834.668 608.772 C 828.741 608.772 823.936 613.575 823.936 619.503 Z " fill="url(#_lgradient_366)"/></g></g></g></g></g><g><clipPath id="_clipPath_4146x7OCtAQu5nqmHST462kUEuaWFRrn"><path d=" M 956.763 625.507 C 956.763 631.434 961.567 636.238 967.492 636.238 L 967.492 636.238 C 973.419 636.238 978.223 631.434 978.223 625.507 L 978.223 625.507 C 978.223 619.58 973.419 614.776 967.492 614.776 L 967.492 614.776 C 961.567 614.776 956.763 619.58 956.763 625.507 Z " fill="rgb(255,255,255)"/></clipPath><g clip-path="url(#_clipPath_4146x7OCtAQu5nqmHST462kUEuaWFRrn)"><g><g><g><linearGradient id="_lgradient_367" x1="1.2656328052190098" y1="0.5352261431411529" x2="-0.08048978806041007" y2="0.47309687517315235" gradientTransform="matrix(21.46,0,0,-21.461,956.763,636.238)" gradientUnits="userSpaceOnUse"><stop offset="0%" stop-opacity="1" style="stop-color:rgb(255,248,230)"/><stop offset="65.396966%" stop-opacity="1" style="stop-color:rgb(255,248,230)"/><stop offset="100%" stop-opacity="1" style="stop-color:rgb(255,207,163)"/></linearGradient><path d=" M 956.763 625.507 C 956.763 631.434 961.567 636.238 967.492 636.238 L 967.492 636.238 C 973.419 636.238 978.223 631.434 978.223 625.507 L 978.223 625.507 C 978.223 619.58 973.419 614.776 967.492 614.776 L 967.492 614.776 C 961.567 614.776 956.763 619.58 956.763 625.507 Z " fill="url(#_lgradient_367)"/></g></g></g></g></g></g></svg>