<?xml version="1.0" encoding="UTF-8" standalone="no"?><!-- Generator: Gravit.io --><svg xmlns="http://www.w3.org/2000/svg" xmlns:xlink="http://www.w3.org/1999/xlink" style="isolation:isolate" viewBox="0 0 231.867 683" width="231.867pt" height="683pt"><defs><clipPath id="_clipPath_F26JJpRVA8PqNwWJV57iHUDXcpPo7qLc"><rect x="0" y="0" width="231.867" height="683"/></clipPath></defs><g clip-path="url(#_clipPath_F26JJpRVA8PqNwWJV57iHUDXcpPo7qLc)"><rect x="0" y="0" width="231.867" height="683" style="fill:rgb(22,30,57)" fill-opacity="0"/><rect x="125.355" y="406.75" width="29.293" height="276.25" transform="matrix(1,0,0,1,0,0)" fill="rgb(255,234,201)"/><rect x="77.204" y="406.75" width="29.293" height="276.25" transform="matrix(1,0,0,1,0,0)" fill="rgb(255,234,201)"/><clipPath id="_clipPath_WxW72sO2Zb32GNZ39pn971v2UcAa2BPM"><rect x="0" y="0" width="231.867" height="498.497" transform="matrix(1,0,0,1,0,0)" fill="rgb(255,255,255)"/></clipPath><g clip-path="url(#_clipPath_WxW72sO2Zb32GNZ39pn971v2UcAa2BPM)"><g><g><g><clipPath id="_clipPath_5QrAPczalaA05cM74lZxRf7qWTQRiCuf"><path d=" M 120.894 419.035 C 120.894 429.591 140.006 498.498 140.006 498.498 L 140.006 498.498 C 140.006 498.498 159.119 429.591 159.119 419.035 L 159.119 419.035 C 159.119 408.479 150.562 399.922 140.006 399.922 L 140.006 399.922 C 129.451 399.922 120.894 408.479 120.894 419.035 Z " fill="rgb(255,255,255)"/></clipPath><g clip-path="url(#_clipPath_5QrAPczalaA05cM74lZxRf7qWTQRiCuf)"><g><g><g><g><linearGradient id="_lgradient_270" x1="0.5000055809410853" y1="0.18777538819455764" x2="0.5000055657306426" y2="1.0824098208714577" gradientTransform="matrix(38.225,0,0,98.576,120.894,399.922)" gradientUnits="userSpaceOnUse"><stop offset="0%" stop-opacity="1" style="stop-color:rgb(242,210,0)"/><stop offset="100%" stop-opacity="1" style="stop-color:rgb(242,121,0)"/></linearGradient><path d=" M 120.894 419.035 C 120.894 429.591 140.006 498.498 140.006 498.498 L 140.006 498.498 C 140.006 498.498 159.119 429.591 159.119 419.035 L 159.119 419.035 C 159.119 408.479 150.562 399.922 140.006 399.922 L 140.006 399.922 C 129.451 399.922 120.894 408.479 120.894 419.035 Z " fill="url(#_lgradient_270)"/></g></g></g></g></g></g><g><clipPath id="_clipPath_Cmz0RdQ8HiPfQfQhlTChcmZKYmHlB3b6"><path d=" M 72.747 419.035 C 72.747 429.591 91.86 498.498 91.86 498.498 L 91.86 498.498 C 91.86 498.498 110.974 429.591 110.974 419.035 L 110.974 419.035 C 110.974 408.479 102.416 399.922 91.86 399.922 L 91.86 399.922 C 81.304 399.922 72.747 408.479 72.747 419.035 Z " fill="rgb(255,255,255)"/></clipPath><g clip-path="url(#_clipPath_Cmz0RdQ8HiPfQfQhlTChcmZKYmHlB3b6)"><g><g><g><g><linearGradient id="_lgradient_271" x1="0.49999302406696877" y1="0.18777538819455764" x2="0.4999930088557307" y2="1.0824098166026261" gradientTransform="matrix(38.227,0,0,98.576,72.747,399.922)" gradientUnits="userSpaceOnUse"><stop offset="0%" stop-opacity="1" style="stop-color:rgb(242,210,0)"/><stop offset="100%" stop-opacity="1" style="stop-color:rgb(242,121,0)"/></linearGradient><path d=" M 72.747 419.035 C 72.747 429.591 91.86 498.498 91.86 498.498 L 91.86 498.498 C 91.86 498.498 110.974 429.591 110.974 419.035 L 110.974 419.035 C 110.974 408.479 102.416 399.922 91.86 399.922 L 91.86 399.922 C 81.304 399.922 72.747 408.479 72.747 419.035 Z " fill="url(#_lgradient_271)"/></g></g></g></g></g></g><g><clipPath id="_clipPath_OUshlqPVI3NT6fR0cXWxDOw5PEYMh99d"><path d=" M 77.247 414.22 C 77.247 420.923 91.86 464.664 91.86 464.664 L 91.86 464.664 C 91.86 464.664 106.474 420.923 106.474 414.22 L 106.474 414.22 C 106.474 407.52 99.931 402.088 91.86 402.088 L 91.86 402.088 C 83.79 402.088 77.247 407.52 77.247 414.22 Z " fill="rgb(255,255,255)"/></clipPath><g clip-path="url(#_clipPath_OUshlqPVI3NT6fR0cXWxDOw5PEYMh99d)"><g><g><g><g><linearGradient id="_lgradient_272" x1="0.4999908759124079" y1="0.18776740816500403" x2="0.49999085799893056" y2="1.0824061474663753" gradientTransform="matrix(29.227,0,0,62.576,77.247,402.088)" gradientUnits="userSpaceOnUse"><stop offset="0%" stop-opacity="1" style="stop-color:rgb(242,210,0)"/><stop offset="100%" stop-opacity="1" style="stop-color:rgb(242,121,0)"/></linearGradient><path d=" M 77.247 414.22 C 77.247 420.923 91.86 464.664 91.86 464.664 L 91.86 464.664 C 91.86 464.664 106.474 420.923 106.474 414.22 L 106.474 414.22 C 106.474 407.52 99.931 402.088 91.86 402.088 L 91.86 402.088 C 83.79 402.088 77.247 407.52 77.247 414.22 Z " fill="url(#_lgradient_272)"/></g></g></g></g></g></g><g><clipPath id="_clipPath_GALS7cN7YZRBVGtVlfOR77B1Zccf08ft"><path d=" M 125.394 414.22 C 125.394 420.923 140.006 464.664 140.006 464.664 L 140.006 464.664 C 140.006 464.664 154.619 420.923 154.619 414.22 L 154.619 414.22 C 154.619 407.52 148.076 402.088 140.006 402.088 L 140.006 402.088 C 131.935 402.088 125.394 407.52 125.394 414.22 Z " fill="rgb(255,255,255)"/></clipPath><g clip-path="url(#_clipPath_GALS7cN7YZRBVGtVlfOR77B1Zccf08ft)"><g><g><g><g><linearGradient id="_lgradient_273" x1="0.5000072996030838" y1="0.18776740816500403" x2="0.5000072816908322" y2="1.0824061616356428" gradientTransform="matrix(29.225,0,0,62.576,125.394,402.088)" gradientUnits="userSpaceOnUse"><stop offset="0%" stop-opacity="1" style="stop-color:rgb(242,210,0)"/><stop offset="100%" stop-opacity="1" style="stop-color:rgb(242,121,0)"/></linearGradient><path d=" M 125.394 414.22 C 125.394 420.923 140.006 464.664 140.006 464.664 L 140.006 464.664 C 140.006 464.664 154.619 420.923 154.619 414.22 L 154.619 414.22 C 154.619 407.52 148.076 402.088 140.006 402.088 L 140.006 402.088 C 131.935 402.088 125.394 407.52 125.394 414.22 Z " fill="url(#_lgradient_273)"/></g></g></g></g></g></g><g><clipPath id="_clipPath_aoLStTHrgrH0fWiP6fyGuOTcZwg1oWm8"><path d=" M 83.08 409.379 C 83.08 413.404 91.86 439.686 91.86 439.686 L 91.86 439.686 C 91.86 439.686 100.64 413.404 100.64 409.379 L 100.64 409.379 C 100.64 405.352 96.708 402.088 91.86 402.088 L 91.86 402.088 C 87.011 402.088 83.08 405.352 83.08 409.379 Z " fill="rgb(255,255,255)"/></clipPath><g clip-path="url(#_clipPath_aoLStTHrgrH0fWiP6fyGuOTcZwg1oWm8)"><g><g><g><g><linearGradient id="_lgradient_274" x1="0.49998481397114247" y1="0.18779094837185184" x2="0.49998479575173943" y2="1.0824018104724134" gradientTransform="matrix(17.56,0,0,37.598,83.08,402.088)" gradientUnits="userSpaceOnUse"><stop offset="0%" stop-opacity="1" style="stop-color:rgb(242,210,0)"/><stop offset="100%" stop-opacity="1" style="stop-color:rgb(242,121,0)"/></linearGradient><path d=" M 83.08 409.379 C 83.08 413.404 91.86 439.686 91.86 439.686 L 91.86 439.686 C 91.86 439.686 100.64 413.404 100.64 409.379 L 100.64 409.379 C 100.64 405.352 96.708 402.088 91.86 402.088 L 91.86 402.088 C 87.011 402.088 83.08 405.352 83.08 409.379 Z " fill="url(#_lgradient_274)"/></g></g></g></g></g></g><g><clipPath id="_clipPath_lAsGwa1XwhKI7jfKUS0PLCvPyQ8OBV7P"><path d=" M 131.227 409.379 C 131.227 413.404 140.006 439.686 140.006 439.686 L 140.006 439.686 C 140.006 439.686 148.786 413.404 148.786 409.379 L 148.786 409.379 C 148.786 405.352 144.854 402.088 140.006 402.088 L 140.006 402.088 C 135.156 402.088 131.227 405.352 131.227 409.379 Z " fill="rgb(255,255,255)"/></clipPath><g clip-path="url(#_clipPath_lAsGwa1XwhKI7jfKUS0PLCvPyQ8OBV7P)"><g><g><g><g><linearGradient id="_lgradient_275" x1="0.5000121497456149" y1="0.18779094837185184" x2="0.5000121315272488" y2="1.0824018104724134" gradientTransform="matrix(17.559,0,0,37.598,131.227,402.088)" gradientUnits="userSpaceOnUse"><stop offset="0%" stop-opacity="1" style="stop-color:rgb(242,210,0)"/><stop offset="100%" stop-opacity="1" style="stop-color:rgb(242,121,0)"/></linearGradient><path d=" M 131.227 409.379 C 131.227 413.404 140.006 439.686 140.006 439.686 L 140.006 439.686 C 140.006 439.686 148.786 413.404 148.786 409.379 L 148.786 409.379 C 148.786 405.352 144.854 402.088 140.006 402.088 L 140.006 402.088 C 135.156 402.088 131.227 405.352 131.227 409.379 Z " fill="url(#_lgradient_275)"/></g></g></g></g></g></g><g><clipPath id="_clipPath_5VeInTGUE21KV8VZXehuD6xiojzJfK1R"><path d=" M 181.402 49.992 C 181.402 49.992 179.231 49.775 178.796 50.787 L 178.796 50.787 C 178.363 51.8 162.736 96.656 162.736 98.827 L 162.736 98.827 L 162.736 380.544 L 181.402 380.544 L 200.068 380.544 L 200.068 98.827 C 200.068 96.656 184.44 51.8 184.006 50.787 L 184.006 50.787 C 183.703 50.08 182.552 49.974 181.886 49.974 L 181.886 49.974 C 181.598 49.974 181.402 49.992 181.402 49.992 Z " fill="rgb(255,255,255)"/></clipPath><g clip-path="url(#_clipPath_5VeInTGUE21KV8VZXehuD6xiojzJfK1R)"><g><g><g><g><linearGradient id="_lgradient_276" x1="-0.000016429158183228765" y1="0.5000016055311605" x2="0.9999843922997265" y2="0.5000016055311605" gradientTransform="matrix(37.332,0,0,330.572,162.736,49.972)" gradientUnits="userSpaceOnUse"><stop offset="0%" stop-opacity="1" style="stop-color:rgb(255,255,255)"/><stop offset="100%" stop-opacity="1" style="stop-color:rgb(190,183,232)"/></linearGradient><path d=" M 181.402 49.992 C 181.402 49.992 179.231 49.775 178.796 50.787 L 178.796 50.787 C 178.363 51.8 162.736 96.656 162.736 98.827 L 162.736 98.827 L 162.736 380.544 L 181.402 380.544 L 200.068 380.544 L 200.068 98.827 C 200.068 96.656 184.44 51.8 184.006 50.787 L 184.006 50.787 C 183.703 50.08 182.552 49.974 181.886 49.974 L 181.886 49.974 C 181.598 49.974 181.402 49.992 181.402 49.992 Z " fill="url(#_lgradient_276)"/></g></g></g></g></g></g><g><clipPath id="_clipPath_EvnAmJX3U0alvGWLqkaRGmUfp377LBqM"><path d=" M 162.736 104.331 L 200.068 104.331 L 200.068 102.34 L 162.736 102.34 L 162.736 104.331 Z " fill="rgb(255,255,255)"/></clipPath><g clip-path="url(#_clipPath_EvnAmJX3U0alvGWLqkaRGmUfp377LBqM)"><g><g><g><g><linearGradient id="_lgradient_277" x1="-0.00001642915818500512" y1="0.5002210314802369" x2="0.9999843922997247" y2="0.5002210314802369" gradientTransform="matrix(37.332,0,0,1.991,162.736,102.34)" gradientUnits="userSpaceOnUse"><stop offset="0%" stop-opacity="1" style="stop-color:rgb(88,77,148)"/><stop offset="100%" stop-opacity="1" style="stop-color:rgb(49,43,82)"/></linearGradient><path d=" M 162.736 104.331 L 200.068 104.331 L 200.068 102.34 L 162.736 102.34 L 162.736 104.331 Z " fill="url(#_lgradient_277)"/></g></g></g></g></g></g><g><clipPath id="_clipPath_QerpTKe9ys7jAEppbQJmt1AsiKROd9Bt"><path d=" M 162.735 177.112 L 200.068 177.112 L 200.068 175.12 L 162.735 175.12 L 162.735 177.112 Z " fill="rgb(255,255,255)"/></clipPath><g clip-path="url(#_clipPath_QerpTKe9ys7jAEppbQJmt1AsiKROd9Bt)"><g><g><g><g><linearGradient id="_lgradient_278" x1="-0.000015714285712675746" y1="0.5001874163319542" x2="0.9999842857142873" y2="0.5001874163319542" gradientTransform="matrix(37.333,0,0,1.992,162.735,175.12)" gradientUnits="userSpaceOnUse"><stop offset="0%" stop-opacity="1" style="stop-color:rgb(88,77,148)"/><stop offset="100%" stop-opacity="1" style="stop-color:rgb(49,43,82)"/></linearGradient><path d=" M 162.735 177.112 L 200.068 177.112 L 200.068 175.12 L 162.735 175.12 L 162.735 177.112 Z " fill="url(#_lgradient_278)"/></g></g></g></g></g></g><g><clipPath id="_clipPath_CJWAW3Wc3Pmrz9NZxM7DM7pAZTQo1094"><path d=" M 162.735 249.892 L 200.068 249.892 L 200.068 247.902 L 162.735 247.902 L 162.735 249.892 Z " fill="rgb(255,255,255)"/></clipPath><g clip-path="url(#_clipPath_CJWAW3Wc3Pmrz9NZxM7DM7pAZTQo1094)"><g><g><g><g><linearGradient id="_lgradient_279" x1="-0.000015714285712675746" y1="0.49990287337558925" x2="0.9999842857142873" y2="0.49990287337558925" gradientTransform="matrix(37.333,0,0,1.99,162.735,247.902)" gradientUnits="userSpaceOnUse"><stop offset="0%" stop-opacity="1" style="stop-color:rgb(88,77,148)"/><stop offset="100%" stop-opacity="1" style="stop-color:rgb(49,43,82)"/></linearGradient><path d=" M 162.735 249.892 L 200.068 249.892 L 200.068 247.902 L 162.735 247.902 L 162.735 249.892 Z " fill="url(#_lgradient_279)"/></g></g></g></g></g></g><g><clipPath id="_clipPath_8seJc0ztTQOWlRDoxqXo2FEP3NqBxJeT"><path d=" M 162.736 322.672 L 200.068 322.672 L 200.068 320.682 L 162.736 320.682 L 162.736 322.672 Z " fill="rgb(255,255,255)"/></clipPath><g clip-path="url(#_clipPath_8seJc0ztTQOWlRDoxqXo2FEP3NqBxJeT)"><g><g><g><g><linearGradient id="_lgradient_280" x1="-0.00001642915818500512" y1="0.49954770503555324" x2="0.9999843922997247" y2="0.49954770503555324" gradientTransform="matrix(37.332,0,0,1.99,162.736,320.682)" gradientUnits="userSpaceOnUse"><stop offset="0%" stop-opacity="1" style="stop-color:rgb(88,77,148)"/><stop offset="100%" stop-opacity="1" style="stop-color:rgb(49,43,82)"/></linearGradient><path d=" M 162.736 322.672 L 200.068 322.672 L 200.068 320.682 L 162.736 320.682 L 162.736 322.672 Z " fill="url(#_lgradient_280)"/></g></g></g></g></g></g><g><clipPath id="_clipPath_856kRYDSSzAxVjHgfZ59qFlwO48DmPl9"><path d=" M 50.466 49.992 C 50.466 49.992 48.295 49.775 47.86 50.787 L 47.86 50.787 C 47.427 51.8 31.799 96.656 31.799 98.827 L 31.799 98.827 L 31.799 380.544 L 50.466 380.544 L 69.131 380.544 L 69.131 98.827 C 69.131 96.656 53.504 51.8 53.07 50.787 L 53.07 50.787 C 52.767 50.08 51.616 49.974 50.95 49.974 L 50.95 49.974 C 50.663 49.974 50.466 49.992 50.466 49.992 Z " fill="rgb(255,255,255)"/></clipPath><g clip-path="url(#_clipPath_856kRYDSSzAxVjHgfZ59qFlwO48DmPl9)"><g><g><g><g><linearGradient id="_lgradient_281" x1="0.000013929068894746877" y1="0.5000016055311605" x2="0.9999973213329056" y2="0.5000016055311605" gradientTransform="matrix(37.332,0,0,330.572,31.799,49.972)" gradientUnits="userSpaceOnUse"><stop offset="0%" stop-opacity="1" style="stop-color:rgb(255,255,255)"/><stop offset="100%" stop-opacity="1" style="stop-color:rgb(190,183,232)"/></linearGradient><path d=" M 50.466 49.992 C 50.466 49.992 48.295 49.775 47.86 50.787 L 47.86 50.787 C 47.427 51.8 31.799 96.656 31.799 98.827 L 31.799 98.827 L 31.799 380.544 L 50.466 380.544 L 69.131 380.544 L 69.131 98.827 C 69.131 96.656 53.504 51.8 53.07 50.787 L 53.07 50.787 C 52.767 50.08 51.616 49.974 50.95 49.974 L 50.95 49.974 C 50.663 49.974 50.466 49.992 50.466 49.992 Z " fill="url(#_lgradient_281)"/></g></g></g></g></g></g><g><clipPath id="_clipPath_hkVDWkRENefY6KCOK6bm21NoJa1uLv5A"><path d=" M 31.799 104.331 L 69.131 104.331 L 69.131 102.34 L 31.799 102.34 L 31.799 104.331 Z " fill="rgb(255,255,255)"/></clipPath><g clip-path="url(#_clipPath_hkVDWkRENefY6KCOK6bm21NoJa1uLv5A)"><g><g><g><g><linearGradient id="_lgradient_282" x1="0.000013929068894746877" y1="0.5002210314802369" x2="0.9999973213329056" y2="0.5002210314802369" gradientTransform="matrix(37.332,0,0,1.991,31.799,102.34)" gradientUnits="userSpaceOnUse"><stop offset="0%" stop-opacity="1" style="stop-color:rgb(88,77,148)"/><stop offset="100%" stop-opacity="1" style="stop-color:rgb(49,43,82)"/></linearGradient><path d=" M 31.799 104.331 L 69.131 104.331 L 69.131 102.34 L 31.799 102.34 L 31.799 104.331 Z " fill="url(#_lgradient_282)"/></g></g></g></g></g></g><g><clipPath id="_clipPath_ouBwoaN0cCtp5WNGsVB6ipeS32rcpbK5"><path d=" M 31.799 177.112 L 69.131 177.112 L 69.131 175.12 L 31.799 175.12 L 31.799 177.112 Z " fill="rgb(255,255,255)"/></clipPath><g clip-path="url(#_clipPath_ouBwoaN0cCtp5WNGsVB6ipeS32rcpbK5)"><g><g><g><g><linearGradient id="_lgradient_283" x1="-0.000003571556127290876" y1="0.5001874163319542" x2="0.9999972499017806" y2="0.5001874163319542" gradientTransform="matrix(37.332,0,0,1.992,31.799,175.12)" gradientUnits="userSpaceOnUse"><stop offset="0%" stop-opacity="1" style="stop-color:rgb(88,77,148)"/><stop offset="100%" stop-opacity="1" style="stop-color:rgb(49,43,82)"/></linearGradient><path d=" M 31.799 177.112 L 69.131 177.112 L 69.131 175.12 L 31.799 175.12 L 31.799 177.112 Z " fill="url(#_lgradient_283)"/></g></g></g></g></g></g><g><clipPath id="_clipPath_7uexBf166yGetX6QJXpQKBXoTF4WS3lT"><path d=" M 31.799 249.892 L 69.131 249.892 L 69.131 247.902 L 31.799 247.902 L 31.799 249.892 Z " fill="rgb(255,255,255)"/></clipPath><g clip-path="url(#_clipPath_7uexBf166yGetX6QJXpQKBXoTF4WS3lT)"><g><g><g><g><linearGradient id="_lgradient_284" x1="-0.0000035715561264026974" y1="0.49990287337558925" x2="0.9999972499017833" y2="0.49990287337558925" gradientTransform="matrix(37.332,0,0,1.99,31.799,247.902)" gradientUnits="userSpaceOnUse"><stop offset="0%" stop-opacity="1" style="stop-color:rgb(88,77,148)"/><stop offset="100%" stop-opacity="1" style="stop-color:rgb(49,43,82)"/></linearGradient><path d=" M 31.799 249.892 L 69.131 249.892 L 69.131 247.902 L 31.799 247.902 L 31.799 249.892 Z " fill="url(#_lgradient_284)"/></g></g></g></g></g></g><g><clipPath id="_clipPath_VurwwfMfkm0ENhC9RNQb5G8kHHoyOS1l"><path d=" M 31.799 322.672 L 69.131 322.672 L 69.131 320.682 L 31.799 320.682 L 31.799 322.672 Z " fill="rgb(255,255,255)"/></clipPath><g clip-path="url(#_clipPath_VurwwfMfkm0ENhC9RNQb5G8kHHoyOS1l)"><g><g><g><g><linearGradient id="_lgradient_285" x1="0.000013929068894746877" y1="0.49954770503555324" x2="0.9999973213329056" y2="0.49954770503555324" gradientTransform="matrix(37.332,0,0,1.99,31.799,320.682)" gradientUnits="userSpaceOnUse"><stop offset="0%" stop-opacity="1" style="stop-color:rgb(88,77,148)"/><stop offset="100%" stop-opacity="1" style="stop-color:rgb(49,43,82)"/></linearGradient><path d=" M 31.799 322.672 L 69.131 322.672 L 69.131 320.682 L 31.799 320.682 L 31.799 322.672 Z " fill="url(#_lgradient_285)"/></g></g></g></g></g></g><g><clipPath id="_clipPath_xoit21SkTfVrZ7BN4114zlgQWshFXhvY"><path d=" M 73.336 90.566 L 73.336 375.354 L 115.932 375.354 L 158.53 375.354 L 158.53 90.566 C 158.53 62.935 147.018 18.42 115.932 0 L 115.932 0 C 84.848 18.42 73.336 62.935 73.336 90.566 Z " fill="rgb(255,255,255)"/></clipPath><g clip-path="url(#_clipPath_xoit21SkTfVrZ7BN4114zlgQWshFXhvY)"><g><g><g><g><linearGradient id="_lgradient_286" x1="-0.8136082602929378" y1="0.14884595267073678" x2="-0.5334576626391438" y2="1.8781163974623694" gradientTransform="matrix(85.194,0,0,375.354,73.336,0)" gradientUnits="userSpaceOnUse"><stop offset="0%" stop-opacity="1" style="stop-color:rgb(242,210,0)"/><stop offset="100%" stop-opacity="1" style="stop-color:rgb(242,121,0)"/></linearGradient><path d=" M 73.336 90.566 L 73.336 375.354 L 115.932 375.354 L 158.53 375.354 L 158.53 90.566 C 158.53 62.935 147.018 18.42 115.932 0 L 115.932 0 C 84.848 18.42 73.336 62.935 73.336 90.566 Z " fill="url(#_lgradient_286)"/></g></g></g></g></g></g><g><clipPath id="_clipPath_SAWXP4XyfHyUx9yqdgixzoyngI01Oe4X"><path d=" M 73.336 143.339 L 73.336 375.354 L 115.932 375.354 L 158.53 375.354 L 158.53 90.566 C 158.53 62.935 147.018 18.42 115.932 0 L 115.932 0 C 149.451 43.29 142.09 108.672 73.336 143.339 Z " fill="rgb(255,255,255)"/></clipPath><g clip-path="url(#_clipPath_SAWXP4XyfHyUx9yqdgixzoyngI01Oe4X)"><g><g><g><clipPath id="_clipPath_KuDSk0tMw4DhfYAwHf5mQq5z6QqiZPsG"><path d=" M -43908.065 -43094.365 L 43471.931 -43094.365 L 43471.931 44285.631 L -43908.065 44285.631 L -43908.065 -43094.365 Z " fill="rgb(255,255,255)"/></clipPath><g clip-path="url(#_clipPath_KuDSk0tMw4DhfYAwHf5mQq5z6QqiZPsG)"><g><g><g><g><linearGradient id="_lgradient_287" x1="0.502468690623331" y1="0.494625680170901" x2="0.5040594436560618" y2="0.4956365904936294" gradientTransform="matrix(87379.996,0,0,87379.996,-43908.065,-43094.365)" gradientUnits="userSpaceOnUse"><stop offset="0%" stop-opacity="0.2" style="stop-color:rgb(255,255,255)"/><stop offset="100%" stop-opacity="1" style="stop-color:rgb(255,255,255)"/></linearGradient><path d=" M -43908.065 -43094.365 L 43471.931 -43094.365 L 43471.931 44285.631 L -43908.065 44285.631 L -43908.065 -43094.365 Z " fill="url(#_lgradient_287)"/><linearGradient id="_lgradient_288" x1="0.502468690623331" y1="0.494625680170901" x2="0.5040594436560618" y2="0.4956365904936294" gradientTransform="matrix(87379.996,0,0,87379.996,-43908.065,-43094.365)" gradientUnits="userSpaceOnUse"><stop offset="0%" stop-opacity="0.2" style="stop-color:rgb(255,255,255)"/><stop offset="100%" stop-opacity="1" style="stop-color:rgb(255,255,255)"/></linearGradient><path d=" M -43908.065 -43094.365 L 43471.931 -43094.365 L 43471.931 44285.631 L -43908.065 44285.631 L -43908.065 -43094.365 Z " fill="url(#_lgradient_288)"/><clipPath id="_clipPath_WaX2tPyDhrooOaM1Bq9CHoPv1jjTfx7X"><path d=" M -43908.065 -43094.365 L 43471.931 -43094.365 L 43471.931 44285.631 L -43908.065 44285.631 L -43908.065 -43094.365 Z " fill="url(#_lgradient_288)"/></clipPath><g clip-path="url(#_clipPath_WaX2tPyDhrooOaM1Bq9CHoPv1jjTfx7X)"><g><g><g><linearGradient id="_lgradient_289" x1="-0.8884371808358602" y1="0.3357492431611462" x2="-0.33398880830882605" y2="1.888161145832516" gradientTransform="matrix(85.194,0,0,375.354,73.336,0)" gradientUnits="userSpaceOnUse"><stop offset="0%" stop-opacity="1" style="stop-color:rgb(242,121,0)"/><stop offset="100%" stop-opacity="1" style="stop-color:rgb(242,121,0)"/></linearGradient><path d=" M 73.336 143.339 L 73.336 375.354 L 115.932 375.354 L 158.53 375.354 L 158.53 90.566 C 158.53 62.935 147.018 18.42 115.932 0 L 115.932 0 C 149.451 43.29 142.09 108.672 73.336 143.339 Z " fill="url(#_lgradient_289)"/></g></g></g></g></g></g></g></g></g></g></g></g></g></g><g><clipPath id="_clipPath_d0SVtFG9YyQPhpfAvWQ5P4BoIX5vbfCY"><path d=" M 87.37 158.092 C 87.37 158.092 83.694 160.135 81.446 176.683 L 81.446 176.683 C 79.198 193.231 78.178 250.23 64.49 272.091 L 64.49 272.091 C 50.802 293.951 15.867 322.347 9.942 332.971 L 9.942 332.971 C 4.016 343.595 0.952 371.787 1.158 373.012 L 1.158 373.012 C 1.362 374.238 47.476 386.7 50.802 386.7 L 50.802 386.7 L 89.551 386.7 L 89.551 158.092 L 87.37 158.092 Z " fill="rgb(255,255,255)"/></clipPath><g clip-path="url(#_clipPath_d0SVtFG9YyQPhpfAvWQ5P4BoIX5vbfCY)"><g><g><g><g><linearGradient id="_lgradient_290" x1="0.39910687206548223" y1="0.4702584336506159" x2="1.0923884417613428" y2="0.8340168252178307" gradientTransform="matrix(88.403,0,0,228.608,1.148,158.092)" gradientUnits="userSpaceOnUse"><stop offset="0%" stop-opacity="1" style="stop-color:rgb(255,255,255)"/><stop offset="100%" stop-opacity="1" style="stop-color:rgb(190,183,232)"/></linearGradient><path d=" M 87.37 158.092 C 87.37 158.092 83.694 160.135 81.446 176.683 L 81.446 176.683 C 79.198 193.231 78.178 250.23 64.49 272.091 L 64.49 272.091 C 50.802 293.951 15.867 322.347 9.942 332.971 L 9.942 332.971 C 4.016 343.595 0.952 371.787 1.158 373.012 L 1.158 373.012 C 1.362 374.238 47.476 386.7 50.802 386.7 L 50.802 386.7 L 89.551 386.7 L 89.551 158.092 L 87.37 158.092 Z " fill="url(#_lgradient_290)"/></g></g></g></g></g></g><g><clipPath id="_clipPath_Fmwh2H9CpeeUMNcPMGdNmAlROQCyohvx"><path d=" M 60.57 277.78 C 45.348 297.543 14.359 323.248 8.882 332.971 L 8.882 332.971 C 2.899 343.595 -0.197 371.787 0.01 373.012 L 0.01 373.012 C 0.056 373.294 3.683 374.171 7.507 375.354 L 7.507 375.354 C 8.252 367.564 11.03 347.063 15.624 338.355 L 15.624 338.355 C 21.206 327.78 53.98 299.599 67.059 277.78 L 67.059 277.78 L 60.57 277.78 Z " fill="rgb(255,255,255)"/></clipPath><g clip-path="url(#_clipPath_Fmwh2H9CpeeUMNcPMGdNmAlROQCyohvx)"><g><g><g><g><linearGradient id="_lgradient_291" x1="0.4229880780715578" y1="0.09145137214811161" x2="0.49512639714256523" y2="0.8771760667067654" gradientTransform="matrix(67.059,0,0,97.574,0,277.78)" gradientUnits="userSpaceOnUse"><stop offset="0%" stop-opacity="1" style="stop-color:rgb(88,77,148)"/><stop offset="100%" stop-opacity="1" style="stop-color:rgb(49,43,82)"/></linearGradient><path d=" M 60.57 277.78 C 45.348 297.543 14.359 323.248 8.882 332.971 L 8.882 332.971 C 2.899 343.595 -0.197 371.787 0.01 373.012 L 0.01 373.012 C 0.056 373.294 3.683 374.171 7.507 375.354 L 7.507 375.354 C 8.252 367.564 11.03 347.063 15.624 338.355 L 15.624 338.355 C 21.206 327.78 53.98 299.599 67.059 277.78 L 67.059 277.78 L 60.57 277.78 Z " fill="url(#_lgradient_291)"/></g></g></g></g></g></g><g><clipPath id="_clipPath_euOp6XGQXMl6qQfRR3rUCOmJRYM6ccTS"><path d=" M 142.316 158.092 L 142.316 386.7 L 181.064 386.7 C 184.39 386.7 230.504 374.238 230.708 373.012 L 230.708 373.012 C 230.914 371.787 227.85 343.595 221.926 332.971 L 221.926 332.971 C 216 322.347 181.064 293.951 167.376 272.091 L 167.376 272.091 C 153.69 250.23 152.667 193.231 150.419 176.683 L 150.419 176.683 C 148.172 160.135 144.495 158.092 144.495 158.092 L 144.495 158.092 L 142.316 158.092 Z " fill="rgb(255,255,255)"/></clipPath><g clip-path="url(#_clipPath_euOp6XGQXMl6qQfRR3rUCOmJRYM6ccTS)"><g><g><g><g><linearGradient id="_lgradient_292" x1="1.2427195555508117" y1="0.6173158128032847" x2="0.1666971539391533" y2="-0.0688078326227356" gradientTransform="matrix(88.402,0,0,228.608,142.316,158.092)" gradientUnits="userSpaceOnUse"><stop offset="0%" stop-opacity="1" style="stop-color:rgb(255,255,255)"/><stop offset="100%" stop-opacity="1" style="stop-color:rgb(190,183,232)"/></linearGradient><path d=" M 142.316 158.092 L 142.316 386.7 L 181.064 386.7 C 184.39 386.7 230.504 374.238 230.708 373.012 L 230.708 373.012 C 230.914 371.787 227.85 343.595 221.926 332.971 L 221.926 332.971 C 216 322.347 181.064 293.951 167.376 272.091 L 167.376 272.091 C 153.69 250.23 152.667 193.231 150.419 176.683 L 150.419 176.683 C 148.172 160.135 144.495 158.092 144.495 158.092 L 144.495 158.092 L 142.316 158.092 Z " fill="url(#_lgradient_292)"/></g></g></g></g></g></g><g><clipPath id="_clipPath_AtDOCipZBRWTxbTgTnlGzmcy31aw3CVG"><path d=" M 164.807 277.78 C 177.884 299.599 210.66 327.78 216.242 338.355 L 216.242 338.355 C 220.835 347.063 223.612 367.564 224.36 375.354 L 224.36 375.354 C 228.182 374.171 231.808 373.294 231.858 373.012 L 231.858 373.012 C 232.063 371.787 228.968 343.595 222.984 332.971 L 222.984 332.971 C 217.508 323.248 186.516 297.543 171.296 277.78 L 171.296 277.78 L 164.807 277.78 Z " fill="rgb(255,255,255)"/></clipPath><g clip-path="url(#_clipPath_AtDOCipZBRWTxbTgTnlGzmcy31aw3CVG)"><g><g><g><g><linearGradient id="_lgradient_293" x1="0.14889030516970347" y1="0.017763004649675285" x2="0.6786995086861622" y2="1.1945636614413706" gradientTransform="matrix(67.061,0,0,97.574,164.807,277.78)" gradientUnits="userSpaceOnUse"><stop offset="0%" stop-opacity="1" style="stop-color:rgb(88,77,148)"/><stop offset="100%" stop-opacity="1" style="stop-color:rgb(49,43,82)"/></linearGradient><path d=" M 164.807 277.78 C 177.884 299.599 210.66 327.78 216.242 338.355 L 216.242 338.355 C 220.835 347.063 223.612 367.564 224.36 375.354 L 224.36 375.354 C 228.182 374.171 231.808 373.294 231.858 373.012 L 231.858 373.012 C 232.063 371.787 228.968 343.595 222.984 332.971 L 222.984 332.971 C 217.508 323.248 186.516 297.543 171.296 277.78 L 171.296 277.78 L 164.807 277.78 Z " fill="url(#_lgradient_293)"/></g></g></g></g></g></g><g><clipPath id="_clipPath_HnLILHp80I2hzuGt9uInHcix3IqR8TEx"><path d=" M 128.498 104.331 L 125.115 107.715 L 106.751 107.715 L 103.368 104.331 L 97.178 104.331 C 92.078 119.628 87.195 139.608 87.195 166.535 L 87.195 166.535 L 87.195 377.372 C 87.195 381.731 91.826 383.636 95.367 383.636 L 95.367 383.636 L 115.932 383.636 L 136.5 383.636 C 140.04 383.636 144.671 381.731 144.671 377.372 L 144.671 377.372 L 144.671 166.535 C 144.671 139.608 139.788 119.628 134.687 104.331 L 134.687 104.331 L 128.498 104.331 Z " fill="rgb(255,255,255)"/></clipPath><g clip-path="url(#_clipPath_HnLILHp80I2hzuGt9uInHcix3IqR8TEx)"><g><g><g><g><linearGradient id="_lgradient_294" x1="-0.7625742918783489" y1="0.4272617780302561" x2="1.3461399017650528" y2="3.3632112869151953" gradientTransform="matrix(57.476,0,0,279.305,87.195,104.331)" gradientUnits="userSpaceOnUse"><stop offset="0%" stop-opacity="1" style="stop-color:rgb(255,255,255)"/><stop offset="100%" stop-opacity="1" style="stop-color:rgb(190,183,232)"/></linearGradient><path d=" M 128.498 104.331 L 125.115 107.715 L 106.751 107.715 L 103.368 104.331 L 97.178 104.331 C 92.078 119.628 87.195 139.608 87.195 166.535 L 87.195 166.535 L 87.195 377.372 C 87.195 381.731 91.826 383.636 95.367 383.636 L 95.367 383.636 L 115.932 383.636 L 136.5 383.636 C 140.04 383.636 144.671 381.731 144.671 377.372 L 144.671 377.372 L 144.671 166.535 C 144.671 139.608 139.788 119.628 134.687 104.331 L 134.687 104.331 L 128.498 104.331 Z " fill="url(#_lgradient_294)"/></g></g></g></g></g></g><g><clipPath id="_clipPath_Q82xlbRYNRym7cXnJKbLultRxXxvz0Tq"><path d=" M 107.284 79.948 C 104.798 83.934 101.232 92.462 97.819 102.42 L 97.819 102.42 C 97.606 103.044 97.39 103.691 97.178 104.331 L 97.178 104.331 L 103.368 104.331 L 106.751 107.715 L 125.115 107.715 L 128.498 104.331 L 134.687 104.331 C 134.475 103.691 134.26 103.044 134.047 102.42 L 134.047 102.42 C 130.632 92.462 127.067 83.934 124.582 79.948 L 124.582 79.948 C 122.839 77.154 119.815 75.558 115.932 75.558 L 115.932 75.558 C 112.051 75.558 109.028 77.154 107.284 79.948 Z " fill="rgb(255,255,255)"/></clipPath><g clip-path="url(#_clipPath_Q82xlbRYNRym7cXnJKbLultRxXxvz0Tq)"><g><g><g><g><linearGradient id="_lgradient_295" x1="0.000002843736668367569" y1="0.500017414379303" x2="1.0000143608701801" y2="0.500017414379303" gradientTransform="matrix(37.509,0,0,32.157,97.178,75.558)" gradientUnits="userSpaceOnUse"><stop offset="0%" stop-opacity="1" style="stop-color:rgb(88,77,148)"/><stop offset="100%" stop-opacity="1" style="stop-color:rgb(49,43,82)"/></linearGradient><path d=" M 107.284 79.948 C 104.798 83.934 101.232 92.462 97.819 102.42 L 97.819 102.42 C 97.606 103.044 97.39 103.691 97.178 104.331 L 97.178 104.331 L 103.368 104.331 L 106.751 107.715 L 125.115 107.715 L 128.498 104.331 L 134.687 104.331 C 134.475 103.691 134.26 103.044 134.047 102.42 L 134.047 102.42 C 130.632 92.462 127.067 83.934 124.582 79.948 L 124.582 79.948 C 122.839 77.154 119.815 75.558 115.932 75.558 L 115.932 75.558 C 112.051 75.558 109.028 77.154 107.284 79.948 Z " fill="url(#_lgradient_295)"/></g></g></g></g></g></g><g><clipPath id="_clipPath_SI0oerqLVUrXxYux90QkrtJFdROKXueI"><path d=" M 101.566 127.276 C 99.25 129.288 97.546 131.123 97.546 132.691 L 97.546 132.691 L 97.546 137.63 C 97.546 138.55 98.806 138.751 99.692 138.106 L 99.692 138.106 C 100.576 137.458 103.131 135.791 103.506 135.312 L 103.506 135.312 C 103.88 134.836 103.947 133.95 103.947 133.2 L 103.947 133.2 C 103.947 131.431 104.271 131.211 104.698 130.786 L 104.698 130.786 C 105.123 130.359 107.328 128.976 107.624 128.808 L 107.624 128.808 C 108.22 128.468 108.544 128.776 108.544 129.39 L 108.544 129.39 L 108.544 131.295 C 108.544 131.706 108.815 132.587 109.77 132.587 L 109.77 132.587 L 115.932 132.587 L 122.096 132.587 C 123.05 132.587 123.322 131.706 123.322 131.295 L 123.322 131.295 L 123.322 129.39 C 123.322 128.776 123.646 128.468 124.243 128.808 L 124.243 128.808 C 124.536 128.976 126.743 130.359 127.17 130.786 L 127.17 130.786 C 127.595 131.211 127.919 131.431 127.919 133.2 L 127.919 133.2 C 127.919 133.95 127.987 134.836 128.362 135.312 L 128.362 135.312 C 128.734 135.791 131.288 137.458 132.175 138.106 L 132.175 138.106 C 133.06 138.751 134.32 138.55 134.32 137.63 L 134.32 137.63 L 134.32 132.691 C 134.32 131.123 132.618 129.288 130.303 127.276 L 130.303 127.276 C 127.986 125.268 119.986 119.684 115.932 119.684 L 115.932 119.684 C 111.882 119.684 103.88 125.268 101.566 127.276 Z " fill="rgb(255,255,255)"/></clipPath><g clip-path="url(#_clipPath_SI0oerqLVUrXxYux90QkrtJFdROKXueI)"><g><g><g><g><linearGradient id="_lgradient_296" x1="0.13839105878515134" y1="0.1356306018180966" x2="0.8953045020952892" y2="0.49165774641586074" gradientTransform="matrix(36.774,0,0,18.798,97.546,119.684)" gradientUnits="userSpaceOnUse"><stop offset="0%" stop-opacity="1" style="stop-color:rgb(88,77,148)"/><stop offset="100%" stop-opacity="1" style="stop-color:rgb(49,43,82)"/></linearGradient><path d=" M 101.566 127.276 C 99.25 129.288 97.546 131.123 97.546 132.691 L 97.546 132.691 L 97.546 137.63 C 97.546 138.55 98.806 138.751 99.692 138.106 L 99.692 138.106 C 100.576 137.458 103.131 135.791 103.506 135.312 L 103.506 135.312 C 103.88 134.836 103.947 133.95 103.947 133.2 L 103.947 133.2 C 103.947 131.431 104.271 131.211 104.698 130.786 L 104.698 130.786 C 105.123 130.359 107.328 128.976 107.624 128.808 L 107.624 128.808 C 108.22 128.468 108.544 128.776 108.544 129.39 L 108.544 129.39 L 108.544 131.295 C 108.544 131.706 108.815 132.587 109.77 132.587 L 109.77 132.587 L 115.932 132.587 L 122.096 132.587 C 123.05 132.587 123.322 131.706 123.322 131.295 L 123.322 131.295 L 123.322 129.39 C 123.322 128.776 123.646 128.468 124.243 128.808 L 124.243 128.808 C 124.536 128.976 126.743 130.359 127.17 130.786 L 127.17 130.786 C 127.595 131.211 127.919 131.431 127.919 133.2 L 127.919 133.2 C 127.919 133.95 127.987 134.836 128.362 135.312 L 128.362 135.312 C 128.734 135.791 131.288 137.458 132.175 138.106 L 132.175 138.106 C 133.06 138.751 134.32 138.55 134.32 137.63 L 134.32 137.63 L 134.32 132.691 C 134.32 131.123 132.618 129.288 130.303 127.276 L 130.303 127.276 C 127.986 125.268 119.986 119.684 115.932 119.684 L 115.932 119.684 C 111.882 119.684 103.88 125.268 101.566 127.276 Z " fill="url(#_lgradient_296)"/></g></g></g></g></g></g><g><clipPath id="_clipPath_gdJTLsPZgr4FwaTPJl3qb1T0zUW6RkOU"><path d=" M 110.304 145.151 C 109.464 145.151 108.783 145.834 108.783 146.675 L 108.783 146.675 L 108.783 149.484 C 108.783 150.326 109.464 151.007 110.304 151.007 L 110.304 151.007 L 113.116 151.007 C 113.958 151.007 114.638 150.326 114.638 149.484 L 114.638 149.484 L 114.638 146.675 C 114.638 145.834 113.958 145.151 113.116 145.151 L 113.116 145.151 L 110.304 145.151 Z " fill="rgb(255,255,255)"/></clipPath><g clip-path="url(#_clipPath_gdJTLsPZgr4FwaTPJl3qb1T0zUW6RkOU)"><g><g><g><g><linearGradient id="_lgradient_297" x1="0.5" y1="-0.23354280510018555" x2="0.4999999317056515" y2="1.1845592733249346" gradientTransform="matrix(5.855,0,0,5.856,108.783,145.151)" gradientUnits="userSpaceOnUse"><stop offset="0%" stop-opacity="1" style="stop-color:rgb(88,77,148)"/><stop offset="100%" stop-opacity="1" style="stop-color:rgb(49,43,82)"/></linearGradient><path d=" M 110.304 145.151 C 109.464 145.151 108.783 145.834 108.783 146.675 L 108.783 146.675 L 108.783 149.484 C 108.783 150.326 109.464 151.007 110.304 151.007 L 110.304 151.007 L 113.116 151.007 C 113.958 151.007 114.638 150.326 114.638 149.484 L 114.638 149.484 L 114.638 146.675 C 114.638 145.834 113.958 145.151 113.116 145.151 L 113.116 145.151 L 110.304 145.151 Z " fill="url(#_lgradient_297)"/></g></g></g></g></g></g><g><clipPath id="_clipPath_2pPLS2vXgUvEI2LKdV9I0sgyaLdNeAuY"><path d=" M 118.75 145.151 C 117.908 145.151 117.227 145.834 117.227 146.675 L 117.227 146.675 L 117.227 149.484 C 117.227 150.326 117.908 151.007 118.75 151.007 L 118.75 151.007 L 121.562 151.007 C 122.4 151.007 123.083 150.326 123.083 149.484 L 123.083 149.484 L 123.083 146.675 C 123.083 145.834 122.4 145.151 121.562 145.151 L 121.562 145.151 L 118.75 145.151 Z " fill="rgb(255,255,255)"/></clipPath><g clip-path="url(#_clipPath_2pPLS2vXgUvEI2LKdV9I0sgyaLdNeAuY)"><g><g><g><g><linearGradient id="_lgradient_298" x1="0.5002208561020112" y1="-0.23354280510019976" x2="0.5002207877959961" y2="1.1845592377972995" gradientTransform="matrix(5.856,0,0,5.856,117.227,145.151)" gradientUnits="userSpaceOnUse"><stop offset="0%" stop-opacity="1" style="stop-color:rgb(88,77,148)"/><stop offset="100%" stop-opacity="1" style="stop-color:rgb(49,43,82)"/></linearGradient><path d=" M 118.75 145.151 C 117.908 145.151 117.227 145.834 117.227 146.675 L 117.227 146.675 L 117.227 149.484 C 117.227 150.326 117.908 151.007 118.75 151.007 L 118.75 151.007 L 121.562 151.007 C 122.4 151.007 123.083 150.326 123.083 149.484 L 123.083 149.484 L 123.083 146.675 C 123.083 145.834 122.4 145.151 121.562 145.151 L 121.562 145.151 L 118.75 145.151 Z " fill="url(#_lgradient_298)"/></g></g></g></g></g></g><g><clipPath id="_clipPath_ogJabSrKNWt2xIrEI7DKryXA4tBkFNpV"><path d=" M 134.202 368.011 C 131.028 368.011 127.907 370.552 127.266 373.66 L 127.266 373.66 L 121.58 401.16 C 120.938 404.268 123.008 406.811 126.18 406.811 L 126.18 406.811 L 153.831 406.811 C 157.003 406.811 159.072 404.268 158.432 401.16 L 158.432 401.16 L 152.747 373.66 C 152.104 370.552 148.983 368.011 145.81 368.011 L 145.81 368.011 L 134.202 368.011 Z " fill="rgb(255,255,255)"/></clipPath><g clip-path="url(#_clipPath_ogJabSrKNWt2xIrEI7DKryXA4tBkFNpV)"><g><g><g><g><linearGradient id="_lgradient_299" x1="0.49885298914729503" y1="1.1518800687285218" x2="0.5024063891618575" y2="0.25232355745272994" gradientTransform="matrix(37.085,0,0,38.8,121.463,368.011)" gradientUnits="userSpaceOnUse"><stop offset="0%" stop-opacity="1" style="stop-color:rgb(88,77,148)"/><stop offset="100%" stop-opacity="1" style="stop-color:rgb(49,43,82)"/></linearGradient><path d=" M 134.202 368.011 C 131.028 368.011 127.907 370.552 127.266 373.66 L 127.266 373.66 L 121.58 401.16 C 120.938 404.268 123.008 406.811 126.18 406.811 L 126.18 406.811 L 153.831 406.811 C 157.003 406.811 159.072 404.268 158.432 401.16 L 158.432 401.16 L 152.747 373.66 C 152.104 370.552 148.983 368.011 145.81 368.011 L 145.81 368.011 L 134.202 368.011 Z " fill="url(#_lgradient_299)"/></g></g></g></g></g></g><g><clipPath id="_clipPath_xObDFoTj6U44rDRSjzPob4xp6Ym4WiW5"><path d=" M 86.056 368.011 C 82.883 368.011 79.762 370.552 79.12 373.66 L 79.12 373.66 L 73.435 401.16 C 72.792 404.268 74.863 406.811 78.035 406.811 L 78.035 406.811 L 105.684 406.811 C 108.859 406.811 110.928 404.268 110.286 401.16 L 110.286 401.16 L 104.602 373.66 C 103.96 370.552 100.838 368.011 97.664 368.011 L 97.664 368.011 L 86.056 368.011 Z " fill="rgb(255,255,255)"/></clipPath><g clip-path="url(#_clipPath_xObDFoTj6U44rDRSjzPob4xp6Ym4WiW5)"><g><g><g><g><linearGradient id="_lgradient_300" x1="0.4988366755516864" y1="1.1518800687285218" x2="0.5023900755672126" y2="0.2523235572087189" gradientTransform="matrix(37.085,0,0,38.8,73.318,368.011)" gradientUnits="userSpaceOnUse"><stop offset="0%" stop-opacity="1" style="stop-color:rgb(88,77,148)"/><stop offset="100%" stop-opacity="1" style="stop-color:rgb(49,43,82)"/></linearGradient><path d=" M 86.056 368.011 C 82.883 368.011 79.762 370.552 79.12 373.66 L 79.12 373.66 L 73.435 401.16 C 72.792 404.268 74.863 406.811 78.035 406.811 L 78.035 406.811 L 105.684 406.811 C 108.859 406.811 110.928 404.268 110.286 401.16 L 110.286 401.16 L 104.602 373.66 C 103.96 370.552 100.838 368.011 97.664 368.011 L 97.664 368.011 L 86.056 368.011 Z " fill="url(#_lgradient_300)"/></g></g></g></g></g></g><g><clipPath id="_clipPath_ZlQ9ZwPIogCi3GDJgd2HaDshUst47VIW"><path d=" M 87.23 331.88 C 87.23 331.88 76.198 338.146 76.198 355.306 L 76.198 355.306 L 76.198 383.636 L 107.523 383.636 L 107.523 331.88 L 87.23 331.88 Z " fill="rgb(255,255,255)"/></clipPath><g clip-path="url(#_clipPath_ZlQ9ZwPIogCi3GDJgd2HaDshUst47VIW)"><g><g><g><g><linearGradient id="_lgradient_301" x1="-0.01788499191283144" y1="0.4999806785686678" x2="1.0675115774240194" y2="0.4999806785686678" gradientTransform="matrix(31.325,0,0,51.756,76.198,331.88)" gradientUnits="userSpaceOnUse"><stop offset="0%" stop-opacity="1" style="stop-color:rgb(252,252,254)"/><stop offset="100%" stop-opacity="1" style="stop-color:rgb(190,183,232)"/></linearGradient><path d=" M 87.23 331.88 C 87.23 331.88 76.198 338.146 76.198 355.306 L 76.198 355.306 L 76.198 383.636 L 107.523 383.636 L 107.523 331.88 L 87.23 331.88 Z " fill="url(#_lgradient_301)"/></g></g></g></g></g></g><g><clipPath id="_clipPath_5pTluXrtEpROr19w7PF3sveQBqZUzRXH"><path d=" M 124.343 331.88 L 124.343 383.636 L 155.67 383.636 L 155.67 355.306 C 155.67 338.146 144.636 331.88 144.636 331.88 L 144.636 331.88 L 124.343 331.88 Z " fill="rgb(255,255,255)"/></clipPath><g clip-path="url(#_clipPath_5pTluXrtEpROr19w7PF3sveQBqZUzRXH)"><g><g><g><g><linearGradient id="_lgradient_302" x1="1.2632177058948724" y1="0.5000059252389404" x2="0.014697978293266578" y2="0.5000057424121678" gradientTransform="matrix(31.327,0,0,51.756,124.343,331.88)" gradientUnits="userSpaceOnUse"><stop offset="0%" stop-opacity="1" style="stop-color:rgb(255,255,255)"/><stop offset="100%" stop-opacity="1" style="stop-color:rgb(190,183,232)"/></linearGradient><path d=" M 124.343 331.88 L 124.343 383.636 L 155.67 383.636 L 155.67 355.306 C 155.67 338.146 144.636 331.88 144.636 331.88 L 144.636 331.88 L 124.343 331.88 Z " fill="url(#_lgradient_302)"/></g></g></g></g></g></g></g></g></g></g></svg>