<?xml version="1.0" encoding="UTF-8" standalone="no"?><!-- Generator: Gravit.io --><svg xmlns="http://www.w3.org/2000/svg" xmlns:xlink="http://www.w3.org/1999/xlink" style="isolation:isolate" viewBox="101.134 111.761 464.398 836.239" width="464.398pt" height="836.239pt"><defs><clipPath id="_clipPath_f6dMCr74tL5T9EPHtsU92Pwy5cy9ld71"><rect x="101.134" y="111.761" width="464.398" height="836.239"/></clipPath></defs><g clip-path="url(#_clipPath_f6dMCr74tL5T9EPHtsU92Pwy5cy9ld71)"><rect x="101.134" y="111.761" width="464.398" height="836.239" style="fill:rgb(22,30,57)" fill-opacity="0"/><g><path d=" M 443.091 192.921 C 442.547 185.927 442.106 185.485 435.111 184.94 C 442.106 184.396 442.547 183.953 443.091 176.96 C 443.637 183.953 444.078 184.396 451.071 184.94 C 444.078 185.485 443.637 185.927 443.091 192.921 Z " fill="rgb(255,255,255)"/></g><g><path d=" M 203.028 256.196 C 202.483 249.201 202.041 248.76 195.047 248.216 C 202.041 247.671 202.483 247.229 203.028 240.235 C 203.572 247.229 204.015 247.671 211.008 248.216 C 204.015 248.76 203.572 249.201 203.028 256.196 Z " fill="rgb(255,255,255)"/></g><g><path d=" M 424.346 271.46 C 424.222 269.872 424.122 269.772 422.536 269.648 C 424.122 269.524 424.222 269.424 424.346 267.836 C 424.47 269.424 424.57 269.524 426.158 269.648 C 424.57 269.772 424.47 269.872 424.346 271.46 Z " fill="rgb(255,255,255)"/></g><g><path d=" M 120.874 256.97 C 120.75 255.382 120.65 255.282 119.062 255.158 C 120.65 255.034 120.75 254.934 120.874 253.346 C 120.998 254.934 121.098 255.034 122.686 255.158 C 121.098 255.282 120.998 255.382 120.874 256.97 Z " fill="rgb(255,255,255)"/></g><g><path d=" M 190.574 193.163 L 138.974 138.135 L 129.801 147.467 L 181.401 199.856 L 190.574 193.163 Z " fill="rgb(0,255,255)"/></g><g><path d=" M 101.135 134.121 C 101.135 146.47 111.145 156.481 123.495 156.481 C 135.844 156.481 145.855 146.47 145.855 134.121 C 145.855 121.772 135.844 111.761 123.495 111.761 C 111.145 111.761 101.135 121.772 101.135 134.121 Z " fill="rgb(185,38,150)"/></g><g><path d=" M 122.921 125.521 C 122.921 129.321 126.001 132.401 129.801 132.401 C 133.601 132.401 136.681 129.321 136.681 125.521 C 136.681 121.721 133.601 118.641 129.801 118.641 C 126.001 118.641 122.921 121.721 122.921 125.521 Z " fill="rgb(255,255,255)"/></g><g><path d=" M 476.092 193.163 L 527.692 138.135 L 536.866 147.467 L 485.266 199.856 L 476.092 193.163 Z " fill="rgb(122,223,255)"/></g><g><g><clipPath id="_clipPath_ngIn8QCujRsP17E5TuL4ciwghRW8s4oE"><path d=" M 476.092 138.135 L 536.865 138.135 L 536.865 199.855 L 476.092 199.855 L 476.092 138.135 Z " fill="rgb(255,255,255)"/></clipPath><g clip-path="url(#_clipPath_ngIn8QCujRsP17E5TuL4ciwghRW8s4oE)"><g style="opacity:0.33999604;"><g style="opacity:0.33999604;"><g opacity="0.33999604"><path d=" M 476.092 193.163 L 527.692 138.135 L 536.866 147.467 L 485.266 199.856 L 476.092 193.163 Z " fill="rgb(0,16,199)"/></g></g></g></g></g></g><g><path d=" M 565.533 134.121 C 565.533 146.47 555.521 156.481 543.171 156.481 C 530.823 156.481 520.813 146.47 520.813 134.121 C 520.813 121.772 530.823 111.761 543.171 111.761 C 555.521 111.761 565.533 121.772 565.533 134.121 Z " fill="rgb(185,38,150)"/></g><g><path d=" M 543.746 125.521 C 543.746 129.321 540.665 132.401 536.866 132.401 C 533.066 132.401 529.986 129.321 529.986 125.521 C 529.986 121.721 533.066 118.641 536.866 118.641 C 540.665 118.641 543.746 121.721 543.746 125.521 Z " fill="rgb(255,255,255)"/></g><g><path d=" M 143.417 236.596 C 143.417 236.596 183.943 133.193 333.263 133.193 C 482.584 133.193 515.652 242.172 515.652 242.172 L 333.263 266.517 L 143.417 236.596 Z " fill="rgb(0,255,255)"/></g><g><g><clipPath id="_clipPath_3Kk5bzXnNFo9skXi36oDj6jripuF8jz9"><path d=" M 387.708 138.659 L 515.652 138.659 L 515.652 247.907 L 387.708 247.907 L 387.708 138.659 Z " fill="rgb(255,255,255)"/></clipPath><g clip-path="url(#_clipPath_3Kk5bzXnNFo9skXi36oDj6jripuF8jz9)"><g style="opacity:0.33999604;"><g style="opacity:0.33999604;"><g opacity="0.33999604"><path d=" M 387.707 138.658 C 406.514 154.194 419.552 176.898 421.866 201.24 C 423.138 214.62 421.075 229.118 412.239 239.245 C 432.24 243.056 452.418 245.945 472.683 247.908 L 515.652 242.172 C 515.652 242.172 490.914 160.717 387.707 138.658" fill="rgb(0,16,199)"/></g></g></g></g></g></g><g><path d=" M 396.719 215.972 C 396.719 251.221 368.144 279.796 332.895 279.796 C 297.645 279.796 269.071 251.221 269.071 215.972 C 269.071 180.723 297.645 152.148 332.895 152.148 C 368.144 152.148 396.719 180.723 396.719 215.972 Z " fill="rgb(0,207,96)"/></g><g><path d=" M 328.922 186.516 C 328.922 196.192 321.078 204.038 311.401 204.038 C 301.725 204.038 293.879 196.192 293.879 186.516 C 293.879 176.839 301.725 168.995 311.401 168.995 C 321.078 168.995 328.922 176.839 328.922 186.516 Z " fill="rgb(255,255,255)"/></g><g><path d=" M 325.654 186.516 C 325.654 190.452 322.463 193.643 318.527 193.643 C 314.591 193.643 311.4 190.452 311.4 186.516 C 311.4 182.58 314.591 179.39 318.527 179.39 C 322.463 179.39 325.654 182.58 325.654 186.516 Z " fill="rgb(28,16,63)"/></g><g><path d=" M 371.911 186.516 C 371.911 196.192 364.066 204.038 354.389 204.038 C 344.714 204.038 336.869 196.192 336.869 186.516 C 336.869 176.839 344.714 168.995 354.389 168.995 C 364.066 168.995 371.911 176.839 371.911 186.516 Z " fill="rgb(255,255,255)"/></g><g><g><clipPath id="_clipPath_8aWbhUTkJ8sG8ikZLXPAQUPzEnteUdzP"><path d=" M 320.929 154.828 L 396.719 154.828 L 396.719 230.9 L 320.929 230.9 L 320.929 154.828 Z " fill="rgb(255,255,255)"/></clipPath><g clip-path="url(#_clipPath_8aWbhUTkJ8sG8ikZLXPAQUPzEnteUdzP)"><g style="opacity:0.72000098;"><g style="opacity:0.72000098;"><g opacity="0.72000098"><path d=" M 351.208 154.828 C 354.814 160.027 357.23 166.061 357.954 172.345 C 359.774 188.144 351.506 204.405 338.224 213.152 C 332.343 217.025 325.44 219.688 320.93 225.096 C 344.318 228.132 367.851 230.051 391.423 230.845 C 392.591 230.884 393.772 230.916 394.948 230.891 C 396.095 226.103 396.719 221.111 396.719 215.972 C 396.719 187.089 377.53 162.7 351.208 154.828 Z " fill="rgb(40,141,102)"/></g></g></g></g></g></g><g><path d=" M 354.389 186.516 C 354.389 190.452 351.199 193.643 347.263 193.643 C 343.327 193.643 340.137 190.452 340.137 186.516 C 340.137 182.58 343.327 179.39 347.263 179.39 C 351.199 179.39 354.389 182.58 354.389 186.516 Z " fill="rgb(28,16,63)"/></g><g><path d=" M 277.839 196.925 C 282.682 196.925 286.607 193 286.607 188.157 C 286.607 184.184 283.947 180.868 280.325 179.79 C 277.087 184.485 274.469 189.637 272.571 195.126 C 274.042 196.24 275.853 196.925 277.839 196.925 Z " fill="rgb(0,84,86)"/></g><g><path d=" M 317.28 160.667 C 317.28 162.979 319.155 164.854 321.467 164.854 C 323.78 164.854 325.653 162.979 325.653 160.667 C 325.653 158.355 323.78 156.481 321.467 156.481 C 319.155 156.481 317.28 158.355 317.28 160.667 Z " fill="rgb(0,84,86)"/></g><g><path d=" M 386.563 208.367 C 390.628 208.367 393.924 205.071 393.924 201.005 C 393.924 196.939 390.628 193.643 386.563 193.643 C 382.496 193.643 379.2 196.939 379.2 201.005 C 379.2 205.071 382.496 208.367 386.563 208.367 Z " fill="rgb(0,84,86)"/></g><g><path d=" M 295.402 206.549 C 295.402 203.487 292.92 201.004 289.858 201.004 C 286.796 201.004 284.314 203.487 284.314 206.549 C 284.314 209.611 286.796 212.093 289.858 212.093 C 292.92 212.093 295.402 209.611 295.402 206.549 Z " fill="rgb(0,84,86)"/></g><g><path d=" M 340.786 217.156 C 340.786 211.298 336.037 206.549 330.18 206.549 C 324.322 206.549 319.573 211.298 319.573 217.156 C 319.573 223.014 324.322 227.762 330.18 227.762 C 336.037 227.762 340.786 223.014 340.786 217.156 Z " fill="rgb(0,84,86)"/></g><g><path d=" M 366.236 204.037 C 364.688 204.037 363.433 205.292 363.433 206.84 C 363.433 208.388 364.688 209.642 366.236 209.642 C 367.784 209.642 369.038 208.388 369.038 206.84 C 369.038 205.292 367.784 204.037 366.236 204.037 Z " fill="rgb(0,84,86)"/></g><g><path d=" M 353.113 160.11 C 353.113 164.507 356.679 168.073 361.076 168.073 C 364.456 168.073 367.327 165.958 368.481 162.985 C 364.128 160.055 359.391 157.654 354.364 155.859 C 353.583 157.091 353.113 158.543 353.113 160.11 Z " fill="rgb(0,84,86)"/></g><g><path d=" M 124.402 279.929 L 109.734 249.078 C 109.734 249.078 138.07 215.972 341.482 215.972 C 544.892 215.972 562.093 254.542 562.093 254.542 L 543.982 279.929 L 124.402 279.929 Z " fill="rgb(0,133,208)"/></g><g><path d=" M 173.842 264.79 L 177.228 264.188 L 177.122 263.593 L 176.924 263.628 L 170.563 227.897 C 169.48 228.1 168.428 228.304 167.383 228.508 L 173.842 264.79 Z " fill="rgb(0,76,146)"/></g><g><path d=" M 177.122 263.593 L 178.617 263.328 L 172.256 227.59 C 171.693 227.692 171.117 227.794 170.564 227.897 L 176.925 263.628 L 177.122 263.593 Z " fill="rgb(255,255,255)"/></g><g><path d=" M 252.499 255.203 L 255.935 255.003 L 255.899 254.4 L 255.698 254.412 L 253.599 218.435 C 252.517 218.501 251.433 218.568 250.366 218.637 L 252.499 255.203 Z " fill="rgb(0,76,146)"/></g><g><path d=" M 255.899 254.4 L 257.414 254.31 L 255.316 218.33 C 254.742 218.365 254.168 218.4 253.599 218.434 L 255.698 254.412 L 255.899 254.4 Z " fill="rgb(255,255,255)"/></g><g><path d=" M 417.69 254.654 L 421.811 218.373 C 420.741 218.302 419.663 218.233 418.577 218.165 L 414.474 254.289 L 417.69 254.654 Z " fill="rgb(0,76,146)"/></g><g><path d=" M 414.474 254.289 L 418.577 218.165 C 417.999 218.129 417.441 218.09 416.858 218.054 L 412.697 254.694 L 414.406 254.889 L 414.474 254.289 Z " fill="rgb(255,255,255)"/></g><g><path d=" M 498.921 227.825 C 497.873 227.613 496.817 227.404 495.733 227.196 L 491.627 263.356 L 494.842 263.721 L 498.921 227.825 Z " fill="rgb(0,76,146)"/></g><g><path d=" M 494.038 226.876 L 489.848 263.761 L 491.559 263.956 L 491.627 263.356 L 495.732 227.196 C 495.176 227.088 494.604 226.982 494.038 226.876 Z " fill="rgb(255,255,255)"/></g><g><path d=" M 331.07 251.897 L 334.508 251.801 L 334.491 251.197 L 334.291 251.203 L 333.303 215.993 C 332.215 215.997 331.14 216.005 330.064 216.011 L 331.07 251.897 Z " fill="rgb(0,76,146)"/></g><g><path d=" M 334.492 251.197 L 336.01 251.154 L 335.025 215.989 C 334.453 215.99 333.872 215.99 333.302 215.993 L 334.292 251.202 L 334.492 251.197 Z " fill="rgb(255,255,255)"/></g><g><path d=" M 544.892 276.725 C 544.892 295.809 450.559 311.278 334.193 311.278 C 217.828 311.278 123.495 295.809 123.495 276.725 C 123.495 257.641 217.828 242.171 334.193 242.171 C 450.559 242.171 544.892 257.641 544.892 276.725 Z " fill="rgb(0,76,146)"/></g><g><path d=" M 334.193 300.958 C 282.724 300.958 233.351 297.868 195.168 292.26 C 164.884 287.811 149.185 282.943 141.2 279.478 C 138.793 278.432 138.793 275.016 141.2 273.972 C 149.184 270.507 164.884 265.638 195.167 261.188 C 233.351 255.58 282.724 252.491 334.193 252.491 C 385.664 252.491 435.036 255.58 473.22 261.188 C 503.504 265.638 519.203 270.506 527.187 273.971 C 529.593 275.016 529.593 278.432 527.187 279.478 C 519.201 282.942 503.504 287.811 473.219 292.26 C 435.036 297.868 385.661 300.958 334.193 300.958 Z " fill="rgb(0,104,190)"/></g><g><path d=" M 145.318 138.946 C 143.506 138.374 141.489 138.225 139.622 138.447 C 135.402 138.95 131.432 140.801 127.213 141.303 C 118.49 142.342 109.413 136.791 106.362 128.554 C 105.492 126.205 105.153 123.702 105.258 121.213 C 102.67 124.861 101.134 129.307 101.134 134.121 C 101.134 146.47 111.145 156.481 123.494 156.481 C 134.185 156.481 143.11 148.973 145.318 138.946 Z " fill="rgb(128,38,117)"/></g><g><path d=" M 565.533 134.121 C 565.533 130.402 564.611 126.905 563.006 123.821 C 559.674 125.944 557.771 129.966 555.331 133.217 C 551.31 138.574 545.122 142.256 538.495 143.232 C 532.701 144.086 526.63 142.862 521.591 139.886 C 524.137 149.436 532.821 156.481 543.171 156.481 C 555.521 156.481 565.533 146.47 565.533 134.121 Z " fill="rgb(128,38,117)"/></g><g><path d=" M 424.493 280.872 C 424.493 288.8 384.449 295.226 335.053 295.226 C 285.657 295.226 245.613 288.8 245.613 280.872 C 245.613 272.944 285.657 266.517 335.053 266.517 C 384.449 266.517 424.493 272.944 424.493 280.872 Z " fill="rgb(121,224,255)"/></g><g><path d=" M 384.404 284.992 C 384.404 289.557 361.342 293.258 332.896 293.258 C 304.448 293.258 281.386 289.557 281.386 284.992 C 281.386 280.426 304.448 276.725 332.896 276.725 C 361.342 276.725 384.404 280.426 384.404 284.992 Z " fill="rgb(255,255,255)"/></g><g><path d=" M 281.387 284.992 C 281.387 284.992 289.441 327.62 333.205 327.62 C 376.971 327.62 384.404 284.992 384.404 284.992 L 281.387 284.992 Z " fill="rgb(255,255,255)"/></g><g><path d=" M 148.876 247.951 C 148.876 251.713 145.825 254.764 142.062 254.764 C 138.298 254.764 135.248 251.713 135.248 247.951 C 135.248 244.187 138.298 241.136 142.062 241.136 C 145.825 241.136 148.876 244.187 148.876 247.951 Z " fill="rgb(0,76,146)"/></g><g><path d=" M 146.131 247.107 C 146.131 249.821 143.932 252.019 141.219 252.019 C 138.505 252.019 136.307 249.821 136.307 247.107 C 136.307 244.394 138.505 242.195 141.219 242.195 C 143.932 242.195 146.131 244.394 146.131 247.107 Z " fill="rgb(122,223,255)"/></g><g><path d=" M 140.008 245.444 C 140.008 246.363 139.263 247.108 138.344 247.108 C 137.426 247.108 136.68 246.363 136.68 245.444 C 136.68 244.525 137.426 243.78 138.344 243.78 C 139.263 243.78 140.008 244.525 140.008 245.444 Z " fill="rgb(255,255,255)"/></g><g><path d=" M 215.955 234.576 C 215.955 238.34 212.904 241.391 209.142 241.391 C 205.378 241.391 202.327 238.34 202.327 234.576 C 202.327 230.813 205.378 227.763 209.142 227.763 C 212.904 227.763 215.955 230.813 215.955 234.576 Z " fill="rgb(0,76,146)"/></g><g><path d=" M 213.21 233.734 C 213.21 236.447 211.012 238.646 208.298 238.646 C 205.586 238.646 203.386 236.447 203.386 233.734 C 203.386 231.02 205.586 228.822 208.298 228.822 C 211.012 228.822 213.21 231.02 213.21 233.734 Z " fill="rgb(122,223,255)"/></g><g><path d=" M 207.088 232.07 C 207.088 232.988 206.343 233.734 205.424 233.734 C 204.505 233.734 203.76 232.988 203.76 232.07 C 203.76 231.151 204.505 230.406 205.424 230.406 C 206.343 230.406 207.088 231.151 207.088 232.07 Z " fill="rgb(255,255,255)"/></g><g><path d=" M 517.82 247.951 C 517.82 251.713 520.871 254.764 524.634 254.764 C 528.398 254.764 531.448 251.713 531.448 247.951 C 531.448 244.187 528.398 241.136 524.634 241.136 C 520.871 241.136 517.82 244.187 517.82 247.951 Z " fill="rgb(0,76,146)"/></g><g><path d=" M 520.565 247.107 C 520.565 249.821 522.764 252.019 525.477 252.019 C 528.189 252.019 530.388 249.821 530.388 247.107 C 530.388 244.394 528.189 242.195 525.477 242.195 C 522.764 242.195 520.565 244.394 520.565 247.107 Z " fill="rgb(122,223,255)"/></g><g><path d=" M 526.687 245.444 C 526.687 246.363 527.433 247.108 528.35 247.108 C 529.27 247.108 530.014 246.363 530.014 245.444 C 530.014 244.525 529.27 243.78 528.35 243.78 C 527.433 243.78 526.687 244.525 526.687 245.444 Z " fill="rgb(255,255,255)"/></g><g><path d=" M 450.741 234.576 C 450.741 238.34 453.79 241.391 457.554 241.391 C 461.318 241.391 464.369 238.34 464.369 234.576 C 464.369 230.813 461.318 227.763 457.554 227.763 C 453.79 227.763 450.741 230.813 450.741 234.576 Z " fill="rgb(0,76,146)"/></g><g><path d=" M 453.484 233.734 C 453.484 236.447 455.683 238.646 458.398 238.646 C 461.11 238.646 463.308 236.447 463.308 233.734 C 463.308 231.02 461.11 228.822 458.398 228.822 C 455.683 228.822 453.484 231.02 453.484 233.734 Z " fill="rgb(122,223,255)"/></g><g><path d=" M 459.607 232.07 C 459.607 232.988 460.352 233.734 461.271 233.734 C 462.189 233.734 462.935 232.988 462.935 232.07 C 462.935 231.151 462.189 230.406 461.271 230.406 C 460.352 230.406 459.607 231.151 459.607 232.07 Z " fill="rgb(255,255,255)"/></g><g><path d=" M 296.672 228.822 C 296.672 232.584 293.621 235.635 289.859 235.635 C 286.095 235.635 283.044 232.584 283.044 228.822 C 283.044 225.059 286.095 222.008 289.859 222.008 C 293.621 222.008 296.672 225.059 296.672 228.822 Z " fill="rgb(0,76,146)"/></g><g><path d=" M 293.927 227.979 C 293.927 230.693 291.728 232.891 289.015 232.891 C 286.303 232.891 284.103 230.693 284.103 227.979 C 284.103 225.266 286.303 223.067 289.015 223.067 C 291.728 223.067 293.927 225.266 293.927 227.979 Z " fill="rgb(122,223,255)"/></g><g><path d=" M 287.805 226.315 C 287.805 227.234 287.059 227.979 286.141 227.979 C 285.222 227.979 284.477 227.234 284.477 226.315 C 284.477 225.396 285.222 224.651 286.141 224.651 C 287.059 224.651 287.805 225.396 287.805 226.315 Z " fill="rgb(255,255,255)"/></g><g><path d=" M 386.014 228.822 C 386.014 232.584 382.964 235.635 379.2 235.635 C 375.436 235.635 372.385 232.584 372.385 228.822 C 372.385 225.059 375.436 222.008 379.2 222.008 C 382.964 222.008 386.014 225.059 386.014 228.822 Z " fill="rgb(0,76,146)"/></g><g><path d=" M 383.269 227.979 C 383.269 230.693 381.071 232.891 378.356 232.891 C 375.644 232.891 373.445 230.693 373.445 227.979 C 373.445 225.266 375.644 223.067 378.356 223.067 C 381.071 223.067 383.269 225.266 383.269 227.979 Z " fill="rgb(122,223,255)"/></g><g><path d=" M 377.147 226.315 C 377.147 227.234 376.402 227.979 375.483 227.979 C 374.565 227.979 373.819 227.234 373.819 226.315 C 373.819 225.396 374.565 224.651 375.483 224.651 C 376.402 224.651 377.147 225.396 377.147 226.315 Z " fill="rgb(255,255,255)"/></g><g><path d=" M 185.687 198.816 C 201.359 182.777 220.858 170.502 242.098 163.308 C 245.183 162.262 249.318 161.661 251.053 164.417 C 252.321 166.43 251.442 169.064 250.437 171.22 C 240.706 192.072 220.795 207.873 198.277 212.612 C 192.794 213.765 185.545 213.377 183.557 208.138 C 181.897 203.764 185.234 199.189 188.495 195.836" fill="rgb(255,255,255)"/></g><g><linearGradient id="_lgradient_135" x1="0.5" y1="1.005060578605463" x2="0.49999999999999983" y2="-0.022334679524566026" gradientTransform="matrix(178.673,0,0,-662.806,243.997,947.797)" gradientUnits="userSpaceOnUse"><stop offset="0%" stop-opacity="1" style="stop-color:rgb(255,255,255)"/><stop offset="0.8695652173913043%" stop-opacity="0.59" style="stop-color:rgb(255,255,255)"/><stop offset="97.82608695652173%" stop-opacity="0" style="stop-color:rgb(255,255,255)"/></linearGradient><path d=" M 289.061 284.992 L 243.997 947.797 L 422.67 947.797 L 377.604 284.992 L 289.061 284.992 Z " fill="url(#_lgradient_135)"/><linearGradient id="_lgradient_136" x1="0.49759627772793746" y1="1.0324393091603215" x2="0.5" y2="6.661338147750939e-16" gradientTransform="matrix(124.752,0,0,-631.436,270.957,948)" gradientUnits="userSpaceOnUse"><stop offset="1.3043478260869565%" stop-opacity="0.43" style="stop-color:rgb(255,255,255)"/><stop offset="13.478260869565217%" stop-opacity="1" style="stop-color:rgb(255,255,255)"/><stop offset="100%" stop-opacity="0" style="stop-color:rgb(255,255,255)"/></linearGradient><path d=" M 294.963 316.564 L 270.957 948 L 395.709 948 L 371.706 316.564 L 294.963 316.564 Z " fill="url(#_lgradient_136)"/><linearGradient id="_lgradient_137" x1="0.48065034217089814" y1="1.1127835652560143" x2="0.5003424718199839" y2="-0.019695284340814023" gradientTransform="matrix(67.799,0,0,-629.75,299.434,948)" gradientUnits="userSpaceOnUse"><stop offset="0.43478260869565216%" stop-opacity="0.46" style="stop-color:rgb(255,255,255)"/><stop offset="15.839891700726385%" stop-opacity="1" style="stop-color:rgb(255,255,255)"/><stop offset="98.26086956521739%" stop-opacity="0" style="stop-color:rgb(255,255,255)"/></linearGradient><path d=" M 309.035 318.25 L 299.434 948 L 367.233 948 L 357.631 318.25 L 309.035 318.25 Z " fill="url(#_lgradient_137)"/></g></g></svg>