<?xml version="1.0" encoding="UTF-8" standalone="no"?><!-- Generator: Gravit.io --><svg xmlns="http://www.w3.org/2000/svg" xmlns:xlink="http://www.w3.org/1999/xlink" style="isolation:isolate" viewBox="242.799 73.411 181.068 610.589" width="181.068pt" height="610.589pt"><defs><clipPath id="_clipPath_Lv0JC1wU6kQqC2HA8SerrtpBOk5u1WIi"><rect x="242.799" y="73.411" width="181.068" height="610.589"/></clipPath></defs><g clip-path="url(#_clipPath_Lv0JC1wU6kQqC2HA8SerrtpBOk5u1WIi)"><rect x="295.308" y="378.098" width="76.048" height="305.902" transform="matrix(1,0,0,1,0,0)" fill="rgb(255,234,201)"/><path d=" M 423.866 331.793 L 423.866 399.796 C 423.866 399.796 398.337 385.844 387 363.867 C 384.461 358.944 382.636 353.621 381.966 347.96 L 381.966 283.573 C 381.966 283.573 388.106 287.309 395.684 293.2 C 407.905 302.693 423.866 317.772 423.866 331.793 Z " fill="rgb(247,147,30)"/><path d=" M 381.967 283.575 L 423.867 283.575 L 423.867 399.797 L 381.967 399.797 L 381.967 283.575 Z " fill="none"/><g opacity="0.5"><path d=" M 381.966 283.575 L 381.966 288.046 C 393.81 296.347 417.132 314.845 417.132 331.793 L 417.132 395.574 C 421.166 398.322 423.866 399.798 423.866 399.798 L 423.866 331.793 C 423.866 309.077 381.966 283.575 381.966 283.575 Z " fill="rgb(204,123,25)"/></g><path d=" M 381.967 283.573 L 395.684 283.573 L 395.684 363.867 L 381.967 363.867 L 381.967 283.573 Z " fill="none"/><g opacity="0.5"><path d=" M 395.684 293.201 L 395.684 347.257 C 395.684 347.257 390.452 355.411 387 363.866 C 384.461 358.943 382.634 353.621 381.966 347.959 L 381.966 283.574 C 381.966 283.574 388.106 287.31 395.684 293.201 Z " fill="rgb(204,123,25)"/></g><path d=" M 296.161 384.631 L 370.504 384.631 L 370.504 489.365 L 296.161 489.365 L 296.161 384.631 Z " fill="none"/><path d=" M 389.698 344.083 C 389.698 344.083 379.722 356.079 377.063 363.138 C 376.819 363.791 376.574 364.45 376.335 365.118 C 373.99 371.587 372.075 378.096 372.075 378.096 L 294.59 378.096 C 294.59 378.096 292.675 371.587 290.33 365.118 C 290.091 364.45 289.847 363.791 289.602 363.138 C 286.943 356.079 276.967 344.083 276.967 344.083 L 281.557 340.272 L 385.109 340.272 L 389.698 344.083 Z " fill="rgb(230,230,230)"/><path d=" M 377.527 419.822 L 374.435 411.961 L 371.356 404.119 C 371.436 404.474 372.874 410.843 372.124 420.057 C 371.352 429.539 368.264 442.023 359.002 454.045 L 357.59 445.954 L 356.194 437.859 C 356.194 437.859 353.979 443.435 350.038 451.417 C 346.092 459.407 333.332 479.723 333.332 479.723 C 333.332 479.723 320.574 459.407 316.632 451.417 C 312.687 443.435 310.478 437.859 310.478 437.859 L 309.076 445.954 L 307.67 454.045 C 298.406 442.023 295.314 429.539 294.546 420.057 C 293.792 410.843 295.228 404.469 295.308 404.119 L 292.231 411.961 L 289.143 419.822 C 284.748 405.162 286.29 394.513 289.448 387.155 C 289.922 386.043 290.435 385.005 290.964 384.042 C 292.027 382.133 293.168 380.506 294.291 379.149 C 295.827 377.269 297.314 375.902 298.431 374.989 L 368.239 374.989 C 369.96 376.401 372.568 378.899 374.903 382.686 C 375.178 383.119 375.442 383.574 375.702 384.042 C 376.863 386.133 377.916 388.562 378.719 391.361 C 380.735 398.393 381.139 407.746 377.527 419.822 Z " fill="rgb(252,238,33)"/><path d=" M 304.051 376.935 L 362.615 376.935 L 362.615 450.063 L 304.051 450.063 L 304.051 376.935 Z " fill="none"/><g opacity="0.30000299"><path d=" M 360.919 408.237 L 358.99 402.749 L 357.066 397.261 C 357.066 397.261 358.029 401.783 357.547 408.4 C 357.066 415.021 355.137 423.739 349.355 432.132 L 348.477 426.483 L 347.602 420.832 C 347.602 420.832 346.222 424.724 343.759 430.299 C 341.298 435.876 333.334 450.063 333.334 450.063 C 333.334 450.063 325.369 435.876 322.907 430.299 C 320.446 424.724 319.065 420.832 319.065 420.832 L 318.191 426.483 L 317.311 432.132 C 311.53 423.739 309.601 415.021 309.119 408.4 C 308.639 401.783 309.601 397.261 309.601 397.261 L 307.677 402.749 L 305.747 408.237 C 303.007 398 303.969 390.564 305.939 385.429 C 306.234 384.652 306.554 383.928 306.886 383.256 C 308.463 380.075 310.346 378.031 311.545 376.935 L 355.122 376.935 C 356.322 378.031 358.205 380.075 359.782 383.256 C 360.506 384.715 361.162 386.411 361.665 388.363 C 362.921 393.275 363.174 399.805 360.919 408.237 Z " fill="rgb(247,147,30)"/></g><path d=" M 318.171 376.733 L 348.495 376.733 L 348.495 424.077 L 318.171 424.077 L 318.171 376.733 Z " fill="none"/><g opacity="0.30000299"><path d=" M 347.617 396.999 L 346.619 393.446 L 345.623 389.894 C 345.623 389.894 346.12 392.82 345.871 397.104 C 345.623 401.391 344.624 407.035 341.629 412.47 L 341.175 408.811 L 340.721 405.154 C 340.721 405.154 340.007 407.674 338.732 411.282 C 337.457 414.894 333.333 424.078 333.333 424.078 C 333.333 424.078 329.209 414.894 327.935 411.282 C 326.66 407.674 325.945 405.154 325.945 405.154 L 325.492 408.811 L 325.037 412.47 C 322.043 407.035 321.044 401.391 320.795 397.104 C 320.547 392.82 321.044 389.894 321.044 389.894 L 320.048 393.446 L 319.049 396.999 C 317.629 390.371 318.128 385.556 319.148 382.232 C 319.301 381.73 319.467 381.26 319.639 380.826 C 320.455 378.766 321.429 377.443 322.051 376.732 L 344.615 376.732 C 345.236 377.443 346.212 378.766 347.028 380.826 C 347.403 381.77 347.743 382.867 348.003 384.132 C 348.653 387.311 348.785 391.54 347.617 396.999 Z " fill="rgb(247,147,30)"/></g><path d=" M 294.291 374.989 L 374.904 374.989 L 374.904 399.797 L 294.291 399.797 L 294.291 374.989 Z " fill="none"/><g opacity="0.5"><path d=" M 374.903 382.686 C 372.569 378.9 369.961 376.4 368.239 374.99 L 298.431 374.99 C 297.314 375.902 295.827 377.268 294.291 379.15 C 300.622 379.694 318.134 381.111 338.226 381.988 C 340.457 385.958 345.878 394.436 354.049 399.798 L 344.187 382.23 C 354.347 382.606 364.934 382.815 374.903 382.686 Z " fill="rgb(210,126,26)"/></g><path d=" M 376.335 365.115 C 373.991 371.59 372.075 378.098 372.075 378.098 L 294.591 378.098 C 294.591 378.098 292.675 371.59 290.331 365.115 L 376.335 365.115 Z " fill="rgb(247,147,30)"/><path d=" M 356.12 340.272 L 389.697 340.272 L 389.697 378.097 L 356.12 378.097 L 356.12 340.272 Z " fill="none"/><g opacity="0.5"><path d=" M 389.698 344.083 C 389.698 344.083 379.722 356.079 377.063 363.138 C 376.819 363.791 376.574 364.45 376.335 365.118 C 373.99 371.587 372.075 378.096 372.075 378.096 L 356.133 378.096 C 355.769 362.798 362.762 344.762 362.762 344.762 L 362.762 340.272 L 385.109 340.272 L 389.698 344.083 Z " fill="rgb(153,153,153)"/></g><path d=" M 389.698 188.136 L 389.698 344.761 L 276.967 344.761 L 276.967 188.136 C 276.967 155.848 291.602 126.673 305.963 105.823 C 306.193 105.488 306.417 105.164 306.646 104.835 C 307.889 103.055 309.126 101.333 310.353 99.683 C 322.509 83.272 333.333 73.411 333.333 73.411 C 333.333 73.411 344.157 83.272 356.313 99.683 C 357.539 101.333 358.777 103.055 360.019 104.835 C 360.897 106.092 361.775 107.379 362.647 108.701 C 376.355 129.316 389.698 157.305 389.698 188.136 Z " fill="rgb(255,255,255)"/><path d=" M 305.963 99.683 L 362.648 99.683 L 362.648 108.992 L 305.963 108.992 L 305.963 99.683 Z " fill="none"/><g opacity="0.5"><path d=" M 362.648 108.702 C 340.596 109.944 313.98 106.851 305.964 105.823 C 306.193 105.49 306.417 105.166 306.646 104.836 C 307.889 103.055 309.126 101.334 310.353 99.683 L 356.313 99.683 C 357.54 101.334 358.777 103.055 360.018 104.836 C 360.897 106.092 361.774 107.38 362.648 108.702 Z " fill="rgb(153,153,153)"/></g><path d=" M 360.019 104.836 L 306.647 104.836 C 320.219 85.357 333.332 73.411 333.332 73.411 C 333.332 73.411 346.447 85.357 360.019 104.836 Z " fill="rgb(247,147,30)"/><path d=" M 333.333 73.411 L 389.697 73.411 L 389.697 344.761 L 333.333 344.761 L 333.333 73.411 Z " fill="none"/><g opacity="0.5"><path d=" M 389.698 188.136 L 389.698 344.761 L 362.762 344.761 L 362.762 183.732 C 362.429 130.189 333.333 73.411 333.333 73.411 C 333.333 73.411 344.157 83.272 356.313 99.683 C 357.539 101.333 358.777 103.055 360.019 104.835 C 360.897 106.092 361.775 107.379 362.647 108.701 C 376.355 129.316 389.698 157.305 389.698 188.136 Z " fill="rgb(153,153,153)"/></g><path d=" M 242.799 331.792 L 242.799 399.797 C 242.799 399.797 281.041 378.893 284.699 347.957 L 284.699 283.575 C 284.699 283.575 242.799 309.077 242.799 331.792 Z " fill="rgb(247,147,30)"/><path d=" M 242.799 283.575 L 284.699 283.575 L 284.699 399.797 L 242.799 399.797 L 242.799 283.575 Z " fill="none"/><g opacity="0.5"><path d=" M 276.469 289.107 L 276.469 347.957 C 273.898 369.695 254.255 386.477 242.799 394.537 L 242.799 399.797 C 242.799 399.797 281.041 378.895 284.699 347.957 L 284.699 283.575 C 284.699 283.575 281.313 285.637 276.469 289.107 Z " fill="rgb(204,123,25)"/></g><path d=" M 370.411 211.248 C 370.411 235.858 353.811 255.808 333.333 255.808 C 312.855 255.808 296.255 235.858 296.255 211.248 C 296.255 186.639 312.855 166.688 333.333 166.688 C 353.811 166.688 370.411 186.639 370.411 211.248 Z " fill="rgb(247,147,30)"/><path d=" M 300.825 171.128 L 365.84 171.128 L 365.84 251.365 L 300.825 251.365 L 300.825 171.128 Z " fill="none"/><g opacity="0.69999701"><path d=" M 365.84 211.247 C 365.84 233.404 351.285 251.365 333.333 251.365 C 325.825 251.365 318.912 248.228 313.411 242.945 C 311.051 240.691 308.951 238.037 307.18 235.069 C 306.412 233.793 305.704 232.456 305.065 231.069 C 303.853 228.445 302.876 225.632 302.167 222.68 C 301.295 219.059 300.825 215.217 300.825 211.247 C 300.825 189.089 315.381 171.128 333.333 171.128 C 338.496 171.128 343.373 172.609 347.708 175.257 C 350.143 176.739 352.407 178.585 354.448 180.744 C 355.584 181.941 356.647 183.233 357.635 184.611 C 359.615 187.349 361.285 190.427 362.593 193.759 C 364.677 199.045 365.84 204.977 365.84 211.247 Z " fill="rgb(255,255,255)"/></g><path d=" M 331.897 341.12 L 350.292 341.12 L 350.292 378.097 L 331.897 378.097 L 331.897 341.12 Z " fill="none"/><g opacity="0.5"><path d=" M 350.292 348.53 L 350.292 378.098 L 336.804 378.098 C 331.281 363.765 331.919 347.683 331.919 347.683 L 335.839 341.119 L 350.292 348.53 Z " fill="rgb(153,153,153)"/></g><path d=" M 354.049 331.792 L 354.049 399.797 C 354.049 399.797 333.562 378.893 331.602 347.957 L 331.602 283.575 C 331.602 283.575 354.049 309.077 354.049 331.792 Z " fill="rgb(247,147,30)"/><path d=" M 331.603 283.575 L 354.048 283.575 L 354.048 399.797 L 331.603 399.797 L 331.603 283.575 Z " fill="none"/><g opacity="0.5"><path d=" M 331.602 283.575 L 331.602 287.189 C 338.57 297.091 348.062 313.347 348.062 328.435 L 348.062 392.399 C 351.473 397.169 354.049 399.798 354.049 399.798 L 354.049 331.793 C 354.049 309.077 331.602 283.575 331.602 283.575 Z " fill="rgb(204,123,25)"/></g><path d=" M 354.447 180.744 L 325.746 209.446 C 324.065 211.127 321.317 211.127 319.635 209.446 C 317.954 207.764 317.954 205.011 319.635 203.33 L 347.709 175.258 C 350.142 176.739 352.407 178.584 354.447 180.744 Z " fill="rgb(255,255,255)"/><path d=" M 362.593 193.758 L 313.41 242.946 C 311.051 240.692 308.951 238.037 307.181 235.069 L 357.634 184.61 C 359.615 187.349 361.286 190.426 362.593 193.758 Z " fill="rgb(255,255,255)"/><path d=" M 317.74 216.733 C 317.74 217.756 317.351 218.784 316.577 219.556 L 305.065 231.069 C 303.853 228.445 302.876 225.632 302.167 222.679 L 310.936 213.911 C 312.488 212.359 315.027 212.359 316.577 213.911 C 317.351 214.683 317.74 215.711 317.74 216.733 Z " fill="rgb(255,255,255)"/><path d=" M 338.328 226.727 L 338.328 226.727 C 337.1 225.499 337.1 223.488 338.328 222.259 L 356.198 204.388 C 357.426 203.16 359.437 203.16 360.666 204.388 C 361.894 205.618 361.894 207.628 360.666 208.856 L 342.796 226.727 C 341.566 227.955 339.556 227.955 338.328 226.727 Z " fill="rgb(255,255,255)"/></g></svg>