<?xml version="1.0" encoding="UTF-8" standalone="no"?>
<!DOCTYPE svg PUBLIC "-//W3C//DTD SVG 1.1//EN" "http://www.w3.org/Graphics/SVG/1.1/DTD/svg11.dtd">
<svg width="100%" height="100%" viewBox="0 0 4167 2924" version="1.1" xmlns="http://www.w3.org/2000/svg" xmlns:xlink="http://www.w3.org/1999/xlink" xml:space="preserve" xmlns:serif="http://www.serif.com/" style="fill-rule:evenodd;clip-rule:evenodd;stroke-linejoin:round;stroke-miterlimit:2;">
    <g transform="matrix(14.6199,0,0,14.6199,-162.281,-1.46199)">
        <path d="M296.1,100.1C296.1,89.1 287.1,80.1 276.1,80.1L224.1,80.1C213.1,80.1 204.1,71.1 204.1,60.1C204.1,49.1 213.1,40.1 224.1,40.1L232.1,40.1C243.1,40.1 252.1,31.1 252.1,20.1C252.1,9.1 243.1,0.1 232.1,0.1L44.1,0.1C33.1,0.1 24.1,9.1 24.1,20.1C24.1,31.1 33.1,40.1 44.1,40.1L50.1,40.1C61.1,40.1 70.1,49.1 70.1,60.1C70.1,71.1 61.1,80.1 50.1,80.1L45.1,80.1C34.1,80.1 25.1,89.1 25.1,100.1C25.1,111.1 34.1,120.1 45.1,120.1L60.1,120.1C71.1,120.1 80.1,129.1 80.1,140.1C80.1,151.1 71.1,160.1 60.1,160.1L31.1,160.1C20.1,160.1 11.1,169.1 11.1,180.1C11.1,191.1 20.1,200.1 31.1,200.1L230.1,200.1C241.1,200.1 250.1,191.1 250.1,180.1C250.1,169.1 241.1,160.1 230.1,160.1C219.1,160.1 209.1,151.1 209.1,140.1C209.1,129.1 218.1,120.1 229.1,120.1L276.1,120.1C287.1,120.1 296.1,111.2 296.1,100.1Z" style="fill:rgb(238,245,255);fill-rule:nonzero;"/>
    </g>
</svg>
