<?xml version="1.0" encoding="UTF-8" standalone="no"?><!-- Generator: Gravit.io --><svg xmlns="http://www.w3.org/2000/svg" xmlns:xlink="http://www.w3.org/1999/xlink" style="isolation:isolate" viewBox="169.171 139.473 106.953 106.953" width="106.953pt" height="106.953pt"><defs><clipPath id="_clipPath_c7aVQI36oejH5rKTLA56pXraDFDqwgYo"><rect x="169.171" y="139.473" width="106.953" height="106.953"/></clipPath></defs><g clip-path="url(#_clipPath_c7aVQI36oejH5rKTLA56pXraDFDqwgYo)"><path d=" M 276.124 192.949 C 276.124 222.484 252.181 246.427 222.647 246.427 C 193.112 246.427 169.171 222.484 169.171 192.949 C 169.171 163.415 193.112 139.473 222.647 139.473 C 252.181 139.473 276.124 163.415 276.124 192.949 Z " fill="rgb(37,211,102)"/><path d=" M 222.647 221.109 C 217.664 221.109 212.76 219.784 208.468 217.276 C 208.008 217.007 207.488 216.869 206.964 216.869 C 206.7 216.869 206.436 216.904 206.176 216.975 L 196.847 219.535 L 200.096 212.376 C 200.539 211.403 200.425 210.268 199.8 209.401 C 196.324 204.584 194.487 198.895 194.487 192.949 C 194.487 177.421 207.119 164.789 222.647 164.789 C 238.175 164.789 250.807 177.421 250.807 192.949 C 250.807 208.477 238.175 221.109 222.647 221.109 L 222.647 221.109 Z  M 222.647 158.831 C 203.833 158.831 188.528 174.136 188.528 192.949 C 188.528 199.568 190.407 205.924 193.977 211.44 L 188.795 222.857 C 188.316 223.911 188.491 225.144 189.24 226.023 C 189.815 226.696 190.648 227.069 191.508 227.069 C 191.769 227.069 192.035 227.035 192.296 226.963 L 206.576 223.044 C 211.507 225.681 217.036 227.069 222.647 227.069 C 241.46 227.069 256.767 211.763 256.767 192.949 C 256.767 174.136 241.46 158.831 222.647 158.831 Z " fill-rule="evenodd" fill="rgb(255,255,255)"/><path d=" M 235.764 198.059 C 234.336 197.204 232.476 196.249 230.793 196.939 C 229.501 197.467 228.677 199.488 227.84 200.521 C 227.411 201.051 226.899 201.133 226.239 200.868 C 221.392 198.937 217.676 195.701 215.001 191.241 C 214.548 190.549 214.629 190.003 215.176 189.36 C 215.984 188.409 216.999 187.328 217.217 186.045 C 217.436 184.764 216.835 183.264 216.304 182.123 C 215.627 180.664 214.869 178.583 213.409 177.757 C 212.065 176.999 210.296 177.424 209.099 178.399 C 207.033 180.081 206.036 182.716 206.065 185.329 C 206.075 186.072 206.165 186.813 206.339 187.529 C 206.756 189.253 207.552 190.861 208.449 192.392 C 209.124 193.545 209.859 194.665 210.652 195.741 C 213.244 199.264 216.471 202.325 220.205 204.612 C 222.072 205.756 224.081 206.757 226.164 207.445 C 228.497 208.217 230.577 209.02 233.099 208.541 C 235.737 208.04 238.34 206.407 239.388 203.863 C 239.697 203.111 239.853 202.271 239.68 201.476 C 239.32 199.832 237.095 198.855 235.764 198.059" fill-rule="evenodd" fill="rgb(255,255,255)"/></g></svg>