<?xml version="1.0" encoding="UTF-8" standalone="no"?><!-- Generator: Gravit.io --><svg xmlns="http://www.w3.org/2000/svg" xmlns:xlink="http://www.w3.org/1999/xlink" style="isolation:isolate" viewBox="338.911 273.513 106.953 106.952" width="106.953pt" height="106.952pt"><defs><clipPath id="_clipPath_MUprhDrRQqwxbq2hMHOADqHWd1IzppLI"><rect x="338.911" y="273.513" width="106.953" height="106.952"/></clipPath></defs><g clip-path="url(#_clipPath_MUprhDrRQqwxbq2hMHOADqHWd1IzppLI)"><path d=" M 445.864 326.989 C 445.864 356.524 421.921 380.465 392.388 380.465 C 362.853 380.465 338.911 356.524 338.911 326.989 C 338.911 297.455 362.853 273.513 392.388 273.513 C 421.921 273.513 445.864 297.455 445.864 326.989 Z " fill="none"/><linearGradient id="_lgradient_138" x1="0.07363959359222116" y1="0.07362804497967979" x2="1.1541918593779217" y2="1.154180310765381" gradientTransform="matrix(106.953,0,0,-106.952,338.911,380.465)" gradientUnits="userSpaceOnUse"><stop offset="0%" stop-opacity="1" style="stop-color:rgb(245,221,111)"/><stop offset="0.11048%" stop-opacity="1" style="stop-color:rgb(245,221,111)"/><stop offset="20.935699999999997%" stop-opacity="1" style="stop-color:rgb(249,176,55)"/><stop offset="37.646%" stop-opacity="1" style="stop-color:rgb(240,59,119)"/><stop offset="52.3815%" stop-opacity="1" style="stop-color:rgb(209,37,155)"/><stop offset="73.9443%" stop-opacity="1" style="stop-color:rgb(100,66,164)"/><stop offset="100%" stop-opacity="1" style="stop-color:rgb(73,82,173)"/></linearGradient><path d=" M 445.864 326.989 C 445.864 356.524 421.921 380.465 392.388 380.465 C 362.853 380.465 338.911 356.524 338.911 326.989 C 338.911 297.455 362.853 273.513 392.388 273.513 C 421.921 273.513 445.864 297.455 445.864 326.989 Z " fill="url(#_lgradient_138)"/><path d=" M 411.319 304.211 C 409.024 304.211 407.164 306.071 407.164 308.364 C 407.164 310.659 409.024 312.519 411.319 312.519 C 413.612 312.519 415.472 310.659 415.472 308.364 C 415.472 306.071 413.612 304.211 411.319 304.211 Z " fill="rgb(255,255,255)"/><path d=" M 392.848 338.168 C 386.684 338.168 381.669 333.153 381.669 326.989 C 381.669 320.825 386.684 315.811 392.848 315.811 C 399.013 315.811 404.027 320.825 404.027 326.989 C 404.027 333.153 399.013 338.168 392.848 338.168 Z  M 392.848 309.537 C 383.225 309.537 375.397 317.367 375.397 326.989 C 375.397 336.612 383.225 344.441 392.848 344.441 C 402.471 344.441 410.3 336.612 410.3 326.989 C 410.3 317.367 402.471 309.537 392.848 309.537 Z " fill="rgb(255,255,255)"/><path d=" M 378.411 298.224 C 370.349 298.224 363.792 304.781 363.792 312.843 L 363.792 341.136 C 363.792 349.197 370.349 355.755 378.411 355.755 L 406.703 355.755 C 414.764 355.755 421.323 349.197 421.323 341.136 L 421.323 312.843 C 421.323 304.781 414.764 298.224 406.703 298.224 L 378.411 298.224 Z  M 406.703 362.421 L 378.411 362.421 C 366.675 362.421 357.125 352.873 357.125 341.136 L 357.125 312.843 C 357.125 301.105 366.675 291.557 378.411 291.557 L 406.703 291.557 C 418.44 291.557 427.989 301.105 427.989 312.843 L 427.989 341.136 C 427.989 352.873 418.44 362.421 406.703 362.421 Z " fill="rgb(255,255,255)"/></g></svg>