<?xml version="1.0" encoding="UTF-8" standalone="no"?><!-- Generator: Gravit.io --><svg xmlns="http://www.w3.org/2000/svg" xmlns:xlink="http://www.w3.org/1999/xlink" style="isolation:isolate" viewBox="-22.75 171.999 1678 1664" width="1678pt" height="1664pt"><defs><clipPath id="_clipPath_yCJ8aVMgOxLUjG2Fv6nl6CTorG5Z7FEX"><rect x="-22.75" y="171.999" width="1678" height="1664"/></clipPath></defs><g clip-path="url(#_clipPath_yCJ8aVMgOxLUjG2Fv6nl6CTorG5Z7FEX)"><rect x="-22.75" y="171.999" width="1678" height="1664" style="fill:rgb(255,0,0)" fill-opacity="0"/><g><circle vector-effect="non-scaling-stroke" cx="816.2851562499998" cy="1010.9996945410848" r="825" fill="rgb(255,255,255)"/><g><clipPath id="_clipPath_TAvC39rgtefIVhowoBFKK3tFHhrFO6Yf"><rect x="-22.75" y="171.999" width="1678" height="1638" transform="matrix(1,0,0,1,0,0)" fill="rgb(255,255,255)"/></clipPath><g clip-path="url(#_clipPath_TAvC39rgtefIVhowoBFKK3tFHhrFO6Yf)"><g><g><g><g><path d=" M 817.25 168.999 C 354.25 168.999 -21.75 543.999 -21.75 1007.999 C -21.75 1378.999 218.25 1692.999 552.25 1803.999 C 594.25 1811.999 609.25 1785.999 609.25 1763.999 C 609.25 1743.999 608.25 1677.999 608.25 1607.999 C 375.25 1658.999 325.25 1508.999 325.25 1508.999 C 287.25 1411.999 232.25 1385.999 232.25 1385.999 C 156.25 1333.999 238.25 1334.999 238.25 1334.999 C 322.25 1340.999 367.25 1420.999 367.25 1420.999 C 442.25 1548.999 563.25 1511.999 611.25 1490.999 C 619.25 1436.999 640.25 1399.999 664.25 1378.999 C 478.25 1357.999 282.25 1285.999 282.25 963.999 C 282.25 871.999 315.25 797.999 368.25 738.999 C 359.25 717.999 331.25 632.999 376.25 516.999 C 376.25 516.999 446.25 493.999 607.25 602.999 C 674.25 583.999 746.25 574.999 817.25 574.999 C 888.25 574.999 960.25 584.999 1027.25 602.999 C 1187.25 493.999 1257.25 516.999 1257.25 516.999 C 1303.25 632.999 1274.25 717.999 1265.25 738.999 C 1319.25 797.999 1351.25 872.999 1351.25 963.999 C 1351.25 1285.999 1155.25 1356.999 968.25 1377.999 C 998.25 1403.999 1025.25 1454.999 1025.25 1532.999 C 1025.25 1644.999 1024.25 1735.999 1024.25 1762.999 C 1024.25 1784.999 1039.25 1810.999 1082.25 1802.999 C 1415.25 1691.999 1655.25 1377.999 1655.25 1006.999 C 1655.25 543.999 1279.25 167.999 816.25 167.999 L 817.25 168.999 L 817.25 168.999 Z " fill="rgb(0,0,0)"/><path d=" M 296.25 1372.999 C 294.25 1376.999 288.25 1377.999 282.25 1375.999 C 276.25 1372.999 272.25 1367.999 274.25 1362.999 C 276.25 1358.999 282.25 1357.999 288.25 1359.999 C 294.25 1362.999 298.25 1367.999 295.25 1372.999 L 295.25 1372.999 L 296.25 1372.999 L 296.25 1372.999 Z " fill="rgb(50,48,48)"/><path d=" M 329.25 1410.999 C 325.25 1414.999 317.25 1412.999 312.25 1406.999 C 307.25 1400.999 305.25 1392.999 310.25 1389.999 C 314.25 1385.999 322.25 1387.999 327.25 1393.999 C 332.25 1399.999 334.25 1407.999 329.25 1410.999 L 329.25 1410.999 L 329.25 1410.999 Z " fill="rgb(50,48,48)"/><path d=" M 363.25 1458.999 C 358.25 1462.999 349.25 1458.999 344.25 1451.999 C 339.25 1444.999 339.25 1435.999 344.25 1431.999 C 349.25 1427.999 357.25 1431.999 363.25 1438.999 C 368.25 1446.999 368.25 1455.999 363.25 1458.999 L 363.25 1458.999 L 363.25 1458.999 Z " fill="rgb(50,48,48)"/><path d=" M 408.25 1505.999 C 403.25 1510.999 394.25 1509.999 386.25 1502.999 C 379.25 1495.999 377.25 1486.999 381.25 1481.999 C 386.25 1476.999 396.25 1477.999 403.25 1484.999 C 410.25 1491.999 413.25 1500.999 408.25 1505.999 L 408.25 1505.999 L 408.25 1505.999 Z " fill="rgb(50,48,48)"/><path d=" M 470.25 1532.999 C 468.25 1539.999 459.25 1542.999 449.25 1539.999 C 440.25 1536.999 433.25 1528.999 435.25 1522.999 C 437.25 1515.999 446.25 1512.999 456.25 1515.999 C 465.25 1518.999 472.25 1526.999 470.25 1532.999 L 470.25 1532.999 L 470.25 1532.999 Z " fill="rgb(50,48,48)"/><path d=" M 539.25 1537.999 C 539.25 1544.999 531.25 1550.999 521.25 1550.999 C 511.25 1550.999 503.25 1545.999 503.25 1538.999 C 503.25 1531.999 511.25 1525.999 521.25 1525.999 C 531.25 1525.999 539.25 1530.999 539.25 1537.999 L 539.25 1537.999 L 539.25 1537.999 Z " fill="rgb(50,48,48)"/><path d=" M 603.25 1526.999 C 604.25 1533.999 597.25 1540.999 587.25 1542.999 C 577.25 1544.999 568.25 1540.999 567.25 1533.999 C 566.25 1526.999 573.25 1519.999 583.25 1517.999 C 593.25 1515.999 602.25 1519.999 603.25 1526.999 L 603.25 1526.999 L 603.25 1526.999 Z " fill="rgb(50,48,48)"/></g></g></g></g></g></g></g></g></svg>