<?xml version="1.0" encoding="UTF-8" standalone="no"?><!-- Generator: Gravit.io --><svg xmlns="http://www.w3.org/2000/svg" xmlns:xlink="http://www.w3.org/1999/xlink" style="isolation:isolate" viewBox="169.171 273.173 106.953 106.953" width="106.953pt" height="106.953pt"><defs><clipPath id="_clipPath_dLJtf1Y86ixWiM0WyD0pZmmtTu8K2D5f"><rect x="169.171" y="273.173" width="106.953" height="106.953"/></clipPath></defs><g clip-path="url(#_clipPath_dLJtf1Y86ixWiM0WyD0pZmmtTu8K2D5f)"><path d=" M 276.124 326.651 C 276.124 356.185 252.181 380.127 222.647 380.127 C 193.112 380.127 169.171 356.185 169.171 326.651 C 169.171 297.116 193.112 273.173 222.647 273.173 C 252.181 273.173 276.124 297.116 276.124 326.651 Z " fill="rgb(62,91,163)"/><path d=" M 213.845 326.917 L 213.845 359.67 C 213.845 360.141 214.228 360.523 214.699 360.523 L 226.863 360.523 C 227.333 360.523 227.715 360.141 227.715 359.67 L 227.715 326.383 L 236.533 326.383 C 236.976 326.383 237.345 326.043 237.383 325.602 L 238.231 315.573 C 238.273 315.075 237.881 314.647 237.381 314.647 L 227.715 314.647 L 227.715 307.533 C 227.715 305.865 229.067 304.513 230.735 304.513 L 237.531 304.513 C 238.003 304.513 238.384 304.13 238.384 303.659 L 238.384 293.63 C 238.384 293.159 238.003 292.777 237.531 292.777 L 226.048 292.777 C 219.309 292.777 213.845 298.239 213.845 304.978 L 213.845 314.647 L 207.764 314.647 C 207.293 314.647 206.911 315.03 206.911 315.501 L 206.911 325.53 C 206.911 326.002 207.293 326.383 207.764 326.383 L 213.845 326.383 L 213.845 326.917" fill-rule="evenodd" fill="rgb(255,255,255)"/></g></svg>