<?xml version="1.0" encoding="UTF-8" standalone="no"?><!-- Generator: Gravit.io --><svg xmlns="http://www.w3.org/2000/svg" xmlns:xlink="http://www.w3.org/1999/xlink" style="isolation:isolate" viewBox="0 0 1124 761" width="1124pt" height="761pt"><defs><clipPath id="_clipPath_04MY9eDI0PtHt6RtDSQl0Xky08uFvRqF"><rect x="0" y="0" width="1124" height="761"/></clipPath></defs><g clip-path="url(#_clipPath_04MY9eDI0PtHt6RtDSQl0Xky08uFvRqF)"><rect x="0" y="750" width="1124" height="11" transform="matrix(1,0,0,1,0,0)" fill="rgb(255,255,255)"/><g><g><path d=" M 8.404 0 L 1115.596 0 C 1120.218 0 1124 3.782 1124 8.404 L 1124 752.135 C 1124 756.757 1120.218 760.538 1115.596 760.538 L 8.404 760.538 C 3.782 760.538 0 756.757 0 752.135 L 0 8.404 C 0 3.677 3.782 0 8.404 0 Z " fill="none"/><clipPath id="_clipPath_UQsgcfXQkkJD3ucWgGMb7zKF9P27QKV0"><path d=" M 8.404 0 L 1115.596 0 C 1120.218 0 1124 3.782 1124 8.404 L 1124 752.135 C 1124 756.757 1120.218 760.538 1115.596 760.538 L 8.404 760.538 C 3.782 760.538 0 756.757 0 752.135 L 0 8.404 C 0 3.677 3.782 0 8.404 0 Z " fill="rgb(255,255,255)"/></clipPath><g clip-path="url(#_clipPath_UQsgcfXQkkJD3ucWgGMb7zKF9P27QKV0)"/></g><path d=" M 1124 46.746 L 0 46.746 L 0 9 Q 1.143 4.652 3 3 Q 4.857 1.348 10 0 L 1113 0 Q 1118.125 0.25 1121 3 Q 1123.875 5.75 1124 9 L 1124 46.746 Z " fill="rgb(227,227,227)"/><g><circle vector-effect="non-scaling-stroke" cx="26.26168224299066" cy="23.635514018691584" r="5.2523364485981325" fill="rgb(212,212,212)"/><circle vector-effect="non-scaling-stroke" cx="42.01869158878506" cy="23.635514018691584" r="5.252336448598129" fill="rgb(212,212,212)"/><circle vector-effect="non-scaling-stroke" cx="58.82616822429908" cy="23.635514018691584" r="5.252336448598129" fill="rgb(212,212,212)"/><path d=" M 1068.325 29.938 C 1068.325 34.035 1065.069 37.292 1060.972 37.292 L 98.744 37.292 C 94.647 37.292 91.391 34.035 91.391 29.938 L 91.391 17.333 C 91.391 13.236 94.647 9.979 98.744 9.979 L 1060.972 9.979 C 1065.069 9.979 1068.325 13.236 1068.325 17.333 L 1068.325 29.938 Z " fill="rgb(212,212,212)"/><path d=" M 1106.142 19.434 C 1106.142 20.064 1105.722 20.484 1105.092 20.484 L 1090.385 20.484 C 1089.755 20.484 1089.335 20.064 1089.335 19.434 L 1089.335 19.434 C 1089.335 18.803 1089.755 18.383 1090.385 18.383 L 1105.092 18.383 C 1105.722 18.383 1106.142 18.803 1106.142 19.434 L 1106.142 19.434 Z " fill="rgb(212,212,212)"/><path d=" M 1106.142 24.686 C 1106.142 25.316 1105.722 25.736 1105.092 25.736 L 1090.385 25.736 C 1089.755 25.736 1089.335 25.316 1089.335 24.686 L 1089.335 24.686 C 1089.335 24.056 1089.755 23.636 1090.385 23.636 L 1105.092 23.636 C 1105.722 23.636 1106.142 24.056 1106.142 24.686 L 1106.142 24.686 Z " fill="rgb(212,212,212)"/><path d=" M 1106.142 29.938 C 1106.142 30.569 1105.722 30.989 1105.092 30.989 L 1090.385 30.989 C 1089.755 30.989 1089.335 30.569 1089.335 29.938 L 1089.335 29.938 C 1089.335 29.308 1089.755 28.888 1090.385 28.888 L 1105.092 28.888 C 1105.722 28.888 1106.142 29.308 1106.142 29.938 L 1106.142 29.938 Z " fill="rgb(212,212,212)"/></g><path d=" M 0 750 C 0.763 755.936 3.45 759.623 8 761 L 1114 761 C 1120.458 760.125 1123.802 756.468 1124 750 L 0 750 Z " fill="rgb(227,227,227)"/></g></g></svg>