<?xml version="1.0" encoding="UTF-8" standalone="no"?><!-- Generator: Gravit.io --><svg xmlns="http://www.w3.org/2000/svg" xmlns:xlink="http://www.w3.org/1999/xlink" style="isolation:isolate" viewBox="188.6 47.92 261.268 543.38" width="261.268pt" height="543.38pt"><defs><clipPath id="_clipPath_pJ9pDTxuHDnKv5PbYj6Eb0MrLWIwzyrD"><rect x="188.6" y="47.92" width="261.268" height="543.38"/></clipPath></defs><g clip-path="url(#_clipPath_pJ9pDTxuHDnKv5PbYj6Eb0MrLWIwzyrD)"><g><path d=" M 413 591.3 L 449.868 591.3 L 449.868 556.22 L 442 556 L 439 580 L 413 582.22 L 413 591.3 Z " fill="rgb(255,255,255)"/><path d=" M 188.6 554.22 L 200 554.22 L 200 582.22 L 229 582.22 L 229 591.3 L 188.6 591.3 L 188.6 554.22 Z " fill="rgb(255,255,255)"/></g><rect x="304" y="57" width="50" height="8" transform="matrix(1,0,0,1,0,0)" fill="rgb(212,212,212)"/><g><g><path d=" M 442.39 58 Q 450.11 67.44 449.86 82.4 L 449.86 556.83 L 449.83 558.25 L 449.74 559.65 L 449.6 561.04 L 449.4 562.42 L 449.15 563.77 L 448.85 565.11 L 448.5 566.42 L 448.1 567.72 L 447.64 568.99 L 447.14 570.24 L 446.6 571.46 L 446 572.66 L 445.37 573.83 L 444.68 574.98 L 443.96 576.09 L 443.2 577.18 L 442.39 578.23 L 441.55 579.26 L 440.67 580.24 L 439.75 581.2 L 438.79 582.12 L 437.81 583 L 436.78 583.84 L 435.73 584.65 L 434.65 585.41 L 433.53 586.13 L 432.39 586.81 L 431.21 587.45 L 430.01 588.04 L 428.79 588.59 L 427.54 589.09 L 426.27 589.54 L 424.97 589.95 L 423.66 590.3 L 422.32 590.6 L 420.97 590.85 L 419.59 591.05 L 418.21 591.19 L 416.8 591.28 L 415.38 591.3 L 223.07 591.3 L 221.65 591.28 L 220.25 591.19 L 218.86 591.05 L 217.49 590.85 L 216.13 590.6 L 214.8 590.3 L 213.48 589.95 L 212.19 589.54 L 210.91 589.09 L 209.66 588.59 L 208.44 588.04 L 207.24 587.45 L 206.07 586.81 L 204.92 586.13 L 203.81 585.41 L 202.72 584.65 L 201.67 583.84 L 200.65 583 L 199.66 582.12 L 198.71 581.2 L 197.79 580.24 L 196.91 579.26 L 196.06 578.23 L 195.26 577.18 L 194.49 576.09 L 193.77 574.98 L 193.09 573.83 L 192.45 572.66 L 191.86 571.46 L 191.31 570.24 L 190.81 568.99 L 190.36 567.72 L 189.96 566.42 L 189.6 565.11 L 189.3 563.77 L 189.05 562.42 L 188.85 561.04 L 188.71 559.65 L 188.63 558.25 L 188.6 556.83 L 188.6 82.4 L 188.63 80.98 L 188.71 79.57 L 188.85 78.18 L 189.05 76.81 L 189.3 75.46 L 189.6 74.12 L 189.96 72.8 L 190.36 71.51 L 190.81 70.24 L 191.31 68.99 L 191.86 67.76 L 192.45 66.56 L 193.09 65.39 L 193.77 64.25 L 194.49 63.13 L 195.26 62.05 L 196.06 60.99 L 196.91 59.97 L 197.79 58.98 L 198.71 58.03 L 199.66 57.11 L 200.65 56.23 L 201.67 55.39 L 202.72 54.58 L 203.81 53.82 L 204.92 53.09 L 206.07 52.41 L 207.24 51.78 L 208.44 51.18 L 209.66 50.64 L 210.91 50.13 L 212.19 49.68 L 213.48 49.28 L 214.8 48.93 L 216.13 48.62 L 217.49 48.37 L 218.86 48.18 L 220.25 48.04 L 221.65 47.95 L 223.07 47.92 L 415.38 47.92 Q 434.67 48.56 442.39 58 Z  M 394.04 57.2 L 393.75 57.2 L 393.46 57.21 L 393.19 57.22 L 392.93 57.24 L 392.68 57.25 L 392.43 57.28 L 392.2 57.31 L 391.97 57.34 L 391.76 57.39 L 391.55 57.44 L 391.36 57.5 L 391.17 57.56 L 390.99 57.64 L 390.82 57.73 L 390.66 57.83 L 390.5 57.93 L 390.36 58.06 L 390.22 58.19 L 390.09 58.33 L 389.97 58.49 L 389.85 58.67 L 389.74 58.85 L 389.64 59.06 L 389.55 59.28 L 389.46 59.51 L 389.39 59.77 L 389.31 60.04 L 389.25 60.33 L 389.19 60.64 L 389.13 60.96 L 389.08 61.31 L 389.04 61.68 L 389 62.07 L 388.97 62.48 L 388.95 62.92 L 388.92 63.38 L 388.88 63.83 L 388.83 64.27 L 388.76 64.7 L 388.67 65.12 L 388.58 65.53 L 388.46 65.93 L 388.34 66.33 L 388.2 66.71 L 388.05 67.09 L 387.88 67.46 L 387.71 67.81 L 387.52 68.16 L 387.31 68.5 L 387.1 68.83 L 386.88 69.16 L 386.64 69.47 L 386.39 69.78 L 386.13 70.08 L 385.86 70.37 L 385.59 70.65 L 385.3 70.92 L 385 71.19 L 384.69 71.44 L 384.37 71.69 L 384.05 71.93 L 383.71 72.17 L 383.37 72.39 L 383.01 72.61 L 382.65 72.82 L 382.29 73.02 L 381.91 73.22 L 381.53 73.4 L 381.14 73.58 L 380.74 73.76 L 380.34 73.92 L 379.93 74.08 L 379.51 74.23 L 379.09 74.38 L 378.67 74.51 L 378.52 74.56 L 378.38 74.6 L 378.23 74.64 L 378.08 74.68 L 377.93 74.71 L 377.78 74.74 L 377.63 74.77 L 377.48 74.8 L 377.33 74.82 L 377.18 74.85 L 377.03 74.87 L 376.87 74.88 L 376.72 74.9 L 376.57 74.92 L 376.41 74.93 L 376.26 74.94 L 376.1 74.95 L 375.95 74.96 L 375.79 74.97 L 375.63 74.98 L 375.48 74.98 L 375.32 74.99 L 375.16 74.99 L 375 74.99 L 374.85 74.99 L 374.69 74.99 L 374.53 74.99 L 374.37 74.99 L 374.22 74.99 L 374.06 74.99 L 373.9 74.99 L 373.74 74.99 L 373.58 74.99 L 373.43 74.98 L 373.27 74.98 L 373.11 74.98 L 372.95 74.98 L 372.8 74.98 L 372.64 74.98 L 372.48 74.98 L 270.84 74.98 L 270.68 74.98 L 270.53 74.98 L 270.37 74.98 L 270.05 74.98 L 269.9 74.98 L 269.74 74.98 L 269.58 74.98 L 269.42 74.98 L 269.27 74.98 L 269.11 74.98 L 268.95 74.98 L 268.79 74.97 L 268.63 74.97 L 268.48 74.97 L 268.32 74.96 L 268.16 74.96 L 268 74.95 L 267.85 74.95 L 267.69 74.94 L 267.53 74.93 L 267.38 74.92 L 267.22 74.91 L 267.07 74.89 L 266.91 74.88 L 266.76 74.86 L 266.6 74.84 L 266.45 74.82 L 266.3 74.8 L 266.14 74.78 L 265.99 74.76 L 265.84 74.73 L 265.69 74.7 L 265.54 74.67 L 265.39 74.64 L 265.24 74.6 L 265.1 74.56 L 264.95 74.52 L 264.8 74.48 L 264.66 74.43 L 264.23 74.3 L 263.81 74.16 L 263.4 74.01 L 262.99 73.85 L 262.59 73.69 L 262.19 73.52 L 261.8 73.34 L 261.42 73.16 L 261.05 72.97 L 260.68 72.77 L 260.32 72.56 L 259.97 72.35 L 259.63 72.13 L 259.3 71.9 L 258.97 71.66 L 258.66 71.42 L 258.35 71.17 L 258.05 70.91 L 257.77 70.64 L 257.49 70.37 L 257.22 70.08 L 256.96 69.79 L 256.72 69.49 L 256.48 69.18 L 256.26 68.86 L 256.04 68.54 L 255.84 68.2 L 255.65 67.86 L 255.47 67.5 L 255.31 67.14 L 255.16 66.77 L 255.02 66.39 L 254.89 66 L 254.77 65.6 L 254.67 65.19 L 254.59 64.77 L 254.51 64.34 L 254.45 63.9 L 254.41 63.45 L 254.38 63 L 254.35 62.56 L 254.32 62.15 L 254.28 61.76 L 254.24 61.39 L 254.19 61.04 L 254.14 60.71 L 254.08 60.4 L 254.01 60.11 L 253.94 59.83 L 253.86 59.58 L 253.77 59.34 L 253.68 59.12 L 253.58 58.91 L 253.47 58.72 L 253.36 58.55 L 253.23 58.38 L 253.1 58.23 L 252.97 58.1 L 252.82 57.98 L 252.67 57.86 L 252.5 57.76 L 252.33 57.67 L 252.15 57.59 L 251.97 57.52 L 251.77 57.46 L 251.56 57.41 L 251.35 57.36 L 251.13 57.33 L 250.89 57.29 L 250.65 57.27 L 250.4 57.25 L 250.13 57.23 L 249.86 57.22 L 249.58 57.21 L 249.28 57.2 L 248.98 57.2 L 248.66 57.2 L 248.34 57.2 L 247.65 57.2 L 225.39 57.2 L 224.39 57.22 L 223.39 57.28 L 222.4 57.38 L 221.42 57.51 L 220.45 57.69 L 219.49 57.9 L 218.54 58.15 L 217.61 58.43 L 216.69 58.75 L 215.78 59.1 L 214.89 59.48 L 214.02 59.9 L 213.16 60.35 L 212.33 60.82 L 211.51 61.33 L 210.71 61.87 L 209.94 62.43 L 209.18 63.03 L 208.45 63.64 L 207.75 64.29 L 207.07 64.96 L 206.41 65.66 L 205.79 66.37 L 205.19 67.12 L 204.62 67.88 L 204.08 68.66 L 203.57 69.47 L 203.09 70.3 L 202.65 71.14 L 202.24 72 L 201.86 72.88 L 201.52 73.78 L 201.22 74.69 L 200.95 75.62 L 200.72 76.56 L 200.54 77.52 L 200.39 78.49 L 200.28 79.47 L 200.22 80.46 L 200.19 81.47 L 200.19 555.52 L 200.22 556.53 L 200.28 557.52 L 200.39 558.51 L 200.54 559.48 L 200.72 560.44 L 200.95 561.38 L 201.22 562.31 L 201.52 563.23 L 201.86 564.12 L 202.24 565 L 202.65 565.87 L 203.09 566.71 L 203.57 567.53 L 204.08 568.33 L 204.62 569.12 L 205.19 569.88 L 205.79 570.61 L 206.41 571.33 L 207.07 572.02 L 207.75 572.69 L 208.45 573.33 L 209.18 573.94 L 209.94 574.53 L 210.71 575.09 L 211.51 575.62 L 212.33 576.12 L 213.16 576.6 L 214.02 577.04 L 214.89 577.45 L 215.78 577.83 L 216.69 578.18 L 217.61 578.49 L 218.54 578.77 L 219.49 579.02 L 220.45 579.23 L 221.42 579.4 L 222.4 579.53 L 223.39 579.63 L 224.39 579.69 L 225.39 579.71 L 417.86 579.71 L 418.86 579.69 L 419.86 579.63 L 420.84 579.53 L 421.8 579.4 L 422.75 579.23 L 423.68 579.02 L 424.6 578.77 L 425.49 578.49 L 426.37 578.18 L 427.23 577.83 L 428.07 577.45 L 428.9 577.04 L 429.7 576.6 L 430.48 576.12 L 431.23 575.62 L 431.97 575.09 L 432.68 574.53 L 433.37 573.94 L 434.04 573.33 L 434.68 572.69 L 435.29 572.02 L 435.88 571.33 L 436.44 570.61 L 436.98 569.88 L 437.48 569.12 L 437.96 568.33 L 438.41 567.53 L 438.83 566.71 L 439.22 565.87 L 439.58 565 L 439.91 564.12 L 440.21 563.23 L 440.47 562.31 L 440.7 561.38 L 440.9 560.44 L 441.06 559.48 L 441.19 558.51 L 441.28 557.52 L 441.33 556.53 L 441.35 555.52 L 441.2 555.52 L 441.2 81.47 L 441.18 80.46 L 441.12 79.47 L 441.03 78.49 L 440.91 77.52 L 440.74 76.56 L 440.55 75.62 L 440.32 74.69 L 440.05 73.78 L 439.76 72.88 L 439.43 72 L 439.07 71.14 L 438.68 70.3 L 438.26 69.47 L 437.81 68.66 L 437.33 67.88 L 436.82 67.12 L 436.29 66.37 L 435.73 65.66 L 435.14 64.96 L 434.52 64.29 L 433.88 63.64 L 433.22 63.03 L 432.53 62.43 L 431.82 61.87 L 431.08 61.33 L 430.32 60.82 L 429.54 60.35 L 428.74 59.9 L 427.92 59.48 L 427.08 59.1 L 426.22 58.75 L 425.34 58.43 L 424.44 58.15 L 423.53 57.9 L 422.59 57.69 L 421.65 57.51 L 420.68 57.38 L 419.7 57.28 L 418.71 57.22 L 417.7 57.2 L 395.67 57.2 L 395.32 57.2 L 394.99 57.2 L 394.66 57.2 L 394.35 57.2 L 394.04 57.2 Z  M 346.98 58.74 L 346.24 59.83 L 345.97 61.14 L 346.24 62.45 L 346.98 63.54 L 348.06 64.27 L 349.37 64.54 L 350.69 64.27 L 351.77 63.54 L 352.5 62.45 L 352.77 61.14 L 352.51 59.79 L 351.8 58.71 L 350.72 58 L 349.37 57.74 L 348.06 58.01 L 346.98 58.74 Z  M 306.52 59.53 L 306.26 59.56 L 306.02 59.62 L 305.78 59.7 L 305.56 59.8 L 305.35 59.91 L 305.16 60.05 L 304.99 60.2 L 304.84 60.37 L 304.71 60.56 L 304.6 60.76 L 304.53 60.98 L 304.48 61.21 L 304.46 61.45 L 304.48 61.69 L 304.52 61.92 L 304.6 62.14 L 304.69 62.34 L 304.82 62.53 L 304.96 62.7 L 305.13 62.85 L 305.32 62.99 L 305.52 63.1 L 305.75 63.2 L 305.99 63.28 L 306.24 63.34 L 306.51 63.37 L 306.78 63.38 L 336.93 63.38 L 337.2 63.37 L 337.47 63.34 L 337.72 63.28 L 337.96 63.2 L 338.19 63.1 L 338.39 62.99 L 338.58 62.85 L 338.75 62.7 L 338.89 62.53 L 339.02 62.34 L 339.11 62.14 L 339.19 61.92 L 339.23 61.69 L 339.25 61.45 L 339.23 61.21 L 339.19 60.98 L 339.11 60.76 L 339.02 60.56 L 338.89 60.37 L 338.75 60.2 L 338.58 60.05 L 338.39 59.91 L 338.19 59.8 L 337.96 59.7 L 337.72 59.62 L 337.47 59.56 L 337.2 59.53 L 336.93 59.52 L 306.78 59.52 L 306.52 59.53 Z " fill="rgb(227,227,227)"/><g><path d=" M 441.55 60.96 Q 450.125 71.875 449.86 82.4 L 449.86 556.83 L 449.83 558.25 L 449.74 559.65 L 449.6 561.04 L 449.4 562.42 L 449.15 563.77 L 448.85 565.11 L 448.5 566.42 L 448.1 567.72 L 447.64 568.99 L 447.14 570.24 L 446.6 571.46 L 446 572.66 L 445.37 573.83 L 444.68 574.98 L 443.96 576.09 L 443.2 577.18 L 442.39 578.23 L 441.55 579.26 L 440.67 580.24 L 439.75 581.2 L 438.79 582.12 L 437.81 583 L 436.78 583.84 L 435.73 584.65 L 434.65 585.41 L 433.53 586.13 L 432.39 586.81 L 431.21 587.45 L 430.01 588.04 L 428.79 588.59 L 427.54 589.09 L 426.27 589.54 L 424.97 589.95 L 423.66 590.3 L 422.32 590.6 L 420.97 590.85 L 419.59 591.05 L 418.21 591.19 L 416.8 591.28 L 415.38 591.3 L 223.07 591.3 L 221.65 591.28 L 220.25 591.19 L 218.86 591.05 L 217.49 590.85 L 216.13 590.6 L 214.8 590.3 L 213.48 589.95 L 212.19 589.54 L 210.91 589.09 L 209.66 588.59 L 208.44 588.04 L 207.24 587.45 L 206.07 586.81 L 204.92 586.13 L 203.81 585.41 L 202.72 584.65 L 201.67 583.84 L 200.65 583 L 199.66 582.12 L 198.71 581.2 L 197.79 580.24 L 196.91 579.26 L 196.06 578.23 L 195.26 577.18 L 194.49 576.09 L 193.77 574.98 L 193.09 573.83 L 192.45 572.66 L 191.86 571.46 L 191.31 570.24 L 190.81 568.99 L 190.36 567.72 L 189.96 566.42 L 189.6 565.11 L 189.3 563.77 L 189.05 562.42 L 188.85 561.04 L 188.71 559.65 L 188.63 558.25 L 188.6 556.83 L 188.6 82.4 L 188.63 80.98 L 188.71 79.57 L 188.85 78.18 L 189.05 76.81 L 189.3 75.46 L 189.6 74.12 L 189.96 72.8 L 190.36 71.51 L 190.81 70.24 L 191.31 68.99 L 191.86 67.76 L 192.45 66.56 L 193.09 65.39 L 193.77 64.25 L 194.49 63.13 L 195.26 62.05 L 196.06 60.99 L 196.91 59.97 L 197.79 58.98 L 198.71 58.03 L 199.66 57.11 L 200.65 56.23 L 201.67 55.39 L 202.72 54.58 L 203.81 53.82 L 204.92 53.09 L 206.07 52.41 L 207.24 51.78 L 208.44 51.18 L 209.66 50.64 L 210.91 50.13 L 212.19 49.68 L 213.48 49.28 L 214.8 48.93 L 216.13 48.62 L 217.49 48.37 L 218.86 48.18 L 220.25 48.04 L 221.65 47.95 L 223.07 47.92 L 415.38 47.92 Q 432.975 50.045 441.55 60.96 Z  M 394.04 57.2 L 393.75 57.2 L 393.46 57.21 L 393.19 57.22 L 392.93 57.24 L 392.68 57.25 L 392.43 57.28 L 392.2 57.31 L 391.97 57.34 L 391.76 57.39 L 391.55 57.44 L 391.36 57.5 L 391.17 57.56 L 390.99 57.64 L 390.82 57.73 L 390.66 57.83 L 390.5 57.93 L 390.36 58.06 L 390.22 58.19 L 390.09 58.33 L 389.97 58.49 L 389.85 58.67 L 389.74 58.85 L 389.64 59.06 L 389.55 59.28 L 389.46 59.51 L 389.39 59.77 L 389.31 60.04 L 389.25 60.33 L 389.19 60.64 L 389.13 60.96 L 389.08 61.31 L 389.04 61.68 L 389 62.07 L 388.97 62.48 L 388.95 62.92 L 388.92 63.38 L 388.88 63.83 L 388.83 64.27 L 388.76 64.7 L 388.67 65.12 L 388.58 65.53 L 388.46 65.93 L 388.34 66.33 L 388.2 66.71 L 388.05 67.09 L 387.88 67.46 L 387.71 67.81 L 387.52 68.16 L 387.31 68.5 L 387.1 68.83 L 386.88 69.16 L 386.64 69.47 L 386.39 69.78 L 386.13 70.08 L 385.86 70.37 L 385.59 70.65 L 385.3 70.92 L 385 71.19 L 384.69 71.44 L 384.37 71.69 L 384.05 71.93 L 383.71 72.17 L 383.37 72.39 L 383.01 72.61 L 382.65 72.82 L 382.29 73.02 L 381.91 73.22 L 381.53 73.4 L 381.14 73.58 L 380.74 73.76 L 380.34 73.92 L 379.93 74.08 L 379.51 74.23 L 379.09 74.38 L 378.67 74.51 L 378.52 74.56 L 378.38 74.6 L 378.23 74.64 L 378.08 74.68 L 377.93 74.71 L 377.78 74.74 L 377.63 74.77 L 377.48 74.8 L 377.33 74.82 L 377.18 74.85 L 377.03 74.87 L 376.87 74.88 L 376.72 74.9 L 376.57 74.92 L 376.41 74.93 L 376.26 74.94 L 376.1 74.95 L 375.95 74.96 L 375.79 74.97 L 375.63 74.98 L 375.48 74.98 L 375.32 74.99 L 375.16 74.99 L 375 74.99 L 374.85 74.99 L 374.69 74.99 L 374.53 74.99 L 374.37 74.99 L 374.22 74.99 L 374.06 74.99 L 373.9 74.99 L 373.74 74.99 L 373.58 74.99 L 373.43 74.98 L 373.27 74.98 L 373.11 74.98 L 372.95 74.98 L 372.8 74.98 L 372.64 74.98 L 372.48 74.98 L 270.84 74.98 L 270.68 74.98 L 270.53 74.98 L 270.37 74.98 L 270.05 74.98 L 269.9 74.98 L 269.74 74.98 L 269.58 74.98 L 269.42 74.98 L 269.27 74.98 L 269.11 74.98 L 268.95 74.98 L 268.79 74.97 L 268.63 74.97 L 268.48 74.97 L 268.32 74.96 L 268.16 74.96 L 268 74.95 L 267.85 74.95 L 267.69 74.94 L 267.53 74.93 L 267.38 74.92 L 267.22 74.91 L 267.07 74.89 L 266.91 74.88 L 266.76 74.86 L 266.6 74.84 L 266.45 74.82 L 266.3 74.8 L 266.14 74.78 L 265.99 74.76 L 265.84 74.73 L 265.69 74.7 L 265.54 74.67 L 265.39 74.64 L 265.24 74.6 L 265.1 74.56 L 264.95 74.52 L 264.8 74.48 L 264.66 74.43 L 264.23 74.3 L 263.81 74.16 L 263.4 74.01 L 262.99 73.85 L 262.59 73.69 L 262.19 73.52 L 261.8 73.34 L 261.42 73.16 L 261.05 72.97 L 260.68 72.77 L 260.32 72.56 L 259.97 72.35 L 259.63 72.13 L 259.3 71.9 L 258.97 71.66 L 258.66 71.42 L 258.35 71.17 L 258.05 70.91 L 257.77 70.64 L 257.49 70.37 L 257.22 70.08 L 256.96 69.79 L 256.72 69.49 L 256.48 69.18 L 256.26 68.86 L 256.04 68.54 L 255.84 68.2 L 255.65 67.86 L 255.47 67.5 L 255.31 67.14 L 255.16 66.77 L 255.02 66.39 L 254.89 66 L 254.77 65.6 L 254.67 65.19 L 254.59 64.77 L 254.51 64.34 L 254.45 63.9 L 254.41 63.45 L 254.38 63 L 254.35 62.56 L 254.32 62.15 L 254.28 61.76 L 254.24 61.39 L 254.19 61.04 L 254.14 60.71 L 254.08 60.4 L 254.01 60.11 L 253.94 59.83 L 253.86 59.58 L 253.77 59.34 L 253.68 59.12 L 253.58 58.91 L 253.47 58.72 L 253.36 58.55 L 253.23 58.38 L 253.1 58.23 L 252.97 58.1 L 252.82 57.98 L 252.67 57.86 L 252.5 57.76 L 252.33 57.67 L 252.15 57.59 L 251.97 57.52 L 251.77 57.46 L 251.56 57.41 L 251.35 57.36 L 251.13 57.33 L 250.89 57.29 L 250.65 57.27 L 250.4 57.25 L 250.13 57.23 L 249.86 57.22 L 249.58 57.21 L 249.28 57.2 L 248.98 57.2 L 248.66 57.2 L 248.34 57.2 L 247.65 57.2 L 225.39 57.2 L 224.39 57.22 L 223.39 57.28 L 222.4 57.38 L 221.42 57.51 L 220.45 57.69 L 219.49 57.9 L 218.54 58.15 L 217.61 58.43 L 216.69 58.75 L 215.78 59.1 L 214.89 59.48 L 214.02 59.9 L 213.16 60.35 L 212.33 60.82 L 211.51 61.33 L 210.71 61.87 L 209.94 62.43 L 209.18 63.03 L 208.45 63.64 L 207.75 64.29 L 207.07 64.96 L 206.41 65.66 L 205.79 66.37 L 205.19 67.12 L 204.62 67.88 L 204.08 68.66 L 203.57 69.47 L 203.09 70.3 L 202.65 71.14 L 202.24 72 L 201.86 72.88 L 201.52 73.78 L 201.22 74.69 L 200.95 75.62 L 200.72 76.56 L 200.54 77.52 L 200.39 78.49 L 200.28 79.47 L 200.22 80.46 L 200.19 81.47 L 200.19 555.52 L 200.22 556.53 L 200.28 557.52 L 200.39 558.51 L 200.54 559.48 L 200.72 560.44 L 200.95 561.38 L 201.22 562.31 L 201.52 563.23 L 201.86 564.12 L 202.24 565 L 202.65 565.87 L 203.09 566.71 L 203.57 567.53 L 204.08 568.33 L 204.62 569.12 L 205.19 569.88 L 205.79 570.61 L 206.41 571.33 L 207.07 572.02 L 207.75 572.69 L 208.45 573.33 L 209.18 573.94 L 209.94 574.53 L 210.71 575.09 L 211.51 575.62 L 212.33 576.12 L 213.16 576.6 L 214.02 577.04 L 214.89 577.45 L 215.78 577.83 L 216.69 578.18 L 217.61 578.49 L 218.54 578.77 L 219.49 579.02 L 220.45 579.23 L 221.42 579.4 L 222.4 579.53 L 223.39 579.63 L 224.39 579.69 L 225.39 579.71 L 417.86 579.71 L 418.86 579.69 L 419.86 579.63 L 420.84 579.53 L 421.8 579.4 L 422.75 579.23 L 423.68 579.02 L 424.6 578.77 L 425.49 578.49 L 426.37 578.18 L 427.23 577.83 L 428.07 577.45 L 428.9 577.04 L 429.7 576.6 L 430.48 576.12 L 431.23 575.62 L 431.97 575.09 L 432.68 574.53 L 433.37 573.94 L 434.04 573.33 L 434.68 572.69 L 435.29 572.02 L 435.88 571.33 L 436.44 570.61 L 436.98 569.88 L 437.48 569.12 L 437.96 568.33 L 438.41 567.53 L 438.83 566.71 L 439.22 565.87 L 439.58 565 L 439.91 564.12 L 440.21 563.23 L 440.47 562.31 L 440.7 561.38 L 440.9 560.44 L 441.06 559.48 L 441.19 558.51 L 441.28 557.52 L 441.33 556.53 L 441.35 555.52 L 441.2 555.52 L 441.2 81.47 L 441.18 80.46 L 441.12 79.47 L 441.03 78.49 L 440.91 77.52 L 440.74 76.56 L 440.55 75.62 L 440.32 74.69 L 440.05 73.78 L 439.76 72.88 L 439.43 72 L 439.07 71.14 L 438.68 70.3 L 438.26 69.47 L 437.81 68.66 L 437.33 67.88 L 436.82 67.12 L 436.29 66.37 L 435.73 65.66 L 435.14 64.96 L 434.52 64.29 L 433.88 63.64 L 433.22 63.03 L 432.53 62.43 L 431.82 61.87 L 431.08 61.33 L 430.32 60.82 L 429.54 60.35 L 428.74 59.9 L 427.92 59.48 L 427.08 59.1 L 426.22 58.75 L 425.34 58.43 L 424.44 58.15 L 423.53 57.9 L 422.59 57.69 L 421.65 57.51 L 420.68 57.38 L 419.7 57.28 L 418.71 57.22 L 417.7 57.2 L 395.67 57.2 L 395.32 57.2 L 394.99 57.2 L 394.66 57.2 L 394.35 57.2 L 394.04 57.2 Z  M 346.98 58.74 L 346.24 59.83 L 345.97 61.14 L 346.24 62.45 L 346.98 63.54 L 348.06 64.27 L 349.37 64.54 L 350.69 64.27 L 351.77 63.54 L 352.5 62.45 L 352.77 61.14 L 352.51 59.79 L 351.8 58.71 L 350.72 58 L 349.37 57.74 L 348.06 58.01 L 346.98 58.74 Z  M 306.52 59.53 L 306.26 59.56 L 306.02 59.62 L 305.78 59.7 L 305.56 59.8 L 305.35 59.91 L 305.16 60.05 L 304.99 60.2 L 304.84 60.37 L 304.71 60.56 L 304.6 60.76 L 304.53 60.98 L 304.48 61.21 L 304.46 61.45 L 304.48 61.69 L 304.52 61.92 L 304.6 62.14 L 304.69 62.34 L 304.82 62.53 L 304.96 62.7 L 305.13 62.85 L 305.32 62.99 L 305.52 63.1 L 305.75 63.2 L 305.99 63.28 L 306.24 63.34 L 306.51 63.37 L 306.78 63.38 L 336.93 63.38 L 337.2 63.37 L 337.47 63.34 L 337.72 63.28 L 337.96 63.2 L 338.19 63.1 L 338.39 62.99 L 338.58 62.85 L 338.75 62.7 L 338.89 62.53 L 339.02 62.34 L 339.11 62.14 L 339.19 61.92 L 339.23 61.69 L 339.25 61.45 L 339.23 61.21 L 339.19 60.98 L 339.11 60.76 L 339.02 60.56 L 338.89 60.37 L 338.75 60.2 L 338.58 60.05 L 338.39 59.91 L 338.19 59.8 L 337.96 59.7 L 337.72 59.62 L 337.47 59.56 L 337.2 59.53 L 336.93 59.52 L 306.78 59.52 L 306.52 59.53 Z " fill="none"/></g></g></g></g></svg>