<?xml version="1.0" encoding="UTF-8" standalone="no"?>
<!DOCTYPE svg PUBLIC "-//W3C//DTD SVG 1.1//EN" "http://www.w3.org/Graphics/SVG/1.1/DTD/svg11.dtd">
<svg width="100%" height="100%" viewBox="0 0 4167 2930" version="1.1" xmlns="http://www.w3.org/2000/svg" xmlns:xlink="http://www.w3.org/1999/xlink" xml:space="preserve" xmlns:serif="http://www.serif.com/" style="fill-rule:evenodd;clip-rule:evenodd;stroke-linecap:round;stroke-linejoin:round;stroke-miterlimit:10;">
    <g id="Layer_1-2" transform="matrix(14.6199,0,0,14.6199,-162.281,1.11664)">
        <path d="M296.1,100.1C296.1,89.1 287.1,80.1 276.1,80.1L224.1,80.1C213.1,80.1 204.1,71.1 204.1,60.1C204.1,49.1 213.1,40.1 224.1,40.1L232.1,40.1C243.1,40.1 252.1,31.1 252.1,20.1C252.1,9.1 243.1,0.1 232.1,0.1L44.1,0.1C33.1,0.1 24.1,9.1 24.1,20.1C24.1,31.1 33.1,40.1 44.1,40.1L50.1,40.1C61.1,40.1 70.1,49.1 70.1,60.1C70.1,71.1 61.1,80.1 50.1,80.1L45.1,80.1C34.1,80.1 25.1,89.1 25.1,100.1C25.1,111.1 34.1,120.1 45.1,120.1L60.1,120.1C71.1,120.1 80.1,129.1 80.1,140.1C80.1,151.1 71.1,160.1 60.1,160.1L31.1,160.1C20.1,160.1 11.1,169.1 11.1,180.1C11.1,191.1 20.1,200.1 31.1,200.1L230.1,200.1C241.1,200.1 250.1,191.1 250.1,180.1C250.1,169.1 241.1,160.1 230.1,160.1C219.1,160.1 209.1,151.1 209.1,140.1C209.1,129.1 218.1,120.1 229.1,120.1L276.1,120.1C287.1,120.1 296.1,111.2 296.1,100.1Z" style="fill:rgb(238,245,255);fill-rule:nonzero;"/>
    </g>
    <g transform="matrix(1,0,0,1,421.454,27.639)">
        <g transform="matrix(0.785243,0,0,0.785243,122.251,-10.1924)">
            <g transform="matrix(4.16667,0,0,4.16667,1735.89,320.428)">
                <path d="M0,12.41C0,21.636 -21.717,30.705 -45.04,30.705L-69.672,30.705C-92.995,30.705 -109,21.636 -109,12.41L-109,-1.512C-109,-10.738 -92.995,-18.295 -69.672,-18.295L-45.04,-18.295C-21.717,-18.295 0,-10.738 0,-1.512L0,12.41Z" style="fill:rgb(165,112,68);fill-rule:nonzero;"/>
            </g>
            <g transform="matrix(4.16667,0,0,4.16667,1548.39,244.198)">
                <path d="M0,49L-24.672,49C-47.995,49 -64,39.931 -64,30.705L-64,16.783C-64,7.557 -47.995,0 -24.672,0L0,0" style="fill:rgb(132,89,53);fill-rule:nonzero;"/>
            </g>
            <g transform="matrix(4.16667,0,0,4.16667,1531.72,2052.23)">
                <path d="M0,311.144C0,313.758 -0.584,316.072 -3.649,316.072L-5.869,316.072C-8.935,316.072 -14,313.758 -14,311.144L-14,-1.242C-14,-3.855 -8.935,-4.928 -5.869,-4.928L-3.649,-4.928C-0.584,-4.928 0,-3.855 0,-1.242L0,311.144Z" style="fill:rgb(132,89,53);fill-rule:nonzero;"/>
            </g>
            <g transform="matrix(4.16667,0,0,4.16667,2126.32,1817.28)">
                <path d="M0,420.012C0.576,422.552 1.698,424.438 4.675,423.658L6.832,423.093C9.81,422.307 14.252,418.965 13.676,416.425L-80.917,-1.117C-81.494,-3.656 -86.868,-4.426 -89.846,-3.647L-92.004,-3.081C-94.982,-2.3 -95.169,-0.07 -94.594,2.471L0,420.012Z" style="fill:rgb(132,89,53);fill-rule:nonzero;"/>
            </g>
            <g transform="matrix(4.16667,0,0,4.16667,879.213,1817.28)">
                <path d="M0,420.012C-0.575,422.552 -1.697,424.438 -4.675,423.658L-6.832,423.093C-9.81,422.307 -14.251,418.965 -13.676,416.425L80.918,-1.117C81.494,-3.656 86.869,-4.426 89.846,-3.647L92.005,-3.081C94.982,-2.3 95.169,-0.07 94.594,2.471L0,420.012Z" style="fill:rgb(132,89,53);fill-rule:nonzero;"/>
            </g>
            <g transform="matrix(4.16667,0,0,4.16667,1544.22,128.877)">
                <path d="M0,70.354C0,74.013 -5.471,76.677 -10.146,76.677L-12.565,76.677C-17.241,76.677 -17,74.013 -17,70.354L-17,0.304C-17,-3.355 -17.241,-6.323 -12.565,-6.323L-10.146,-6.323C-5.471,-6.323 0,-3.355 0,0.304L0,70.354Z" style="fill:rgb(165,112,68);fill-rule:nonzero;"/>
            </g>
            <g transform="matrix(4.16667,0,0,4.16667,2248.39,2104.99)">
                <path d="M0,0.822C0,7.502 -8.592,12.411 -17.013,12.411L-341.939,12.411C-350.36,12.411 -355,7.502 -355,0.822L-355,-0.11C-355,-6.789 -350.36,-11.589 -341.939,-11.589L-17.013,-11.589C-8.592,-11.589 0,-6.789 0,-0.11L0,0.822Z" style="fill:rgb(165,112,68);fill-rule:nonzero;"/>
            </g>
            <g transform="matrix(4.16667,0,0,4.16667,2248.39,2156.7)">
                <path d="M0,-13L0,-11.589C0,-4.909 -8.592,0 -17.013,0L-341.939,0C-350.36,0 -355,-4.909 -355,-11.589L-355,-13" style="fill:rgb(132,89,53);fill-rule:nonzero;"/>
            </g>
            <g transform="matrix(-4.16667,0,0,4.16667,2460.89,-1464.14)">
                <rect x="71" y="437" width="318" height="408" style="fill:white;"/>
            </g>
            <g transform="matrix(4.16667,0,0,4.16667,544.221,-205.802)">
                <g opacity="0.4">
                    <g transform="matrix(1,0,0,-1,0,980)">
                        <rect x="223" y="437" width="166" height="408" style="fill:rgb(242,242,242);"/>
                    </g>
                </g>
            </g>
        </g>
        <g transform="matrix(1,0,0,1,4.54747e-13,-496.766)">
            <g transform="matrix(2.22045e-16,-6.7593,-6.7593,-2.22045e-16,1040.12,1495.03)">
                <path d="M-7.979,-7.977C-12.385,-7.977 -15.956,-4.406 -15.956,0.002C-15.956,4.408 -12.385,7.979 -7.979,7.979C-3.573,7.979 0,4.408 0,0.002C0,-4.406 -3.573,-7.977 -7.979,-7.977" style="fill:rgb(237,128,123);fill-rule:nonzero;"/>
            </g>
            <g>
                <g transform="matrix(0,-4.16667,-4.16667,0,1322.92,975.747)">
                    <path d="M-7.978,-7.978C-12.384,-7.978 -15.956,-4.407 -15.956,0C-15.956,4.406 -12.384,7.978 -7.978,7.978C-3.572,7.978 0,4.406 0,0C0,-4.407 -3.572,-7.978 -7.978,-7.978" style="fill:rgb(108,164,210);fill-rule:nonzero;"/>
                </g>
                <g transform="matrix(4.16667,0,0,4.16667,1256.44,975.748)">
                    <path d="M0,47.865C4.406,47.865 7.978,44.294 7.978,39.887C7.978,35.481 4.406,31.91 0,31.91L-23.933,31.91C-28.339,31.91 -31.91,28.339 -31.91,23.932C-31.91,19.526 -28.339,15.955 -23.933,15.955L-15.955,15.955C-11.549,15.955 -7.978,12.384 -7.978,7.977C-7.978,3.571 -11.549,0 -15.955,0L-61.733,0C-66.14,0 -69.711,3.571 -69.711,7.977C-69.711,12.384 -66.14,15.955 -61.733,15.955L-53.756,15.955C-49.35,15.955 -45.778,19.526 -45.778,23.932C-45.778,28.339 -49.35,31.91 -53.756,31.91L-77.688,31.91C-82.095,31.91 -85.666,35.481 -85.666,39.887C-85.666,44.294 -82.095,47.865 -77.688,47.865L0,47.865Z" style="fill:rgb(108,164,210);fill-rule:nonzero;"/>
                </g>
            </g>
            <g transform="matrix(0,-3.13344,-3.13344,0,1240.53,1949.59)">
                <path d="M-7.979,-7.977C-12.385,-7.977 -15.956,-4.406 -15.956,0.002C-15.956,4.408 -12.385,7.979 -7.979,7.979C-3.573,7.979 0,4.408 0,0.002C0,-4.406 -3.573,-7.977 -7.979,-7.977" style="fill:rgb(251,153,42);fill-rule:nonzero;"/>
            </g>
            <g transform="matrix(3.13344,0,0,3.13344,1140.54,1949.59)">
                <path d="M0,15.955C4.406,15.955 7.978,12.385 7.978,7.978C7.978,3.572 4.406,0 0,0L-71.991,0C-76.397,0 -79.969,3.572 -79.969,7.978C-79.969,12.385 -76.397,15.955 -71.991,15.955L0,15.955Z" style="fill:rgb(251,153,42);fill-rule:nonzero;"/>
            </g>
            <g transform="matrix(4.16667,0,0,4.16667,1465.02,1499.19)">
                <path d="M0,-47.865C-4.406,-47.865 -7.978,-44.295 -7.978,-39.888C-7.978,-35.482 -4.406,-31.91 0,-31.91L7.161,-31.91C11.567,-31.91 15.139,-28.34 15.139,-23.933C15.139,-19.527 11.567,-15.955 7.161,-15.955L-15.955,-15.955C-20.361,-15.955 -23.933,-12.385 -23.933,-7.978C-23.933,-3.572 -20.361,0 -15.955,0L43.919,0C48.325,0 51.896,-3.572 51.896,-7.978C51.896,-12.385 48.325,-15.955 43.919,-15.955L36.984,-15.955C32.578,-15.955 29.007,-19.527 29.007,-23.933C29.007,-28.34 32.578,-31.91 36.984,-31.91L68.895,-31.91C73.301,-31.91 76.872,-35.482 76.872,-39.888C76.872,-44.295 73.301,-47.865 68.895,-47.865L0,-47.865Z" style="fill:rgb(92,191,185);fill-rule:nonzero;"/>
            </g>
        </g>
        <g transform="matrix(0.776845,0.0571237,-0.0571237,0.776845,674.866,-331.21)">
            <g transform="matrix(3.72859,1.13814,1.13814,-3.72859,-1455.66,3859.17)">
                <g opacity="0.7">
                    <g transform="matrix(1,0,0,1,916.674,652)">
                        <path d="M0,-81C0,-81 25.39,0 0,-0.5C-25.391,-1 0,-81 0,-81" style="fill:rgb(234,154,59);fill-rule:nonzero;"/>
                    </g>
                </g>
                <g transform="matrix(1,0,0,1,908.674,651.502)">
                    <path d="M0,-46.836C0,-46.836 33.395,-0.006 8,-0.002C-11.007,0 0,-46.836 0,-46.836" style="fill:rgb(206,141,81);fill-rule:nonzero;"/>
                </g>
                <g transform="matrix(1,0,0,1,924,651.5)">
                    <path d="M0,228C0,232.143 -3.357,235.5 -7.5,235.5C-11.643,235.5 -15,232.143 -15,228L-15,0C-15,-4.143 -11.643,-7.5 -7.5,-7.5C-3.357,-7.5 0,-4.143 0,0L0,228Z" style="fill:rgb(0,163,139);fill-rule:nonzero;"/>
                </g>
                <g transform="matrix(1,0,0,1,916.5,887)">
                    <path d="M0,-243C4.143,-243 7.5,-239.643 7.5,-235.5L7.5,-7.5C7.5,-3.357 4.143,0 0,0" style="fill:rgb(0,204,165);fill-rule:nonzero;"/>
                </g>
                <g transform="matrix(-1,0,0,1,909,644)">
                    <path d="M-15,29L0,29L4,0L-19,0L-15,29Z" style="fill:rgb(147,147,147);fill-rule:nonzero;"/>
                </g>
            </g>
            <g transform="matrix(3.77893,-0.285849,0.285849,3.77893,316.464,1101.66)">
                <g transform="matrix(-1,0,0,1,597.661,295)">
                    <path d="M-61.872,196L0,196L-5.987,0L-55.884,0L-61.872,196Z" style="fill:white;fill-rule:nonzero;"/>
                </g>
                <g transform="matrix(-1,0,0,1,613.627,295)">
                    <path d="M-29.939,-24L-1.997,-24L9.979,0L-39.918,0L-29.939,-24Z" style="fill:rgb(183,182,182);fill-rule:nonzero;"/>
                </g>
                <g transform="matrix(1,0,0,1,648,260.378)">
                    <path d="M0,11.944C0,13.322 -8.336,12.622 -18.073,12.622L-18.736,12.622C-28.475,12.622 -37,13.322 -37,11.944L-37,0.837C-37,-0.541 -28.475,-1.378 -18.736,-1.378L-18.073,-1.378C-8.336,-1.378 0,-0.541 0,0.837L0,11.944Z" style="fill:rgb(2,0,0);fill-rule:nonzero;"/>
                </g>
                <g transform="matrix(-1,0,0,1,595.664,491)">
                    <path d="M-65.864,14L0,14L-1.997,0L-63.869,0L-65.864,14Z" style="fill:rgb(183,182,182);fill-rule:nonzero;"/>
                </g>
                <g transform="matrix(-1,0,0,1,1258,-186)">
                    <rect x="610" y="565" width="38" height="36" style="fill:rgb(41,133,194);"/>
                </g>
                <g transform="matrix(-1,0,0,1,1258,-242)">
                    <rect x="610" y="606" width="38" height="10" style="fill:rgb(41,133,194);"/>
                </g>
            </g>
            <g transform="matrix(0.844988,0.225833,-0.225833,0.844988,925.03,494.502)">
                <g transform="matrix(4.16667,0,0,4.16667,2318.26,620.491)">
                    <path d="M0,250.25L-16.437,250.25L-16.437,151.112C-16.437,141.397 -10.293,132.67 -1.149,129.395L130.501,82.222C133.13,81.28 134.896,78.771 134.896,75.979L134.896,23.07C134.896,19.413 131.922,16.438 128.264,16.438L68.342,16.438L68.342,0L128.264,0C140.985,0 151.334,10.349 151.334,23.07L151.334,75.979C151.334,85.691 145.19,94.419 136.046,97.696L4.395,144.869C1.766,145.811 0,148.319 0,151.112L0,250.25Z" style="fill:rgb(128,141,160);fill-rule:nonzero;"/>
                </g>
                <g transform="matrix(4.16667,0,0,4.16667,2392.09,2233.61)">
                    <path d="M0,-215.675L-51.876,-215.675C-56.398,-215.675 -60.064,-212.009 -60.064,-207.487L-60.064,-193.153C-60.064,-187.816 -58.99,-182.533 -56.906,-177.62L-51.094,-163.921C-46.022,-151.966 -47.107,-138.287 -54,-127.28C-57.962,-120.952 -60.064,-113.638 -60.064,-106.172L-60.064,-34.126C-60.064,-15.279 -44.785,0 -25.938,0C-7.09,0 8.188,-15.279 8.188,-34.126L8.188,-106.172C8.188,-113.638 6.087,-120.952 2.124,-127.28C-4.769,-138.287 -5.854,-151.966 -0.782,-163.921L5.03,-177.62C7.114,-182.533 8.188,-187.816 8.188,-193.153L8.188,-207.487C8.188,-212.009 4.522,-215.675 0,-215.675" style="fill:rgb(252,204,48);fill-rule:nonzero;"/>
                </g>
                <g transform="matrix(1,0,0,1,121.065,-750.605)">
                    <path d="M2271.02,2085.57C2289.86,2085.57 2305.14,2100.85 2305.14,2119.69L2305.14,2179.41C2305.14,2201.65 2300.66,2223.66 2291.98,2244.14L2267.76,2301.22C2246.63,2351.03 2251.15,2408.02 2279.87,2453.89C2296.38,2480.25 2305.14,2510.73 2305.14,2541.84L2305.14,2842.03C2305.14,2920.56 2241.48,2984.22 2162.95,2984.22C2157.32,2984.22 2151.78,2983.89 2146.33,2983.26C2202.24,2975.03 2245.63,2914.94 2245.63,2842.03L2245.63,2541.84C2245.63,2510.73 2238.71,2480.25 2225.65,2453.89C2202.94,2408.02 2199.37,2351.03 2216.08,2301.22L2235.23,2244.14C2242.09,2223.66 2245.63,2201.65 2245.63,2179.41L2245.63,2119.69C2245.63,2100.85 2233.55,2085.57 2218.65,2085.57L2271.02,2085.57ZM2020.76,2180.15C2020.76,2179.91 2020.75,2179.66 2020.75,2179.41L2020.76,2180.15Z" style="fill:rgb(232,178,5);fill-rule:nonzero;"/>
                </g>
                <g transform="matrix(4.16667,0,0,4.16667,2739.84,448.609)">
                    <path d="M0,98.941L-259.527,98.941C-265.156,98.941 -269.718,94.379 -269.718,88.75L-269.718,10.191C-269.718,4.562 -265.156,0 -259.527,0L0,0C5.628,0 10.191,4.562 10.191,10.191L10.191,88.75C10.191,94.379 5.628,98.941 0,98.941" style="fill:rgb(85,191,206);fill-rule:nonzero;"/>
                </g>
                <g transform="matrix(1.51416,5.55112e-17,5.55112e-17,1,-1485.54,-1129.94)">
                    <path d="M2776.16,1578.55C2799.61,1578.55 2818.62,1597.56 2818.62,1621.02L2818.62,1948.34C2818.62,1971.8 2799.61,1990.81 2776.16,1990.81L2726.39,1990.81C2748.8,1990.81 2766.97,1971.8 2766.97,1948.34L2766.97,1621.02C2766.97,1597.56 2748.8,1578.55 2726.39,1578.55L2776.16,1578.55ZM1652.33,1621.02C1652.33,1621.02 1652.33,1948.34 1652.33,1948.34L1652.33,1621.02L1652.33,1621.02Z" style="fill:rgb(54,161,178);fill-rule:nonzero;"/>
                </g>
            </g>
            <g transform="matrix(4.13511,-0.511806,-0.511806,-4.13511,-651.178,5819.78)">
                <g transform="matrix(1,0,0,1,851,651.5)">
                    <path d="M0,228C0,232.143 -5.093,235.5 -11.5,235.5C-17.907,235.5 -23,232.143 -23,228L-23,0C-23,-4.143 -17.907,-7.5 -11.5,-7.5C-5.093,-7.5 0,-4.143 0,0L0,228Z" style="fill:rgb(244,61,61);fill-rule:nonzero;"/>
                </g>
                <g transform="matrix(1,0,0,1,839.637,887)">
                    <path d="M0,-243C6.407,-243 11.363,-239.643 11.363,-235.5L11.363,-7.5C11.363,-3.357 6.288,0 -0.119,0" style="fill:rgb(255,95,95);fill-rule:nonzero;"/>
                </g>
                <g transform="matrix(-1,0,0,1,1679,337)">
                    <rect x="828" y="307" width="23" height="29" style="fill:rgb(147,147,147);"/>
                </g>
                <g opacity="0.7">
                    <g transform="matrix(1,0,0,1,851,584)">
                        <path d="M0,60L-23,60L-35,0L-19,0L-15,18L-11,0L13,0L0,60Z" style="fill:rgb(234,154,59);fill-rule:nonzero;"/>
                    </g>
                </g>
                <g transform="matrix(1,0,0,1,828,584)">
                    <path d="M0,60L-12,0L4,0L8,18L12,0L36,0" style="fill:rgb(206,141,81);fill-rule:nonzero;"/>
                </g>
            </g>
        </g>
        <g transform="matrix(1.1385,-0.166151,0.166151,1.1385,-602.61,-1000.65)">
            <g transform="matrix(8.42638,-5.69573,-5.69573,-8.42638,1009.95,2117.11)">
                <rect x="-19.813" y="-1.351" width="15.401" height="66.043" style="fill:rgb(231,229,228);"/>
            </g>
            <g transform="matrix(8.42818,-5.69307,-5.69307,-8.42818,871.12,2165.04)">
                <rect x="-4.988" y="2.649" width="13.641" height="13.649" style="fill:rgb(196,47,65);"/>
            </g>
            <g transform="matrix(8.42691,-5.69495,-5.69495,-8.42691,788.196,2042.33)">
                <rect x="-4.99" y="2.651" width="13.646" height="13.645" style="fill:rgb(181,29,35);"/>
            </g>
            <g transform="matrix(8.42563,-5.69684,-5.69684,-8.42563,705.311,1919.6)">
                <rect x="-4.993" y="2.65" width="13.648" height="13.646" style="fill:rgb(128,25,30);"/>
            </g>
            <g transform="matrix(8.42668,-5.69529,-5.69529,-8.42668,622.334,1796.91)">
                <rect x="-4.991" y="2.651" width="13.646" height="13.648" style="fill:rgb(45,3,4);"/>
            </g>
            <g transform="matrix(9.80569,-2.70069,-2.70069,-9.80569,921.661,2209)">
                <rect x="-9.045" y="0.859" width="15.396" height="66.044" style="fill:rgb(231,229,228);"/>
            </g>
            <g transform="matrix(9.80558,-2.70108,-2.70108,-9.80558,842.759,2156.56)">
                <rect x="-2.057" y="1.567" width="13.642" height="13.648" style="fill:rgb(243,172,169);"/>
            </g>
            <g transform="matrix(9.80525,-2.70228,-2.70228,-9.80525,803.41,2013.78)">
                <rect x="-2.058" y="1.568" width="13.646" height="13.647" style="fill:rgb(237,128,123);"/>
            </g>
            <g transform="matrix(9.80553,-2.70127,-2.70127,-9.80553,764.076,1870.98)">
                <rect x="-2.057" y="1.567" width="13.644" height="13.648" style="fill:rgb(233,87,78);"/>
            </g>
            <g transform="matrix(9.80544,-2.70158,-2.70158,-9.80544,724.718,1728.19)">
                <rect x="-2.057" y="1.568" width="13.645" height="13.647" style="fill:rgb(230,44,16);"/>
            </g>
            <g transform="matrix(10.1641,0.369064,0.369064,-10.1641,803.221,2199.91)">
                <rect x="1.193" y="-0.301" width="15.388" height="66.042" style="fill:rgb(231,229,228);"/>
            </g>
            <g transform="matrix(10.1642,0.365245,0.365245,-10.1642,824.651,2122.46)">
                <rect x="0.241" y="-0.249" width="13.648" height="13.645" style="fill:rgb(249,209,158);"/>
            </g>
            <g transform="matrix(10.1642,0.365963,0.365963,-10.1642,830.001,1974.45)">
                <rect x="0.241" y="-0.25" width="13.645" height="13.647" style="fill:rgb(247,185,107);"/>
            </g>
            <g transform="matrix(10.1642,0.367397,0.367397,-10.1642,835.306,1826.39)">
                <rect x="0.242" y="-0.251" width="13.645" height="13.648" style="fill:rgb(244,162,54);"/>
            </g>
            <g transform="matrix(10.1642,0.365245,0.365245,-10.1642,840.672,1678.42)">
                <rect x="0.241" y="-0.249" width="13.646" height="13.648" style="fill:rgb(240,141,0);"/>
            </g>
            <g transform="matrix(9.67709,3.13038,3.13038,-9.67709,728.323,2112.27)">
                <rect x="9.79" y="-3.974" width="15.408" height="66.041" style="fill:rgb(231,229,228);"/>
            </g>
            <g transform="matrix(9.67631,3.13276,3.13276,-9.67631,833.86,2080.11)">
                <rect x="1.77" y="-2.433" width="13.642" height="13.646" style="fill:rgb(144,208,208);"/>
            </g>
            <g transform="matrix(9.67639,3.13255,3.13255,-9.67639,879.441,1939.2)">
                <rect x="1.77" y="-2.433" width="13.646" height="13.646" style="fill:rgb(92,191,185);"/>
            </g>
            <g transform="matrix(9.67725,3.12987,3.12987,-9.67725,925.021,1798.31)">
                <rect x="1.768" y="-2.431" width="13.65" height="13.645" style="fill:rgb(0,175,170);"/>
            </g>
            <g transform="matrix(9.6766,3.13187,3.13187,-9.6766,970.641,1657.35)">
                <rect x="1.769" y="-2.433" width="13.647" height="13.646" style="fill:rgb(0,161,149);"/>
            </g>
            <g transform="matrix(8.38036,5.76323,5.76323,-8.38036,720.84,1969.62)">
                <rect x="17.355" y="-10.178" width="15.407" height="66.04" style="fill:rgb(231,229,228);"/>
            </g>
            <g transform="matrix(8.37986,5.76395,5.76395,-8.37986,866.447,2037.27)">
                <rect x="2.665" y="-5.069" width="13.648" height="13.648" style="fill:rgb(156,195,225);"/>
            </g>
            <g transform="matrix(8.3801,5.7636,5.7636,-8.3801,950.397,1915.26)">
                <rect x="2.665" y="-5.069" width="13.649" height="13.646" style="fill:rgb(108,164,210);"/>
            </g>
            <g transform="matrix(8.38102,5.76228,5.76228,-8.38102,1034.33,1793.26)">
                <rect x="2.665" y="-5.066" width="13.648" height="13.645" style="fill:rgb(41,133,194);"/>
            </g>
            <g transform="matrix(8.38008,5.76364,5.76364,-8.38008,1118.29,1671.19)">
                <rect x="2.665" y="-5.068" width="13.646" height="13.647" style="fill:rgb(0,105,180);"/>
            </g>
            <g transform="matrix(-10.1623,0.414636,0.414636,10.1623,893.503,2175.21)">
                <path d="M0.057,-2.7C-0.69,-2.699 -1.292,-2.097 -1.291,-1.353C-1.294,-0.606 -0.691,-0.002 0.057,-0.002C0.8,0 1.404,-0.605 1.403,-1.349C1.406,-2.096 0.803,-2.701 0.057,-2.7" style="fill:rgb(80,80,84);"/>
            </g>
            <g transform="matrix(10.1708,0,0,10.1708,892.143,2284.88)">
                <path d="M0,-12.712C0.307,-12.728 0.57,-12.486 0.581,-12.18L1.059,-0.579C1.069,-0.273 0.827,-0.01 0.521,0.004C0.214,0.016 -0.05,-0.227 -0.062,-0.531L-0.539,-12.133C-0.551,-12.439 -0.308,-12.7 0,-12.712" style="fill:rgb(185,186,188);"/>
            </g>
        </g>
        <g transform="matrix(2.95749,0,0,2.95749,-430.579,-62.068)">
            <g transform="matrix(1,0,0,1,688.778,563.565)">
                <path d="M0,-42.582L-17.405,-42.582L-26.488,-35.75L-26.488,-5.76C-26.488,-2.578 -23.909,0 -20.729,0L3.323,0C6.504,0 9.083,-2.578 9.083,-5.76L9.083,-35.75L0,-42.582Z" style="fill:rgb(233,87,78);fill-rule:nonzero;"/>
            </g>
            <g transform="matrix(1,0,0,1,-59.9264,-7.69031)">
                <g opacity="0.2">
                    <g transform="matrix(-1,0,0,1,1470.22,306.762)">
                        <rect x="730.216" y="236.744" width="9.788" height="19.75" style="fill:white;stroke:white;stroke-width:3.38px;"/>
                    </g>
                </g>
            </g>
            <g transform="matrix(-1,0,0,1,1420.08,236.99)">
                <rect x="727.279" y="271.326" width="25.446" height="12.668" style="fill:rgb(198,198,197);"/>
            </g>
        </g>
    </g>
</svg>
