<?xml version="1.0" encoding="UTF-8" standalone="no"?>
<!DOCTYPE svg PUBLIC "-//W3C//DTD SVG 1.1//EN" "http://www.w3.org/Graphics/SVG/1.1/DTD/svg11.dtd">
<svg width="100%" height="100%" viewBox="0 0 417 361" version="1.1" xmlns="http://www.w3.org/2000/svg" xmlns:xlink="http://www.w3.org/1999/xlink" xml:space="preserve" xmlns:serif="http://www.serif.com/" style="fill-rule:evenodd;clip-rule:evenodd;stroke-linecap:round;stroke-linejoin:round;stroke-miterlimit:10;">
    <g id="OBJECTS" transform="matrix(1,0,0,1,-64.2224,-95.1481)">
        <g transform="matrix(1,0,0,1,170.003,363.001)">
            <path d="M0,67.3C0.694,70.044 -0.971,72.838 -3.715,73.532C-6.458,74.227 -9.252,72.561 -9.946,69.818C-10.641,67.073 -8.975,64.279 -6.232,63.585C-3.488,62.892 -0.694,64.557 0,67.3M264.225,13.701L256.105,-18.387L-28.358,53.599L-20.238,85.687L264.225,13.701Z" style="fill:rgb(49,79,122);fill-rule:nonzero;"/>
        </g>
        <g transform="matrix(-0.245404,-0.969421,-0.969421,0.245404,226.352,285.467)">
            <rect x="-146.839" y="-179.13" width="7.404" height="293.429" style="fill:rgb(53,117,168);"/>
        </g>
        <g transform="matrix(1,0,0,1,162.327,442.623)">
            <path d="M0,10.498L-2.563,0.368C-2.699,-0.165 -3.246,-0.491 -3.778,-0.356C-4.312,-0.222 -4.638,0.325 -4.502,0.858L-1.939,10.989L0,10.498Z" style="fill:rgb(229,229,229);fill-rule:nonzero;"/>
        </g>
        <g transform="matrix(1,0,0,1,170.742,445.91)">
            <path d="M0,5.082L-1.214,0.283C-1.32,-0.134 -1.733,-0.38 -2.15,-0.274C-2.567,-0.169 -2.823,0.247 -2.717,0.664L-1.503,5.462L0,5.082Z" style="fill:rgb(229,229,229);fill-rule:nonzero;"/>
        </g>
        <g transform="matrix(1,0,0,1,179.379,443.725)">
            <path d="M0,5.082L-1.214,0.283C-1.32,-0.134 -1.732,-0.38 -2.15,-0.274C-2.566,-0.169 -2.822,0.246 -2.717,0.663L-1.502,5.462L0,5.082Z" style="fill:rgb(229,229,229);fill-rule:nonzero;"/>
        </g>
        <g transform="matrix(1,0,0,1,188.24,436.065)">
            <path d="M0,10.5L-2.563,0.369C-2.699,-0.164 -3.245,-0.49 -3.778,-0.355C-4.321,-0.218 -4.637,0.326 -4.502,0.859L-1.939,10.99L0,10.5Z" style="fill:rgb(229,229,229);fill-rule:nonzero;"/>
        </g>
        <g transform="matrix(1,0,0,1,196.655,439.356)">
            <path d="M0,5.079L-1.214,0.28C-1.32,-0.137 -1.743,-0.38 -2.16,-0.275C-2.567,-0.172 -2.823,0.244 -2.717,0.661L-1.503,5.459L0,5.079Z" style="fill:rgb(229,229,229);fill-rule:nonzero;"/>
        </g>
        <g transform="matrix(1,0,0,1,205.292,437.17)">
            <path d="M0,5.079L-1.214,0.28C-1.32,-0.137 -1.743,-0.38 -2.159,-0.275C-2.566,-0.172 -2.822,0.243 -2.717,0.66L-1.502,5.459L0,5.079Z" style="fill:rgb(229,229,229);fill-rule:nonzero;"/>
        </g>
        <g transform="matrix(1,0,0,1,214.144,429.511)">
            <path d="M0,10.498L-2.564,0.367C-2.699,-0.166 -3.246,-0.491 -3.778,-0.356C-4.312,-0.222 -4.638,0.325 -4.502,0.858L-1.939,10.989L0,10.498Z" style="fill:rgb(229,229,229);fill-rule:nonzero;"/>
        </g>
        <g transform="matrix(1,0,0,1,222.559,432.796)">
            <path d="M0,5.084L-1.214,0.285C-1.32,-0.132 -1.733,-0.378 -2.15,-0.272C-2.566,-0.167 -2.813,0.246 -2.708,0.663L-1.493,5.462L0,5.084Z" style="fill:rgb(229,229,229);fill-rule:nonzero;"/>
        </g>
        <g transform="matrix(1,0,0,1,231.196,430.61)">
            <path d="M0,5.083L-1.214,0.285C-1.32,-0.132 -1.733,-0.378 -2.15,-0.272C-2.567,-0.167 -2.813,0.246 -2.708,0.662L-1.493,5.461L0,5.083Z" style="fill:rgb(229,229,229);fill-rule:nonzero;"/>
        </g>
        <g transform="matrix(1,0,0,1,240.057,422.953)">
            <path d="M0,10.498L-2.563,0.368C-2.699,-0.165 -3.246,-0.491 -3.778,-0.356C-4.312,-0.222 -4.638,0.325 -4.502,0.858L-1.939,10.989L0,10.498Z" style="fill:rgb(229,229,229);fill-rule:nonzero;"/>
        </g>
        <g transform="matrix(1,0,0,1,248.472,426.243)">
            <path d="M0,5.079L-1.214,0.28C-1.32,-0.137 -1.743,-0.38 -2.15,-0.277C-2.566,-0.172 -2.822,0.244 -2.717,0.66L-1.502,5.459L0,5.079Z" style="fill:rgb(229,229,229);fill-rule:nonzero;"/>
        </g>
        <g transform="matrix(1,0,0,1,257.109,424.057)">
            <path d="M0,5.08L-1.214,0.281C-1.319,-0.136 -1.742,-0.38 -2.149,-0.276C-2.566,-0.171 -2.822,0.244 -2.717,0.661L-1.503,5.46L0,5.08Z" style="fill:rgb(229,229,229);fill-rule:nonzero;"/>
        </g>
        <g transform="matrix(1,0,0,1,265.96,416.394)">
            <path d="M0,10.502L-2.563,0.371C-2.698,-0.162 -3.235,-0.49 -3.778,-0.352C-4.312,-0.218 -4.637,0.329 -4.502,0.862L-1.938,10.992L0,10.502Z" style="fill:rgb(229,229,229);fill-rule:nonzero;"/>
        </g>
        <g transform="matrix(1,0,0,1,274.385,419.686)">
            <path d="M0,5.079L-1.215,0.28C-1.32,-0.137 -1.742,-0.38 -2.159,-0.275C-2.566,-0.172 -2.822,0.244 -2.717,0.66L-1.503,5.459L0,5.079Z" style="fill:rgb(229,229,229);fill-rule:nonzero;"/>
        </g>
        <g transform="matrix(1,0,0,1,283.022,417.499)">
            <path d="M0,5.08L-1.214,0.281C-1.319,-0.136 -1.742,-0.38 -2.159,-0.274C-2.576,-0.169 -2.822,0.244 -2.717,0.661L-1.502,5.46L0,5.08Z" style="fill:rgb(229,229,229);fill-rule:nonzero;"/>
        </g>
        <g transform="matrix(1,0,0,1,291.873,409.841)">
            <path d="M0,10.498L-2.563,0.367C-2.698,-0.166 -3.244,-0.491 -3.778,-0.356C-4.311,-0.222 -4.637,0.325 -4.502,0.858L-1.938,10.989L0,10.498Z" style="fill:rgb(229,229,229);fill-rule:nonzero;"/>
        </g>
        <g transform="matrix(1,0,0,1,300.288,413.128)">
            <path d="M0,5.082L-1.214,0.283C-1.319,-0.134 -1.732,-0.38 -2.149,-0.274C-2.566,-0.169 -2.822,0.246 -2.717,0.663L-1.503,5.462L0,5.082Z" style="fill:rgb(229,229,229);fill-rule:nonzero;"/>
        </g>
        <g transform="matrix(1,0,0,1,308.926,410.942)">
            <path d="M0,5.081L-1.215,0.282C-1.32,-0.134 -1.732,-0.381 -2.149,-0.275C-2.566,-0.17 -2.822,0.246 -2.717,0.663L-1.503,5.462L0,5.081Z" style="fill:rgb(229,229,229);fill-rule:nonzero;"/>
        </g>
        <g transform="matrix(1,0,0,1,317.786,403.283)">
            <path d="M0,10.498L-2.563,0.367C-2.698,-0.166 -3.244,-0.491 -3.778,-0.356C-4.321,-0.219 -4.637,0.325 -4.502,0.858L-1.938,10.989L0,10.498Z" style="fill:rgb(229,229,229);fill-rule:nonzero;"/>
        </g>
        <g transform="matrix(1,0,0,1,326.201,406.572)">
            <path d="M0,5.08L-1.214,0.281C-1.319,-0.136 -1.742,-0.38 -2.149,-0.276C-2.566,-0.171 -2.822,0.244 -2.717,0.661L-1.502,5.46L0,5.08Z" style="fill:rgb(229,229,229);fill-rule:nonzero;"/>
        </g>
        <g transform="matrix(1,0,0,1,334.84,404.388)">
            <path d="M0,5.078L-1.215,0.279C-1.32,-0.137 -1.743,-0.381 -2.16,-0.276C-2.567,-0.172 -2.823,0.243 -2.718,0.66L-1.503,5.459L0,5.078Z" style="fill:rgb(229,229,229);fill-rule:nonzero;"/>
        </g>
        <g transform="matrix(1,0,0,1,343.69,396.725)">
            <path d="M0,10.502L-2.563,0.371C-2.699,-0.162 -3.235,-0.49 -3.778,-0.352C-4.312,-0.218 -4.638,0.328 -4.503,0.861L-1.939,10.992L0,10.502Z" style="fill:rgb(229,229,229);fill-rule:nonzero;"/>
        </g>
        <g transform="matrix(1,0,0,1,352.114,400.015)">
            <path d="M0,5.08L-1.214,0.281C-1.319,-0.136 -1.742,-0.38 -2.159,-0.274C-2.576,-0.169 -2.822,0.245 -2.717,0.661L-1.503,5.46L0,5.08Z" style="fill:rgb(229,229,229);fill-rule:nonzero;"/>
        </g>
        <g transform="matrix(1,0,0,1,360.742,397.827)">
            <path d="M0,5.084L-1.214,0.285C-1.319,-0.132 -1.732,-0.378 -2.149,-0.272C-2.566,-0.167 -2.813,0.246 -2.707,0.663L-1.492,5.462L0,5.084Z" style="fill:rgb(229,229,229);fill-rule:nonzero;"/>
        </g>
        <g transform="matrix(1,0,0,1,369.603,390.17)">
            <path d="M0,10.499L-2.563,0.368C-2.698,-0.165 -3.245,-0.49 -3.778,-0.355C-4.312,-0.221 -4.638,0.326 -4.503,0.859L-1.939,10.989L0,10.499Z" style="fill:rgb(229,229,229);fill-rule:nonzero;"/>
        </g>
        <g transform="matrix(1,0,0,1,378.019,393.459)">
            <path d="M0,5.08L-1.215,0.282C-1.32,-0.135 -1.733,-0.381 -2.15,-0.275C-2.567,-0.17 -2.823,0.245 -2.718,0.662L-1.503,5.461L0,5.08Z" style="fill:rgb(229,229,229);fill-rule:nonzero;"/>
        </g>
        <g transform="matrix(1,0,0,1,386.655,391.274)">
            <path d="M0,5.079L-1.214,0.28C-1.319,-0.136 -1.742,-0.38 -2.149,-0.277C-2.565,-0.172 -2.822,0.244 -2.717,0.661L-1.502,5.459L0,5.079Z" style="fill:rgb(229,229,229);fill-rule:nonzero;"/>
        </g>
        <g transform="matrix(1,0,0,1,395.517,383.612)">
            <path d="M0,10.499L-2.563,0.368C-2.698,-0.165 -3.245,-0.49 -3.778,-0.355C-4.321,-0.219 -4.638,0.326 -4.503,0.859L-1.938,10.989L0,10.499Z" style="fill:rgb(229,229,229);fill-rule:nonzero;"/>
        </g>
        <g transform="matrix(1,0,0,1,403.931,386.902)">
            <path d="M0,5.08L-1.214,0.281C-1.319,-0.136 -1.742,-0.38 -2.159,-0.274C-2.566,-0.171 -2.822,0.244 -2.717,0.661L-1.502,5.46L0,5.08Z" style="fill:rgb(229,229,229);fill-rule:nonzero;"/>
        </g>
        <g transform="matrix(1,0,0,1,412.569,384.718)">
            <path d="M0,5.078L-1.215,0.279C-1.32,-0.137 -1.742,-0.381 -2.16,-0.276C-2.577,-0.17 -2.822,0.243 -2.717,0.66L-1.503,5.459L0,5.078Z" style="fill:rgb(229,229,229);fill-rule:nonzero;"/>
        </g>
        <g transform="matrix(1,0,0,1,421.42,377.057)">
            <path d="M0,10.5L-2.563,0.369C-2.698,-0.164 -3.245,-0.49 -3.778,-0.354C-4.312,-0.22 -4.638,0.326 -4.503,0.859L-1.939,10.99L0,10.5Z" style="fill:rgb(229,229,229);fill-rule:nonzero;"/>
        </g>
        <g transform="matrix(0.927049,-0.374941,-0.374941,-0.927049,242.105,161.499)">
            <rect x="6.244" y="-32.091" width="112.73" height="55.24" style="fill:white;"/>
        </g>
        <g transform="matrix(0.927051,-0.374935,-0.374935,-0.927051,331.439,137.846)">
            <rect x="2.481" y="-12.75" width="16.43" height="16.43" style="fill:rgb(178,209,250);"/>
        </g>
        <g transform="matrix(0.927051,-0.374935,-0.374935,-0.927051,323.056,117.119)">
            <rect x="2.481" y="-12.75" width="16.43" height="16.43" style="fill:rgb(167,197,235);"/>
        </g>
        <g transform="matrix(0.927021,-0.375008,-0.375008,-0.927021,311.931,145.736)">
            <rect x="2.481" y="-12.751" width="16.428" height="16.431" style="fill:rgb(126,166,215);"/>
        </g>
        <g transform="matrix(0.927043,-0.374956,-0.374956,-0.927043,303.548,125.009)">
            <rect x="2.481" y="-12.751" width="16.43" height="16.43" style="fill:rgb(105,138,179);"/>
        </g>
        <g transform="matrix(0.927051,-0.374935,-0.374935,-0.927051,292.423,153.625)">
            <rect x="2.481" y="-12.75" width="16.43" height="16.43" style="fill:rgb(49,79,122);"/>
        </g>
        <g transform="matrix(0.927051,-0.374935,-0.374935,-0.927051,284.04,132.899)">
            <rect x="2.481" y="-12.75" width="16.43" height="16.43" style="fill:rgb(250,141,52);"/>
        </g>
        <g transform="matrix(0.92703,-0.374987,-0.374987,-0.92703,272.915,161.516)">
            <rect x="2.481" y="-12.751" width="16.43" height="16.431" style="fill:rgb(250,196,116);"/>
        </g>
        <g transform="matrix(0.927051,-0.374935,-0.374935,-0.927051,264.532,140.788)">
            <rect x="2.481" y="-12.75" width="16.43" height="16.43" style="fill:rgb(250,180,78);"/>
        </g>
        <g transform="matrix(1,0,0,1,67.2891,150.439)">
            <path d="M0,7.786C0.919,7.787 1.727,6.227 2.668,5.941L0.994,-0.001C0.725,0.081 0.494,0.287 0.444,0.58L-0.733,7.46C-0.51,7.65 -0.272,7.786 0,7.786" style="fill:rgb(137,181,235);fill-rule:nonzero;"/>
        </g>
        <g transform="matrix(1,0,0,1,69.979,151.014)">
            <path d="M0,5.357C0.951,5.089 2.473,6.02 3.262,5.535C3.488,5.396 3.62,5.165 3.711,4.896L-0.881,-0.378C-1.087,-0.614 -1.413,-0.663 -1.696,-0.576L-0.021,5.367C-0.014,5.364 -0.007,5.359 0,5.357" style="fill:rgb(98,153,222);fill-rule:nonzero;"/>
        </g>
        <g transform="matrix(0.962536,-0.271153,-0.271153,-0.962536,142.572,327.003)">
            <path d="M-23.624,-1.89L-14.105,-1.89L-14.11,171.105C-17.227,169.981 -20.455,169.455 -23.628,169.458L-23.624,-1.89Z" style="fill:rgb(98,153,222);fill-rule:nonzero;"/>
        </g>
        <g transform="matrix(0.271178,0.962529,0.962529,-0.271178,164.375,204.619)">
            <path d="M-59.237,-87.317L113.775,-87.317L113.776,-77.798L-57.573,-77.799C-57.577,-81.09 -58.151,-84.324 -59.237,-87.317" style="fill:rgb(137,181,235);fill-rule:nonzero;"/>
        </g>
        <g transform="matrix(1,0,0,1,82.5825,166.132)">
            <path d="M0,-0.012L0.012,0.002L0.007,-0.014L0,-0.012Z" style="fill:rgb(81,57,93);fill-rule:nonzero;"/>
        </g>
        <g transform="matrix(1,0,0,1,73.8794,157.594)">
            <path d="M0,12.707L-3.922,-1.213C-4.863,-0.928 -5.671,0.633 -6.59,0.631C-6.863,0.631 -7.1,0.496 -7.324,0.305L-9.613,13.687C-6.438,13.92 -3.169,13.596 0,12.707" style="fill:rgb(249,234,209);fill-rule:nonzero;"/>
        </g>
        <g transform="matrix(1,0,0,1,82.5825,160.09)">
            <path d="M0,6.03L-8.893,-4.181C-8.983,-3.911 -9.115,-3.68 -9.341,-3.542C-10.13,-3.057 -11.653,-3.987 -12.604,-3.72C-12.604,-3.72 -12.618,-3.712 -12.625,-3.71L-8.703,10.211C-5.646,9.354 -2.683,7.971 0.012,6.044L0,6.03Z" style="fill:rgb(254,228,175);fill-rule:nonzero;"/>
        </g>
        <g transform="matrix(1,0,0,1,82.5825,166.134)">
            <path d="M0,-0.014L0.012,0L0,-0.014Z" style="fill:rgb(180,159,193);fill-rule:nonzero;"/>
        </g>
        <g transform="matrix(-0.995313,-0.0967106,-0.0967106,0.995313,140.469,118.84)">
            <rect x="-317.274" y="15.378" width="329.89" height="244.948" style="fill:rgb(229,229,229);"/>
        </g>
        <g transform="matrix(-1,0,0,1,511.78,52.46)">
            <rect x="90.944" y="101.296" width="329.892" height="244.948" style="fill:white;"/>
        </g>
        <g transform="matrix(-0.0757554,0.997126,0.997126,0.0757554,266.688,334.023)">
            <path d="M15.185,-32.305L33.467,-32.305L29.839,15.456L11.766,12.694L15.185,-32.305Z" style="fill:rgb(229,229,229);fill-rule:nonzero;"/>
        </g>
        <g transform="matrix(-1,0,0,1,234.085,346.717)">
            <path d="M-43.609,-10.008L0,-10.008L0.76,0L-44.369,0L-43.609,-10.008Z" style="fill:rgb(178,178,178);fill-rule:nonzero;"/>
        </g>
        <g transform="matrix(1,0,0,1,291.903,363.339)">
            <path d="M0,7.863L-72.026,7.863L-72.026,3.013C-72.026,1.348 -70.677,0 -69.013,0L-3.014,0C-1.35,0 0,1.348 0,3.013L0,7.863Z" style="fill:rgb(203,203,203);fill-rule:nonzero;"/>
        </g>
        <g transform="matrix(1,0,0,1,361.842,320.266)">
            <path d="M0,-133.686L-211.904,-133.686C-215.475,-133.686 -218.369,-130.791 -218.369,-127.22L-218.369,0L6.466,0L6.466,-91.507L6.466,-127.22C6.466,-130.791 3.571,-133.686 0,-133.686" style="fill:rgb(49,79,122);fill-rule:nonzero;"/>
        </g>
        <g transform="matrix(1,0,0,1,254.996,320.265)">
            <path d="M0,21.805L106.846,21.805C110.417,21.805 113.312,18.91 113.312,15.339L113.312,0L21.805,0L0,21.805Z" style="fill:rgb(203,203,203);fill-rule:nonzero;"/>
        </g>
        <g transform="matrix(1,0,0,1,143.473,342.071)">
            <path d="M0,-21.805L0,-6.466C0,-2.895 2.895,0 6.465,0L111.523,0L133.328,-21.805L0,-21.805Z" style="fill:rgb(229,229,229);fill-rule:nonzero;"/>
        </g>
        <g transform="matrix(-0.707107,0.707107,0.707107,0.707107,331.929,168.567)">
            <path d="M90.415,-53.816L113.558,-53.816L10.72,49.023L-0.852,37.451L90.415,-53.816Z" style="fill:rgb(137,181,235);fill-rule:nonzero;"/>
        </g>
        <g transform="matrix(0,1,1,0,170.477,252.885)">
            <path d="M20.163,-19.138L58.438,-19.138L58.438,20.163L-19.138,20.163L20.163,-19.138Z" style="fill:rgb(178,209,250);fill-rule:nonzero;"/>
        </g>
        <g transform="matrix(1,0,0,1,190.641,288.388)">
            <path d="M0,-54.64L0,22.937L168.373,22.937L168.373,-77.577L22.937,-77.577L0,-54.64Z" style="fill:rgb(250,196,116);fill-rule:nonzero;"/>
        </g>
        <g transform="matrix(0.707107,-0.707107,-0.707107,-0.707107,218.401,206.091)">
            <path d="M-6.748,0.073L16.395,0.073L-11.395,27.864L-22.967,16.292L-6.748,0.073Z" style="fill:rgb(126,166,215);fill-rule:nonzero;"/>
        </g>
        <g transform="matrix(-1,0,0,1,341.981,-94.743)">
            <rect x="151.34" y="289.189" width="39.301" height="16.365" style="fill:rgb(126,166,215);"/>
        </g>
        <g transform="matrix(-1,0,0,1,151.34,273.049)">
            <path d="M-39.301,-62.238L0,-62.238L0,0L-39.301,-39.301L-39.301,-62.238Z" style="fill:rgb(167,197,235);fill-rule:nonzero;"/>
        </g>
        <g transform="matrix(1,0,0,1,190.641,210.811)">
            <path d="M0,22.937L22.937,0L0,0L0,22.937Z" style="fill:rgb(250,180,78);fill-rule:nonzero;"/>
        </g>
        <g transform="matrix(-1,0,0,1,340.194,-60.109)">
            <rect x="156.972" y="276.463" width="26.25" height="7.183" style="fill:rgb(49,79,122);"/>
        </g>
        <g transform="matrix(-1,0,0,1,423.944,-60.109)">
            <rect x="198.847" y="276.463" width="26.25" height="7.183" style="fill:rgb(250,141,52);"/>
        </g>
        <g transform="matrix(-1,0,0,1,507.694,-60.109)">
            <rect x="240.722" y="276.463" width="26.25" height="7.183" style="fill:rgb(250,141,52);"/>
        </g>
        <g transform="matrix(-1,0,0,1,591.442,-60.109)">
            <rect x="282.596" y="276.463" width="26.25" height="7.183" style="fill:rgb(250,141,52);"/>
        </g>
        <g transform="matrix(-1,0,0,1,675.192,-60.109)">
            <rect x="324.471" y="276.463" width="26.25" height="7.183" style="fill:rgb(250,141,52);"/>
        </g>
        <g transform="matrix(-1,0,0,1,549.568,40.567)">
            <rect x="198.847" y="188.676" width="151.874" height="82.081" style="fill:white;"/>
        </g>
        <g transform="matrix(-1,0,0,1,408.861,-95.459)">
            <rect x="156.972" y="294.063" width="94.917" height="7.333" style="fill:rgb(105,138,179);"/>
        </g>
        <g transform="matrix(-1,0,0,1,626.185,42.542)">
            <rect x="286.296" y="196.729" width="53.593" height="64" style="fill:rgb(105,138,179);"/>
        </g>
        <g transform="matrix(-1,0,0,1,340.194,-18.958)">
            <rect x="156.972" y="258.229" width="26.25" height="2.5" style="fill:rgb(105,138,179);"/>
        </g>
        <g transform="matrix(-1,0,0,1,340.194,-9.292)">
            <rect x="156.972" y="253.396" width="26.25" height="2.5" style="fill:rgb(105,138,179);"/>
        </g>
        <g transform="matrix(-1,0,0,1,340.194,0.376)">
            <rect x="156.972" y="248.562" width="26.25" height="2.5" style="fill:rgb(105,138,179);"/>
        </g>
        <g transform="matrix(-1,0,0,1,340.194,10.042)">
            <rect x="156.972" y="243.729" width="26.25" height="2.5" style="fill:rgb(105,138,179);"/>
        </g>
        <g transform="matrix(-1,0,0,1,340.194,19.708)">
            <rect x="156.972" y="238.896" width="26.25" height="2.5" style="fill:rgb(105,138,179);"/>
        </g>
        <g transform="matrix(-1,0,0,1,340.194,29.376)">
            <rect x="156.972" y="234.062" width="26.25" height="2.5" style="fill:rgb(105,138,179);"/>
        </g>
        <g transform="matrix(-1,0,0,1,340.194,39.042)">
            <rect x="156.972" y="229.229" width="26.25" height="2.5" style="fill:rgb(105,138,179);"/>
        </g>
        <g transform="matrix(-1,0,0,1,340.194,48.708)">
            <rect x="156.972" y="224.396" width="26.25" height="2.5" style="fill:rgb(105,138,179);"/>
        </g>
        <g transform="matrix(-1,0,0,1,340.194,58.376)">
            <rect x="156.972" y="219.562" width="26.25" height="2.5" style="fill:rgb(105,138,179);"/>
        </g>
        <g transform="matrix(-1,0,0,1,340.194,68.042)">
            <rect x="156.972" y="214.729" width="26.25" height="2.5" style="fill:rgb(105,138,179);"/>
        </g>
        <g transform="matrix(-1,0,0,1,340.194,77.708)">
            <rect x="156.972" y="209.896" width="26.25" height="2.5" style="fill:rgb(105,138,179);"/>
        </g>
        <g transform="matrix(-1,0,0,1,329.744,87.376)">
            <rect x="156.972" y="205.062" width="15.8" height="2.5" style="fill:rgb(105,138,179);"/>
        </g>
        <g transform="matrix(-1,0,0,1,648.148,-3.623)">
            <rect x="313.092" y="250.06" width="21.964" height="3.503" style="fill:rgb(49,79,122);"/>
        </g>
        <g transform="matrix(-1,0,0,1,648.148,6.847)">
            <rect x="313.092" y="244.825" width="21.964" height="3.503" style="fill:rgb(49,79,122);"/>
        </g>
        <g transform="matrix(-1,0,0,1,640.325,17.315)">
            <rect x="313.091" y="239.591" width="14.143" height="3.503" style="fill:rgb(49,79,122);"/>
        </g>
        <g transform="matrix(-1,0,0,1,603.777,40.567)">
            <rect x="291.348" y="228.71" width="21.081" height="2.013" style="fill:rgb(87,119,158);"/>
        </g>
        <g transform="matrix(-1,0,0,1,651.401,40.567)">
            <rect x="315.16" y="228.71" width="21.081" height="2.013" style="fill:rgb(87,119,158);"/>
        </g>
        <g transform="matrix(-1,0,0,1,603.777,47.443)">
            <rect x="291.348" y="225.272" width="21.081" height="2.013" style="fill:rgb(87,119,158);"/>
        </g>
        <g transform="matrix(-1,0,0,1,651.401,47.443)">
            <rect x="315.16" y="225.272" width="21.081" height="2.013" style="fill:rgb(87,119,158);"/>
        </g>
        <g transform="matrix(-1,0,0,1,603.777,54.317)">
            <rect x="291.348" y="221.835" width="21.081" height="2.013" style="fill:rgb(87,119,158);"/>
        </g>
        <g transform="matrix(-1,0,0,1,651.401,54.317)">
            <rect x="315.16" y="221.835" width="21.081" height="2.013" style="fill:rgb(87,119,158);"/>
        </g>
        <g transform="matrix(-1,0,0,1,603.777,61.193)">
            <rect x="291.348" y="218.397" width="21.081" height="2.013" style="fill:rgb(87,119,158);"/>
        </g>
        <g transform="matrix(-1,0,0,1,651.401,61.193)">
            <rect x="315.16" y="218.397" width="21.081" height="2.013" style="fill:rgb(87,119,158);"/>
        </g>
        <g transform="matrix(-1,0,0,1,603.777,68.067)">
            <rect x="291.348" y="214.96" width="21.081" height="2.013" style="fill:rgb(87,119,158);"/>
        </g>
        <g transform="matrix(-1,0,0,1,651.401,68.067)">
            <rect x="315.16" y="214.96" width="21.081" height="2.013" style="fill:rgb(87,119,158);"/>
        </g>
        <g transform="matrix(-1,0,0,1,603.777,74.943)">
            <rect x="291.348" y="211.522" width="21.081" height="2.013" style="fill:rgb(87,119,158);"/>
        </g>
        <g transform="matrix(-1,0,0,1,651.401,74.943)">
            <rect x="315.16" y="211.522" width="21.081" height="2.013" style="fill:rgb(87,119,158);"/>
        </g>
        <g transform="matrix(-1,0,0,1,603.777,81.817)">
            <rect x="291.348" y="208.085" width="21.081" height="2.013" style="fill:rgb(87,119,158);"/>
        </g>
        <g transform="matrix(-1,0,0,1,651.401,81.817)">
            <rect x="315.16" y="208.085" width="21.081" height="2.013" style="fill:rgb(87,119,158);"/>
        </g>
        <g transform="matrix(-1,0,0,1,599.094,88.693)">
            <rect x="291.348" y="204.647" width="16.398" height="2.013" style="fill:rgb(87,119,158);"/>
        </g>
        <g transform="matrix(-1,0,0,1,639.82,88.693)">
            <rect x="315.16" y="204.647" width="9.5" height="2.013" style="fill:rgb(87,119,158);"/>
        </g>
        <g transform="matrix(1,0,0,1,294.437,256.163)">
            <path d="M0,-8.858C-3.379,-5.479 -3.379,0 0,3.379L12.236,-8.858C8.857,-12.237 3.379,-12.237 0,-8.858" style="fill:rgb(137,181,235);fill-rule:nonzero;"/>
        </g>
        <g transform="matrix(1,0,0,1,306.674,262.921)">
            <path d="M0,-15.616L-12.236,-3.379C-8.857,0 -3.379,0 0,-3.38C3.379,-6.759 3.379,-12.237 0,-15.616" style="fill:rgb(121,164,217);fill-rule:nonzero;"/>
        </g>
        <g transform="matrix(-1,0,0,1,489.279,102.989)">
            <rect x="207.556" y="196.729" width="74.167" height="3.553" style="fill:rgb(250,180,78);"/>
        </g>
        <g transform="matrix(-1,0,0,1,448.276,-18.958)">
            <rect x="207.555" y="258.229" width="33.166" height="2.5" style="fill:rgb(250,196,116);"/>
        </g>
        <g transform="matrix(-1,0,0,1,524.338,-18.958)">
            <rect x="245.586" y="258.229" width="33.166" height="2.5" style="fill:rgb(250,196,116);"/>
        </g>
        <g transform="matrix(-1,0,0,1,448.276,-10.458)">
            <rect x="207.555" y="253.979" width="33.166" height="2.5" style="fill:rgb(250,196,116);"/>
        </g>
        <g transform="matrix(-1,0,0,1,524.338,-10.458)">
            <rect x="245.586" y="253.979" width="33.166" height="2.5" style="fill:rgb(250,196,116);"/>
        </g>
        <g transform="matrix(-1,0,0,1,448.276,-1.958)">
            <rect x="207.555" y="249.729" width="33.166" height="2.5" style="fill:rgb(250,196,116);"/>
        </g>
        <g transform="matrix(-1,0,0,1,524.338,-1.958)">
            <rect x="245.586" y="249.729" width="33.166" height="2.5" style="fill:rgb(250,196,116);"/>
        </g>
        <g transform="matrix(-1,0,0,1,448.276,6.542)">
            <rect x="207.555" y="245.479" width="33.166" height="2.5" style="fill:rgb(250,196,116);"/>
        </g>
        <g transform="matrix(-1,0,0,1,524.338,6.542)">
            <rect x="245.586" y="245.479" width="33.166" height="2.5" style="fill:rgb(250,196,116);"/>
        </g>
        <g transform="matrix(-1,0,0,1,448.276,15.042)">
            <rect x="207.555" y="241.229" width="33.166" height="2.5" style="fill:rgb(250,196,116);"/>
        </g>
        <g transform="matrix(-1,0,0,1,524.338,15.042)">
            <rect x="245.586" y="241.229" width="33.166" height="2.5" style="fill:rgb(250,196,116);"/>
        </g>
        <g transform="matrix(-1,0,0,1,448.276,23.542)">
            <rect x="207.555" y="236.979" width="33.166" height="2.5" style="fill:rgb(250,196,116);"/>
        </g>
        <g transform="matrix(-1,0,0,1,524.338,23.542)">
            <rect x="245.586" y="236.979" width="33.166" height="2.5" style="fill:rgb(250,196,116);"/>
        </g>
        <g transform="matrix(-1,0,0,1,448.276,32.042)">
            <rect x="207.555" y="232.729" width="33.166" height="2.5" style="fill:rgb(250,196,116);"/>
        </g>
        <g transform="matrix(-1,0,0,1,524.338,32.042)">
            <rect x="245.586" y="232.729" width="33.166" height="2.5" style="fill:rgb(250,196,116);"/>
        </g>
        <g transform="matrix(-1,0,0,1,448.276,40.542)">
            <rect x="207.555" y="228.479" width="33.166" height="2.5" style="fill:rgb(250,196,116);"/>
        </g>
        <g transform="matrix(-1,0,0,1,524.338,40.542)">
            <rect x="245.586" y="228.479" width="33.166" height="2.5" style="fill:rgb(250,196,116);"/>
        </g>
        <g transform="matrix(-1,0,0,1,448.276,49.044)">
            <rect x="207.555" y="224.228" width="33.166" height="2.5" style="fill:rgb(250,196,116);"/>
        </g>
        <g transform="matrix(-1,0,0,1,524.338,49.044)">
            <rect x="245.586" y="224.228" width="33.166" height="2.5" style="fill:rgb(250,196,116);"/>
        </g>
        <g transform="matrix(-1,0,0,1,448.276,57.544)">
            <rect x="207.555" y="219.978" width="33.166" height="2.5" style="fill:rgb(250,196,116);"/>
        </g>
        <g transform="matrix(-1,0,0,1,524.338,57.544)">
            <rect x="245.586" y="219.978" width="33.166" height="2.5" style="fill:rgb(250,196,116);"/>
        </g>
        <g transform="matrix(-1,0,0,1,448.276,66.044)">
            <rect x="207.555" y="215.728" width="33.166" height="2.5" style="fill:rgb(250,196,116);"/>
        </g>
        <g transform="matrix(-1,0,0,1,524.338,66.044)">
            <rect x="245.586" y="215.728" width="33.166" height="2.5" style="fill:rgb(250,196,116);"/>
        </g>
        <g transform="matrix(-1,0,0,1,448.276,74.544)">
            <rect x="207.555" y="211.478" width="33.166" height="2.5" style="fill:rgb(250,196,116);"/>
        </g>
        <g transform="matrix(-1,0,0,1,524.338,74.544)">
            <rect x="245.586" y="211.478" width="33.166" height="2.5" style="fill:rgb(250,196,116);"/>
        </g>
        <g transform="matrix(-1,0,0,1,434.79,83.044)">
            <rect x="207.555" y="207.228" width="19.68" height="2.5" style="fill:rgb(250,196,116);"/>
        </g>
        <g transform="matrix(-1,0,0,1,511.45,83.044)">
            <rect x="245.586" y="207.228" width="20.278" height="2.5" style="fill:rgb(250,196,116);"/>
        </g>
        <g transform="matrix(-0.981185,0.193067,0.193067,0.981185,325.177,255.607)">
            <path d="M-60.193,-18.572C-43.762,-2.141 -17.121,-2.141 -0.69,-18.572" style="fill:none;fill-rule:nonzero;stroke:rgb(237,88,69);stroke-width:5px;"/>
        </g>
        <g transform="matrix(0.19301,0.981197,0.981197,-0.19301,327.613,239.933)">
            <path d="M-4.923,-5.986L7.278,-5.986" style="fill:none;fill-rule:nonzero;stroke:rgb(237,88,69);stroke-width:5px;"/>
        </g>
        <g transform="matrix(0.981181,-0.193089,-0.193089,-0.981181,321.129,237.391)">
            <path d="M-0.115,1.178L12.087,1.178" style="fill:none;fill-rule:nonzero;stroke:rgb(237,88,69);stroke-width:5px;"/>
        </g>
        <g transform="matrix(0.999986,-0.00520984,-0.00520984,-0.999986,119.241,204.494)">
            <path d="M-0.043,0.155C16.389,16.587 43.029,16.586 59.46,0.155" style="fill:none;fill-rule:nonzero;stroke:rgb(237,88,69);stroke-width:5px;"/>
        </g>
        <g transform="matrix(-0.00516344,-0.999987,-0.999987,0.00516344,186.035,199.12)">
            <path d="M-6.132,6.1L6.069,6.1" style="fill:none;fill-rule:nonzero;stroke:rgb(237,88,69);stroke-width:5px;"/>
        </g>
        <g transform="matrix(-0.999987,0.00516344,0.00516344,0.999987,167.765,205.378)">
            <path d="M-12.201,-0.032L0,-0.032" style="fill:none;fill-rule:nonzero;stroke:rgb(237,88,69);stroke-width:5px;"/>
        </g>
        <g transform="matrix(0.707107,0.707107,0.707107,-0.707107,187.887,209.326)">
            <path d="M-1.485,-3.585L8.655,-3.585" style="fill:none;fill-rule:nonzero;stroke:rgb(237,88,69);stroke-width:5px;"/>
        </g>
        <g transform="matrix(-0.707107,0.707107,0.707107,0.707107,187.887,219.466)">
            <path d="M-8.655,-3.585L1.485,-3.585" style="fill:none;fill-rule:nonzero;stroke:rgb(237,88,69);stroke-width:5px;"/>
        </g>
        <g transform="matrix(0.707107,0.707107,0.707107,-0.707107,176.438,296.424)">
            <path d="M-1.485,-3.585L8.655,-3.585" style="fill:none;fill-rule:nonzero;stroke:rgb(237,88,69);stroke-width:5px;"/>
        </g>
        <g transform="matrix(-0.707107,0.707107,0.707107,0.707107,184.496,306.564)">
            <path d="M-8.655,-3.585L1.485,-3.585" style="fill:none;fill-rule:nonzero;stroke:rgb(237,88,69);stroke-width:5px;"/>
        </g>
        <g transform="matrix(0.707107,0.707107,0.707107,-0.707107,307.554,226.423)">
            <path d="M-1.485,-3.585L8.655,-3.585" style="fill:none;fill-rule:nonzero;stroke:rgb(237,88,69);stroke-width:5px;"/>
        </g>
        <g transform="matrix(-0.707107,0.707107,0.707107,0.707107,315.611,236.563)">
            <path d="M-8.655,-3.585L1.485,-3.585" style="fill:none;fill-rule:nonzero;stroke:rgb(237,88,69);stroke-width:5px;"/>
        </g>
        <g transform="matrix(1,0,0,1,128.831,215.496)">
            <path d="M0,4.449L-26.218,4.449C-27.446,4.449 -28.442,3.453 -28.442,2.224C-28.442,0.996 -27.446,0 -26.218,0L0,0C1.229,0 2.225,0.996 2.225,2.224C2.225,3.453 1.229,4.449 0,4.449" style="fill:rgb(237,88,69);fill-rule:nonzero;"/>
        </g>
        <g transform="matrix(1,0,0,1,128.831,223.538)">
            <path d="M0,4.449L-26.218,4.449C-27.446,4.449 -28.442,3.453 -28.442,2.225C-28.442,0.996 -27.446,0 -26.218,0L0,0C1.229,0 2.225,0.996 2.225,2.225C2.225,3.453 1.229,4.449 0,4.449" style="fill:rgb(237,88,69);fill-rule:nonzero;"/>
        </g>
        <g transform="matrix(1,0,0,1,128.831,231.58)">
            <path d="M0,4.449L-26.218,4.449C-27.446,4.449 -28.442,3.453 -28.442,2.224C-28.442,0.996 -27.446,0 -26.218,0L0,0C1.229,0 2.225,0.996 2.225,2.224C2.225,3.453 1.229,4.449 0,4.449" style="fill:rgb(237,88,69);fill-rule:nonzero;"/>
        </g>
        <g transform="matrix(1,0,0,1,119.319,239.621)">
            <path d="M0,4.449L-16.706,4.449C-17.935,4.449 -18.931,3.453 -18.931,2.225C-18.931,0.996 -17.935,0 -16.706,0L0,0C1.229,0 2.225,0.996 2.225,2.225C2.225,3.453 1.229,4.449 0,4.449" style="fill:rgb(237,88,69);fill-rule:nonzero;"/>
        </g>
        <g transform="matrix(1,0,0,1,404.831,188.341)">
            <path d="M0,4.449L-26.218,4.449C-27.446,4.449 -28.442,3.453 -28.442,2.224C-28.442,0.996 -27.446,0 -26.218,0L0,0C1.229,0 2.225,0.996 2.225,2.224C2.225,3.453 1.229,4.449 0,4.449" style="fill:rgb(237,88,69);fill-rule:nonzero;"/>
        </g>
        <g transform="matrix(1,0,0,1,404.831,196.383)">
            <path d="M0,4.449L-26.218,4.449C-27.446,4.449 -28.442,3.453 -28.442,2.224C-28.442,0.996 -27.446,0 -26.218,0L0,0C1.229,0 2.225,0.996 2.225,2.224C2.225,3.453 1.229,4.449 0,4.449" style="fill:rgb(237,88,69);fill-rule:nonzero;"/>
        </g>
        <g transform="matrix(1,0,0,1,404.831,204.425)">
            <path d="M0,4.449L-26.218,4.449C-27.446,4.449 -28.442,3.453 -28.442,2.224C-28.442,0.996 -27.446,0 -26.218,0L0,0C1.229,0 2.225,0.996 2.225,2.224C2.225,3.453 1.229,4.449 0,4.449" style="fill:rgb(237,88,69);fill-rule:nonzero;"/>
        </g>
        <g transform="matrix(1,0,0,1,395.319,212.467)">
            <path d="M0,4.449L-16.706,4.449C-17.935,4.449 -18.931,3.453 -18.931,2.224C-18.931,0.996 -17.935,0 -16.706,0L0,0C1.229,0 2.225,0.996 2.225,2.224C2.225,3.453 1.229,4.449 0,4.449" style="fill:rgb(237,88,69);fill-rule:nonzero;"/>
        </g>
        <g transform="matrix(-0.192272,-0.981342,-0.981342,0.192272,273.299,319.955)">
            <path d="M-43.202,22.835C-26.77,39.266 -0.13,39.267 16.302,22.835" style="fill:none;fill-rule:nonzero;stroke:rgb(237,88,69);stroke-width:5px;"/>
        </g>
        <g transform="matrix(-0.981342,0.192269,0.192269,0.981342,237.113,310.344)">
            <path d="M-12.088,-1.173L0.114,-1.173" style="fill:none;fill-rule:nonzero;stroke:rgb(237,88,69);stroke-width:5px;"/>
        </g>
        <g transform="matrix(0.192269,0.981342,0.981342,-0.192269,255.572,310.554)">
            <path d="M-4.928,-5.987L7.274,-5.987" style="fill:none;fill-rule:nonzero;stroke:rgb(237,88,69);stroke-width:5px;"/>
        </g>
        <g transform="matrix(1,0,0,1,320.678,366.577)">
            <path d="M0,4.448L-51.146,4.448C-52.375,4.448 -53.371,3.452 -53.371,2.224L-53.371,2.223C-53.371,0.996 -52.375,0 -51.146,0L0,0C1.229,0 2.225,0.996 2.225,2.223L2.225,2.224C2.225,3.452 1.229,4.448 0,4.448" style="fill:rgb(237,88,69);fill-rule:nonzero;"/>
        </g>
        <g transform="matrix(1,0,0,1,320.678,374.618)">
            <path d="M0,4.449L-51.146,4.449C-52.375,4.449 -53.371,3.453 -53.371,2.224C-53.371,0.996 -52.375,0 -51.146,0L0,0C1.229,0 2.225,0.996 2.225,2.224C2.225,3.453 1.229,4.449 0,4.449" style="fill:rgb(237,88,69);fill-rule:nonzero;"/>
        </g>
        <g transform="matrix(1,0,0,1,292.88,382.66)">
            <path d="M0,4.449L-23.349,4.449C-24.577,4.449 -25.573,3.453 -25.573,2.224C-25.573,0.996 -24.577,0 -23.349,0L0,0C1.229,0 2.225,0.996 2.225,2.224C2.225,3.453 1.229,4.449 0,4.449" style="fill:rgb(237,88,69);fill-rule:nonzero;"/>
        </g>
        <g transform="matrix(1,0,0,1,176.475,350.66)">
            <path d="M0,4.448L-65.362,4.448C-66.59,4.448 -67.586,3.453 -67.586,2.224C-67.586,0.996 -66.59,0 -65.362,0L0,0C1.229,0 2.224,0.996 2.224,2.224C2.224,3.453 1.229,4.448 0,4.448" style="fill:rgb(237,88,69);fill-rule:nonzero;"/>
        </g>
        <g transform="matrix(1,0,0,1,176.475,358.702)">
            <path d="M0,4.448L-65.362,4.448C-66.59,4.448 -67.586,3.452 -67.586,2.223C-67.586,0.995 -66.59,0 -65.362,0L0,0C1.229,0 2.224,0.995 2.224,2.223C2.224,3.452 1.229,4.448 0,4.448" style="fill:rgb(237,88,69);fill-rule:nonzero;"/>
        </g>
        <g transform="matrix(1,0,0,1,332.215,449.004)">
            <path d="M0,-26.678L-4.314,-23.929L-10.073,2.06C-10.037,2.038 -9.997,2.026 -9.962,2.004L10.122,-10.794C13.353,-12.853 14.304,-17.142 12.244,-20.373L9.579,-24.556C7.52,-27.787 3.231,-28.738 0,-26.678" style="fill:rgb(49,79,122);fill-rule:nonzero;"/>
        </g>
        <g transform="matrix(1,0,0,1,312.131,442.986)">
            <path d="M0,-7.862C-3.23,-5.803 -4.182,-1.514 -2.122,1.716L0.543,5.9C2.579,9.095 6.793,10.049 10.011,8.078L15.77,-17.911L0,-7.862Z" style="fill:rgb(53,117,168);fill-rule:nonzero;"/>
        </g>
        <g>
            <clipPath id="_clip1">
                <path d="M247.09,0.666L168.911,0.666L0,0.666L0,500L500,500L500,0.666L247.09,0.666Z" clip-rule="nonzero"/>
            </clipPath>
            <g clip-path="url(#_clip1)">
                <g transform="matrix(1,0,0,1,306.405,360.614)">
                    <path d="M0,1.725C-0.083,0.81 -1.712,0.149 -2.083,-0.761L-7.846,1.454C-7.738,1.713 -7.513,1.924 -7.217,1.948L-0.257,2.486C-0.088,2.246 0.024,1.996 0,1.725" style="fill:rgb(237,42,17);fill-rule:nonzero;"/>
                </g>
                <g transform="matrix(1,0,0,1,304.31,358.414)">
                    <path d="M0,1.418C-0.354,0.495 0.432,-1.106 -0.124,-1.848C-0.283,-2.06 -0.524,-2.17 -0.802,-2.235L-5.629,2.824C-5.845,3.05 -5.864,3.379 -5.751,3.653L0.012,1.439C0.009,1.431 0.003,1.425 0,1.418" style="fill:rgb(196,35,14);fill-rule:nonzero;"/>
                </g>
                <g transform="matrix(-0.358768,-0.933427,-0.933427,0.358768,341.194,251.96)">
                    <path d="M-87.483,-112.686L-77.965,-112.686L-77.962,60.31C-81.08,59.187 -84.307,58.659 -87.482,58.663L-87.483,-112.686Z" style="fill:rgb(196,35,14);fill-rule:nonzero;"/>
                </g>
                <g transform="matrix(0.933434,-0.35875,-0.35875,-0.933434,337.724,390.418)">
                    <path d="M-7.414,30.996L165.598,30.996L165.599,40.515L-5.75,40.513C-5.754,37.223 -6.329,33.989 -7.414,30.996" style="fill:rgb(237,42,17);fill-rule:nonzero;"/>
                </g>
                <g transform="matrix(1,0,0,1,312.857,346.369)">
                    <path d="M0,0.014L0.013,0L-0.003,0.007L0,0.014Z" style="fill:rgb(81,57,93);fill-rule:nonzero;"/>
                </g>
                <g transform="matrix(1,0,0,1,317.822,364.145)">
                    <path d="M0,-9.481L-13.5,-4.293C-13.129,-3.382 -11.5,-2.721 -11.417,-1.806C-11.393,-1.535 -11.505,-1.286 -11.674,-1.045L1.861,0C1.801,-3.182 1.178,-6.408 0,-9.481" style="fill:rgb(249,234,209);fill-rule:nonzero;"/>
                </g>
                <g transform="matrix(1,0,0,1,312.857,359.839)">
                    <path d="M0,-13.456L-9.349,-3.66C-9.071,-3.595 -8.83,-3.484 -8.671,-3.272C-8.115,-2.531 -8.901,-0.93 -8.547,-0.007C-8.547,-0.007 -8.538,0.006 -8.535,0.014L4.965,-5.175C3.829,-8.14 2.18,-10.963 0.013,-13.47L0,-13.456Z" style="fill:rgb(254,228,175);fill-rule:nonzero;"/>
                </g>
                <g transform="matrix(1,0,0,1,312.857,346.369)">
                    <path d="M0,0.014L0.013,0L0,0.014Z" style="fill:rgb(180,159,193);fill-rule:nonzero;"/>
                </g>
            </g>
        </g>
    </g>
</svg>
