<?xml version="1.0" encoding="UTF-8" standalone="no"?>
<!DOCTYPE svg PUBLIC "-//W3C//DTD SVG 1.1//EN" "http://www.w3.org/Graphics/SVG/1.1/DTD/svg11.dtd">
<svg width="100%" height="100%" viewBox="0 0 4167 2924" version="1.1" xmlns="http://www.w3.org/2000/svg" xmlns:xlink="http://www.w3.org/1999/xlink" xml:space="preserve" xmlns:serif="http://www.serif.com/" style="fill-rule:evenodd;clip-rule:evenodd;stroke-linejoin:round;stroke-miterlimit:2;">
    <g id="Layer_1-2" transform="matrix(14.6199,0,0,14.6199,-162.281,-1.46199)">
        <path d="M296.1,100.1C296.1,89.1 287.1,80.1 276.1,80.1L224.1,80.1C213.1,80.1 204.1,71.1 204.1,60.1C204.1,49.1 213.1,40.1 224.1,40.1L232.1,40.1C243.1,40.1 252.1,31.1 252.1,20.1C252.1,9.1 243.1,0.1 232.1,0.1L44.1,0.1C33.1,0.1 24.1,9.1 24.1,20.1C24.1,31.1 33.1,40.1 44.1,40.1L50.1,40.1C61.1,40.1 70.1,49.1 70.1,60.1C70.1,71.1 61.1,80.1 50.1,80.1L45.1,80.1C34.1,80.1 25.1,89.1 25.1,100.1C25.1,111.1 34.1,120.1 45.1,120.1L60.1,120.1C71.1,120.1 80.1,129.1 80.1,140.1C80.1,151.1 71.1,160.1 60.1,160.1L31.1,160.1C20.1,160.1 11.1,169.1 11.1,180.1C11.1,191.1 20.1,200.1 31.1,200.1L230.1,200.1C241.1,200.1 250.1,191.1 250.1,180.1C250.1,169.1 241.1,160.1 230.1,160.1C219.1,160.1 209.1,151.1 209.1,140.1C209.1,129.1 218.1,120.1 229.1,120.1L276.1,120.1C287.1,120.1 296.1,111.2 296.1,100.1Z" style="fill:rgb(238,245,255);fill-rule:nonzero;"/>
    </g>
    <g transform="matrix(1,0,0,1,8.47805,51.4072)">
        <g transform="matrix(2.34418,0,0,2.34418,-116.95,95.499)">
            <path d="M1401.79,737.857C1344.92,737.857 1298.66,784.118 1298.66,840.98C1298.66,897.843 1344.92,944.105 1401.79,944.105C1458.65,944.105 1504.91,897.843 1504.91,840.98C1504.91,784.118 1458.65,737.857 1401.79,737.857ZM1401.79,969.254C1331.06,969.254 1273.51,911.711 1273.51,840.98C1273.51,770.251 1331.06,712.708 1401.79,712.708C1472.52,712.708 1530.06,770.251 1530.06,840.98C1530.06,911.711 1472.52,969.254 1401.79,969.254Z" style="fill:rgb(218,170,73);fill-rule:nonzero;"/>
        </g>
        <g transform="matrix(2.34418,0,0,2.34418,-116.95,95.499)">
            <path d="M1583,291.545C1540.63,291.545 1506.16,326.018 1506.16,368.391C1506.16,410.765 1540.63,445.238 1583,445.238C1625.38,445.238 1659.85,410.765 1659.85,368.391C1659.85,326.018 1625.38,291.545 1583,291.545ZM1583,470.387C1526.76,470.387 1481.01,424.632 1481.01,368.391C1481.01,312.151 1526.76,266.396 1583,266.396C1639.25,266.396 1685,312.151 1685,368.391C1685,424.632 1639.25,470.387 1583,470.387Z" style="fill:rgb(137,187,225);fill-rule:nonzero;"/>
        </g>
        <g transform="matrix(2.34418,0,0,2.34418,-116.95,95.499)">
            <path d="M302.929,332.581C251.771,332.581 210.148,374.203 210.148,425.361C210.148,476.52 251.771,518.141 302.929,518.141C354.088,518.141 395.708,476.52 395.708,425.361C395.708,374.203 354.088,332.581 302.929,332.581ZM302.929,543.29C237.902,543.29 185,490.388 185,425.361C185,360.335 237.902,307.432 302.929,307.432C367.954,307.432 420.856,360.335 420.856,425.361C420.856,490.388 367.954,543.29 302.929,543.29Z" style="fill:rgb(139,195,182);fill-rule:nonzero;"/>
        </g>
        <g transform="matrix(2.34418,0,0,2.34418,-116.95,95.499)">
            <path d="M465.834,851.748C431.778,851.748 404.072,879.454 404.072,913.51C404.072,947.566 431.778,975.272 465.834,975.272C499.891,975.272 527.597,947.566 527.597,913.51C527.597,879.454 499.891,851.748 465.834,851.748ZM465.834,1000.42C417.911,1000.42 378.923,961.433 378.923,913.51C378.923,865.587 417.911,826.599 465.834,826.599C513.757,826.599 552.745,865.587 552.745,913.51C552.745,961.433 513.757,1000.42 465.834,1000.42Z" style="fill:rgb(209,110,82);fill-rule:nonzero;"/>
        </g>
        <g transform="matrix(2.34418,0,0,2.34418,-116.95,95.499)">
            <path d="M568.871,694.688C559.159,694.688 551.259,702.588 551.259,712.3C551.259,722.012 559.159,729.912 568.871,729.912C578.582,729.912 586.483,722.012 586.483,712.3C586.483,702.588 578.582,694.688 568.871,694.688ZM568.871,755.061C545.292,755.061 526.109,735.878 526.109,712.3C526.109,688.721 545.292,669.539 568.871,669.539C592.449,669.539 611.632,688.721 611.632,712.3C611.632,735.878 592.449,755.061 568.871,755.061Z" style="fill:rgb(218,170,73);fill-rule:nonzero;"/>
        </g>
        <g transform="matrix(2.34418,0,0,2.34418,-116.95,95.499)">
            <path d="M257.48,623.982C257.48,637.182 246.78,647.883 233.58,647.883C220.38,647.883 209.679,637.182 209.679,623.982C209.679,610.782 220.38,600.081 233.58,600.081C246.78,600.081 257.48,610.782 257.48,623.982Z" style="fill:rgb(137,187,225);fill-rule:nonzero;"/>
        </g>
        <g transform="matrix(2.34418,0,0,2.34418,-116.95,95.499)">
            <path d="M918.958,913.511C918.958,926.711 908.257,937.412 895.057,937.412C881.856,937.412 871.155,926.711 871.155,913.511C871.155,900.311 881.856,889.609 895.057,889.609C908.257,889.609 918.958,900.311 918.958,913.511Z" style="fill:rgb(209,110,82);fill-rule:nonzero;"/>
        </g>
        <g transform="matrix(2.34418,0,0,2.34418,-116.95,95.499)">
            <path d="M1528.9,604.336C1528.9,617.537 1518.2,628.237 1505,628.237C1491.8,628.237 1481.1,617.537 1481.1,604.336C1481.1,591.136 1491.8,580.435 1505,580.435C1518.2,580.435 1528.9,591.136 1528.9,604.336Z" style="fill:rgb(209,110,82);fill-rule:nonzero;"/>
        </g>
        <g transform="matrix(2.34418,0,0,2.34418,-116.95,95.499)">
            <path d="M1334.06,145.479C1334.06,158.68 1323.36,169.381 1310.16,169.381C1296.96,169.381 1286.26,158.68 1286.26,145.479C1286.26,132.28 1296.96,121.579 1310.16,121.579C1323.36,121.579 1334.06,132.28 1334.06,145.479Z" style="fill:rgb(139,195,182);fill-rule:nonzero;"/>
        </g>
        <g transform="matrix(2.34418,0,0,2.34418,-116.95,95.499)">
            <path d="M533.301,145.479C533.301,158.68 522.599,169.381 509.399,169.381C496.199,169.381 485.498,158.68 485.498,145.479C485.498,132.28 496.199,121.579 509.399,121.579C522.599,121.579 533.301,132.28 533.301,145.479Z" style="fill:rgb(209,110,82);fill-rule:nonzero;"/>
        </g>
        <g transform="matrix(2.34418,0,0,2.34418,-116.95,95.499)">
            <path d="M949.93,254.903C949.93,268.103 939.229,278.804 926.029,278.804C912.829,278.804 902.128,268.103 902.128,254.903C902.128,241.703 912.829,231.002 926.029,231.002C939.229,231.002 949.93,241.703 949.93,254.903Z" style="fill:rgb(218,170,73);fill-rule:nonzero;"/>
        </g>
        <g transform="matrix(2.34418,0,0,2.34418,-116.95,95.499)">
            <path d="M502.448,758.272C502.448,771.472 491.747,782.173 478.547,782.173C465.347,782.173 454.646,771.472 454.646,758.272C454.646,745.072 465.347,734.371 478.547,734.371C491.747,734.371 502.448,745.072 502.448,758.272Z" style="fill:rgb(139,195,182);fill-rule:nonzero;"/>
        </g>
        <g transform="matrix(2.34418,0,0,2.34418,-116.95,95.499)">
            <path d="M1077.79,915.937C1068.07,915.937 1060.17,923.837 1060.17,933.549C1060.17,943.261 1068.07,951.161 1077.79,951.161C1087.5,951.161 1095.4,943.261 1095.4,933.549C1095.4,923.837 1087.5,915.937 1077.79,915.937ZM1077.79,976.31C1054.21,976.31 1035.03,957.127 1035.03,933.549C1035.03,909.971 1054.21,890.788 1077.79,890.788C1101.36,890.788 1120.55,909.971 1120.55,933.549C1120.55,957.127 1101.36,976.31 1077.79,976.31Z" style="fill:rgb(139,195,182);fill-rule:nonzero;"/>
        </g>
        <g transform="matrix(2.34418,0,0,2.34418,-116.95,95.499)">
            <path d="M1297.46,790.284L1150.06,704.009L1162.76,682.305L1310.16,768.579L1297.46,790.284Z" style="fill:rgb(218,170,73);fill-rule:nonzero;"/>
        </g>
        <g transform="matrix(2.34418,0,0,2.34418,-116.95,95.499)">
            <path d="M1157.32,530.175L1149.43,506.297L1489.64,393.863L1497.53,417.741L1157.32,530.175Z" style="fill:rgb(137,187,225);fill-rule:nonzero;"/>
        </g>
        <g transform="matrix(2.34418,0,0,2.34418,-116.95,95.499)">
            <path d="M672.331,544.181L401.548,462.935L408.774,438.847L679.559,520.093L672.331,544.181Z" style="fill:rgb(139,195,182);fill-rule:nonzero;"/>
        </g>
        <g transform="matrix(2.34418,0,0,2.34418,-116.95,95.499)">
            <path d="M597.445,709.118L592.136,684.537L673.29,667.009L678.599,691.59L597.445,709.118Z" style="fill:rgb(218,170,73);fill-rule:nonzero;"/>
        </g>
        <g transform="matrix(2.34418,0,0,2.34418,-116.95,95.499)">
            <path d="M536.807,888.257L524.662,866.233L720.446,758.272L732.591,780.295L536.807,888.257Z" style="fill:rgb(209,110,82);fill-rule:nonzero;"/>
        </g>
        <g transform="matrix(2.34418,0,0,2.34418,-116.95,95.499)">
            <path d="M1055.12,908.634L1021.64,836.104L1044.47,825.562L1077.96,898.092L1055.12,908.634Z" style="fill:rgb(139,195,182);fill-rule:nonzero;"/>
        </g>
        <g transform="matrix(2.34418,0,0,2.34418,-116.95,95.499)">
            <path d="M753.871,291.812C763.555,291.082 770.839,282.61 770.109,272.926C769.379,263.242 760.906,255.958 751.223,256.688C741.538,257.418 734.254,265.89 734.984,275.574C735.715,285.259 744.187,292.542 753.871,291.812ZM749.331,231.61C772.844,229.837 793.414,247.523 795.187,271.035C796.959,294.547 779.273,315.117 755.762,316.89C732.25,318.663 711.68,300.977 709.907,277.465C708.134,253.954 725.819,233.383 749.331,231.61Z" style="fill:rgb(137,187,225);fill-rule:nonzero;"/>
        </g>
        <g transform="matrix(2.34418,0,0,2.34418,-116.95,95.499)">
            <path d="M777.018,297.392L815.861,367.198L793.885,379.428L755.041,309.62L777.018,297.392Z" style="fill:rgb(137,187,225);fill-rule:nonzero;"/>
        </g>
        <g transform="matrix(2.34418,0,0,2.34418,-116.95,95.499)">
            <path d="M1118.23,207.402C1123.65,215.462 1134.61,217.613 1142.67,212.196C1150.73,206.78 1152.89,195.816 1147.47,187.755C1142.05,179.694 1131.09,177.543 1123.03,182.96C1114.97,188.377 1112.82,199.341 1118.23,207.402ZM1168.34,173.728C1181.49,193.298 1176.27,219.919 1156.7,233.07C1137.13,246.221 1110.51,240.999 1097.36,221.429C1084.21,201.858 1089.43,175.238 1109,162.086C1128.57,148.936 1155.19,154.158 1168.34,173.728Z" style="fill:rgb(209,110,82);fill-rule:nonzero;"/>
        </g>
        <g transform="matrix(2.34418,0,0,2.34418,-116.95,95.499)">
            <path d="M1124.81,230.285L1038.86,377.883L1017.38,364.811L1103.33,217.212L1124.81,230.285Z" style="fill:rgb(209,110,82);fill-rule:nonzero;"/>
        </g>
        <g transform="matrix(2.34418,0,0,2.34418,-116.95,95.499)">
            <path d="M1154.42,561.464L1182.79,559.457C1170.82,488.882 1131.12,427.626 1075.34,387.313L1060.46,411.454C1108.76,446.987 1143.3,500.197 1154.42,561.464Z" style="fill:rgb(209,110,82);fill-rule:nonzero;"/>
        </g>
        <g transform="matrix(2.34418,0,0,2.34418,-116.95,95.499)">
            <path d="M918.958,365.018C971.859,365.018 1020.8,382.277 1060.46,411.454L1075.34,387.313C1031.33,355.5 977.298,336.726 918.958,336.726C861.466,336.726 808.152,354.953 764.486,385.927L782.716,407.701C821.409,380.809 868.37,365.018 918.958,365.018Z" style="fill:rgb(139,195,182);fill-rule:nonzero;"/>
        </g>
        <g transform="matrix(2.34418,0,0,2.34418,-116.95,95.499)">
            <path d="M782.716,407.701L764.486,385.927C735.988,406.142 711.621,431.801 692.863,461.355L717.375,475.535C734.485,448.856 756.724,425.765 782.716,407.701Z" style="fill:rgb(218,170,73);fill-rule:nonzero;"/>
        </g>
        <g transform="matrix(2.34418,0,0,2.34418,-116.95,95.499)">
            <path d="M1182.79,559.457L1154.42,561.464C1156.95,575.378 1158.28,589.705 1158.28,604.337C1158.28,736.297 1050.92,843.654 918.958,843.654C786.997,843.654 679.64,736.297 679.64,604.337C679.64,556.944 693.511,512.744 717.375,475.535L692.863,461.355C666.594,502.745 651.348,551.789 651.348,604.337C651.348,751.897 771.396,871.946 918.958,871.946C1066.52,871.946 1186.57,751.897 1186.57,604.337C1186.57,589.045 1185.26,574.054 1182.79,559.457Z" style="fill:rgb(137,187,225);fill-rule:nonzero;"/>
        </g>
        <g transform="matrix(2.34418,0,0,2.34418,-116.95,95.499)">
            <path d="M465.768,932.796L465.751,932.796L465.505,932.785C455.696,932.61 447.717,924.475 447.717,914.649C447.717,904.825 455.692,896.688 465.496,896.512C465.605,896.51 465.715,896.506 465.817,896.499L465.88,896.494C475.849,896.521 483.949,904.654 483.949,914.649C483.949,924.655 475.832,932.796 465.768,932.796ZM509.396,904.86C509.396,903.612 508.546,902.551 507.333,902.283L497.946,900.181L503.104,892.042C503.771,890.989 503.621,889.638 502.741,888.76L490.535,876.532C489.676,875.673 488.253,875.524 487.252,876.169L479.136,881.331L477.038,871.929C476.768,870.712 475.709,869.862 474.462,869.862L457.204,869.862C455.956,869.862 454.896,870.712 454.628,871.927L452.53,881.332L444.42,876.173C443.401,875.517 441.987,875.673 441.129,876.532L428.925,888.763C428.05,889.643 427.9,890.989 428.564,892.043L433.722,900.181L424.335,902.283C423.118,902.554 422.27,903.614 422.27,904.863L422.272,922.156C422.272,923.403 423.122,924.464 424.336,924.733L433.723,926.835L428.565,934.976C427.898,936.026 428.047,937.374 428.926,938.256L441.13,950.481C441.982,951.343 443.397,951.496 444.415,950.848L452.532,945.685L454.63,955.088C454.897,956.289 455.98,957.159 457.206,957.159L457.207,957.159L474.465,957.155C475.714,957.155 476.774,956.303 477.04,955.089L479.138,945.685L487.256,950.849C488.278,951.498 489.693,951.337 490.539,950.484L502.737,938.258C503.605,937.395 503.761,936.013 503.104,934.974L497.947,926.835L507.332,924.73C508.549,924.46 509.399,923.4 509.399,922.153L509.396,904.86Z" style="fill:rgb(63,111,164);fill-rule:nonzero;"/>
        </g>
        <g transform="matrix(2.34418,0,0,2.34418,-116.95,95.499)">
            <path d="M1605.28,376.038C1601.23,376.038 1597.94,372.746 1597.94,368.698C1597.94,364.651 1601.23,361.359 1605.28,361.359C1609.32,361.359 1612.61,364.651 1612.61,368.698C1612.61,372.746 1609.32,376.038 1605.28,376.038ZM1583.17,376.038C1579.12,376.038 1575.83,372.746 1575.83,368.698C1575.83,364.651 1579.12,361.359 1583.17,361.359C1587.22,361.359 1590.51,364.651 1590.51,368.698C1590.51,372.746 1587.22,376.038 1583.17,376.038ZM1560,376.038C1555.95,376.038 1552.66,372.746 1552.66,368.698C1552.66,364.651 1555.95,361.359 1560,361.359C1564.04,361.359 1567.33,364.651 1567.33,368.698C1567.33,372.746 1564.04,376.038 1560,376.038ZM1583,315.427C1549.15,315.427 1521.61,337.061 1521.61,363.65C1521.61,390.239 1549.15,411.871 1583,411.871C1584.78,411.871 1586.6,411.805 1588.45,411.674L1593.27,423.333C1593.64,424.233 1594.43,424.864 1595.36,425.014C1595.52,425.046 1595.69,425.06 1595.85,425.06C1596.65,425.06 1597.41,424.721 1597.93,424.133L1615.51,404.573C1633.61,395.707 1644.4,380.424 1644.4,363.65C1644.4,337.061 1616.86,315.427 1583,315.427Z" style="fill:rgb(63,111,164);fill-rule:nonzero;"/>
        </g>
        <g transform="matrix(2.34418,0,0,2.34418,-116.95,95.499)">
            <path d="M934.337,744.643L1021.41,709.529C1024.28,708.375 1025.71,705.163 1024.67,702.257L1023.45,698.863C1023.26,698.332 1023.37,697.742 1023.71,697.293C1041.2,674.397 1029.25,643.908 1029.25,643.908L1011.71,599.075C1011.68,598.988 1011.67,598.948 1011.64,598.861C1011.31,597.322 1006.4,575.978 990.483,575.978C981.282,575.978 976.205,579.991 973.514,583.543C972.623,584.72 970.802,584.427 970.46,582.991C969.362,578.388 965.73,572.572 954.59,571.312C942.223,569.911 937.289,576.855 935.351,581.885C934.831,583.232 932.918,583.339 932.291,582.039C928.294,573.748 919.771,564.134 909.006,567.722C901.614,570.186 898.223,574.939 896.674,578.557C896.067,579.974 894.086,579.986 893.526,578.55L875.625,532.547C875.625,532.547 867.011,504.909 849.063,511.729C831.117,518.548 840.809,542.238 840.809,542.238L882.142,651.425C882.712,652.933 881.057,654.312 879.677,653.478L859.959,641.556C859.879,641.5 859.835,641.468 859.755,641.412C858.326,640.166 837.465,622.418 824.298,636.278C811.18,650.087 825.62,665.225 826.743,666.36C826.813,666.419 826.853,666.451 826.922,666.51L924.804,737.599C924.987,737.821 925.161,738.032 925.345,738.253L926.984,741.752C928.279,744.515 931.507,745.784 934.337,744.643Z" style="fill:rgb(63,111,164);fill-rule:nonzero;"/>
        </g>
        <g transform="matrix(2.34418,0,0,2.34418,-116.95,95.499)">
            <path d="M1056.21,762.147L1036.59,717.992C1035.18,714.817 1031.5,713.329 1028.28,714.627L932.187,753.32C928.765,754.697 927.192,758.657 928.736,762.007L948.708,805.335C950.142,808.445 953.756,809.894 956.941,808.634L1052.69,770.769C1056.1,769.419 1057.7,765.5 1056.21,762.147Z" style="fill:rgb(63,111,164);fill-rule:nonzero;"/>
        </g>
        <g transform="matrix(2.34418,0,0,2.34418,-116.95,95.499)">
            <path d="M819.853,472.104C821.608,476.669 825.96,479.468 830.573,479.468C831.944,479.468 833.341,479.215 834.698,478.694C840.617,476.417 843.567,469.765 841.288,463.849L829.289,432.694C827.012,426.772 820.363,423.822 814.443,426.104C808.524,428.381 805.574,435.033 807.854,440.95L819.853,472.104Z" style="fill:rgb(63,111,164);fill-rule:nonzero;"/>
        </g>
        <g transform="matrix(2.34418,0,0,2.34418,-116.95,95.499)">
            <path d="M767.85,491.268L798.364,504.817C799.879,505.49 801.461,505.81 803.02,505.81C807.419,505.81 811.62,503.264 813.523,498.979C816.099,493.18 813.484,486.394 807.686,483.82L777.171,470.27C771.383,467.69 764.592,470.304 762.012,476.108C759.438,481.907 762.051,488.693 767.85,491.268Z" style="fill:rgb(63,111,164);fill-rule:nonzero;"/>
        </g>
        <g transform="matrix(2.34418,0,0,2.34418,-116.95,95.499)">
            <path d="M929.336,537.531L898.818,523.981C893.024,521.401 886.232,524.015 883.658,529.819C881.084,535.618 883.698,542.404 889.497,544.979L920.015,558.528C921.529,559.201 923.11,559.521 924.67,559.521C929.069,559.521 933.272,556.975 935.174,552.69C937.748,546.891 935.135,540.105 929.336,537.531Z" style="fill:rgb(63,111,164);fill-rule:nonzero;"/>
        </g>
        <g transform="matrix(2.34418,0,0,2.34418,-116.95,95.499)">
            <path d="M812.894,528.294C810.613,522.377 803.965,519.421 798.045,521.704L766.885,533.7C760.966,535.977 758.016,542.623 760.293,548.545C762.051,553.105 766.403,555.909 771.016,555.909C772.387,555.909 773.783,555.657 775.141,555.135L806.301,543.139C812.22,540.862 815.17,534.216 812.894,528.294Z" style="fill:rgb(63,111,164);fill-rule:nonzero;"/>
        </g>
        <g transform="matrix(2.34418,0,0,2.34418,-116.95,95.499)">
            <path d="M884.289,500.504C886.048,505.064 890.399,507.868 895.013,507.868C896.384,507.868 897.78,507.616 899.138,507.094L930.298,495.098C936.217,492.821 939.167,486.175 936.89,480.253C934.61,474.336 927.967,471.392 922.042,473.663L890.882,485.659C884.963,487.936 882.013,494.582 884.289,500.504Z" style="fill:rgb(63,111,164);fill-rule:nonzero;"/>
        </g>
        <g transform="matrix(2.34418,0,0,2.34418,-116.95,95.499)">
            <path d="M825.461,595.139L839.011,564.625C841.585,558.826 838.972,552.04 833.173,549.465C827.379,546.891 820.591,549.499 818.014,555.303L804.464,585.818C801.89,591.617 804.503,598.403 810.302,600.978C811.816,601.65 813.397,601.97 814.957,601.97C819.356,601.97 823.558,599.424 825.461,595.139Z" style="fill:rgb(63,111,164);fill-rule:nonzero;"/>
        </g>
        <g transform="matrix(2.34418,0,0,2.34418,-116.95,95.499)">
            <path d="M864.013,479.333C865.527,480.006 867.111,480.326 868.668,480.326C873.07,480.326 877.271,477.779 879.172,473.495L892.719,442.975C895.293,437.175 892.677,430.389 886.881,427.815C881.082,425.235 874.293,427.854 871.722,433.653L858.175,464.174C855.601,469.973 858.217,476.759 864.013,479.333Z" style="fill:rgb(63,111,164);fill-rule:nonzero;"/>
        </g>
        <g transform="matrix(2.34418,0,0,2.34418,-116.95,95.499)">
            <path d="M1425.58,886.399L1378,886.399C1374.76,886.399 1372.14,883.778 1372.14,880.544L1372.14,788.8C1372.14,785.567 1374.76,782.946 1378,782.946L1425.58,782.946C1428.81,782.946 1431.43,785.567 1431.43,788.8L1431.43,880.544C1431.43,883.778 1428.81,886.399 1425.58,886.399ZM1409.25,902.694C1409.25,904.312 1407.95,905.621 1406.33,905.621L1397.25,905.621C1395.63,905.621 1394.32,904.312 1394.32,902.694L1394.32,897.685C1394.32,896.068 1395.63,894.761 1397.25,894.761L1406.33,894.761C1407.95,894.761 1409.25,896.068 1409.25,897.685L1409.25,902.694ZM1430.49,769.213L1373.09,769.213C1366.45,769.213 1361.07,774.708 1361.07,781.483L1361.07,900.476C1361.07,907.252 1366.45,912.749 1373.09,912.749L1430.49,912.749C1437.13,912.749 1442.5,907.252 1442.5,900.476L1442.5,781.483C1442.5,774.708 1437.13,769.213 1430.49,769.213Z" style="fill:rgb(63,111,164);fill-rule:nonzero;"/>
        </g>
        <g transform="matrix(2.34418,0,0,2.34418,-116.95,95.499)">
            <path d="M344.994,408.891C343.702,408.891 342.395,408.974 341.091,409.141C341.227,407.893 341.294,406.715 341.294,405.576C341.294,385.765 325.177,369.646 305.364,369.646C289.752,369.646 275.872,379.869 271.16,394.67C270.066,394.575 269.039,394.526 268.044,394.526C247.03,394.526 229.935,411.622 229.935,432.636C229.935,453.649 247.03,470.747 268.044,470.747L344.994,470.747C362.049,470.747 375.923,456.872 375.923,439.818C375.923,422.765 362.049,408.891 344.994,408.891Z" style="fill:rgb(63,111,164);fill-rule:nonzero;"/>
        </g>
    </g>
</svg>
