<?xml version="1.0" encoding="UTF-8" standalone="no"?>
<!DOCTYPE svg PUBLIC "-//W3C//DTD SVG 1.1//EN" "http://www.w3.org/Graphics/SVG/1.1/DTD/svg11.dtd">
<svg width="100%" height="100%" viewBox="0 0 4167 2930" version="1.1" xmlns="http://www.w3.org/2000/svg" xmlns:xlink="http://www.w3.org/1999/xlink" xml:space="preserve" xmlns:serif="http://www.serif.com/" style="fill-rule:evenodd;clip-rule:evenodd;stroke-linejoin:round;stroke-miterlimit:2;">
    <g id="Layer_1-2" transform="matrix(14.6199,0,0,14.6199,-162.281,1.11664)">
        <path d="M296.1,100.1C296.1,89.1 287.1,80.1 276.1,80.1L224.1,80.1C213.1,80.1 204.1,71.1 204.1,60.1C204.1,49.1 213.1,40.1 224.1,40.1L232.1,40.1C243.1,40.1 252.1,31.1 252.1,20.1C252.1,9.1 243.1,0.1 232.1,0.1L44.1,0.1C33.1,0.1 24.1,9.1 24.1,20.1C24.1,31.1 33.1,40.1 44.1,40.1L50.1,40.1C61.1,40.1 70.1,49.1 70.1,60.1C70.1,71.1 61.1,80.1 50.1,80.1L45.1,80.1C34.1,80.1 25.1,89.1 25.1,100.1C25.1,111.1 34.1,120.1 45.1,120.1L60.1,120.1C71.1,120.1 80.1,129.1 80.1,140.1C80.1,151.1 71.1,160.1 60.1,160.1L31.1,160.1C20.1,160.1 11.1,169.1 11.1,180.1C11.1,191.1 20.1,200.1 31.1,200.1L230.1,200.1C241.1,200.1 250.1,191.1 250.1,180.1C250.1,169.1 241.1,160.1 230.1,160.1C219.1,160.1 209.1,151.1 209.1,140.1C209.1,129.1 218.1,120.1 229.1,120.1L276.1,120.1C287.1,120.1 296.1,111.2 296.1,100.1Z" style="fill:rgb(238,245,255);fill-rule:nonzero;"/>
    </g>
    <g transform="matrix(2.50183,0,0,2.50183,-207.993,-1022.31)">
        <g transform="matrix(1,0,0,1,74.9086,20.4296)">
            <path d="M431.876,1361.97L443.702,1378.97L447.557,1376.29L447.557,1351.05L431.876,1361.97Z" style="fill:rgb(240,238,239);fill-rule:nonzero;"/>
        </g>
        <g transform="matrix(1,0,0,0.659832,74.9086,550.751)">
            <path d="M942.911,846.707L891.382,846.707L889.63,846.707L838.099,846.707C838.099,846.707 896.44,986.083 787.875,1551.67L870.103,1553.99L903.284,1555.24L987.174,1559C878.608,993.41 942.911,846.707 942.911,846.707Z" style="fill:rgb(202,232,234);fill-rule:nonzero;"/>
        </g>
        <g transform="matrix(1,0,0,0.659832,74.9086,550.751)">
            <path d="M903.535,820.849L884.333,823.354L884.333,820.388L866.594,816.416C866.594,816.416 895.97,1436.19 821.983,1531.07L825.41,1551.64L879.386,1556.78L889.21,1554.24L941.213,1555.06L953.066,1552.21C879.079,1457.32 903.535,820.849 903.535,820.849Z" style="fill:white;fill-rule:nonzero;"/>
        </g>
        <g transform="matrix(1,0,0,1,73.6022,17.5733)">
            <g transform="matrix(1,0,0,1,-1.42109e-14,389.528)">
                <path d="M973.247,747.798C973.247,808.102 887.818,935.709 887.818,935.709C887.818,935.709 802.39,808.102 802.39,747.798C802.39,687.495 840.637,670.938 887.818,670.938C935,670.938 973.247,687.495 973.247,747.798Z" style="fill:rgb(243,128,32);fill-rule:nonzero;"/>
            </g>
            <g transform="matrix(1,0,0,1,-1.42109e-14,389.528)">
                <path d="M946.781,735.874C946.781,777.495 887.818,879.939 887.818,879.939C887.818,879.939 828.855,777.495 828.855,735.874C828.855,694.252 855.254,682.825 887.818,682.825C920.382,682.825 946.781,694.252 946.781,735.874Z" style="fill:rgb(238,180,33);fill-rule:nonzero;"/>
            </g>
            <g transform="matrix(1,0,0,1,-1.42109e-14,389.528)">
                <path d="M921.972,715.944C921.972,740.051 887.818,818.91 887.818,818.91C887.818,818.91 853.665,740.051 853.665,715.944C853.665,691.835 868.956,685.215 887.818,685.215C906.681,685.215 921.972,691.835 921.972,715.944Z" style="fill:rgb(248,203,108);fill-rule:nonzero;"/>
            </g>
            <g transform="matrix(1,0,0,1,-1.42109e-14,389.528)">
                <path d="M818.125,532.025C818.125,532.025 700.49,593.783 700.49,727.592C700.49,727.592 707.842,742.297 719.605,724.651C731.37,707.007 741.662,658.483 816.654,658.483L818.125,532.025Z" style="fill:rgb(85,190,206);fill-rule:nonzero;"/>
            </g>
            <g transform="matrix(1,0,0,1,-1.42109e-14,389.528)">
                <path d="M956.924,532.025C956.924,532.025 1074.56,593.783 1074.56,727.592C1074.56,727.592 1067.21,742.297 1055.44,724.651C1043.68,707.007 1033.39,658.483 958.395,658.483L956.924,532.025Z" style="fill:rgb(54,161,178);fill-rule:nonzero;"/>
            </g>
            <g transform="matrix(1,0,0,1,-1.42109e-14,389.528)">
                <path d="M1018.13,402.006C1018.13,347.221 1008.88,295.648 995.089,250.546L887.524,250.546L887.524,296.316C927.32,296.316 959.581,328.577 959.581,368.371C959.581,408.166 927.32,440.427 887.524,440.427L887.524,672L957.919,672C994.132,615.032 1018.13,515.396 1018.13,402.006Z" style="fill:rgb(239,239,239);fill-rule:nonzero;"/>
            </g>
            <g transform="matrix(1,0,0,1,-1.42109e-14,389.528)">
                <path d="M815.47,368.371C815.47,328.577 847.729,296.316 887.524,296.316L887.524,250.546L779.96,250.546C766.172,295.648 756.917,347.221 756.917,402.006C756.917,515.396 780.916,615.032 817.13,672L887.524,672L887.524,440.427C847.729,440.427 815.47,408.166 815.47,368.371Z" style="fill:white;fill-rule:nonzero;"/>
            </g>
            <g transform="matrix(1,0,0,1,-1.42109e-14,389.528)">
                <path d="M818.133,672.216C816.314,672.216 814.84,673.691 814.84,675.509L814.84,690.874C814.84,692.692 816.314,694.166 818.133,694.166L887.524,694.166L887.524,672.216L818.133,672.216Z" style="fill:rgb(231,197,54);fill-rule:nonzero;"/>
            </g>
            <g transform="matrix(1,0,0,1,-1.42109e-14,389.528)">
                <path d="M956.852,672.216L887.524,672.216L887.524,694.166L956.852,694.166C958.669,694.166 960.145,692.692 960.145,690.874L960.145,675.509C960.145,673.691 958.669,672.216 956.852,672.216Z" style="fill:rgb(205,175,47);fill-rule:nonzero;"/>
            </g>
            <g transform="matrix(1,0,0,1,-1.42109e-14,389.528)">
                <path d="M936.895,368.371C936.895,395.638 914.792,417.743 887.524,417.743L887.524,440.427C927.32,440.427 959.581,408.166 959.581,368.371C959.581,328.577 927.32,296.316 887.524,296.316L887.524,319C914.792,319 936.895,341.105 936.895,368.371Z" style="fill:rgb(205,175,47);fill-rule:nonzero;"/>
            </g>
            <g transform="matrix(1,0,0,1,-1.42109e-14,389.528)">
                <path d="M815.47,368.371C815.47,408.166 847.729,440.427 887.524,440.427L887.524,417.743C860.257,417.743 838.153,395.638 838.153,368.371C838.153,341.105 860.257,319 887.524,319L887.524,296.316C847.729,296.316 815.47,328.577 815.47,368.371Z" style="fill:rgb(231,197,54);fill-rule:nonzero;"/>
            </g>
            <g transform="matrix(1,0,0,1,-1.42109e-14,389.528)">
                <path d="M936.895,368.371C936.895,341.105 914.792,319 887.524,319L887.524,417.743C914.792,417.743 936.895,395.638 936.895,368.371Z" style="fill:rgb(130,208,209);fill-rule:nonzero;"/>
            </g>
            <g transform="matrix(1,0,0,1,-1.42109e-14,389.528)">
                <path d="M838.153,368.371C838.153,395.638 860.257,417.743 887.524,417.743L887.524,319C860.257,319 838.153,341.105 838.153,368.371Z" style="fill:rgb(165,220,227);fill-rule:nonzero;"/>
            </g>
            <g transform="matrix(1,0,0,1,-1.42109e-14,389.528)">
                <path d="M887.524,81.526L887.524,250.546L995.089,250.546C964.333,149.935 911.018,81.526 887.524,81.526Z" style="fill:rgb(54,161,178);fill-rule:nonzero;"/>
            </g>
            <g transform="matrix(1,0,0,1,-1.42109e-14,389.528)">
                <path d="M887.524,81.526C864.033,81.526 810.717,149.934 779.96,250.546L887.524,250.546L887.524,81.526Z" style="fill:rgb(85,190,206);fill-rule:nonzero;"/>
            </g>
            <g transform="matrix(1,0,0,1,-1.42109e-14,389.528)">
                <path d="M892.053,568.638C891.697,568.525 891.317,568.464 890.921,568.464L890.822,568.464L887.524,568.464L887.524,733.509L891.331,733.509C893.402,733.509 895.083,731.829 895.083,729.757L895.083,724.747L895.225,717.505L905.637,584.786C905.637,571.334 894.347,569.219 892.053,568.638Z" style="fill:rgb(54,161,178);fill-rule:nonzero;"/>
            </g>
            <g transform="matrix(1,0,0,1,-1.42109e-14,389.528)">
                <path d="M883.817,568.464L883.718,568.464C883.322,568.464 882.943,568.525 882.585,568.638C881.928,568.805 881.189,569.094 880.47,569.518C876.369,570.848 869.411,574.42 869.411,584.98L879.834,717.832L879.966,724.551L879.966,729.563C879.966,731.137 880.937,732.482 882.31,733.039C882.849,733.338 883.468,733.509 884.127,733.509L887.524,733.509L887.524,568.464L883.817,568.464Z" style="fill:rgb(85,190,206);fill-rule:nonzero;"/>
            </g>
        </g>
        <g transform="matrix(1,0,0,1,74.9086,20.4296)">
            <path d="M1220.22,1331.05C1206.04,1326.89 1190.49,1326.55 1174.71,1330.86C1124.88,1344.46 1091.73,1399.15 1100.67,1453.01C1100.9,1454.43 1101.18,1455.83 1101.47,1457.22L1101.18,1457.3C1077.92,1463.65 1058.91,1480.49 1047.71,1501.97C1039.21,1518.27 1035.21,1537.25 1037.26,1556.34L1132.37,1530.38L1328.31,1476.88L1328.31,1226.59C1325.58,1227.15 1322.85,1227.79 1320.11,1228.54C1271.81,1241.73 1234.63,1282.3 1220.22,1331.05Z" style="fill:rgb(202,232,234);fill-rule:nonzero;"/>
        </g>
        <g transform="matrix(-1,0,0,1,2769.37,21.6735)">
            <path d="M1220.22,1331.05C1206.04,1326.89 1190.49,1326.55 1174.71,1330.86C1124.88,1344.46 1091.73,1399.15 1100.67,1453.01C1100.9,1454.43 1101.18,1455.83 1101.47,1457.22L1101.18,1457.3C1077.92,1463.65 1058.91,1480.49 1047.71,1501.97C1039.21,1518.27 1035.21,1537.25 1037.26,1556.34L1367.97,1556.47L1366.15,1225.35C1340.76,1221.31 1322.85,1227.79 1320.11,1228.54C1271.81,1241.73 1234.63,1282.3 1220.22,1331.05Z" style="fill:rgb(202,232,234);fill-rule:nonzero;"/>
        </g>
        <g transform="matrix(1,0,0,1,74.9086,20.4296)">
            <path d="M1170.58,1440.23C1157.39,1432.37 1142.24,1427.88 1126.11,1427.88C1075.16,1427.88 1033.86,1472.53 1033.86,1527.59C1033.86,1527.83 1033.86,1528.07 1033.87,1528.31C1044.01,1536.81 1053.04,1546.72 1060.75,1557.65L1328.31,1557.65L1328.47,1412.47C1319.25,1396.39 1285.52,1385.94 1270.31,1385.94C1220.92,1385.94 1198.44,1403.03 1170.58,1440.23Z" style="fill:white;fill-rule:nonzero;"/>
        </g>
        <g transform="matrix(-1,0,0,1,2730.08,20.4217)">
            <path d="M1170.58,1440.23C1157.39,1432.37 1142.24,1427.88 1126.11,1427.88C1075.16,1427.88 1033.15,1502.59 1033.15,1557.65C1033.15,1557.89 1060.75,1557.65 1060.75,1557.65L1328.31,1557.65L1327.11,1413.58C1299.38,1371.81 1279.86,1366.8 1250.61,1366.8C1201.22,1366.8 1181.2,1408.41 1170.58,1440.23Z" style="fill:white;fill-rule:nonzero;"/>
        </g>
        <g transform="matrix(1,0,0,1,74.9086,20.4296)">
            <path d="M1033.87,1528.31C1020.62,1517.22 1005.48,1508.52 988.88,1503.05C941.053,1487.27 893.673,1502.37 863.846,1537.78C852.598,1525.96 838.793,1516.77 823.171,1511.62C815.146,1508.97 807.138,1507.55 799.306,1507.26C810.269,1520.94 817.263,1538.44 818.357,1557.65L1060.75,1557.65C1053.04,1546.72 1044.01,1536.81 1033.87,1528.31Z" style="fill:rgb(202,232,234);fill-rule:nonzero;"/>
        </g>
        <g transform="matrix(1,0,0,1,74.9086,20.4296)">
            <path d="M799.306,1507.26C784.865,1489.24 763.544,1477.85 739.759,1477.85L739.46,1477.85C739.516,1476.41 739.562,1474.97 739.562,1473.52C739.562,1418.45 698.26,1373.81 647.308,1373.81C631.181,1373.81 616.027,1378.3 602.836,1386.16C580.83,1342.32 537.876,1312.56 488.492,1312.56C473.886,1312.56 459.844,1315.16 446.74,1319.96L446.74,1557.65L818.357,1557.65C817.263,1538.44 810.269,1520.94 799.306,1507.26Z" style="fill:white;fill-rule:nonzero;"/>
        </g>
        <g transform="matrix(1,0,0,1,74.9086,20.4296)">
            <path d="M709.078,1530.98C691.946,1517.39 669.206,1512.17 645.985,1518.76L645.692,1518.84C645.504,1517.42 645.305,1516 645.061,1514.58C635.791,1460.82 587.95,1428.67 538.2,1442.78C522.453,1447.24 508.41,1455.82 496.855,1467.15C483.476,1450.14 466.211,1437.33 446.74,1429.83L446.74,1557.65L730.137,1557.65C725.001,1546.91 717.762,1537.87 709.078,1530.98Z" style="fill:rgb(202,232,234);fill-rule:nonzero;"/>
        </g>
        <g transform="matrix(-1.40761,0,0,1.79004,1126.84,-1209.65)">
            <path d="M709.078,1530.98C691.946,1517.39 669.206,1512.17 645.985,1518.76L645.692,1518.84C645.504,1517.42 645.305,1516 645.061,1514.58C635.791,1460.82 587.95,1428.67 538.2,1442.78C522.453,1447.24 508.41,1455.82 496.855,1467.15C488.194,1452.82 458.021,1430.09 429.361,1424.41L429.358,1557.35L730.137,1557.65C725.001,1546.91 717.762,1537.87 709.078,1530.98Z" style="fill:white;fill-rule:nonzero;"/>
        </g>
        <g transform="matrix(-1,0,0,1,921.292,20.9096)">
            <path d="M709.078,1530.98C691.946,1517.39 669.206,1512.17 645.985,1518.76L645.692,1518.84C645.504,1517.42 645.305,1516 645.061,1514.58C635.791,1460.82 587.95,1428.67 538.2,1442.78C522.453,1447.24 508.41,1455.82 496.855,1467.15C479.283,1442.5 441.915,1417.48 398.802,1429.69L398.684,1557.41L730.137,1557.65C725.001,1546.91 717.762,1537.87 709.078,1530.98Z" style="fill:rgb(202,232,234);fill-rule:nonzero;"/>
        </g>
    </g>
</svg>
