<?xml version="1.0" encoding="UTF-8" standalone="no"?>
<!DOCTYPE svg PUBLIC "-//W3C//DTD SVG 1.1//EN" "http://www.w3.org/Graphics/SVG/1.1/DTD/svg11.dtd">
<svg width="100%" height="100%" viewBox="0 0 318 197" version="1.1" xmlns="http://www.w3.org/2000/svg" xmlns:xlink="http://www.w3.org/1999/xlink" xml:space="preserve" xmlns:serif="http://www.serif.com/" style="fill-rule:evenodd;clip-rule:evenodd;stroke-linejoin:round;stroke-miterlimit:2;">
    <g transform="matrix(-435.062,-283.097,-283.097,435.062,317.306,214.591)">
        <path d="M0.205,-0.138C0.202,-0.133 0.2,-0.128 0.198,-0.124C0.115,-0.113 0.059,-0.087 0.056,-0.052C0.056,-0.048 0.056,-0.044 0.057,-0.04L0.061,-0.03L0.064,-0.025L0.068,-0.02L0.072,-0.015L0.077,-0.01L0.089,0L0.1,0.007L0.115,0.016L0.132,0.025L0.152,0.033C0.166,0.039 0.181,0.045 0.198,0.05C0.198,0.05 0.198,0.05 0.198,0.05C0.246,0.064 0.305,0.076 0.368,0.082C0.44,0.089 0.507,0.087 0.562,0.08L0.575,0.077L0.588,0.075L0.597,0.073L0.609,0.071L0.617,0.068L0.628,0.065L0.636,0.063L0.645,0.059L0.66,0.053L0.673,0.045L0.683,0.037L0.691,0.029C0.694,0.026 0.695,0.023 0.697,0.02C0.699,0.016 0.7,0.012 0.7,0.008C0.703,-0.025 0.657,-0.059 0.583,-0.085C0.582,-0.09 0.581,-0.095 0.579,-0.1C0.666,-0.071 0.72,-0.03 0.716,0.011C0.716,0.014 0.715,0.018 0.714,0.021L0.714,0.021L0.708,0.032L0.7,0.043L0.695,0.047L0.689,0.052L0.682,0.056L0.667,0.065L0.659,0.068L0.65,0.072L0.641,0.076L0.63,0.079L0.62,0.082L0.61,0.085L0.597,0.088L0.586,0.09L0.572,0.092L0.56,0.094L0.54,0.097L0.54,0.097C0.488,0.102 0.429,0.103 0.367,0.097C0.308,0.091 0.254,0.081 0.207,0.067C0.207,0.067 0.207,0.067 0.207,0.067L0.188,0.062L0.174,0.057L0.163,0.053L0.14,0.044L0.13,0.039L0.12,0.034L0.11,0.029L0.092,0.019L0.084,0.014L0.07,0.003L0.064,-0.002L0.059,-0.008L0.054,-0.014L0.046,-0.025L0.043,-0.031L0.04,-0.042L0.04,-0.042C0.04,-0.046 0.039,-0.049 0.04,-0.053C0.044,-0.095 0.109,-0.125 0.205,-0.138Z" style="fill:rgb(252,239,186);fill-rule:nonzero;"/>
    </g>
</svg>
