<?xml version="1.0" encoding="UTF-8" standalone="no"?>
<!DOCTYPE svg PUBLIC "-//W3C//DTD SVG 1.1//EN" "http://www.w3.org/Graphics/SVG/1.1/DTD/svg11.dtd">
<svg width="100%" height="100%" viewBox="0 0 210 210" version="1.1" xmlns="http://www.w3.org/2000/svg" xmlns:xlink="http://www.w3.org/1999/xlink" xml:space="preserve" xmlns:serif="http://www.serif.com/" style="fill-rule:evenodd;clip-rule:evenodd;stroke-linejoin:round;stroke-miterlimit:2;">
    <g transform="matrix(1,0,0,1,-73.4096,-65.9009)">
        <g transform="matrix(120.371,120.371,120.371,-120.371,114.96,141.75)">
            <path d="M-0.058,-0.287C0.179,-0.531 0.57,-0.537 0.814,-0.3C1.059,-0.063 1.065,0.327 0.827,0.572C0.59,0.816 0.2,0.822 -0.045,0.585C-0.047,0.583 -0.049,0.581 -0.052,0.578C-0.289,0.341 -0.293,-0.045 -0.058,-0.287Z" style="fill:url(#_Radial1);fill-rule:nonzero;"/>
        </g>
        <g transform="matrix(1.70163,0,0,1.70163,270.989,272.197)">
            <path d="M0,-63.902L-45.413,-19.863C-46.822,-18.497 -49.071,-18.532 -50.437,-19.94C-51.802,-21.349 -51.768,-23.598 -50.359,-24.964L-35.322,-39.546C-32.885,-41.909 -32.825,-45.8 -35.188,-48.237C-37.551,-50.674 -41.442,-50.734 -43.879,-48.371L-45.522,-46.777C-49.474,-42.946 -55.782,-43.043 -59.614,-46.994C-63.445,-50.945 -69.754,-51.042 -73.705,-47.211L-79.142,-41.938C-82.189,-38.983 -87.055,-39.058 -90.01,-42.105C-92.965,-45.152 -97.831,-45.227 -100.878,-42.272L-110.227,-33.207C-100.492,-12.604 -79.676,1.795 -55.354,2.169C-52.026,2.22 -48.757,2.003 -45.564,1.545L-38.404,-5.399C-37.815,-5.97 -37.801,-6.91 -38.372,-7.499C-38.943,-8.088 -38.928,-9.028 -38.339,-9.599L7.012,-53.578C7.17,-55.228 7.266,-56.896 7.292,-58.581C7.325,-60.735 7.247,-62.864 7.063,-64.964C4.787,-66.122 1.936,-65.779 0,-63.902" style="fill:rgb(225,190,111);fill-rule:nonzero;"/>
        </g>
        <g transform="matrix(1.70163,0,0,1.70163,203.815,150.833)">
            <path d="M0,-21.248C2.48,-18.691 2.417,-14.608 -0.14,-12.128L-4.906,-7.506C-5.881,-6.561 -5.905,-5.005 -4.96,-4.031C-4.015,-3.056 -2.459,-3.032 -1.485,-3.977L16.914,-21.818C18.613,-23.467 21.327,-23.425 22.975,-21.726C24.623,-20.026 24.582,-17.312 22.882,-15.664C20.68,-13.529 20.626,-10.013 22.761,-7.811C24.291,-6.234 24.252,-3.715 22.675,-2.186L9.412,10.675C6.439,13.558 6.366,18.305 9.25,21.278C12.132,24.251 16.879,24.324 19.853,21.441L45.001,-2.947C40.232,-22.396 26.226,-38.27 7.834,-45.572L0.261,-38.228C-4.5,-33.611 -4.617,-26.009 0,-21.248" style="fill:rgb(225,189,110);fill-rule:nonzero;"/>
        </g>
        <g transform="matrix(1.70163,0,0,1.70163,100.227,147.087)">
            <path d="M0,-27.194C1.52,-25.298 1.376,-22.522 -0.403,-20.797L-9.861,-11.625C-10.178,-11.318 -10.439,-10.975 -10.655,-10.613C-10.831,-10.209 -11.004,-9.803 -11.172,-9.394C-11.607,-7.784 -11.213,-5.994 -9.967,-4.71C-8.087,-2.771 -8.135,0.325 -10.074,2.205L-15.403,7.373C-15.602,9.241 -15.723,11.132 -15.752,13.047C-15.785,15.157 -15.71,17.244 -15.535,19.303L-12.319,16.184C-9.784,13.726 -5.736,13.788 -3.278,16.323L-2.852,16.763C-0.394,19.297 3.654,19.36 6.189,16.901L19.576,3.92C20.525,3 22.04,3.023 22.96,3.972C23.881,4.921 23.857,6.436 22.908,7.356L15.197,14.834C14.223,15.78 14.199,17.335 15.144,18.309C16.088,19.284 17.645,19.308 18.619,18.363L26.042,11.164C27.15,10.09 28.919,10.117 29.994,11.225C31.068,12.333 32.837,12.36 33.945,11.285L52.892,-7.088C57.653,-11.705 57.77,-19.307 53.152,-24.068C50.673,-26.625 50.735,-30.708 53.292,-33.188L58.059,-37.81C59.033,-38.755 59.057,-40.311 58.112,-41.285C57.167,-42.26 55.611,-42.284 54.637,-41.339L36.239,-23.498C34.54,-21.849 31.826,-21.891 30.178,-23.59C28.529,-25.29 28.571,-28.004 30.271,-29.652C32.473,-31.787 32.526,-35.303 30.392,-37.505C28.862,-39.082 28.9,-41.601 30.478,-43.131L34.008,-46.554C20.631,-43.93 8.779,-36.978 0,-27.194" style="fill:rgb(251,240,185);fill-rule:nonzero;"/>
        </g>
        <g transform="matrix(1.70163,0,0,1.70163,179.813,130.075)">
            <path d="M0,30.809C1.22,32.067 3.229,32.098 4.488,30.878L31.702,4.488C32.96,3.267 32.991,1.258 31.771,0C30.55,-1.258 28.541,-1.289 27.283,-0.069L0.069,26.321C-1.189,27.541 -1.22,29.551 0,30.809" style="fill:rgb(250,236,179);fill-rule:nonzero;"/>
        </g>
        <g transform="matrix(1.70163,0,0,1.70163,162.595,68.1614)">
            <path d="M0,14.17C1.22,15.428 3.229,15.459 4.488,14.239L19.647,-0.462C16.95,-0.918 14.19,-1.195 11.383,-1.289L0.069,9.682C-1.189,10.902 -1.22,12.912 0,14.17" style="fill:rgb(204,175,91);fill-rule:nonzero;"/>
        </g>
        <g transform="matrix(1.70163,0,0,1.70163,97.26,206.175)">
            <path d="M0,-12.799C-1.22,-14.057 -3.229,-14.088 -4.488,-12.868L-12.112,-5.474C-11.524,-3.166 -10.808,-0.908 -9.968,1.289L-0.069,-8.311C1.189,-9.531 1.22,-11.541 0,-12.799" style="fill:rgb(237,223,153);fill-rule:nonzero;"/>
        </g>
    </g>
    <defs>
        <radialGradient id="_Radial1" cx="0" cy="0" r="1" gradientUnits="userSpaceOnUse" gradientTransform="matrix(1,0,0,-1,0,0.28495)"><stop offset="0" style="stop-color:rgb(249,234,162);stop-opacity:1"/><stop offset="1" style="stop-color:rgb(244,204,127);stop-opacity:1"/></radialGradient>
    </defs>
</svg>
