<?xml version="1.0" encoding="UTF-8" standalone="no"?>
<!DOCTYPE svg PUBLIC "-//W3C//DTD SVG 1.1//EN" "http://www.w3.org/Graphics/SVG/1.1/DTD/svg11.dtd">
<svg width="100%" height="100%" viewBox="0 0 210 210" version="1.1" xmlns="http://www.w3.org/2000/svg" xmlns:xlink="http://www.w3.org/1999/xlink" xml:space="preserve" xmlns:serif="http://www.serif.com/" style="fill-rule:evenodd;clip-rule:evenodd;stroke-linejoin:round;stroke-miterlimit:2;">
    <g transform="matrix(1,0,0,1,-180.933,13.5895)">
        <g transform="matrix(-7.86398e-14,157.421,157.421,7.86398e-14,279.039,15.2572)">
            <ellipse cx="0.484" cy="0.044" rx="0.667" ry="0.667" style="fill:url(#_Radial1);"/>
        </g>
        <g transform="matrix(3.68919,0,0,3.68919,378.386,192.505)">
            <path d="M0,-29.805L-20.632,-9.172C-21.272,-8.533 -22.31,-8.533 -22.949,-9.172C-23.589,-9.813 -23.589,-10.85 -22.949,-11.49L-16.117,-18.322C-15.01,-19.429 -15.01,-21.224 -16.117,-22.331C-17.225,-23.438 -19.02,-23.438 -20.126,-22.331L-20.873,-21.584C-22.668,-19.789 -25.578,-19.789 -27.374,-21.584C-29.168,-23.379 -32.079,-23.379 -33.874,-21.584L-36.344,-19.115C-37.728,-17.73 -39.973,-17.73 -41.357,-19.115C-42.742,-20.499 -44.986,-20.499 -46.371,-19.115L-50.618,-14.867C-45.982,-5.435 -36.28,1.058 -25.061,1.058C-23.525,1.058 -22.02,0.935 -20.55,0.702L-17.297,-2.552C-17.029,-2.819 -17.029,-3.253 -17.297,-3.52C-17.564,-3.787 -17.564,-4.222 -17.297,-4.489L3.307,-25.093C3.368,-25.855 3.401,-26.625 3.401,-27.403C3.401,-28.396 3.35,-29.377 3.25,-30.344C2.192,-30.863 0.879,-30.684 0,-29.805" style="fill:rgb(219,89,189);fill-rule:nonzero;"/>
        </g>
        <g transform="matrix(3.68919,0,0,3.68919,310.473,70.3105)">
            <path d="M0,-9.624C1.162,-8.463 1.162,-6.579 0,-5.417L-2.166,-3.252C-2.608,-2.809 -2.608,-2.091 -2.166,-1.648C-1.723,-1.206 -1.005,-1.206 -0.562,-1.648L7.796,-10.007C8.568,-10.779 9.82,-10.779 10.592,-10.007C11.364,-9.235 11.364,-7.983 10.592,-7.211C9.592,-6.211 9.592,-4.589 10.592,-3.589C11.309,-2.872 11.309,-1.71 10.592,-0.993L4.567,5.032C3.216,6.383 3.216,8.572 4.567,9.923C5.917,11.273 8.107,11.273 9.458,9.923L20.884,-1.503C18.546,-10.438 11.974,-17.66 3.44,-20.897L0,-17.457C-2.163,-15.294 -2.163,-11.787 0,-9.624" style="fill:rgb(235,128,235);fill-rule:nonzero;"/>
        </g>
        <g transform="matrix(3.68919,0,0,3.68919,206.684,68.2217)">
            <path d="M0,-12.384C0.714,-11.521 0.668,-10.239 -0.141,-9.431L-4.437,-5.134C-4.582,-4.99 -4.699,-4.83 -4.796,-4.662C-4.875,-4.474 -4.952,-4.285 -5.026,-4.096C-5.215,-3.351 -5.021,-2.528 -4.437,-1.945C-3.557,-1.064 -3.557,0.365 -4.437,1.246L-6.858,3.667C-6.937,4.529 -6.979,5.403 -6.979,6.286C-6.979,7.26 -6.931,8.221 -6.835,9.17L-5.374,7.709C-4.222,6.557 -2.355,6.557 -1.203,7.709L-1.004,7.908C0.148,9.06 2.015,9.06 3.167,7.908L9.249,1.827C9.68,1.395 10.379,1.395 10.81,1.827C11.241,2.258 11.241,2.957 10.81,3.387L7.307,6.891C6.864,7.334 6.864,8.052 7.307,8.494C7.749,8.937 8.467,8.937 8.91,8.494L12.282,5.122C12.786,4.618 13.602,4.618 14.105,5.122C14.608,5.625 15.424,5.625 15.928,5.122L24.536,-3.487C26.699,-5.65 26.699,-9.156 24.536,-11.32C23.374,-12.481 23.374,-14.364 24.536,-15.527L26.701,-17.692C27.144,-18.134 27.144,-18.852 26.701,-19.295C26.258,-19.738 25.541,-19.738 25.098,-19.295L16.739,-10.936C15.967,-10.164 14.715,-10.164 13.943,-10.936C13.171,-11.708 13.171,-12.96 13.943,-13.733C14.943,-14.733 14.943,-16.355 13.943,-17.355C13.227,-18.071 13.227,-19.234 13.943,-19.949L15.547,-21.554C9.396,-20.249 3.979,-16.959 0,-12.384" style="fill:rgb(164,49,113);fill-rule:nonzero;"/>
        </g>
        <g transform="matrix(3.68919,0,0,3.68919,287.514,49.7374)">
            <path d="M0,14.435C0.572,15.006 1.499,15.006 2.07,14.435L14.434,2.071C15.006,1.499 15.006,0.573 14.434,0C13.862,-0.571 12.936,-0.571 12.364,0L0,12.365C-0.572,12.936 -0.571,13.863 0,14.435" style="fill:rgb(157,34,118);fill-rule:nonzero;"/>
        </g>
        <g transform="matrix(3.68919,0,0,3.68919,268.913,-11.4544)">
            <path d="M0,6.639C0.571,7.21 1.499,7.21 2.07,6.639L8.958,-0.249C7.71,-0.439 6.435,-0.548 5.14,-0.571L0,4.569C-0.572,5.141 -0.572,6.068 0,6.639" style="fill:rgb(233,133,214);fill-rule:nonzero;"/>
        </g>
        <g transform="matrix(3.68919,0,0,3.68919,205.001,128.271)">
            <path d="M0,-5.995C-0.571,-6.567 -1.499,-6.567 -2.07,-5.995L-5.534,-2.531C-5.247,-1.472 -4.9,-0.435 -4.498,0.572L0,-3.926C0.572,-4.497 0.572,-5.424 0,-5.995" style="fill:rgb(238,119,227);fill-rule:nonzero;"/>
        </g>
    </g>
    <defs>
        <radialGradient id="_Radial1" cx="0" cy="0" r="1" gradientUnits="userSpaceOnUse" gradientTransform="matrix(0.707107,0.707107,0.707107,-0.707107,0.110724,-0.267312)"><stop offset="0" style="stop-color:rgb(219,102,136);stop-opacity:1"/><stop offset="1" style="stop-color:rgb(201,41,151);stop-opacity:1"/></radialGradient>
    </defs>
</svg>
